<svg width="76" height="91" viewBox="0 0 76 91" fill="none" xmlns="http://www.w3.org/2000/svg">
<g clip-path="url(#clip0_12_2555)">
<path d="M76 55.694C76 57.92 75.7948 60.0659 75.3936 62.1438C74.1916 68.3337 71.273 73.8239 67.1295 78.2639C67.1213 78.279 67.1136 78.2901 67.1065 78.2971C60.1929 85.6628 49.8799 90.1359 38.3542 90.1359C17.569 90.1344 0.709961 75.5966 0.709961 55.694C0.709961 50.3503 1.92271 45.1669 4.10934 40.4338C6.28371 35.7007 9.43196 31.4315 13.2892 27.9179C15.9673 25.5227 17.5476 23.3208 18.2902 21.3215C18.7588 20.0899 18.9089 18.9262 18.8277 17.8427C18.1877 10.001 4.9454 6.05827 4.9454 6.05827C4.9454 6.05827 4.95612 6.05827 4.97909 6.0356C5.13987 5.89959 5.86109 5.34649 7.06159 4.70271C8.60662 3.88968 10.9188 2.95122 13.8603 2.6248C14.0548 2.60213 14.2386 2.57946 14.4208 2.56888C19.4448 2.1397 19.8123 3.84586 24.2637 3.99244C28.4761 4.11636 30.2156 0.998737 36.8077 0.456212C37.1277 0.400297 37.4829 0.36554 37.8841 0.36554C38.0449 0.36554 38.1934 0.376118 38.3542 0.376118C38.515 0.376118 38.6635 0.36554 38.8228 0.36554C39.224 0.36554 39.5777 0.398786 39.8992 0.456212C46.4913 0.998737 48.2323 4.11636 52.4432 3.99244C57.0554 3.84586 57.2851 2.01578 62.8481 2.6248C68.2044 3.21266 71.5119 5.84368 71.7523 6.04769L71.763 6.05827C71.763 6.05827 61.0274 9.25448 58.4289 15.6152H58.4167C58.1303 16.3148 57.9481 17.0614 57.8792 17.8397C57.7996 18.9247 57.9481 20.0883 58.4059 21.3185C59.1608 23.3178 60.7288 25.5211 63.4193 27.9149C71.1337 34.9405 75.9985 45.0052 75.9985 55.6909L76 55.694Z" fill="url(#paint0_linear_12_2555)"/>
<g style="mix-blend-mode:multiply" opacity="0.3">
<path d="M75.3936 62.1438C72.1887 78.6583 56.8165 90.136 38.3557 90.136C17.569 90.1344 0.709961 75.5966 0.709961 55.694C0.709961 50.3503 1.92271 45.1669 4.10934 40.4338C6.28371 35.7007 9.43196 31.4315 13.2892 27.9179C29.5526 13.4013 4.9454 6.05829 4.9454 6.05829C4.9454 6.05829 8.29884 3.23384 13.8619 2.62482C14.0563 2.60216 14.2401 2.57949 14.4223 2.56891C17.8217 8.72558 25.1579 13.7186 35.7909 14.2596C50.0637 14.9941 58.0415 15.5804 58.4197 15.6152C57.7781 15.6938 33.1939 18.8235 19.5152 31.7126C5.65437 44.7589 17.7405 80.5337 46.7332 81.5387C60.5252 82.0132 69.6591 72.4911 75.3936 62.1438Z" fill="url(#paint1_linear_12_2555)"/>
</g>
<path opacity="0.3" d="M67.1065 78.2971C60.1929 85.6627 49.8799 90.1359 38.3542 90.1359C17.569 90.1344 0.709961 75.5966 0.709961 55.6939C0.709961 50.3503 1.92271 45.1669 4.10934 40.4337C6.28371 35.7006 9.43196 31.4315 13.2892 27.9179C29.5526 13.4012 4.9454 6.05825 4.9454 6.05825C4.9454 6.05825 5.68959 5.43715 7.06312 4.7027C11.1715 6.43152 20.8091 11.0165 22.0005 16.5188C23.5225 23.5566 10.9433 29.5198 6.23931 39.5844C1.52306 49.6612 -3.37541 79.2779 34.6256 87.8177C47.6045 90.7313 58.4549 85.9091 67.1096 78.2956L67.1065 78.2971Z" fill="#19236E"/>
<path d="M71.7539 6.04773C71.3757 5.84372 62.8267 1.31462 57.1381 5.04278C51.3239 8.84952 42.5346 2.5387 39.0081 2.44803C35.4832 2.35736 34.3837 4.0484 27.3675 5.28004C20.3621 6.49959 20.9807 3.4953 16.2767 3.43939C11.7442 3.39405 5.45994 5.85732 4.97913 6.03716C5.13991 5.90115 5.86113 5.34804 7.06163 4.70427C8.60666 3.89124 10.9188 2.95278 13.8604 2.62635C14.0548 2.60369 14.2386 2.58102 14.4208 2.57044C19.4448 2.14126 19.8123 3.84741 24.2637 3.994C28.4762 4.11792 30.2157 1.00029 36.8077 0.457769C37.1277 0.401854 37.483 0.367096 37.8842 0.367096C38.0449 0.367096 38.1935 0.377674 38.3543 0.377674C38.515 0.377674 38.6636 0.367096 38.8228 0.367096C39.224 0.367096 39.5777 0.400343 39.8993 0.457769C46.4913 1.00029 48.2323 4.11792 52.4433 3.994C57.0554 3.84741 57.2851 2.01734 62.8481 2.62635C68.2044 3.21422 71.5119 5.84523 71.7523 6.04925L71.7539 6.04773Z" fill="url(#paint2_linear_12_2555)"/>
<path d="M18.2903 21.32C18.7588 20.0884 18.9089 18.9247 18.8278 17.8412H57.8808C57.8011 18.9262 57.9497 20.0899 58.4075 21.32H18.2903Z" fill="white"/>
<path d="M38.051 22.5168C40.3217 22.5168 42.1624 21.1048 42.1624 19.3629C42.1624 17.6211 40.3217 16.209 38.051 16.209C35.7803 16.209 33.9396 17.6211 33.9396 19.3629C33.9396 21.1048 35.7803 22.5168 38.051 22.5168Z" fill="white"/>
<g style="mix-blend-mode:multiply" opacity="0.3">
<path d="M36.702 21.0933C32.364 25.5831 32.1389 33.251 32.2323 33.6893C32.3257 34.1275 35.624 33.7618 35.624 33.7618C35.624 33.7618 35.3698 29.9792 36.3988 26.4415C37.4278 22.9038 38.6038 21.1054 38.6038 21.1054L36.702 21.0933Z" fill="url(#paint3_linear_12_2555)"/>
</g>
<path d="M37.5671 20.1201C32.6564 23.9933 31.3901 31.5629 31.4222 32.0087C31.4559 32.4545 34.7741 32.5301 34.7741 32.5301C34.7741 32.5301 35.0375 28.7476 36.5381 25.3791C38.0388 22.0091 39.449 20.3845 39.449 20.3845L37.5656 20.1201H37.5671Z" fill="white"/>
<g style="mix-blend-mode:multiply" opacity="0.3">
<path d="M40.8441 21.0782C45.2189 25.5332 45.5067 33.1996 45.4164 33.6378C45.326 34.0761 42.0247 33.7361 42.0247 33.7361C42.0247 33.7361 42.2467 29.952 41.1901 26.4218C40.1336 22.8931 38.9423 21.1039 38.9423 21.1039L40.8441 21.0767V21.0782Z" fill="url(#paint4_linear_12_2555)"/>
</g>
<path d="M40.0324 20.1201C44.9431 23.9933 46.2095 31.5629 46.1773 32.0087C46.1436 32.4545 42.8254 32.5301 42.8254 32.5301C42.8254 32.5301 42.562 28.7476 41.0614 25.3791C39.5608 22.0091 38.1505 20.3845 38.1505 20.3845L40.034 20.1201H40.0324Z" fill="white"/>
<path d="M34.4618 20.4057C33.3915 20.4057 32.1052 20.2682 30.5602 19.9236C25.5362 18.8008 22.6896 15.1407 22.561 12.2648C22.5012 10.944 23.0831 9.96024 24.1136 9.63382C27.3783 8.59864 35.2474 9.92397 39.5088 17.7656L39.6359 17.9984L39.5349 18.2432C39.4905 18.352 38.5885 20.4057 34.4603 20.4057H34.4618ZM26.3676 10.471C25.5699 10.471 24.9145 10.5662 24.4658 10.7083C23.7569 10.9335 23.6864 11.748 23.7063 12.2135C23.7997 14.3186 26.0675 17.7596 30.8144 18.8205C36.1355 20.0098 37.8857 18.5681 38.3435 18.0105C34.9227 11.9732 29.5358 10.471 26.3692 10.471H26.3676Z" fill="white"/>
<path d="M42.7841 20.4057C38.6544 20.4057 37.754 18.3535 37.7096 18.2432L37.6085 17.9983L37.7356 17.7656C41.9971 9.92244 49.8677 8.60164 53.1308 9.6338C54.1613 9.96022 54.7432 10.944 54.6835 12.2648C54.5549 15.1406 51.7083 18.8008 46.6858 19.9236C45.1407 20.2682 43.8545 20.4057 42.7841 20.4057ZM38.904 18.0104C39.3603 18.5681 41.1105 20.0098 46.4331 18.8204C51.1785 17.7611 53.4462 14.3186 53.5396 12.2134C53.5611 11.748 53.4891 10.9319 52.7801 10.7083C50.5491 10.001 43.1853 10.4529 38.9024 18.0104H38.904Z" fill="white"/>
<path d="M48.1281 57.2903L47.1202 58.4378L38.3555 68.4162L28.5829 57.2903C26.1682 54.5412 26.1682 50.0709 28.5829 47.3119C29.7924 45.9398 31.3744 45.2513 32.9652 45.2513C34.556 45.2513 36.138 45.9398 37.3475 47.3119L38.3555 48.4594L39.3634 47.3119C41.7781 44.5628 45.7047 44.5628 48.1237 47.3119C50.5428 50.0709 50.5428 54.5412 48.1237 57.2903H48.1281Z" fill="white"/>
</g>
<defs>
<linearGradient id="paint0_linear_12_2555" x1="76" y1="49.5255" x2="0.706282" y2="48.8988" gradientUnits="userSpaceOnUse">
<stop stop-color="#6433F0"/>
<stop offset="1" stop-color="#7151CB"/>
</linearGradient>
<linearGradient id="paint1_linear_12_2555" x1="75.3936" y1="50.5223" x2="0.706488" y2="49.8901" gradientUnits="userSpaceOnUse">
<stop stop-color="#6433F0"/>
<stop offset="1" stop-color="#7151CB"/>
</linearGradient>
<linearGradient id="paint2_linear_12_2555" x1="4.97913" y1="3.31484" x2="71.7539" y2="3.31484" gradientUnits="userSpaceOnUse">
<stop stop-color="#6433F0"/>
<stop offset="0.85" stop-color="#23154E"/>
</linearGradient>
<linearGradient id="paint3_linear_12_2555" x1="38.6038" y1="28.1091" x2="32.2169" y2="28.0775" gradientUnits="userSpaceOnUse">
<stop stop-color="#6433F0"/>
<stop offset="1" stop-color="#7151CB"/>
</linearGradient>
<linearGradient id="paint4_linear_12_2555" x1="45.4289" y1="28.078" x2="38.9417" y2="28.0454" gradientUnits="userSpaceOnUse">
<stop stop-color="#6433F0"/>
<stop offset="1" stop-color="#7151CB"/>
</linearGradient>
<clipPath id="clip0_12_2555">
<rect width="75.29" height="89.7689" fill="white" transform="translate(0.709961 0.36554)"/>
</clipPath>
</defs>
</svg>
