<svg width="19" height="20" viewBox="0 0 19 20" fill="none" xmlns="http://www.w3.org/2000/svg">
<path d="M18.0932 6.82173C17.9932 6.87744 15.6116 8.0531 15.6116 10.6598C15.7239 13.6326 18.617 14.6752 18.6666 14.6752C18.617 14.7309 18.2299 16.0954 17.083 17.5257C16.1729 18.7578 15.1626 20 13.6286 20C12.1694 20 11.6456 19.1788 9.96195 19.1788C8.15383 19.1788 7.64222 20 6.25786 20C4.72384 20 3.63881 18.6912 2.67903 17.4707C1.43213 15.8732 0.372308 13.3664 0.334893 10.9593C0.309678 9.68384 0.584597 8.43004 1.28247 7.36507C2.26746 5.87831 4.02597 4.86905 5.94634 4.83577C7.41773 4.79164 8.72725 5.73434 9.62522 5.73434C10.4858 5.73434 12.0946 4.83577 13.9149 4.83577C14.7006 4.83649 16.7959 5.04703 18.0932 6.82173ZM9.50077 4.5811C9.23887 3.41629 9.96195 2.25148 10.6354 1.50846C11.496 0.609897 12.8551 0 14.0272 0C14.102 1.16481 13.6278 2.30719 12.7803 3.1392C12.0198 4.03777 10.7103 4.71422 9.50077 4.5811Z" fill="white"/>
</svg>
