<svg width="360" height="165" viewBox="0 0 360 165" fill="none" xmlns="http://www.w3.org/2000/svg">
<rect width="360" height="165" fill="#A0ACFF"/>
<g clip-path="url(#clip0_2_3873)">
<path d="M295.971 39.6825L264.406 66.9499H332.175L300.61 39.6825C299.277 38.5318 297.303 38.5318 295.971 39.6825Z" fill="#7364FF"/>
<path d="M264.406 66.9509H332.263V106.033C332.263 107.503 331.071 108.694 329.602 108.694H267.067C265.597 108.694 264.406 107.503 264.406 106.033V66.9509Z" fill="#5041DE"/>
<rect x="273" y="51" width="51" height="38" rx="3" fill="white"/>
<path d="M332.433 108.157V66.9512L269.588 106.657C268.085 107.607 268.758 109.931 270.536 109.931H330.659C331.639 109.931 332.433 109.137 332.433 108.157Z" fill="#7364FF"/>
<path d="M264.406 108.157V66.9514L329.842 108.294C330.593 108.769 330.257 109.931 329.368 109.931H266.18C265.2 109.931 264.406 109.137 264.406 108.157Z" fill="#968BFF"/>
<path fill-rule="evenodd" clip-rule="evenodd" d="M340.367 46H338.743V49.2308H340.367V46ZM340.367 63.7692H338.743V67H340.367V63.7692ZM350.111 55.6922V57.3076L346.864 57.3076V55.6922H350.111ZM332.248 57.3076V55.6922H329V57.3076L332.248 57.3076ZM347.594 63.3539L346.446 64.4962L344.149 62.2117L345.298 61.0694L347.594 63.3539ZM333.814 51.9314L334.962 50.7892L332.666 48.5047L331.517 49.6469L333.814 51.9314ZM331.517 63.3537L332.666 64.4959L334.962 62.2114L333.814 61.0692L331.517 63.3537ZM345.298 51.9312L344.149 50.7889L346.446 48.5044L347.594 49.6467L345.298 51.9312Z" fill="#F554FF"/>
<path fill-rule="evenodd" clip-rule="evenodd" d="M257.744 101H256.352V103.769H257.744V101ZM257.744 116.231H256.352V119H257.744V116.231ZM266.096 109.308V110.692L263.312 110.692V109.308H266.096ZM250.784 110.692V109.308H248V110.692L250.784 110.692ZM263.937 115.875L262.953 116.854L260.984 114.896L261.969 113.917L263.937 115.875ZM252.126 106.084L253.111 105.105L251.142 103.147L250.158 104.126L252.126 106.084ZM250.159 115.875L251.143 116.854L253.112 114.896L252.128 113.917L250.159 115.875ZM261.97 106.084L260.986 105.105L262.954 103.147L263.938 104.126L261.97 106.084Z" fill="#F554FF"/>
<ellipse cx="336.791" cy="73.75" rx="1.75926" ry="1.75" fill="#18C48E"/>
<ellipse cx="270.759" cy="47.75" rx="1.75926" ry="1.75" fill="#ECA817"/>
<path d="M315 43.411C318.519 36.5 322.54 33.5 329.282 32" stroke="#18C48E" stroke-width="2"/>
<path d="M285.134 43.4295C285.462 38.0707 284.451 34.0378 281.287 30" stroke="#7364FF" stroke-width="2"/>
<path d="M265.615 56.2441C260.251 56.0344 256.339 54.6244 252.638 51.0723" stroke="#7364FF" stroke-width="2"/>
<mask id="path-13-inside-1_2_3873" fill="white">
<path d="M279.941 63.1836C279.941 63.6263 280.067 64.0592 280.317 64.4824C280.571 64.9056 280.938 65.2734 281.416 65.5859C281.898 65.8984 282.461 66.11 283.105 66.2207L282.559 67.2559C281.797 67.1061 281.133 66.8278 280.566 66.4209C280.003 66.014 279.575 65.5192 279.282 64.9365C278.983 65.516 278.55 66.0091 277.983 66.416C277.42 66.8229 276.761 67.1029 276.006 67.2559L275.469 66.2207C276.104 66.1068 276.659 65.8936 277.134 65.5811C277.609 65.2686 277.974 64.9007 278.228 64.4775C278.481 64.0511 278.61 63.6198 278.613 63.1836V62.5391H279.941V63.1836ZM283.398 69.8047H275.264V68.7793H283.398V69.8047ZM291.343 66.8457H290.161V64.9805H289.351V66.7578H288.189V62.1777H289.351V63.9941H290.161V62.0215H291.343V66.8457ZM286.499 68.0566H290.113V67.207H291.343V70.8008H285.269V67.207H286.499V68.0566ZM290.113 69.7949V69.0039H286.499V69.7949H290.113ZM285.308 65.3857C285.731 65.376 286.13 65.3548 286.504 65.3223C286.882 65.2865 287.267 65.2344 287.661 65.166L287.788 66.1621C287.293 66.2565 286.813 66.3184 286.348 66.3477C285.882 66.3737 285.327 66.3867 284.683 66.3867H284.058V62.5684H285.308V65.3857ZM297.496 63.4082C297.496 63.776 297.569 64.1276 297.715 64.4629C297.862 64.7949 298.087 65.0928 298.389 65.3564C298.695 65.6169 299.074 65.8171 299.527 65.957L298.863 66.9238C298.401 66.7708 298.004 66.5495 297.671 66.2598C297.339 65.9701 297.076 65.6266 296.88 65.2295C296.682 65.6885 296.407 66.0856 296.055 66.4209C295.707 66.7529 295.285 67.002 294.791 67.168L294.117 66.1914C294.595 66.0319 294.992 65.804 295.308 65.5078C295.624 65.2116 295.858 64.8747 296.011 64.4971C296.164 64.1162 296.242 63.7142 296.246 63.291V62.4805H297.496V63.4082ZM301.304 64.0918H302.505V65.127H301.304V67.2852H300.054V62.0117H301.304V64.0918ZM298.394 67.4609C299.006 67.4609 299.537 67.5293 299.986 67.666C300.435 67.8027 300.782 67.9997 301.026 68.2568C301.27 68.514 301.392 68.8216 301.392 69.1797C301.392 69.541 301.27 69.8503 301.026 70.1074C300.785 70.3646 300.438 70.5599 299.986 70.6934C299.537 70.8301 299.006 70.8984 298.394 70.8984C297.769 70.8984 297.227 70.8301 296.768 70.6934C296.312 70.5599 295.961 70.3646 295.713 70.1074C295.469 69.8503 295.347 69.541 295.347 69.1797C295.347 68.8216 295.469 68.514 295.713 68.2568C295.961 67.9997 296.314 67.8027 296.773 67.666C297.232 67.5293 297.772 67.4609 298.394 67.4609ZM298.394 68.4375C297.805 68.4375 297.357 68.501 297.051 68.6279C296.745 68.7516 296.594 68.9355 296.597 69.1797C296.587 69.6745 297.186 69.9219 298.394 69.9219C299.573 69.9219 300.162 69.6745 300.162 69.1797C300.162 68.9355 300.01 68.7516 299.708 68.6279C299.408 68.501 298.97 68.4375 298.394 68.4375ZM310.802 67.1582H307.364V67.9199H309.835V70.8008H303.634V67.9199H306.124V67.1582H302.696V66.1719H310.802V67.1582ZM310.079 63.252H308.917V64.6094H310.02V65.6055H303.468V64.6094H304.561V63.252H303.409V62.2559H310.079V63.252ZM304.864 69.8047H308.614V68.8867H304.864V69.8047ZM307.667 64.6094V63.252H305.811V64.6094H307.667ZM318.736 68.7109H317.477V67.7246H315.738V66.748H317.477V62.0215H318.736V68.7109ZM318.941 70.7422H312.311V68.0273H313.453V66.3184C312.844 66.3444 312.105 66.3607 311.236 66.3672L311.08 65.3809C312.545 65.3743 313.764 65.3418 314.737 65.2832C314.832 64.6289 314.889 64.0137 314.908 63.4375H311.891V62.4512H316.158V62.7832C316.158 63.1478 316.147 63.5173 316.124 63.8916C316.104 64.2627 316.057 64.694 315.982 65.1855C316.367 65.1465 316.653 65.1139 316.842 65.0879L316.92 65.9668C316.243 66.0872 315.497 66.18 314.684 66.2451V68.1543H313.561V69.7461H318.941V70.7422Z"/>
</mask>
<path d="M279.941 63.1836C279.941 63.6263 280.067 64.0592 280.317 64.4824C280.571 64.9056 280.938 65.2734 281.416 65.5859C281.898 65.8984 282.461 66.11 283.105 66.2207L282.559 67.2559C281.797 67.1061 281.133 66.8278 280.566 66.4209C280.003 66.014 279.575 65.5192 279.282 64.9365C278.983 65.516 278.55 66.0091 277.983 66.416C277.42 66.8229 276.761 67.1029 276.006 67.2559L275.469 66.2207C276.104 66.1068 276.659 65.8936 277.134 65.5811C277.609 65.2686 277.974 64.9007 278.228 64.4775C278.481 64.0511 278.61 63.6198 278.613 63.1836V62.5391H279.941V63.1836ZM283.398 69.8047H275.264V68.7793H283.398V69.8047ZM291.343 66.8457H290.161V64.9805H289.351V66.7578H288.189V62.1777H289.351V63.9941H290.161V62.0215H291.343V66.8457ZM286.499 68.0566H290.113V67.207H291.343V70.8008H285.269V67.207H286.499V68.0566ZM290.113 69.7949V69.0039H286.499V69.7949H290.113ZM285.308 65.3857C285.731 65.376 286.13 65.3548 286.504 65.3223C286.882 65.2865 287.267 65.2344 287.661 65.166L287.788 66.1621C287.293 66.2565 286.813 66.3184 286.348 66.3477C285.882 66.3737 285.327 66.3867 284.683 66.3867H284.058V62.5684H285.308V65.3857ZM297.496 63.4082C297.496 63.776 297.569 64.1276 297.715 64.4629C297.862 64.7949 298.087 65.0928 298.389 65.3564C298.695 65.6169 299.074 65.8171 299.527 65.957L298.863 66.9238C298.401 66.7708 298.004 66.5495 297.671 66.2598C297.339 65.9701 297.076 65.6266 296.88 65.2295C296.682 65.6885 296.407 66.0856 296.055 66.4209C295.707 66.7529 295.285 67.002 294.791 67.168L294.117 66.1914C294.595 66.0319 294.992 65.804 295.308 65.5078C295.624 65.2116 295.858 64.8747 296.011 64.4971C296.164 64.1162 296.242 63.7142 296.246 63.291V62.4805H297.496V63.4082ZM301.304 64.0918H302.505V65.127H301.304V67.2852H300.054V62.0117H301.304V64.0918ZM298.394 67.4609C299.006 67.4609 299.537 67.5293 299.986 67.666C300.435 67.8027 300.782 67.9997 301.026 68.2568C301.27 68.514 301.392 68.8216 301.392 69.1797C301.392 69.541 301.27 69.8503 301.026 70.1074C300.785 70.3646 300.438 70.5599 299.986 70.6934C299.537 70.8301 299.006 70.8984 298.394 70.8984C297.769 70.8984 297.227 70.8301 296.768 70.6934C296.312 70.5599 295.961 70.3646 295.713 70.1074C295.469 69.8503 295.347 69.541 295.347 69.1797C295.347 68.8216 295.469 68.514 295.713 68.2568C295.961 67.9997 296.314 67.8027 296.773 67.666C297.232 67.5293 297.772 67.4609 298.394 67.4609ZM298.394 68.4375C297.805 68.4375 297.357 68.501 297.051 68.6279C296.745 68.7516 296.594 68.9355 296.597 69.1797C296.587 69.6745 297.186 69.9219 298.394 69.9219C299.573 69.9219 300.162 69.6745 300.162 69.1797C300.162 68.9355 300.01 68.7516 299.708 68.6279C299.408 68.501 298.97 68.4375 298.394 68.4375ZM310.802 67.1582H307.364V67.9199H309.835V70.8008H303.634V67.9199H306.124V67.1582H302.696V66.1719H310.802V67.1582ZM310.079 63.252H308.917V64.6094H310.02V65.6055H303.468V64.6094H304.561V63.252H303.409V62.2559H310.079V63.252ZM304.864 69.8047H308.614V68.8867H304.864V69.8047ZM307.667 64.6094V63.252H305.811V64.6094H307.667ZM318.736 68.7109H317.477V67.7246H315.738V66.748H317.477V62.0215H318.736V68.7109ZM318.941 70.7422H312.311V68.0273H313.453V66.3184C312.844 66.3444 312.105 66.3607 311.236 66.3672L311.08 65.3809C312.545 65.3743 313.764 65.3418 314.737 65.2832C314.832 64.6289 314.889 64.0137 314.908 63.4375H311.891V62.4512H316.158V62.7832C316.158 63.1478 316.147 63.5173 316.124 63.8916C316.104 64.2627 316.057 64.694 315.982 65.1855C316.367 65.1465 316.653 65.1139 316.842 65.0879L316.92 65.9668C316.243 66.0872 315.497 66.18 314.684 66.2451V68.1543H313.561V69.7461H318.941V70.7422Z" fill="#7364FF"/>
<path d="M280.317 64.4824L279.457 64.9921L279.46 64.9969L280.317 64.4824ZM281.416 65.5859L280.869 66.4232L280.872 66.4249L281.416 65.5859ZM283.105 66.2207L283.99 66.6878L284.634 65.4685L283.275 65.2351L283.105 66.2207ZM282.559 67.2559L282.366 68.2371L283.095 68.3805L283.443 67.723L282.559 67.2559ZM280.566 66.4209L279.981 67.2315L279.983 67.2331L280.566 66.4209ZM279.282 64.9365L280.176 64.4873L279.295 62.7348L278.394 64.4774L279.282 64.9365ZM277.983 66.416L277.4 65.6039L277.398 65.6055L277.983 66.416ZM276.006 67.2559L275.118 67.7164L275.465 68.3856L276.204 68.2359L276.006 67.2559ZM275.469 66.2207L275.292 65.2364L273.956 65.4763L274.581 66.6813L275.469 66.2207ZM277.134 65.5811L276.584 64.7455L277.134 65.5811ZM278.228 64.4775L279.085 64.992L279.087 64.9891L278.228 64.4775ZM278.613 63.1836L279.613 63.1911V63.1836H278.613ZM278.613 62.5391V61.5391H277.613V62.5391H278.613ZM279.941 62.5391H280.941V61.5391H279.941V62.5391ZM283.398 69.8047V70.8047H284.398V69.8047H283.398ZM275.264 69.8047H274.264V70.8047H275.264V69.8047ZM275.264 68.7793V67.7793H274.264V68.7793H275.264ZM283.398 68.7793H284.398V67.7793H283.398V68.7793ZM278.941 63.1836C278.941 63.825 279.125 64.4322 279.457 64.992L281.178 63.9728C281.008 63.6863 280.941 63.4276 280.941 63.1836H278.941ZM279.46 64.9969C279.803 65.5688 280.284 66.0411 280.869 66.4232L281.963 64.7487C281.591 64.5058 281.34 64.2424 281.175 63.9679L279.46 64.9969ZM280.872 66.4249C281.482 66.8207 282.177 67.0758 282.936 67.2063L283.275 65.2351C282.745 65.1442 282.313 64.9761 281.96 64.747L280.872 66.4249ZM282.221 65.7536L281.674 66.7887L283.443 67.723L283.99 66.6878L282.221 65.7536ZM282.751 66.2746C282.115 66.1494 281.587 65.9229 281.15 65.6087L279.983 67.2331C280.678 67.7327 281.479 68.0628 282.366 68.2371L282.751 66.2746ZM281.152 65.6103C280.71 65.2911 280.392 64.9173 280.176 64.4873L278.389 65.3857C278.759 66.1211 279.296 66.7369 279.981 67.2315L281.152 65.6103ZM278.394 64.4774C278.172 64.9071 277.847 65.2824 277.4 65.6039L278.567 67.2282C279.252 66.7358 279.794 66.1248 280.171 65.3957L278.394 64.4774ZM277.398 65.6055C276.962 65.9202 276.438 66.148 275.807 66.2758L276.204 68.2359C277.084 68.0578 277.878 67.7256 278.569 67.2266L277.398 65.6055ZM276.893 66.7953L276.356 65.7601L274.581 66.6813L275.118 67.7164L276.893 66.7953ZM275.645 67.205C276.395 67.0704 277.081 66.8127 277.683 66.4166L276.584 64.7455C276.236 64.9744 275.812 65.1432 275.292 65.2364L275.645 67.205ZM277.683 66.4166C278.265 66.0342 278.743 65.5623 279.085 64.992L277.37 63.963C277.204 64.2391 276.953 64.5029 276.584 64.7455L277.683 66.4166ZM279.087 64.9891C279.419 64.4315 279.608 63.8282 279.613 63.1911L277.613 63.1761C277.612 63.4114 277.544 63.6707 277.368 63.9659L279.087 64.9891ZM279.613 63.1836V62.5391H277.613V63.1836H279.613ZM278.613 63.5391H279.941V61.5391H278.613V63.5391ZM278.941 62.5391V63.1836H280.941V62.5391H278.941ZM283.398 68.8047H275.264V70.8047H283.398V68.8047ZM276.264 69.8047V68.7793H274.264V69.8047H276.264ZM275.264 69.7793H283.398V67.7793H275.264V69.7793ZM282.398 68.7793V69.8047H284.398V68.7793H282.398ZM291.343 66.8457V67.8457H292.343V66.8457H291.343ZM290.161 66.8457H289.161V67.8457H290.161V66.8457ZM290.161 64.9805H291.161V63.9805H290.161V64.9805ZM289.351 64.9805V63.9805H288.351V64.9805H289.351ZM289.351 66.7578V67.7578H290.351V66.7578H289.351ZM288.189 66.7578H287.189V67.7578H288.189V66.7578ZM288.189 62.1777V61.1777H287.189V62.1777H288.189ZM289.351 62.1777H290.351V61.1777H289.351V62.1777ZM289.351 63.9941H288.351V64.9941H289.351V63.9941ZM290.161 63.9941V64.9941H291.161V63.9941H290.161ZM290.161 62.0215V61.0215H289.161V62.0215H290.161ZM291.343 62.0215H292.343V61.0215H291.343V62.0215ZM286.499 68.0566H285.499V69.0566H286.499V68.0566ZM290.113 68.0566V69.0566H291.113V68.0566H290.113ZM290.113 67.207V66.207H289.113V67.207H290.113ZM291.343 67.207H292.343V66.207H291.343V67.207ZM291.343 70.8008V71.8008H292.343V70.8008H291.343ZM285.269 70.8008H284.269V71.8008H285.269V70.8008ZM285.269 67.207V66.207H284.269V67.207H285.269ZM286.499 67.207H287.499V66.207H286.499V67.207ZM290.113 69.7949V70.7949H291.113V69.7949H290.113ZM290.113 69.0039H291.113V68.0039H290.113V69.0039ZM286.499 69.0039V68.0039H285.499V69.0039H286.499ZM286.499 69.7949H285.499V70.7949H286.499V69.7949ZM285.308 65.3857H284.308V66.4091L285.331 66.3855L285.308 65.3857ZM286.504 65.3223L286.591 66.3185L286.599 66.3178L286.504 65.3223ZM287.661 65.166L288.653 65.0396L288.521 64.0019L287.49 64.1807L287.661 65.166ZM287.788 66.1621L287.976 67.1444L288.899 66.9682L288.78 66.0357L287.788 66.1621ZM286.348 66.3477L286.404 67.3461L286.411 67.3457L286.348 66.3477ZM284.058 66.3867H283.058V67.3867H284.058V66.3867ZM284.058 62.5684V61.5684H283.058V62.5684H284.058ZM285.308 62.5684H286.308V61.5684H285.308V62.5684ZM291.343 65.8457H290.161V67.8457H291.343V65.8457ZM291.161 66.8457V64.9805H289.161V66.8457H291.161ZM290.161 63.9805H289.351V65.9805H290.161V63.9805ZM288.351 64.9805V66.7578H290.351V64.9805H288.351ZM289.351 65.7578H288.189V67.7578H289.351V65.7578ZM289.189 66.7578V62.1777H287.189V66.7578H289.189ZM288.189 63.1777H289.351V61.1777H288.189V63.1777ZM288.351 62.1777V63.9941H290.351V62.1777H288.351ZM289.351 64.9941H290.161V62.9941H289.351V64.9941ZM291.161 63.9941V62.0215H289.161V63.9941H291.161ZM290.161 63.0215H291.343V61.0215H290.161V63.0215ZM290.343 62.0215V66.8457H292.343V62.0215H290.343ZM286.499 69.0566H290.113V67.0566H286.499V69.0566ZM291.113 68.0566V67.207H289.113V68.0566H291.113ZM290.113 68.207H291.343V66.207H290.113V68.207ZM290.343 67.207V70.8008H292.343V67.207H290.343ZM291.343 69.8008H285.269V71.8008H291.343V69.8008ZM286.269 70.8008V67.207H284.269V70.8008H286.269ZM285.269 68.207H286.499V66.207H285.269V68.207ZM285.499 67.207V68.0566H287.499V67.207H285.499ZM291.113 69.7949V69.0039H289.113V69.7949H291.113ZM290.113 68.0039H286.499V70.0039H290.113V68.0039ZM285.499 69.0039V69.7949H287.499V69.0039H285.499ZM286.499 70.7949H290.113V68.7949H286.499V70.7949ZM285.331 66.3855C285.773 66.3753 286.193 66.3531 286.591 66.3185L286.417 64.326C286.067 64.3565 285.689 64.3767 285.285 64.386L285.331 66.3855ZM286.599 66.3178C287.003 66.2794 287.414 66.2238 287.832 66.1513L287.49 64.1807C287.12 64.2449 286.76 64.2935 286.41 64.3267L286.599 66.3178ZM286.669 65.2924L286.796 66.2885L288.78 66.0357L288.653 65.0396L286.669 65.2924ZM287.601 65.1798C287.144 65.267 286.706 65.3232 286.285 65.3496L286.411 67.3457C286.921 67.3136 287.443 67.246 287.976 67.1444L287.601 65.1798ZM286.292 65.3492C285.851 65.3739 285.315 65.3867 284.683 65.3867V67.3867C285.34 67.3867 285.914 67.3735 286.404 67.3461L286.292 65.3492ZM284.683 65.3867H284.058V67.3867H284.683V65.3867ZM285.058 66.3867V62.5684H283.058V66.3867H285.058ZM284.058 63.5684H285.308V61.5684H284.058V63.5684ZM284.308 62.5684V65.3857H286.308V62.5684H284.308ZM297.715 64.4629L296.799 64.8632L296.801 64.8665L297.715 64.4629ZM298.389 65.3564L297.732 66.1106L297.741 66.118L298.389 65.3564ZM299.527 65.957L300.351 66.5232L301.121 65.4032L299.822 65.0017L299.527 65.957ZM298.863 66.9238L298.549 67.8732L299.262 68.1092L299.687 67.49L298.863 66.9238ZM296.88 65.2295L297.778 64.7882L296.822 62.8454L295.963 64.8324L296.88 65.2295ZM296.055 66.4209L296.745 67.1447L296.745 67.1446L296.055 66.4209ZM294.791 67.168L293.968 67.7359L294.395 68.3555L295.109 68.116L294.791 67.168ZM294.117 66.1914L293.801 65.2427L292.538 65.6637L293.294 66.7593L294.117 66.1914ZM295.308 65.5078L294.624 64.7785L295.308 65.5078ZM296.011 64.4971L296.938 64.8726L296.939 64.8698L296.011 64.4971ZM296.246 63.291L297.246 63.2987V63.291H296.246ZM296.246 62.4805V61.4805H295.246V62.4805H296.246ZM297.496 62.4805H298.496V61.4805H297.496V62.4805ZM301.304 64.0918H300.304V65.0918H301.304V64.0918ZM302.505 64.0918H303.505V63.0918H302.505V64.0918ZM302.505 65.127V66.127H303.505V65.127H302.505ZM301.304 65.127V64.127H300.304V65.127H301.304ZM301.304 67.2852V68.2852H302.304V67.2852H301.304ZM300.054 67.2852H299.054V68.2852H300.054V67.2852ZM300.054 62.0117V61.0117H299.054V62.0117H300.054ZM301.304 62.0117H302.304V61.0117H301.304V62.0117ZM301.026 70.1074L300.301 69.4189L300.296 69.4238L301.026 70.1074ZM299.986 70.6934L299.703 69.7342L299.695 69.7367L299.986 70.6934ZM296.768 70.6934L297.054 69.735L297.049 69.7337L296.768 70.6934ZM295.713 70.1074L294.988 70.7959L294.993 70.8007L295.713 70.1074ZM295.713 68.2568L294.993 67.5635L294.988 67.5683L295.713 68.2568ZM297.051 68.6279L297.426 69.5551L297.435 69.5516L297.051 68.6279ZM296.597 69.1797L297.597 69.1994L297.597 69.1829L297.597 69.1664L296.597 69.1797ZM299.708 68.6279L299.317 69.5487L299.329 69.5536L299.708 68.6279ZM296.496 63.4082C296.496 63.9131 296.597 64.401 296.799 64.8632L298.632 64.0625C298.541 63.8542 298.496 63.639 298.496 63.4082H296.496ZM296.801 64.8665C297.012 65.3466 297.331 65.7608 297.732 66.1105L299.046 64.6024C298.842 64.4248 298.712 64.2432 298.63 64.0593L296.801 64.8665ZM297.741 66.118C298.167 66.4805 298.672 66.7394 299.231 66.9124L299.822 65.0017C299.477 64.8947 299.223 64.7533 299.037 64.5949L297.741 66.118ZM298.703 65.3909L298.039 66.3577L299.687 67.49L300.351 66.5232L298.703 65.3909ZM299.177 65.9745C298.828 65.8589 298.551 65.6998 298.329 65.5063L297.014 67.0133C297.456 67.3992 297.973 67.6828 298.549 67.8732L299.177 65.9745ZM298.329 65.5063C298.097 65.3041 297.915 65.0669 297.778 64.7882L295.983 65.6708C296.237 66.1863 296.582 66.636 297.014 67.0133L298.329 65.5063ZM295.963 64.8324C295.816 65.1721 295.617 65.4572 295.365 65.6972L296.745 67.1446C297.197 66.714 297.548 66.2049 297.798 65.6266L295.963 64.8324ZM295.365 65.6971C295.132 65.9197 294.84 66.0965 294.473 66.2199L295.109 68.116C295.73 67.9074 296.282 67.5862 296.745 67.1447L295.365 65.6971ZM295.614 66.6L294.94 65.6235L293.294 66.7593L293.968 67.7359L295.614 66.6ZM294.433 67.1401C295.026 66.9424 295.555 66.6472 295.992 66.2371L294.624 64.7785C294.43 64.9609 294.164 65.1214 293.801 65.2427L294.433 67.1401ZM295.992 66.2371C296.407 65.8482 296.727 65.3926 296.938 64.8726L295.085 64.1216C294.989 64.3568 294.841 64.5749 294.624 64.7785L295.992 66.2371ZM296.939 64.8698C297.14 64.3692 297.241 63.843 297.246 63.2987L295.246 63.2833C295.243 63.5853 295.188 63.8632 295.083 64.1243L296.939 64.8698ZM297.246 63.291V62.4805H295.246V63.291H297.246ZM296.246 63.4805H297.496V61.4805H296.246V63.4805ZM296.496 62.4805V63.4082H298.496V62.4805H296.496ZM301.304 65.0918H302.505V63.0918H301.304V65.0918ZM301.505 64.0918V65.127H303.505V64.0918H301.505ZM302.505 64.127H301.304V66.127H302.505V64.127ZM300.304 65.127V67.2852H302.304V65.127H300.304ZM301.304 66.2852H300.054V68.2852H301.304V66.2852ZM301.054 67.2852V62.0117H299.054V67.2852H301.054ZM300.054 63.0117H301.304V61.0117H300.054V63.0117ZM300.304 62.0117V64.0918H302.304V62.0117H300.304ZM298.394 68.4609C298.936 68.4609 299.364 68.5219 299.695 68.6227L300.277 66.7093C299.71 66.5367 299.077 66.4609 298.394 66.4609V68.4609ZM299.695 68.6227C300.03 68.7249 300.208 68.8478 300.301 68.9453L301.751 67.5683C301.356 67.1515 300.84 66.8806 300.277 66.7093L299.695 68.6227ZM300.301 68.9453C300.367 69.0147 300.392 69.075 300.392 69.1797H302.392C302.392 68.5682 302.174 68.0133 301.751 67.5683L300.301 68.9453ZM300.392 69.1797C300.392 69.2902 300.365 69.3515 300.301 69.4189L301.751 70.7959C302.175 70.3491 302.392 69.7918 302.392 69.1797H300.392ZM300.296 69.4238C300.212 69.5141 300.041 69.6346 299.703 69.7342L300.269 71.6525C300.836 71.4852 301.359 71.2151 301.756 70.7911L300.296 69.4238ZM299.695 69.7367C299.364 69.8375 298.936 69.8984 298.394 69.8984V71.8984C299.077 71.8984 299.71 71.8227 300.277 71.65L299.695 69.7367ZM298.394 69.8984C297.838 69.8984 297.397 69.8372 297.054 69.735L296.483 71.6517C297.058 71.823 297.7 71.8984 298.394 71.8984V69.8984ZM297.049 69.7337C296.707 69.6335 296.527 69.5109 296.434 69.4141L294.993 70.8007C295.395 71.2183 295.918 71.4863 296.487 71.6531L297.049 69.7337ZM296.439 69.4189C296.375 69.3515 296.347 69.2902 296.347 69.1797H294.347C294.347 69.7918 294.564 70.3491 294.988 70.7959L296.439 69.4189ZM296.347 69.1797C296.347 69.075 296.373 69.0147 296.439 68.9453L294.988 67.5683C294.566 68.0133 294.347 68.5682 294.347 69.1797H296.347ZM296.434 68.9501C296.528 68.8528 296.711 68.7281 297.059 68.6244L296.488 66.7076C295.918 66.8774 295.394 67.1465 294.993 67.5635L296.434 68.9501ZM297.059 68.6244C297.402 68.5221 297.842 68.4609 298.394 68.4609V66.4609C297.703 66.4609 297.062 66.5365 296.488 66.7076L297.059 68.6244ZM298.394 67.4375C297.76 67.4375 297.156 67.5019 296.668 67.7043L297.435 69.5516C297.559 69.5 297.85 69.4375 298.394 69.4375V67.4375ZM296.677 67.7008C296.425 67.8023 296.151 67.9623 295.936 68.2232C295.706 68.5026 295.593 68.841 295.597 69.193L297.597 69.1664C297.598 69.212 297.591 69.2707 297.569 69.3349C297.547 69.3994 297.514 69.4531 297.48 69.4941C297.417 69.5711 297.371 69.5772 297.426 69.555L296.677 67.7008ZM295.597 69.16C295.591 69.505 295.696 69.8426 295.921 70.1262C296.132 70.3924 296.406 70.5566 296.657 70.6606C297.142 70.8606 297.753 70.9219 298.394 70.9219V68.9219C298.124 68.9219 297.907 68.9079 297.738 68.8847C297.566 68.8611 297.467 68.8311 297.421 68.8121C297.373 68.7924 297.423 68.8019 297.487 68.8826C297.565 68.9806 297.599 69.1018 297.597 69.1994L295.597 69.16ZM298.394 70.9219C299.023 70.9219 299.626 70.8603 300.107 70.6583C300.358 70.5531 300.626 70.3887 300.834 70.1262C301.055 69.8483 301.162 69.5184 301.162 69.1797H299.162C299.162 69.0884 299.195 68.975 299.268 68.8826C299.329 68.8056 299.377 68.7958 299.333 68.8143C299.289 68.8325 299.195 68.8618 299.029 68.8851C298.866 68.908 298.656 68.9219 298.394 68.9219V70.9219ZM301.162 69.1797C301.162 68.8321 301.047 68.4989 300.82 68.2232C300.607 67.9646 300.336 67.8045 300.086 67.7022L299.329 69.5536C299.382 69.5751 299.338 69.5688 299.276 69.4941C299.244 69.4546 299.212 69.403 299.191 69.3413C299.169 69.2799 299.162 69.2236 299.162 69.1797H301.162ZM300.098 67.7072C299.614 67.5021 299.017 67.4375 298.394 67.4375V69.4375C298.924 69.4375 299.202 69.4998 299.317 69.5486L300.098 67.7072ZM310.802 67.1582V68.1582H311.802V67.1582H310.802ZM307.364 67.1582V66.1582H306.364V67.1582H307.364ZM307.364 67.9199H306.364V68.9199H307.364V67.9199ZM309.835 67.9199H310.835V66.9199H309.835V67.9199ZM309.835 70.8008V71.8008H310.835V70.8008H309.835ZM303.634 70.8008H302.634V71.8008H303.634V70.8008ZM303.634 67.9199V66.9199H302.634V67.9199H303.634ZM306.124 67.9199V68.9199H307.124V67.9199H306.124ZM306.124 67.1582H307.124V66.1582H306.124V67.1582ZM302.696 67.1582H301.696V68.1582H302.696V67.1582ZM302.696 66.1719V65.1719H301.696V66.1719H302.696ZM310.802 66.1719H311.802V65.1719H310.802V66.1719ZM310.079 63.252V64.252H311.079V63.252H310.079ZM308.917 63.252V62.252H307.917V63.252H308.917ZM308.917 64.6094H307.917V65.6094H308.917V64.6094ZM310.02 64.6094H311.02V63.6094H310.02V64.6094ZM310.02 65.6055V66.6055H311.02V65.6055H310.02ZM303.468 65.6055H302.468V66.6055H303.468V65.6055ZM303.468 64.6094V63.6094H302.468V64.6094H303.468ZM304.561 64.6094V65.6094H305.561V64.6094H304.561ZM304.561 63.252H305.561V62.252H304.561V63.252ZM303.409 63.252H302.409V64.252H303.409V63.252ZM303.409 62.2559V61.2559H302.409V62.2559H303.409ZM310.079 62.2559H311.079V61.2559H310.079V62.2559ZM304.864 69.8047H303.864V70.8047H304.864V69.8047ZM308.614 69.8047V70.8047H309.614V69.8047H308.614ZM308.614 68.8867H309.614V67.8867H308.614V68.8867ZM304.864 68.8867V67.8867H303.864V68.8867H304.864ZM307.667 64.6094V65.6094H308.667V64.6094H307.667ZM307.667 63.252H308.667V62.252H307.667V63.252ZM305.811 63.252V62.252H304.811V63.252H305.811ZM305.811 64.6094H304.811V65.6094H305.811V64.6094ZM310.802 66.1582H307.364V68.1582H310.802V66.1582ZM306.364 67.1582V67.9199H308.364V67.1582H306.364ZM307.364 68.9199H309.835V66.9199H307.364V68.9199ZM308.835 67.9199V70.8008H310.835V67.9199H308.835ZM309.835 69.8008H303.634V71.8008H309.835V69.8008ZM304.634 70.8008V67.9199H302.634V70.8008H304.634ZM303.634 68.9199H306.124V66.9199H303.634V68.9199ZM307.124 67.9199V67.1582H305.124V67.9199H307.124ZM306.124 66.1582H302.696V68.1582H306.124V66.1582ZM303.696 67.1582V66.1719H301.696V67.1582H303.696ZM302.696 67.1719H310.802V65.1719H302.696V67.1719ZM309.802 66.1719V67.1582H311.802V66.1719H309.802ZM310.079 62.252H308.917V64.252H310.079V62.252ZM307.917 63.252V64.6094H309.917V63.252H307.917ZM308.917 65.6094H310.02V63.6094H308.917V65.6094ZM309.02 64.6094V65.6055H311.02V64.6094H309.02ZM310.02 64.6055H303.468V66.6055H310.02V64.6055ZM304.468 65.6055V64.6094H302.468V65.6055H304.468ZM303.468 65.6094H304.561V63.6094H303.468V65.6094ZM305.561 64.6094V63.252H303.561V64.6094H305.561ZM304.561 62.252H303.409V64.252H304.561V62.252ZM304.409 63.252V62.2559H302.409V63.252H304.409ZM303.409 63.2559H310.079V61.2559H303.409V63.2559ZM309.079 62.2559V63.252H311.079V62.2559H309.079ZM304.864 70.8047H308.614V68.8047H304.864V70.8047ZM309.614 69.8047V68.8867H307.614V69.8047H309.614ZM308.614 67.8867H304.864V69.8867H308.614V67.8867ZM303.864 68.8867V69.8047H305.864V68.8867H303.864ZM308.667 64.6094V63.252H306.667V64.6094H308.667ZM307.667 62.252H305.811V64.252H307.667V62.252ZM304.811 63.252V64.6094H306.811V63.252H304.811ZM305.811 65.6094H307.667V63.6094H305.811V65.6094ZM318.736 68.7109V69.7109H319.736V68.7109H318.736ZM317.477 68.7109H316.477V69.7109H317.477V68.7109ZM317.477 67.7246H318.477V66.7246H317.477V67.7246ZM315.738 67.7246H314.738V68.7246H315.738V67.7246ZM315.738 66.748V65.748H314.738V66.748H315.738ZM317.477 66.748V67.748H318.477V66.748H317.477ZM317.477 62.0215V61.0215H316.477V62.0215H317.477ZM318.736 62.0215H319.736V61.0215H318.736V62.0215ZM318.941 70.7422V71.7422H319.941V70.7422H318.941ZM312.311 70.7422H311.311V71.7422H312.311V70.7422ZM312.311 68.0273V67.0273H311.311V68.0273H312.311ZM313.453 68.0273V69.0273H314.453V68.0273H313.453ZM313.453 66.3184H314.453V65.2747L313.41 65.3193L313.453 66.3184ZM311.236 66.3672L310.249 66.5237L310.383 67.3736L311.244 67.3672L311.236 66.3672ZM311.08 65.3809L311.076 64.3809L309.91 64.386L310.092 65.5373L311.08 65.3809ZM314.737 65.2832L314.797 66.2814L315.611 66.2324L315.727 65.426L314.737 65.2832ZM314.908 63.4375L315.908 63.4714L315.943 62.4375H314.908V63.4375ZM311.891 63.4375H310.891V64.4375H311.891V63.4375ZM311.891 62.4512V61.4512H310.891V62.4512H311.891ZM316.158 62.4512H317.158V61.4512H316.158V62.4512ZM316.124 63.8916L315.126 63.8308L315.125 63.839L316.124 63.8916ZM315.982 65.1855L314.994 65.035L314.799 66.311L316.084 66.1804L315.982 65.1855ZM316.842 65.0879L317.838 64.9994L317.745 63.9539L316.705 64.0973L316.842 65.0879ZM316.92 65.9668L317.095 66.9513L317.997 66.7909L317.916 65.8783L316.92 65.9668ZM314.684 66.2451L314.604 65.2483L313.684 65.3219V66.2451H314.684ZM314.684 68.1543V69.1543H315.684V68.1543H314.684ZM313.561 68.1543V67.1543H312.561V68.1543H313.561ZM313.561 69.7461H312.561V70.7461H313.561V69.7461ZM318.941 69.7461H319.941V68.7461H318.941V69.7461ZM318.736 67.7109H317.477V69.7109H318.736V67.7109ZM318.477 68.7109V67.7246H316.477V68.7109H318.477ZM317.477 66.7246H315.738V68.7246H317.477V66.7246ZM316.738 67.7246V66.748H314.738V67.7246H316.738ZM315.738 67.748H317.477V65.748H315.738V67.748ZM318.477 66.748V62.0215H316.477V66.748H318.477ZM317.477 63.0215H318.736V61.0215H317.477V63.0215ZM317.736 62.0215V68.7109H319.736V62.0215H317.736ZM318.941 69.7422H312.311V71.7422H318.941V69.7422ZM313.311 70.7422V68.0273H311.311V70.7422H313.311ZM312.311 69.0273H313.453V67.0273H312.311V69.0273ZM314.453 68.0273V66.3184H312.453V68.0273H314.453ZM313.41 65.3193C312.817 65.3447 312.091 65.3608 311.229 65.3672L311.244 67.3672C312.12 67.3606 312.872 67.3442 313.496 67.3174L313.41 65.3193ZM312.224 66.2107L312.068 65.2244L310.092 65.5373L310.249 66.5237L312.224 66.2107ZM311.085 66.3808C312.56 66.3743 313.799 66.3415 314.797 66.2814L314.677 64.285C313.729 64.3421 312.53 64.3744 311.076 64.3809L311.085 66.3808ZM315.727 65.426C315.826 64.7407 315.887 64.0888 315.908 63.4714L313.909 63.4036C313.891 63.9385 313.837 64.5171 313.748 65.1404L315.727 65.426ZM314.908 62.4375H311.891V64.4375H314.908V62.4375ZM312.891 63.4375V62.4512H310.891V63.4375H312.891ZM311.891 63.4512H316.158V61.4512H311.891V63.4512ZM315.158 62.4512V62.7832H317.158V62.4512H315.158ZM315.158 62.7832C315.158 63.127 315.147 63.4761 315.126 63.8308L317.122 63.9524C317.146 63.5584 317.158 63.1686 317.158 62.7832H315.158ZM315.125 63.839C315.108 64.1685 315.065 64.5658 314.994 65.035L316.971 65.3361C317.049 64.8222 317.101 64.3569 317.123 63.9442L315.125 63.839ZM316.084 66.1804C316.47 66.1411 316.771 66.1071 316.978 66.0785L316.705 64.0973C316.535 64.1208 316.263 64.1519 315.881 64.1907L316.084 66.1804ZM315.846 65.1764L315.924 66.0553L317.916 65.8783L317.838 64.9994L315.846 65.1764ZM316.745 64.9823C316.104 65.0962 315.391 65.1853 314.604 65.2483L314.763 67.2419C315.603 67.1747 316.381 67.0783 317.095 66.9513L316.745 64.9823ZM313.684 66.2451V68.1543H315.684V66.2451H313.684ZM314.684 67.1543H313.561V69.1543H314.684V67.1543ZM312.561 68.1543V69.7461H314.561V68.1543H312.561ZM313.561 70.7461H318.941V68.7461H313.561V70.7461ZM317.941 69.7461V70.7422H319.941V69.7461H317.941Z" fill="black" mask="url(#path-13-inside-1_2_3873)"/>
</g>
<rect x="24" y="24" width="71" height="22" rx="11" fill="#19236F"/>
<path d="M38.4453 31.7461H36.4297C36.4766 32.2539 36.6934 32.7129 37.0801 33.123C37.4668 33.5332 38.0586 33.8398 38.8555 34.043L38.0117 35.4844C37.4297 35.3477 36.9297 35.1367 36.5117 34.8516C36.0977 34.5664 35.7637 34.2227 35.5098 33.8203C35.2637 34.2656 34.9316 34.6465 34.5137 34.9629C34.0957 35.2754 33.5859 35.5078 32.9844 35.6602L32.1055 34.2188C32.9102 34.0156 33.5059 33.6934 33.8926 33.252C34.2832 32.8066 34.5 32.3047 34.543 31.7461H32.5391V30.2812H34.5547V29.2852H36.4414V30.2812H38.4453V31.7461ZM40.918 31.7461H42.2656V33.2578H40.918V35.6367H39.0312V29.3203H40.918V31.7461ZM40.918 40.0664H33.6875V36.0469H40.918V40.0664ZM35.5391 38.5664H39.0664V37.5352H35.5391V38.5664ZM51.2656 33.3164H52.6484V34.8516H51.2656V40.1367H49.3789V29.3203H51.2656V33.3164ZM48.3125 30.3984C48.3086 31.5781 48.1523 32.6543 47.8438 33.627C47.5391 34.5996 47.0293 35.4883 46.3145 36.293C45.5996 37.0977 44.6445 37.793 43.4492 38.3789L42.3828 36.9492C43.1992 36.5391 43.8828 36.0918 44.4336 35.6074C44.9883 35.1191 45.4277 34.5742 45.752 33.9727C46.0762 33.3672 46.291 32.6836 46.3965 31.9219H43.0625V30.3984H48.3125ZM57.207 32.0391C57.2031 32.6172 57.2832 33.1855 57.4473 33.7441C57.6152 34.3027 57.8887 34.8184 58.2676 35.291C58.6465 35.7637 59.1406 36.1367 59.75 36.4102L58.7188 37.875C58.1523 37.625 57.666 37.2715 57.2598 36.8145C56.8574 36.3574 56.5332 35.8223 56.2871 35.209C56.041 35.8926 55.709 36.4883 55.291 36.9961C54.877 37.5 54.3711 37.8867 53.7734 38.1562L52.6953 36.6797C53.3164 36.3945 53.8203 36.0059 54.207 35.5137C54.5938 35.0176 54.8711 34.4727 55.0391 33.8789C55.2109 33.2812 55.2969 32.668 55.2969 32.0391V31.8516H53.1523V30.3281H59.2227V31.8516H57.207V32.0391ZM61.6367 33.3047H63.1016V34.8633H61.6367V40.1602H59.75V29.3203H61.6367V33.3047ZM75.1953 37.2188H73.3203V33.5273H71.8555V32.0273H73.3203V29.3438H75.1953V37.2188ZM75.4297 40.0078H67.8594V36.5508H69.7344V38.5078H75.4297V40.0078ZM72.2539 31.4648H70.2734C70.2812 31.8789 70.3633 32.2793 70.5195 32.666C70.6758 33.0527 70.9277 33.4043 71.2754 33.7207C71.627 34.0332 72.082 34.2773 72.6406 34.4531L71.7383 35.9414C70.6406 35.5977 69.8379 34.9473 69.3301 33.9902C69.084 34.502 68.752 34.9414 68.334 35.3086C67.916 35.6719 67.4062 35.9453 66.8047 36.1289L65.8438 34.6172C66.707 34.3633 67.334 33.9531 67.7246 33.3867C68.1191 32.8164 68.3281 32.1758 68.3516 31.4648H66.3594V29.9766H72.2539V31.4648ZM85.6719 37.5H83.7969V36.8086H81.8281V35.5547H83.7969V29.3438H85.6719V37.5ZM85.9062 40.0078H77.5742V36.7266H79.0391V35.4258C78.2461 35.457 77.4062 35.4727 76.5195 35.4727L76.3086 34.0078H76.4727C77.8555 33.9922 79.0801 33.9629 80.1465 33.9199C81.2129 33.877 82.2344 33.793 83.2109 33.668L83.3047 35.0039C82.6211 35.1289 81.8281 35.2305 80.9258 35.3086V37.3125H79.4609V38.5078H85.9062V40.0078ZM79.8125 29.6602C80.332 29.6602 80.7969 29.7441 81.207 29.9121C81.6211 30.0801 81.9453 30.3145 82.1797 30.6152C82.418 30.916 82.5391 31.2578 82.543 31.6406C82.5391 32.0195 82.4199 32.3555 82.1855 32.6484C81.9512 32.9414 81.627 33.1699 81.2129 33.334C80.7988 33.4941 80.332 33.5742 79.8125 33.5742C79.2812 33.5742 78.8066 33.4941 78.3887 33.334C77.9746 33.1699 77.6504 32.9434 77.416 32.6543C77.1855 32.3613 77.0703 32.0234 77.0703 31.6406C77.0703 31.2578 77.1875 30.916 77.4219 30.6152C77.6562 30.3145 77.9805 30.0801 78.3945 29.9121C78.8125 29.7441 79.2852 29.6602 79.8125 29.6602ZM79.8125 31.0195C79.5117 31.0273 79.2754 31.082 79.1035 31.1836C78.9355 31.2812 78.8516 31.4336 78.8516 31.6406C78.8516 31.8398 78.9355 31.9883 79.1035 32.0859C79.2754 32.1797 79.5117 32.2266 79.8125 32.2266C80.1016 32.2266 80.3301 32.1797 80.498 32.0859C80.666 31.9883 80.75 31.8398 80.75 31.6406C80.75 31.4336 80.666 31.2812 80.498 31.1836C80.334 31.082 80.1055 31.0273 79.8125 31.0195Z" fill="white"/>
<path d="M24.957 72.3242L30.2109 67.9102C30.6211 67.5586 30.9466 67.2559 31.1875 67.002C31.4284 66.748 31.6139 66.4844 31.7441 66.2109C31.8809 65.9375 31.9492 65.638 31.9492 65.3125C31.9492 64.7721 31.7734 64.3424 31.4219 64.0234C31.0768 63.6979 30.6276 63.5352 30.0742 63.5352C29.5208 63.5352 29.0749 63.7012 28.7363 64.0332C28.4043 64.3652 28.2383 64.8307 28.2383 65.4297H24.7031C24.7031 64.4596 24.9245 63.6165 25.3672 62.9004C25.8099 62.1777 26.4349 61.6243 27.2422 61.2402C28.056 60.8561 29 60.6641 30.0742 60.6641C31.1745 60.6641 32.138 60.8431 32.9648 61.2012C33.7982 61.5592 34.4395 62.0671 34.8887 62.7246C35.3379 63.3757 35.5625 64.1341 35.5625 65C35.5625 65.5729 35.4453 66.123 35.2109 66.6504C34.9831 67.1777 34.5794 67.7637 34 68.4082C33.4271 69.0527 32.6133 69.8177 31.5586 70.7031L30.1328 71.9336V72.0117H35.7188V75H24.957V72.3242ZM43.1508 75.1953C41.8813 75.1953 40.7842 74.9121 39.8598 74.3457C38.9353 73.7728 38.2224 72.9427 37.7211 71.8555C37.2263 70.7617 36.9789 69.4531 36.9789 67.9297C36.9789 66.3997 37.2263 65.0911 37.7211 64.0039C38.2224 62.9102 38.9353 62.0801 39.8598 61.5137C40.7842 60.9473 41.8813 60.6641 43.1508 60.6641C44.4203 60.6641 45.5173 60.9505 46.4418 61.5234C47.3663 62.0898 48.0759 62.9199 48.5707 64.0137C49.072 65.1009 49.3227 66.4062 49.3227 67.9297C49.3227 69.4596 49.072 70.7715 48.5707 71.8652C48.0759 72.9525 47.3663 73.7793 46.4418 74.3457C45.5173 74.9121 44.4203 75.1953 43.1508 75.1953ZM43.1508 72.207C43.8734 72.194 44.4398 71.8392 44.85 71.1426C45.2667 70.446 45.475 69.375 45.475 67.9297C45.475 66.9792 45.3773 66.1849 45.182 65.5469C44.9867 64.9089 44.7165 64.4336 44.3715 64.1211C44.0264 63.8086 43.6195 63.6523 43.1508 63.6523C42.4411 63.6523 41.878 64.0104 41.4613 64.7266C41.0447 65.4427 40.8331 66.5104 40.8266 67.9297C40.8266 69.375 41.0316 70.446 41.4418 71.1426C41.8585 71.8392 42.4281 72.194 43.1508 72.207ZM59.45 69.1797H50.5828V60.293H59.45V69.1797ZM53.6883 66.7383H56.3445V62.7539H53.6883V66.7383ZM64.6453 63.9062H66.8914V66.4648H64.6453V72.0312H61.5008V58.9062H64.6453V63.9062ZM65.1727 76.6797H52.6727V70.7031H55.8172V74.1797H65.1727V76.6797ZM82.6242 72.5H79.4992V71.3477H76.218V69.2578H79.4992V58.9062H82.6242V72.5ZM83.0148 76.6797H69.1281V71.2109H71.5695V69.043C70.2479 69.0951 68.8482 69.1211 67.3703 69.1211L67.0187 66.6797H67.2922C69.5969 66.6536 71.6379 66.6048 73.4152 66.5332C75.1926 66.4616 76.8951 66.3216 78.5227 66.1133L78.6789 68.3398C77.5396 68.5482 76.218 68.7174 74.7141 68.8477V72.1875H72.2727V74.1797H83.0148V76.6797ZM72.8586 59.4336C73.7245 59.4336 74.4992 59.5736 75.1828 59.8535C75.8729 60.1335 76.4133 60.5241 76.8039 61.0254C77.201 61.5267 77.4029 62.0964 77.4094 62.7344C77.4029 63.3659 77.2043 63.9258 76.8137 64.4141C76.423 64.9023 75.8827 65.2832 75.1926 65.5566C74.5025 65.8236 73.7245 65.957 72.8586 65.957C71.9732 65.957 71.1822 65.8236 70.4855 65.5566C69.7954 65.2832 69.2551 64.9056 68.8645 64.4238C68.4803 63.9355 68.2883 63.3724 68.2883 62.7344C68.2883 62.0964 68.4836 61.5267 68.8742 61.0254C69.2648 60.5241 69.8052 60.1335 70.4953 59.8535C71.1919 59.5736 71.9797 59.4336 72.8586 59.4336ZM72.8586 61.6992C72.3573 61.7122 71.9634 61.8034 71.677 61.9727C71.397 62.1354 71.257 62.3893 71.257 62.7344C71.257 63.0664 71.397 63.3138 71.677 63.4766C71.9634 63.6328 72.3573 63.7109 72.8586 63.7109C73.3404 63.7109 73.7212 63.6328 74.0012 63.4766C74.2811 63.3138 74.4211 63.0664 74.4211 62.7344C74.4211 62.3893 74.2811 62.1354 74.0012 61.9727C73.7277 61.8034 73.3469 61.7122 72.8586 61.6992ZM94.8516 61.6797C94.8385 62.806 95.1348 63.8021 95.7402 64.668C96.3457 65.5339 97.3516 66.1654 98.7578 66.5625L97.0977 68.9844C95.3659 68.4505 94.0964 67.4479 93.2891 65.9766C92.4427 67.7344 91.082 68.9062 89.207 69.4922L87.5273 67.0508C89.0117 66.582 90.0729 65.8398 90.7109 64.8242C91.349 63.8086 91.6745 62.6497 91.6875 61.3477V59.8633H94.8516V61.6797ZM102.371 62.793H104.617V65.3711H102.371V69.4141H99.2266V58.8672H102.371V62.793ZM96.375 69.7266C97.6185 69.7201 98.7057 69.8633 99.6367 70.1562C100.568 70.4427 101.284 70.8594 101.785 71.4062C102.293 71.9466 102.547 72.5911 102.547 73.3398C102.547 74.0951 102.293 74.7461 101.785 75.293C101.284 75.8398 100.568 76.2565 99.6367 76.543C98.7122 76.8294 97.625 76.9727 96.375 76.9727C95.0859 76.9727 93.9661 76.8294 93.0156 76.543C92.0651 76.2565 91.3327 75.8398 90.8184 75.293C90.3105 74.7526 90.0599 74.1016 90.0664 73.3398C90.0599 72.5911 90.3138 71.9466 90.8281 71.4062C91.3424 70.8594 92.0749 70.4427 93.0254 70.1562C93.9759 69.8633 95.0924 69.7201 96.375 69.7266ZM96.375 72.1484C95.3008 72.1484 94.5 72.2461 93.9727 72.4414C93.4518 72.6302 93.1914 72.9297 93.1914 73.3398C93.1914 73.763 93.4486 74.069 93.9629 74.2578C94.4837 74.4401 95.2878 74.5312 96.375 74.5312C97.4362 74.5312 98.2109 74.4401 98.6992 74.2578C99.194 74.069 99.4414 73.763 99.4414 73.3398C99.4414 72.9297 99.1908 72.6302 98.6895 72.4414C98.1947 72.2461 97.4232 72.1484 96.375 72.1484ZM119.295 62.9102H121.502V65.4102H119.295V69.1211H116.112V58.8672H119.295V62.9102ZM113.26 69.4141C114.497 69.4141 115.581 69.5638 116.512 69.8633C117.443 70.1628 118.162 70.5957 118.67 71.1621C119.178 71.7285 119.432 72.3958 119.432 73.1641C119.432 73.9518 119.178 74.6322 118.67 75.2051C118.162 75.778 117.443 76.2142 116.512 76.5137C115.588 76.8197 114.504 76.9727 113.26 76.9727C111.984 76.9727 110.871 76.8197 109.92 76.5137C108.97 76.2142 108.234 75.778 107.713 75.2051C107.199 74.6322 106.945 73.9518 106.952 73.1641C106.945 72.3958 107.199 71.7285 107.713 71.1621C108.234 70.5957 108.97 70.1628 109.92 69.8633C110.877 69.5638 111.991 69.4141 113.26 69.4141ZM113.26 71.875C112.179 71.875 111.369 71.9792 110.829 72.1875C110.295 72.3958 110.031 72.7214 110.037 73.1641C110.031 73.6263 110.295 73.9681 110.829 74.1895C111.369 74.4043 112.179 74.5052 113.26 74.4922C114.289 74.5052 115.067 74.4043 115.594 74.1895C116.128 73.9681 116.398 73.6263 116.405 73.1641C116.398 72.7214 116.131 72.3958 115.604 72.1875C115.077 71.9792 114.295 71.875 113.26 71.875ZM113.495 62.4805H108.436V65.9766C110.044 65.9635 111.327 65.9212 112.284 65.8496C113.241 65.778 114.152 65.651 115.018 65.4688L115.272 67.9297C114.302 68.1576 113.237 68.3073 112.079 68.3789C110.92 68.444 109.191 68.4766 106.893 68.4766H105.311V60H113.495V62.4805ZM135.468 61.0742C135.461 61.9336 135.663 62.7767 136.073 63.6035C136.49 64.4238 137.164 65.1497 138.095 65.7812C139.032 66.4128 140.24 66.849 141.718 67.0898L140.37 69.6875C138.775 69.3945 137.428 68.8704 136.327 68.1152C135.227 67.36 134.381 66.4355 133.788 65.3418C133.176 66.429 132.32 67.3503 131.22 68.1055C130.12 68.8607 128.782 69.388 127.206 69.6875L125.878 67.0898C127.323 66.8424 128.508 66.3997 129.433 65.7617C130.364 65.1237 131.038 64.3945 131.454 63.5742C131.877 62.7474 132.089 61.9141 132.089 61.0742V59.8438H135.468V61.0742ZM142.148 74.8828H125.644V72.3242H142.148V74.8828ZM158.154 68.6914H155.185V65.1172H154.15V68.4961H151.24V59.1992H154.15V62.6758H155.185V58.9062H158.154V68.6914ZM148.642 70.8008H155.048V69.3555H158.154V76.7773H145.537V69.3555H148.642V70.8008ZM155.048 74.2578V73.1445H148.642V74.2578H155.048ZM146.259 65.4297C147.705 65.3906 149.059 65.2604 150.322 65.0391L150.615 67.5C149.677 67.6758 148.746 67.793 147.822 67.8516C146.904 67.9036 145.784 67.9297 144.463 67.9297H143.115V60H146.259V65.4297ZM170.303 61.6797C170.29 62.806 170.586 63.8021 171.192 64.668C171.797 65.5339 172.803 66.1654 174.209 66.5625L172.549 68.9844C170.817 68.4505 169.548 67.4479 168.741 65.9766C167.894 67.7344 166.534 68.9062 164.659 69.4922L162.979 67.0508C164.463 66.582 165.524 65.8398 166.163 64.8242C166.801 63.8086 167.126 62.6497 167.139 61.3477V59.8633H170.303V61.6797ZM177.823 62.793H180.069V65.3711H177.823V69.4141H174.678V58.8672H177.823V62.793ZM171.827 69.7266C173.07 69.7201 174.157 69.8633 175.088 70.1562C176.019 70.4427 176.735 70.8594 177.237 71.4062C177.745 71.9466 177.998 72.5911 177.998 73.3398C177.998 74.0951 177.745 74.7461 177.237 75.293C176.735 75.8398 176.019 76.2565 175.088 76.543C174.164 76.8294 173.077 76.9727 171.827 76.9727C170.538 76.9727 169.418 76.8294 168.467 76.543C167.517 76.2565 166.784 75.8398 166.27 75.293C165.762 74.7526 165.511 74.1016 165.518 73.3398C165.511 72.5911 165.765 71.9466 166.28 71.4062C166.794 70.8594 167.526 70.4427 168.477 70.1562C169.427 69.8633 170.544 69.7201 171.827 69.7266ZM171.827 72.1484C170.752 72.1484 169.952 72.2461 169.424 72.4414C168.903 72.6302 168.643 72.9297 168.643 73.3398C168.643 73.763 168.9 74.069 169.414 74.2578C169.935 74.4401 170.739 74.5312 171.827 74.5312C172.888 74.5312 173.663 74.4401 174.151 74.2578C174.646 74.069 174.893 73.763 174.893 73.3398C174.893 72.9297 174.642 72.6302 174.141 72.4414C173.646 72.2461 172.875 72.1484 171.827 72.1484ZM196.739 69.6094H190.04V70.7812H194.786V76.7773H182.11V70.7812H186.895V69.6094H180.255V67.168H196.739V69.6094ZM195.313 61.8164H193.243V63.8672H195.157V66.3672H181.817V63.8672H183.712V61.8164H181.641V59.3164H195.313V61.8164ZM185.177 74.2773H191.72V73.1836H185.177V74.2773ZM190.079 63.8672V61.8164H186.837V63.8672H190.079ZM212.902 72.4609H209.698V70.8203H206.456V68.3789H209.698V58.9062H212.902V72.4609ZM213.273 76.6797H199.405V71.1523H201.613V67.8809C200.421 67.9264 199.015 67.9557 197.394 67.9688L197.042 65.5469L197.941 65.5273C198.885 65.5078 199.897 65.485 200.978 65.459C202.065 65.4264 203.074 65.3874 204.005 65.3418C204.161 64.209 204.262 63.1315 204.308 62.1094H198.663V59.6484H207.472V60.3125C207.472 61.0221 207.452 61.7546 207.413 62.5098C207.374 63.2585 207.28 64.1243 207.13 65.1074C207.82 65.0293 208.331 64.9674 208.663 64.9219L208.859 67.1289C207.589 67.3568 206.209 67.5391 204.718 67.6758V71.3672H202.53V74.1797H213.273V76.6797ZM40.7383 99.6992H33.8438V104.816H31.3828V99.6992H24.5273V97.668H40.7383V99.6992ZM39.2539 91.0273H33.9219C34.0195 91.5742 34.3125 92.1081 34.8008 92.6289C35.2891 93.1497 35.9661 93.6022 36.832 93.9863C37.6979 94.3704 38.7135 94.6276 39.8789 94.7578L38.9805 96.7109C37.5156 96.5417 36.2396 96.1771 35.1523 95.6172C34.0716 95.0573 33.2318 94.3574 32.6328 93.5176C32.0404 94.3574 31.1973 95.0573 30.1035 95.6172C29.0163 96.1771 27.7305 96.5417 26.2461 96.7109L25.3477 94.7578C26.513 94.6276 27.5286 94.3704 28.3945 93.9863C29.2669 93.6022 29.9505 93.1497 30.4453 92.6289C30.9401 92.1081 31.2396 91.5742 31.3438 91.0273H25.9922V89.0742H31.3828V87.043H33.8438V89.0742H39.2539V91.0273ZM47.9555 90.8125C47.9555 91.4505 48.1085 92.0592 48.4145 92.6387C48.727 93.2181 49.199 93.7357 49.8305 94.1914C50.462 94.6406 51.2367 94.9857 52.1547 95.2266L51.0414 97.1602C50.0388 96.8997 49.1762 96.5026 48.4535 95.9688C47.7374 95.4284 47.1677 94.7871 46.7445 94.0449C46.3409 94.8587 45.7777 95.5618 45.0551 96.1543C44.3389 96.7402 43.4698 97.1797 42.4477 97.4727L41.2758 95.5391C42.2003 95.2852 42.975 94.9173 43.6 94.4355C44.2315 93.9538 44.7003 93.4004 45.0063 92.7754C45.3188 92.1504 45.475 91.4961 45.475 90.8125V90.7539H41.9008V88.8008H45.475V86.9453H47.9945V88.8008H51.5492V90.7539H47.9555V90.8125ZM56.393 97.4336H53.9125V93.7031H51.1V91.6914H53.9125V87.0234H56.393V97.4336ZM56.393 104.602H44.4398V98.1953H56.393V104.602ZM46.9398 102.609H53.9516V100.188H46.9398V102.609ZM78.757 96.75H71.8625V97.7461H76.8039V101.945H66.843V102.98H77.3312V104.68H64.3625V100.363H74.343V99.4648H64.343V97.7461H69.382V96.75H62.4875V94.9531H78.757V96.75ZM76.7844 91.4961H66.9992V92.4531H77.0969V94.1328H64.5187V89.9141H74.2844V89.0156H64.4797V87.3359H76.7844V91.4961ZM86.3844 93.6641H82.5172V95.4707C83.5068 95.4577 84.3857 95.4186 85.1539 95.3535C85.9286 95.2884 86.7229 95.181 87.5367 95.0312L87.7711 96.9844C86.8336 97.1667 85.9026 97.2839 84.9781 97.3359C84.0536 97.388 82.8427 97.4141 81.3453 97.4141H80.1148V91.8477H84.0016V90.207H80.0953V88.2539H86.3844V93.6641ZM94.6656 99.1328H92.3023V87.043H94.6656V99.1328ZM91.0328 97.6094H88.6891V93.0195H87.0289V91.0469H88.6891V87.375H91.0328V97.6094ZM89.7438 98.6055C89.7372 99.237 89.9521 99.8457 90.3883 100.432C90.8245 101.018 91.4755 101.525 92.3414 101.955C93.2073 102.378 94.2555 102.668 95.4859 102.824L94.5289 104.719C93.1227 104.523 91.9052 104.146 90.8766 103.586C89.8479 103.026 89.0569 102.333 88.5035 101.506C87.9436 102.333 87.1494 103.026 86.1207 103.586C85.0921 104.146 83.8779 104.523 82.4781 104.719L81.5211 102.824C82.7451 102.668 83.7867 102.378 84.6461 101.955C85.5055 101.525 86.1533 101.021 86.5895 100.441C87.0257 99.8555 87.2438 99.2435 87.2438 98.6055V98.2734H89.7438V98.6055ZM116.698 97.2969H100.487V95.3438H116.698V97.2969ZM108.573 98.293C109.855 98.293 110.959 98.4199 111.883 98.6738C112.808 98.9277 113.517 99.2988 114.012 99.7871C114.507 100.275 114.758 100.865 114.764 101.555C114.758 102.245 114.507 102.834 114.012 103.322C113.517 103.811 112.808 104.182 111.883 104.436C110.959 104.689 109.855 104.816 108.573 104.816C107.271 104.816 106.154 104.689 105.223 104.436C104.292 104.182 103.579 103.811 103.084 103.322C102.59 102.834 102.342 102.245 102.342 101.555C102.342 100.865 102.59 100.275 103.084 99.7871C103.579 99.2988 104.292 98.9277 105.223 98.6738C106.154 98.4199 107.271 98.293 108.573 98.293ZM108.573 100.168C106.092 100.168 104.862 100.63 104.881 101.555C104.862 102.466 106.092 102.922 108.573 102.922C111.014 102.922 112.245 102.466 112.264 101.555C112.245 100.63 111.014 100.168 108.573 100.168ZM108.592 87.3945C109.888 87.401 111.021 87.5475 111.991 87.834C112.967 88.1139 113.719 88.5176 114.246 89.0449C114.78 89.5658 115.051 90.181 115.057 90.8906C115.051 91.6068 114.78 92.2253 114.246 92.7461C113.719 93.2669 112.967 93.6673 111.991 93.9473C111.021 94.2272 109.888 94.3672 108.592 94.3672C107.29 94.3672 106.151 94.2272 105.174 93.9473C104.198 93.6673 103.442 93.2669 102.909 92.7461C102.375 92.2253 102.108 91.6068 102.108 90.8906C102.108 90.181 102.375 89.5658 102.909 89.0449C103.442 88.5176 104.198 88.1139 105.174 87.834C106.151 87.5475 107.29 87.401 108.592 87.3945ZM108.592 89.3477C107.329 89.3477 106.362 89.4746 105.692 89.7285C105.028 89.9824 104.699 90.3698 104.705 90.8906C104.699 91.3984 105.031 91.7826 105.702 92.043C106.372 92.3034 107.336 92.4336 108.592 92.4336C109.842 92.4336 110.802 92.3034 111.473 92.043C112.144 91.7826 112.479 91.3984 112.479 90.8906C112.479 90.3698 112.144 89.9824 111.473 89.7285C110.809 89.4746 109.849 89.3477 108.592 89.3477ZM133.641 102.727H117.372V100.676H124.227V97.043H119.091V88.332H131.825V97.043H126.708V100.676H133.641V102.727ZM121.552 95.0898H129.364V90.3242H121.552V95.0898ZM149.452 100.422H146.933V98.4492H143.456V96.4961H146.933V87.043H149.452V100.422ZM149.863 104.484H136.601V99.0547H138.886V95.6367C137.668 95.6888 136.191 95.7214 134.452 95.7344L134.14 93.7617C137.07 93.7487 139.508 93.6836 141.454 93.5664C141.643 92.2578 141.757 91.0273 141.796 89.875H135.761V87.9023H144.296V88.5664C144.296 89.2956 144.273 90.0345 144.228 90.7832C144.189 91.5254 144.094 92.388 143.945 93.3711C144.713 93.293 145.286 93.2279 145.663 93.1758L145.82 94.9336C144.465 95.1745 142.974 95.36 141.347 95.4902V99.3086H139.101V102.492H149.863V104.484ZM171.562 97.2188H155.352V95.207H171.562V97.2188ZM163.438 98.2148C164.714 98.2148 165.814 98.3451 166.738 98.6055C167.669 98.8659 168.382 99.2435 168.877 99.7383C169.372 100.233 169.622 100.826 169.629 101.516C169.622 102.212 169.372 102.805 168.877 103.293C168.382 103.788 167.673 104.162 166.748 104.416C165.824 104.67 164.72 104.797 163.438 104.797C162.142 104.797 161.025 104.67 160.088 104.416C159.157 104.162 158.444 103.788 157.949 103.293C157.454 102.805 157.207 102.212 157.207 101.516C157.207 100.826 157.454 100.233 157.949 99.7383C158.451 99.2435 159.167 98.8659 160.098 98.6055C161.035 98.3451 162.148 98.2148 163.438 98.2148ZM163.438 100.148C162.194 100.148 161.266 100.262 160.654 100.49C160.042 100.712 159.74 101.053 159.746 101.516C159.74 101.971 160.042 102.31 160.654 102.531C161.273 102.753 162.201 102.863 163.438 102.863C165.879 102.863 167.109 102.414 167.129 101.516C167.122 101.053 166.81 100.712 166.191 100.49C165.573 100.262 164.655 100.148 163.438 100.148ZM170.098 89.8359H165.244C165.387 90.2656 165.69 90.6725 166.152 91.0566C166.615 91.4408 167.243 91.7728 168.037 92.0527C168.838 92.3262 169.785 92.5117 170.879 92.6094L170 94.5625C168.359 94.4062 166.976 94.0352 165.85 93.4492C164.73 92.8633 163.926 92.1309 163.438 91.252C162.956 92.1374 162.155 92.873 161.035 93.459C159.922 94.0384 158.542 94.4062 156.895 94.5625L156.074 92.6094C157.142 92.5117 158.07 92.3262 158.857 92.0527C159.652 91.7793 160.28 91.4505 160.742 91.0664C161.204 90.6823 161.507 90.2721 161.65 89.8359H156.836V87.8438H170.098V89.8359ZM187.217 97.5703H184.737V93.3711H181.963V91.3594H184.737V87.0234H187.217V97.5703ZM181.143 97.9609C182.406 97.9674 183.493 98.1074 184.405 98.3809C185.323 98.6478 186.029 99.0384 186.524 99.5527C187.019 100.067 187.269 100.682 187.276 101.398C187.269 102.108 187.019 102.72 186.524 103.234C186.029 103.749 185.323 104.139 184.405 104.406C183.487 104.68 182.399 104.816 181.143 104.816C179.886 104.816 178.799 104.68 177.881 104.406C176.963 104.139 176.257 103.749 175.762 103.234C175.274 102.72 175.03 102.108 175.03 101.398C175.03 100.682 175.274 100.067 175.762 99.5527C176.257 99.0384 176.96 98.6478 177.871 98.3809C178.789 98.1074 179.88 97.9674 181.143 97.9609ZM181.143 99.875C178.721 99.875 177.51 100.383 177.51 101.398C177.51 101.906 177.816 102.287 178.428 102.541C179.047 102.795 179.952 102.922 181.143 102.922C182.334 102.922 183.239 102.795 183.858 102.541C184.483 102.281 184.795 101.9 184.795 101.398C184.795 100.383 183.578 99.875 181.143 99.875ZM182.491 90.0898H178.955C178.975 90.806 179.135 91.4961 179.434 92.1602C179.74 92.8177 180.192 93.4102 180.791 93.9375C181.397 94.4648 182.146 94.875 183.038 95.168L181.807 97.1211C180.857 96.8151 180.036 96.3594 179.346 95.7539C178.663 95.1419 178.122 94.4225 177.725 93.5957C177.315 94.5332 176.748 95.347 176.026 96.0371C175.303 96.7207 174.431 97.2383 173.409 97.5898L172.12 95.6172C173.057 95.3047 173.842 94.862 174.473 94.2891C175.111 93.7096 175.586 93.0586 175.899 92.3359C176.218 91.6133 176.39 90.8646 176.416 90.0898H172.842V88.0977H182.491V90.0898ZM192.911 98.7617H190.411L190.157 88.8594H193.165L192.911 98.7617ZM191.68 103.176C191.381 103.176 191.104 103.101 190.85 102.951C190.596 102.801 190.395 102.603 190.245 102.355C190.102 102.102 190.033 101.828 190.04 101.535C190.033 101.242 190.102 100.972 190.245 100.725C190.395 100.477 190.596 100.282 190.85 100.139C191.104 99.9889 191.381 99.9141 191.68 99.9141C191.96 99.9141 192.224 99.9889 192.471 100.139C192.725 100.282 192.927 100.477 193.077 100.725C193.227 100.972 193.302 101.242 193.302 101.535C193.302 101.828 193.227 102.102 193.077 102.355C192.927 102.603 192.725 102.801 192.471 102.951C192.224 103.101 191.96 103.176 191.68 103.176Z" fill="white"/>
<defs>
<clipPath id="clip0_2_3873">
<rect width="165" height="165" fill="white" transform="translate(195)"/>
</clipPath>
</defs>
</svg>
