<svg width="337" height="163" viewBox="0 0 337 163" fill="none" xmlns="http://www.w3.org/2000/svg">
<rect x="0.35498" y="0.36554" width="336" height="161.769" fill="white"/>
<rect x="0.35498" y="0.36554" width="336" height="161.769" stroke="black"/>
<g clip-path="url(#clip0_11_3154)">
<path d="M206 55.694C206 57.92 205.795 60.0659 205.394 62.1438C204.192 68.3337 201.273 73.8239 197.129 78.2639C197.121 78.279 197.114 78.2901 197.106 78.2971C190.193 85.6628 179.88 90.1359 168.354 90.1359C147.569 90.1344 130.71 75.5966 130.71 55.694C130.71 50.3503 131.923 45.1669 134.109 40.4338C136.284 35.7007 139.432 31.4315 143.289 27.9179C145.967 25.5227 147.548 23.3208 148.29 21.3215C148.759 20.0899 148.909 18.9262 148.828 17.8427C148.188 10.001 134.945 6.05827 134.945 6.05827C134.945 6.05827 134.956 6.05827 134.979 6.0356C135.14 5.89959 135.861 5.34649 137.062 4.70271C138.607 3.88968 140.919 2.95122 143.86 2.6248C144.055 2.60213 144.239 2.57946 144.421 2.56888C149.445 2.1397 149.812 3.84586 154.264 3.99244C158.476 4.11636 160.216 0.998737 166.808 0.456212C167.128 0.400297 167.483 0.36554 167.884 0.36554C168.045 0.36554 168.193 0.376118 168.354 0.376118C168.515 0.376118 168.664 0.36554 168.823 0.36554C169.224 0.36554 169.578 0.398786 169.899 0.456212C176.491 0.998737 178.232 4.11636 182.443 3.99244C187.055 3.84586 187.285 2.01578 192.848 2.6248C198.204 3.21266 201.512 5.84368 201.752 6.04769L201.763 6.05827C201.763 6.05827 191.027 9.25448 188.429 15.6152H188.417C188.13 16.3148 187.948 17.0614 187.879 17.8397C187.8 18.9247 187.948 20.0883 188.406 21.3185C189.161 23.3178 190.729 25.5211 193.419 27.9149C201.134 34.9405 205.998 45.0052 205.998 55.6909L206 55.694Z" fill="url(#paint0_linear_11_3154)"/>
<g style="mix-blend-mode:multiply" opacity="0.3">
<path d="M205.394 62.1438C202.189 78.6583 186.816 90.136 168.356 90.136C147.569 90.1344 130.71 75.5966 130.71 55.694C130.71 50.3503 131.923 45.1669 134.109 40.4338C136.284 35.7007 139.432 31.4315 143.289 27.9179C159.553 13.4013 134.945 6.05829 134.945 6.05829C134.945 6.05829 138.299 3.23384 143.862 2.62482C144.056 2.60216 144.24 2.57949 144.422 2.56891C147.822 8.72558 155.158 13.7186 165.791 14.2596C180.064 14.9941 188.042 15.5804 188.42 15.6152C187.778 15.6938 163.194 18.8235 149.515 31.7126C135.654 44.7589 147.741 80.5337 176.733 81.5387C190.525 82.0132 199.659 72.4911 205.394 62.1438Z" fill="url(#paint1_linear_11_3154)"/>
</g>
<path opacity="0.3" d="M197.106 78.2971C190.193 85.6627 179.88 90.1359 168.354 90.1359C147.569 90.1344 130.71 75.5966 130.71 55.6939C130.71 50.3503 131.923 45.1669 134.109 40.4337C136.284 35.7006 139.432 31.4315 143.289 27.9179C159.553 13.4012 134.945 6.05825 134.945 6.05825C134.945 6.05825 135.69 5.43715 137.063 4.7027C141.171 6.43152 150.809 11.0165 152 16.5188C153.523 23.5566 140.943 29.5198 136.239 39.5844C131.523 49.6612 126.625 79.2779 164.626 87.8177C177.604 90.7313 188.455 85.9091 197.11 78.2956L197.106 78.2971Z" fill="#19236E"/>
<path d="M201.754 6.04773C201.376 5.84372 192.827 1.31462 187.138 5.04278C181.324 8.84952 172.535 2.5387 169.008 2.44803C165.483 2.35736 164.384 4.0484 157.368 5.28004C150.362 6.49959 150.981 3.4953 146.277 3.43939C141.744 3.39405 135.46 5.85732 134.979 6.03716C135.14 5.90115 135.861 5.34804 137.062 4.70427C138.607 3.89124 140.919 2.95278 143.86 2.62635C144.055 2.60369 144.239 2.58102 144.421 2.57044C149.445 2.14126 149.812 3.84741 154.264 3.994C158.476 4.11792 160.216 1.00029 166.808 0.457769C167.128 0.401854 167.483 0.367096 167.884 0.367096C168.045 0.367096 168.193 0.377674 168.354 0.377674C168.515 0.377674 168.664 0.367096 168.823 0.367096C169.224 0.367096 169.578 0.400343 169.899 0.457769C176.491 1.00029 178.232 4.11792 182.443 3.994C187.055 3.84741 187.285 2.01734 192.848 2.62635C198.204 3.21422 201.512 5.84523 201.752 6.04925L201.754 6.04773Z" fill="url(#paint2_linear_11_3154)"/>
<path d="M148.29 21.32C148.759 20.0884 148.909 18.9247 148.828 17.8412H187.881C187.801 18.9262 187.95 20.0899 188.408 21.32H148.29Z" fill="white"/>
<path d="M168.051 22.5168C170.322 22.5168 172.162 21.1048 172.162 19.3629C172.162 17.6211 170.322 16.209 168.051 16.209C165.78 16.209 163.94 17.6211 163.94 19.3629C163.94 21.1048 165.78 22.5168 168.051 22.5168Z" fill="white"/>
<g style="mix-blend-mode:multiply" opacity="0.3">
<path d="M166.702 21.0933C162.364 25.5831 162.139 33.251 162.232 33.6893C162.326 34.1275 165.624 33.7618 165.624 33.7618C165.624 33.7618 165.37 29.9792 166.399 26.4415C167.428 22.9038 168.604 21.1054 168.604 21.1054L166.702 21.0933Z" fill="url(#paint3_linear_11_3154)"/>
</g>
<path d="M167.567 20.1201C162.656 23.9933 161.39 31.5629 161.422 32.0087C161.456 32.4545 164.774 32.5301 164.774 32.5301C164.774 32.5301 165.038 28.7476 166.538 25.3791C168.039 22.0091 169.449 20.3845 169.449 20.3845L167.566 20.1201H167.567Z" fill="white"/>
<g style="mix-blend-mode:multiply" opacity="0.3">
<path d="M170.844 21.0782C175.219 25.5332 175.507 33.1996 175.416 33.6378C175.326 34.0761 172.025 33.7361 172.025 33.7361C172.025 33.7361 172.247 29.952 171.19 26.4218C170.134 22.8931 168.942 21.1039 168.942 21.1039L170.844 21.0767V21.0782Z" fill="url(#paint4_linear_11_3154)"/>
</g>
<path d="M170.032 20.1201C174.943 23.9933 176.209 31.5629 176.177 32.0087C176.144 32.4545 172.825 32.5301 172.825 32.5301C172.825 32.5301 172.562 28.7476 171.061 25.3791C169.561 22.0091 168.151 20.3845 168.151 20.3845L170.034 20.1201H170.032Z" fill="white"/>
<path d="M164.462 20.4057C163.391 20.4057 162.105 20.2682 160.56 19.9236C155.536 18.8008 152.69 15.1407 152.561 12.2648C152.501 10.944 153.083 9.96024 154.114 9.63382C157.378 8.59864 165.247 9.92397 169.509 17.7656L169.636 17.9984L169.535 18.2432C169.49 18.352 168.589 20.4057 164.46 20.4057H164.462ZM156.368 10.471C155.57 10.471 154.914 10.5662 154.466 10.7083C153.757 10.9335 153.686 11.748 153.706 12.2135C153.8 14.3186 156.068 17.7596 160.814 18.8205C166.135 20.0098 167.886 18.5681 168.344 18.0105C164.923 11.9732 159.536 10.471 156.369 10.471H156.368Z" fill="white"/>
<path d="M172.784 20.4057C168.654 20.4057 167.754 18.3535 167.71 18.2432L167.609 17.9983L167.736 17.7656C171.997 9.92244 179.868 8.60164 183.131 9.6338C184.161 9.96022 184.743 10.944 184.683 12.2648C184.555 15.1406 181.708 18.8008 176.686 19.9236C175.141 20.2682 173.854 20.4057 172.784 20.4057ZM168.904 18.0104C169.36 18.5681 171.11 20.0098 176.433 18.8204C181.178 17.7611 183.446 14.3186 183.54 12.2134C183.561 11.748 183.489 10.9319 182.78 10.7083C180.549 10.001 173.185 10.4529 168.902 18.0104H168.904Z" fill="white"/>
<path d="M178.128 57.2903L177.12 58.4378L168.355 68.4162L158.583 57.2903C156.168 54.5412 156.168 50.0709 158.583 47.3119C159.792 45.9398 161.374 45.2513 162.965 45.2513C164.556 45.2513 166.138 45.9398 167.348 47.3119L168.355 48.4594L169.363 47.3119C171.778 44.5628 175.705 44.5628 178.124 47.3119C180.543 50.0709 180.543 54.5412 178.124 57.2903H178.128Z" fill="white"/>
</g>
<path d="M156.399 116.534C154.511 116.534 152.855 116.302 151.431 115.838C150.007 115.358 148.903 114.686 148.119 113.822C147.351 112.942 146.967 111.934 146.967 110.798C146.967 109.662 147.351 108.662 148.119 107.798C148.903 106.918 150.007 106.246 151.431 105.782C152.855 105.302 154.511 105.062 156.399 105.062C158.287 105.062 159.943 105.302 161.367 105.782C162.791 106.246 163.887 106.918 164.655 107.798C165.439 108.662 165.831 109.662 165.831 110.798C165.831 111.934 165.439 112.942 164.655 113.822C163.887 114.686 162.791 115.358 161.367 115.838C159.943 116.302 158.287 116.534 156.399 116.534ZM156.399 108.686C154.879 108.686 153.639 108.87 152.679 109.238C151.719 109.606 151.239 110.126 151.239 110.798C151.239 111.47 151.719 111.99 152.679 112.358C153.639 112.726 154.879 112.91 156.399 112.91C157.919 112.91 159.159 112.726 160.119 112.358C161.079 111.99 161.559 111.47 161.559 110.798C161.559 110.126 161.079 109.606 160.119 109.238C159.159 108.87 157.919 108.686 156.399 108.686ZM166.767 121.502H158.487V126.11H154.311V121.502H146.031V117.758H166.767V121.502ZM176.029 112.502C174.141 112.502 172.637 112.174 171.517 111.518C170.397 110.862 169.837 109.926 169.837 108.71C169.837 107.494 170.397 106.558 171.517 105.902C172.637 105.246 174.141 104.918 176.029 104.918C177.917 104.918 179.421 105.246 180.541 105.902C181.661 106.558 182.221 107.494 182.221 108.71C182.221 109.926 181.661 110.862 180.541 111.518C179.421 112.174 177.917 112.502 176.029 112.502ZM184.909 110.654H183.037V107.054H184.909V105.134H188.965V116.222H184.909V110.654ZM176.029 107.678C175.293 107.678 174.717 107.766 174.301 107.942C173.901 108.118 173.701 108.374 173.701 108.71C173.701 109.046 173.901 109.302 174.301 109.478C174.717 109.654 175.293 109.742 176.029 109.742C176.765 109.742 177.333 109.654 177.733 109.478C178.149 109.302 178.357 109.046 178.357 108.71C178.357 108.374 178.149 108.118 177.733 107.942C177.333 107.766 176.765 107.678 176.029 107.678ZM189.205 123.086V125.63H170.653V120.206H185.005V119.486H170.605V116.942H174.013V115.982H168.997V113.078H178.429C179.421 113.078 180.397 113.014 181.357 112.886C182.333 112.758 183.125 112.582 183.733 112.358V115.238C182.597 115.734 180.805 115.982 178.357 115.982H177.997V116.942H188.965V122.366H174.589V123.086H189.205Z" fill="#6433F0"/>
<path d="M122.924 153.482H116.166V159.107H113.06V153.482H106.439V150.963H122.924V153.482ZM114.623 141.548C115.925 141.542 117.087 141.711 118.109 142.056C119.131 142.395 119.929 142.883 120.502 143.521C121.075 144.153 121.361 144.888 121.361 145.728C121.361 146.542 121.075 147.258 120.502 147.877C119.929 148.495 119.131 148.974 118.109 149.312C117.087 149.644 115.925 149.81 114.623 149.81C113.321 149.81 112.162 149.644 111.146 149.312C110.137 148.974 109.35 148.495 108.783 147.877C108.217 147.258 107.937 146.542 107.943 145.728C107.937 144.888 108.217 144.153 108.783 143.521C109.35 142.883 110.137 142.395 111.146 142.056C112.162 141.711 113.321 141.542 114.623 141.548ZM114.623 144.029C113.516 144.029 112.663 144.172 112.064 144.459C111.465 144.739 111.166 145.162 111.166 145.728C111.166 146.255 111.465 146.659 112.064 146.939C112.67 147.213 113.523 147.349 114.623 147.349C115.736 147.349 116.592 147.213 117.191 146.939C117.797 146.666 118.1 146.262 118.1 145.728C118.1 145.162 117.8 144.739 117.201 144.459C116.602 144.172 115.743 144.029 114.623 144.029ZM138.898 159.127H135.773V141.002H138.898V159.127ZM133.234 149.732H127.785V152.437C129.132 152.418 130.356 152.366 131.457 152.281C132.563 152.19 133.67 152.05 134.777 151.861L135.031 154.38C133.748 154.621 132.433 154.784 131.085 154.869C129.738 154.947 128.123 154.986 126.242 154.986H124.542V147.291H130.031V144.927H124.542V142.427H133.234V149.732ZM146.61 142.154C147.561 142.147 148.424 142.343 149.198 142.74C149.98 143.13 150.592 143.674 151.034 144.371C151.483 145.061 151.708 145.839 151.708 146.705C151.708 147.577 151.483 148.362 151.034 149.058C150.592 149.748 149.98 150.289 149.198 150.679C148.424 151.07 147.561 151.262 146.61 151.255C145.673 151.262 144.814 151.07 144.032 150.679C143.258 150.289 142.642 149.745 142.187 149.048C141.737 148.352 141.513 147.571 141.513 146.705C141.513 145.845 141.737 145.067 142.187 144.371C142.642 143.674 143.258 143.13 144.032 142.74C144.814 142.343 145.673 142.147 146.61 142.154ZM146.61 144.849C146.038 144.849 145.566 145.012 145.194 145.338C144.823 145.657 144.638 146.112 144.638 146.705C144.638 147.31 144.82 147.772 145.185 148.091C145.556 148.404 146.031 148.56 146.61 148.56C147.216 148.56 147.707 148.404 148.085 148.091C148.469 147.772 148.661 147.31 148.661 146.705C148.661 146.112 148.469 145.657 148.085 145.338C147.701 145.012 147.209 144.849 146.61 144.849ZM156.2 159.127H153.095V141.002H156.2V159.127ZM140.868 153.111C142.926 153.111 144.905 153.075 146.806 153.004C148.707 152.925 150.497 152.772 152.177 152.545L152.411 154.791C150.686 155.136 148.922 155.36 147.118 155.464C145.315 155.562 143.349 155.611 141.22 155.611L140.868 153.111ZM166.742 141.939C167.504 141.939 168.191 142.089 168.803 142.388C169.422 142.688 169.907 143.104 170.258 143.638C170.61 144.172 170.785 144.771 170.785 145.435C170.785 146.099 170.61 146.695 170.258 147.222C169.907 147.75 169.422 148.16 168.803 148.453C168.191 148.746 167.504 148.892 166.742 148.892C165.961 148.892 165.258 148.746 164.633 148.453C164.015 148.16 163.53 147.75 163.178 147.222C162.826 146.695 162.654 146.099 162.66 145.435C162.654 144.771 162.826 144.172 163.178 143.638C163.53 143.104 164.015 142.688 164.633 142.388C165.258 142.089 165.961 141.939 166.742 141.939ZM166.742 144.224C166.326 144.224 166 144.328 165.766 144.537C165.532 144.739 165.414 145.038 165.414 145.435C165.414 145.819 165.532 146.112 165.766 146.314C166 146.509 166.326 146.601 166.742 146.588C167.14 146.601 167.452 146.509 167.68 146.314C167.914 146.112 168.032 145.819 168.032 145.435C168.032 145.045 167.914 144.745 167.68 144.537C167.452 144.328 167.14 144.224 166.742 144.224ZM178.442 159.068H175.512V141.002H178.442V159.068ZM174.653 158.306H171.723V154.83H169.184V152.466H171.723V141.236H174.653V158.306ZM163.129 149.576C166.508 149.576 169.125 149.439 170.981 149.166L171.215 151.47C170.291 151.653 169.282 151.789 168.188 151.88V157.681H165.258V152.056C164.698 152.082 163.917 152.095 162.914 152.095H162.289L161.977 149.576H163.129ZM194.67 151.607H191.525V141.002H194.67V151.607ZM189.084 144.81H183.517V148.453C185.08 148.44 186.372 148.394 187.394 148.316C188.423 148.231 189.422 148.098 190.392 147.916L190.646 150.396C189.566 150.617 188.417 150.764 187.199 150.836C185.982 150.907 184.26 150.943 182.033 150.943H180.412V142.33H189.084V144.81ZM188.459 151.88C189.728 151.874 190.835 152.014 191.779 152.3C192.723 152.587 193.449 153.004 193.957 153.55C194.471 154.097 194.728 154.752 194.728 155.513C194.728 156.262 194.471 156.907 193.957 157.447C193.449 157.994 192.723 158.41 191.779 158.697C190.835 158.983 189.728 159.127 188.459 159.127C187.163 159.127 186.044 158.983 185.1 158.697C184.156 158.41 183.43 157.994 182.922 157.447C182.42 156.907 182.17 156.262 182.17 155.513C182.17 154.752 182.42 154.097 182.922 153.55C183.43 153.004 184.156 152.587 185.1 152.3C186.044 152.014 187.163 151.874 188.459 151.88ZM188.459 154.322C187.723 154.322 187.128 154.361 186.672 154.439C186.216 154.511 185.874 154.634 185.646 154.81C185.425 154.979 185.314 155.214 185.314 155.513C185.314 155.93 185.568 156.233 186.076 156.422C186.584 156.61 187.378 156.705 188.459 156.705C189.54 156.705 190.34 156.61 190.861 156.422C191.382 156.233 191.642 155.93 191.642 155.513C191.642 155.077 191.385 154.771 190.871 154.595C190.363 154.413 189.559 154.322 188.459 154.322ZM212.167 151.392H209.042V151.08H206.035V149.263H209.042V141.041H212.167V151.392ZM196.66 147.115C198.964 147.115 201.038 147.095 202.88 147.056C204.729 147.011 206.51 146.92 208.222 146.783L208.359 148.677C206.966 148.86 205.475 148.993 203.886 149.078V151.392H200.761V149.195C200.319 149.201 199.674 149.205 198.828 149.205H196.972L196.66 147.115ZM212.167 156.373H202.285V156.861H212.48V158.99H199.199V154.4H209.062V153.912H199.14V151.861H212.167V156.373ZM202.402 141.216C203.294 141.223 204.085 141.34 204.775 141.568C205.472 141.796 206.015 142.115 206.406 142.525C206.796 142.935 206.992 143.404 206.992 143.931C206.992 144.485 206.796 144.966 206.406 145.377C206.022 145.78 205.481 146.093 204.785 146.314C204.095 146.535 203.3 146.646 202.402 146.646C201.484 146.646 200.677 146.539 199.98 146.324C199.283 146.102 198.74 145.787 198.349 145.377C197.965 144.966 197.773 144.485 197.773 143.931C197.773 143.404 197.965 142.935 198.349 142.525C198.74 142.115 199.283 141.796 199.98 141.568C200.683 141.34 201.49 141.223 202.402 141.216ZM202.402 143.228C201.868 143.228 201.455 143.29 201.162 143.414C200.875 143.531 200.735 143.703 200.742 143.931C200.722 144.387 201.276 144.615 202.402 144.615C203.522 144.615 204.082 144.387 204.082 143.931C204.082 143.703 203.935 143.531 203.642 143.414C203.349 143.29 202.936 143.228 202.402 143.228ZM220.817 147.935H217.497V149.224C218.344 149.205 219.102 149.169 219.773 149.117C220.443 149.058 221.13 148.97 221.833 148.853L222.107 151.275C221.234 151.438 220.355 151.542 219.47 151.588C218.584 151.627 217.354 151.646 215.778 151.646H214.47V145.709H217.829V144.615H214.45V142.173H220.817V147.935ZM229.431 153.267H226.462V141.041H229.431V153.267ZM225.661 151.666H222.732V147.173H221.423V144.713H222.732V141.353H225.661V151.666ZM224.587 152.642C224.58 153.222 224.75 153.782 225.095 154.322C225.44 154.862 226.029 155.344 226.862 155.767C227.696 156.184 228.799 156.47 230.173 156.627L228.982 158.99C227.556 158.808 226.345 158.466 225.349 157.964C224.359 157.47 223.584 156.845 223.025 156.089C222.452 156.845 221.667 157.47 220.671 157.964C219.681 158.466 218.48 158.808 217.067 158.99L215.876 156.627C217.23 156.47 218.321 156.184 219.148 155.767C219.981 155.344 220.57 154.862 220.915 154.322C221.267 153.782 221.442 153.222 221.442 152.642V152.388H224.587V152.642Z" fill="black"/>
<defs>
<linearGradient id="paint0_linear_11_3154" x1="206" y1="49.5255" x2="130.706" y2="48.8988" gradientUnits="userSpaceOnUse">
<stop stop-color="#6433F0"/>
<stop offset="1" stop-color="#7151CB"/>
</linearGradient>
<linearGradient id="paint1_linear_11_3154" x1="205.394" y1="50.5223" x2="130.706" y2="49.8901" gradientUnits="userSpaceOnUse">
<stop stop-color="#6433F0"/>
<stop offset="1" stop-color="#7151CB"/>
</linearGradient>
<linearGradient id="paint2_linear_11_3154" x1="134.979" y1="3.31484" x2="201.754" y2="3.31484" gradientUnits="userSpaceOnUse">
<stop stop-color="#6433F0"/>
<stop offset="0.85" stop-color="#23154E"/>
</linearGradient>
<linearGradient id="paint3_linear_11_3154" x1="168.604" y1="28.1091" x2="162.217" y2="28.0775" gradientUnits="userSpaceOnUse">
<stop stop-color="#6433F0"/>
<stop offset="1" stop-color="#7151CB"/>
</linearGradient>
<linearGradient id="paint4_linear_11_3154" x1="175.429" y1="28.078" x2="168.942" y2="28.0454" gradientUnits="userSpaceOnUse">
<stop stop-color="#6433F0"/>
<stop offset="1" stop-color="#7151CB"/>
</linearGradient>
<clipPath id="clip0_11_3154">
<rect width="75.29" height="89.7689" fill="white" transform="translate(130.71 0.36554)"/>
</clipPath>
</defs>
</svg>
