<svg width="25" height="24" viewBox="0 0 25 24" fill="none" xmlns="http://www.w3.org/2000/svg">
<rect width="24" height="24" transform="translate(0.5)" fill="white"/>
<path d="M7.5 3V7.28571" stroke="#6433F0" stroke-width="1.5" stroke-linecap="round" stroke-linejoin="round"/>
<path d="M17.5 3V7.28571" stroke="#6433F0" stroke-width="1.5" stroke-linecap="round" stroke-linejoin="round"/>
<path d="M4.92857 5C4.54969 5 4.18633 5.15051 3.91842 5.41842C3.65051 5.68633 3.5 6.04969 3.5 6.42857V20C3.5 20.3789 3.65051 20.7422 3.91842 21.0102C4.18633 21.2781 4.54969 21.4286 4.92857 21.4286H20.6429C21.0217 21.4286 21.3851 21.2781 21.653 21.0102C21.9209 20.7422 22.0714 20.3789 22.0714 20V6.42857C22.0714 6.04969 21.9209 5.68633 21.653 5.41842C21.3851 5.15051 21.0217 5 20.6429 5H17.7857" fill="#6433F0"/>
<path d="M12.7165 8.93257L13.9117 11.3368C13.9384 11.3976 13.9808 11.4502 14.0345 11.4893C14.0882 11.5284 14.1513 11.5525 14.2174 11.5592L16.8718 11.9622C16.9477 11.972 17.0192 12.0033 17.0779 12.0523C17.1367 12.1014 17.1803 12.1661 17.2036 12.239C17.2269 12.3119 17.229 12.3899 17.2096 12.4639C17.1903 12.538 17.1502 12.6049 17.0941 12.657L15.1346 14.5193C15.1054 14.575 15.0901 14.637 15.0901 14.6999C15.0901 14.7629 15.1054 14.8249 15.1346 14.8806L15.5099 17.5211C15.5259 17.5974 15.5194 17.6767 15.4912 17.7494C15.463 17.8222 15.4144 17.8851 15.3511 17.9307C15.2878 17.9763 15.2127 18.0026 15.1348 18.0064C15.0569 18.0101 14.9796 17.9912 14.9123 17.9519L12.5497 16.7011C12.4886 16.6735 12.4223 16.6592 12.3552 16.6592C12.2881 16.6592 12.2218 16.6735 12.1606 16.7011L9.79808 17.9519C9.73073 17.9912 9.65342 18.0101 9.57553 18.0064C9.49763 18.0026 9.4225 17.9763 9.35925 17.9307C9.29599 17.8851 9.24732 17.8222 9.21914 17.7494C9.19096 17.6767 9.18449 17.5974 9.2005 17.5211L9.64521 14.8806C9.66433 14.8193 9.66799 14.7542 9.65587 14.6912C9.64375 14.6282 9.61621 14.5691 9.57572 14.5193L7.61621 12.6431C7.56423 12.5905 7.52775 12.5245 7.51077 12.4525C7.49378 12.3805 7.49694 12.3052 7.51991 12.2349C7.54287 12.1646 7.58475 12.1019 7.64096 12.0538C7.69717 12.0057 7.76553 11.974 7.83856 11.9622L10.4929 11.573C10.559 11.5664 10.6221 11.5423 10.6759 11.5032C10.7296 11.4641 10.772 11.4115 10.7987 11.3507L11.9938 8.94647C12.0258 8.87841 12.0762 8.82065 12.1393 8.77973C12.2024 8.73882 12.2757 8.71636 12.3509 8.71492C12.426 8.71347 12.5001 8.73309 12.5647 8.77155C12.6294 8.81002 12.6819 8.86579 12.7165 8.93257Z" fill="white"/>
</svg>
