<svg width="25" height="24" viewBox="0 0 25 24" fill="none" xmlns="http://www.w3.org/2000/svg">
<rect width="24" height="24" transform="translate(0.5)" fill="white"/>
<path d="M4.92857 5.14355C4.54969 5.14355 4.18633 5.29406 3.91842 5.56197C3.65051 5.82988 3.5 6.19325 3.5 6.57213V20.1436C3.5 20.5224 3.65051 20.8858 3.91842 21.1537C4.18633 21.4216 4.54969 21.5721 4.92857 21.5721H20.6429C21.0217 21.5721 21.3851 21.4216 21.653 21.1537C21.9209 20.8858 22.0714 20.5224 22.0714 20.1436V6.57213C22.0714 6.19325 21.9209 5.82988 21.653 5.56197C21.3851 5.29406 21.0217 5.14355 20.6429 5.14355H17.7857" stroke="black" stroke-width="1.5" stroke-linecap="round" stroke-linejoin="round"/>
<path d="M7.78577 3V7.28571" stroke="black" stroke-width="1.5" stroke-linecap="round" stroke-linejoin="round"/>
<path d="M17.7858 3V7.28571" stroke="black" stroke-width="1.5" stroke-linecap="round" stroke-linejoin="round"/>
<path d="M7.78577 5.14355H14.9286" stroke="black" stroke-width="1.5" stroke-linecap="round" stroke-linejoin="round"/>
<path d="M13.1409 8.93257L14.3361 11.3368C14.3628 11.3976 14.4052 11.4502 14.4589 11.4893C14.5126 11.5284 14.5758 11.5525 14.6418 11.5592L17.2962 11.9622C17.3721 11.972 17.4436 12.0033 17.5024 12.0523C17.5611 12.1014 17.6047 12.1661 17.6281 12.239C17.6514 12.3119 17.6535 12.3899 17.6341 12.4639C17.6147 12.538 17.5746 12.6049 17.5186 12.657L15.5591 14.5193C15.5298 14.575 15.5146 14.637 15.5146 14.6999C15.5146 14.7629 15.5298 14.8249 15.5591 14.8806L15.9343 17.5211C15.9503 17.5974 15.9438 17.6767 15.9156 17.7494C15.8875 17.8222 15.8388 17.8851 15.7755 17.9307C15.7123 17.9763 15.6372 18.0026 15.5593 18.0064C15.4814 18.0101 15.4041 17.9912 15.3367 17.9519L12.9742 16.7011C12.913 16.6735 12.8467 16.6592 12.7796 16.6592C12.7125 16.6592 12.6462 16.6735 12.5851 16.7011L10.2225 17.9519C10.1552 17.9912 10.0779 18.0101 9.99996 18.0064C9.92207 18.0026 9.84694 17.9763 9.78368 17.9307C9.72043 17.8851 9.67176 17.8222 9.64358 17.7494C9.6154 17.6767 9.60892 17.5974 9.62493 17.5211L10.0696 14.8806C10.0888 14.8193 10.0924 14.7542 10.0803 14.6912C10.0682 14.6282 10.0407 14.5691 10.0002 14.5193L8.04065 12.6431C7.98867 12.5905 7.95219 12.5245 7.9352 12.4525C7.91822 12.3805 7.92138 12.3052 7.94435 12.2349C7.96731 12.1646 8.00919 12.1019 8.0654 12.0538C8.12161 12.0057 8.18997 11.974 8.263 11.9622L10.9174 11.573C10.9835 11.5664 11.0466 11.5423 11.1003 11.5032C11.154 11.4641 11.1964 11.4115 11.2231 11.3507L12.4183 8.94647C12.4503 8.87841 12.5006 8.82065 12.5637 8.77973C12.6268 8.73882 12.7001 8.71636 12.7753 8.71492C12.8505 8.71347 12.9246 8.73309 12.9892 8.77155C13.0538 8.81002 13.1064 8.86579 13.1409 8.93257Z" stroke="black" stroke-width="1.5" stroke-linecap="round" stroke-linejoin="round"/>
</svg>
