<svg width="48" height="48" viewBox="0 0 48 48" fill="none" xmlns="http://www.w3.org/2000/svg">
<g clip-path="url(#clip0_3_5091)">
<g clip-path="url(#clip1_3_5091)">
<path d="M39.5617 10.9695H8.71245C7.76728 10.9695 7 11.747 7 12.7107V34.7214C7 35.6851 7.76728 36.4627 8.71245 36.4627H39.5635C40.5123 36.4627 41.2778 35.6833 41.2778 34.7214V12.7107C41.2778 11.747 40.5105 10.9695 39.5635 10.9695H39.5617ZM37.0694 11.7981C37.418 11.7981 37.7037 12.0883 37.7037 12.4424C37.7037 12.7965 37.418 13.0831 37.0694 13.0831C36.7208 13.0831 36.4387 12.7965 36.4387 12.4424C36.4387 12.0883 36.7208 11.7981 37.0694 11.7981ZM30.6059 11.7981C30.9545 11.7981 31.2367 12.0883 31.2367 12.4424C31.2367 12.7965 30.9545 13.0831 30.6059 13.0831C30.2573 13.0831 29.9716 12.7965 29.9716 12.4424C29.9716 12.0883 30.2573 11.7981 30.6059 11.7981ZM24.1407 11.7981C24.4893 11.7981 24.7714 12.0883 24.7714 12.4424C24.7714 12.7965 24.4893 13.0831 24.1407 13.0831C23.7921 13.0831 23.51 12.7965 23.51 12.4424C23.51 12.0883 23.7921 11.7981 24.1407 11.7981ZM17.6736 11.7981C18.0222 11.7981 18.3079 12.0883 18.3079 12.4424C18.3079 12.7965 18.0222 13.0831 17.6736 13.0831C17.325 13.0831 17.0429 12.7965 17.0429 12.4424C17.0429 12.0883 17.325 11.7981 17.6736 11.7981ZM11.2102 11.7981C11.5587 11.7981 11.8409 12.0883 11.8409 12.4424C11.8409 12.7965 11.5587 13.0831 11.2102 13.0831C10.8616 13.0831 10.5758 12.7965 10.5758 12.4424C10.5758 12.0883 10.858 11.7981 11.2102 11.7981Z" fill="#F1F1F1"/>
<path d="M39.5617 10.9695H8.71245C7.76728 10.9695 7 11.747 7 12.7107V13.8022H41.2778V12.7107C41.2778 11.747 40.5105 10.9695 39.5635 10.9695H39.5617ZM11.2102 13.0831C10.858 13.0831 10.5758 12.7965 10.5758 12.4424C10.5758 12.0883 10.858 11.7981 11.2102 11.7981C11.5623 11.7981 11.8409 12.0883 11.8409 12.4424C11.8409 12.7965 11.5587 13.0831 11.2102 13.0831ZM17.6736 13.0831C17.325 13.0831 17.0429 12.7965 17.0429 12.4424C17.0429 12.0883 17.325 11.7981 17.6736 11.7981C18.0222 11.7981 18.3079 12.0883 18.3079 12.4424C18.3079 12.7965 18.0222 13.0831 17.6736 13.0831ZM24.1407 13.0831C23.7921 13.0831 23.51 12.7965 23.51 12.4424C23.51 12.0883 23.7921 11.7981 24.1407 11.7981C24.4893 11.7981 24.7714 12.0883 24.7714 12.4424C24.7714 12.7965 24.4893 13.0831 24.1407 13.0831ZM30.6059 13.0831C30.2573 13.0831 29.9716 12.7965 29.9716 12.4424C29.9716 12.0883 30.2573 11.7981 30.6059 11.7981C30.9545 11.7981 31.2367 12.0883 31.2367 12.4424C31.2367 12.7965 30.9545 13.0831 30.6059 13.0831ZM37.0694 13.0831C36.7208 13.0831 36.4387 12.7965 36.4387 12.4424C36.4387 12.0883 36.7208 11.7981 37.0694 11.7981C37.418 11.7981 37.7037 12.0883 37.7037 12.4424C37.7037 12.7965 37.418 13.0831 37.0694 13.0831Z" fill="#7364FF"/>
<path d="M13.3341 16.7226V18.5807C13.3341 18.9951 13.0034 19.3345 12.5955 19.3345H10.7627C10.3548 19.3345 10.0242 18.9951 10.0242 18.5807V16.7226C10.0242 16.3083 10.3548 15.9724 10.7627 15.9724H12.5955C13.0034 15.9724 13.3341 16.3083 13.3341 16.7226Z" fill="#B9B9B9"/>
<path d="M18.8272 15.9724H16.9926C16.5847 15.9724 16.254 16.3083 16.254 16.7226V18.5862C16.254 19.0005 16.5847 19.3364 16.9926 19.3364H18.8272C19.2351 19.3364 19.5657 19.0005 19.5657 18.5862V16.7226C19.5657 16.3083 19.2351 15.9724 18.8272 15.9724Z" fill="#B9B9B9"/>
<path d="M25.0571 16.5036C25.1757 16.5036 25.2727 16.6022 25.2727 16.7226V18.5807C25.2727 18.7012 25.1739 18.8034 25.0571 18.8034H23.2242C23.1074 18.8034 23.0086 18.7012 23.0086 18.5807V16.7226C23.0086 16.6022 23.1057 16.5036 23.2242 16.5036H25.0571ZM25.0571 15.9724H23.2242C22.8163 15.9724 22.4857 16.3083 22.4857 16.7226V18.5807C22.4857 18.9951 22.8163 19.3345 23.2242 19.3345H25.0571C25.465 19.3345 25.7956 18.9951 25.7956 18.5807V16.7226C25.7956 16.3083 25.465 15.9724 25.0571 15.9724Z" fill="#B9B9B9"/>
<path d="M31.2887 15.9724H29.4541C29.0462 15.9724 28.7156 16.3083 28.7156 16.7226V18.5862C28.7156 19.0005 29.0462 19.3364 29.4541 19.3364H31.2887C31.6966 19.3364 32.0273 19.0005 32.0273 18.5862V16.7226C32.0273 16.3083 31.6966 15.9724 31.2887 15.9724Z" fill="#B9B9B9"/>
<path d="M31.2887 20.7528H29.4541C29.0462 20.7528 28.7156 21.0886 28.7156 21.503V23.3665C28.7156 23.7808 29.0462 24.1167 29.4541 24.1167H31.2887C31.6966 24.1167 32.0273 23.7808 32.0273 23.3665V21.503C32.0273 21.0886 31.6966 20.7528 31.2887 20.7528Z" fill="#B9B9B9"/>
<path d="M25.0553 30.3134H23.2206C22.8128 30.3134 22.4821 30.6493 22.4821 31.0636V32.9272C22.4821 33.3415 22.8128 33.6773 23.2206 33.6773H25.0553C25.4632 33.6773 25.7938 33.3415 25.7938 32.9272V31.0636C25.7938 30.6493 25.4632 30.3134 25.0553 30.3134Z" fill="#B9B9B9"/>
<path d="M12.7591 25.5331H10.9244C10.5166 25.5331 10.1859 25.8689 10.1859 26.2833V28.1468C10.1859 28.5611 10.5166 28.897 10.9244 28.897H12.7591C13.167 28.897 13.4976 28.5611 13.4976 28.1468V26.2833C13.4976 25.8689 13.167 25.5331 12.7591 25.5331Z" fill="#B9B9B9"/>
<path d="M25.0553 15.9724H23.2206C22.8128 15.9724 22.4821 16.3083 22.4821 16.7226V18.5862C22.4821 19.0005 22.8128 19.3364 23.2206 19.3364H25.0553C25.4632 19.3364 25.7938 19.0005 25.7938 18.5862V16.7226C25.7938 16.3083 25.4632 15.9724 25.0553 15.9724Z" fill="#B9B9B9"/>
<path d="M37.5204 15.9724H35.6858C35.2779 15.9724 34.9473 16.3083 34.9473 16.7226V18.5862C34.9473 19.0005 35.2779 19.3364 35.6858 19.3364H37.5204C37.9283 19.3364 38.259 19.0005 38.259 18.5862V16.7226C38.259 16.3083 37.9283 15.9724 37.5204 15.9724Z" fill="#B9B9B9"/>
<path d="M13.3341 21.503V23.3611C13.3341 23.7754 13.0034 24.1149 12.5955 24.1149H10.7627C10.3548 24.1149 10.0242 23.7754 10.0242 23.3611V21.503C10.0242 21.0886 10.3548 20.7528 10.7627 20.7528H12.5955C13.0034 20.7528 13.3341 21.0886 13.3341 21.503Z" fill="#B9B9B9"/>
<path d="M19.5658 21.503V23.3611C19.5658 23.7754 19.2351 24.1149 18.8272 24.1149H16.9944C16.5865 24.1149 16.2559 23.7754 16.2559 23.3611V21.503C16.2559 21.0886 16.5865 20.7528 16.9944 20.7528H18.8272C19.2351 20.7528 19.5658 21.0886 19.5658 21.503Z" fill="#B9B9B9"/>
<path d="M25.7956 21.503V23.3611C25.7956 23.7754 25.465 24.1149 25.0571 24.1149H23.2242C22.8163 24.1149 22.4857 23.7754 22.4857 23.3611V21.503C22.4857 21.0886 22.8163 20.7528 23.2242 20.7528H25.0571C25.465 20.7528 25.7956 21.0886 25.7956 21.503Z" fill="#B9B9B9"/>
<path d="M31.2888 21.2839C31.4074 21.2839 31.5044 21.3825 31.5044 21.503V23.3611C31.5044 23.4815 31.4056 23.5837 31.2888 23.5837H29.4559C29.3391 23.5837 29.2403 23.4815 29.2403 23.3611V21.503C29.2403 21.3825 29.3373 21.2839 29.4559 21.2839H31.2888ZM31.2888 20.7528H29.4559C29.048 20.7528 28.7174 21.0886 28.7174 21.503V23.3611C28.7174 23.7754 29.048 24.1149 29.4559 24.1149H31.2888C31.6967 24.1149 32.0273 23.7754 32.0273 23.3611V21.503C32.0273 21.0886 31.6967 20.7528 31.2888 20.7528Z" fill="#B9B9B9"/>
<path d="M38.2572 21.503V23.3611C38.2572 23.7754 37.9265 24.1149 37.5186 24.1149H35.6858C35.2779 24.1149 34.9473 23.7754 34.9473 23.3611V21.503C34.9473 21.0886 35.2779 20.7528 35.6858 20.7528H37.5186C37.9265 20.7528 38.2572 21.0886 38.2572 21.503Z" fill="#B9B9B9"/>
<path d="M12.5955 26.0642C12.7141 26.0642 12.8112 26.1628 12.8112 26.2833V28.1414C12.8112 28.2618 12.7123 28.364 12.5955 28.364H10.7627C10.6459 28.364 10.5471 28.2618 10.5471 28.1414V26.2833C10.5471 26.1628 10.6441 26.0642 10.7627 26.0642H12.5955ZM12.5955 25.5331H10.7627C10.3548 25.5331 10.0242 25.8689 10.0242 26.2833V28.1414C10.0242 28.5557 10.3548 28.8952 10.7627 28.8952H12.5955C13.0034 28.8952 13.3341 28.5557 13.3341 28.1414V26.2833C13.3341 25.8689 13.0034 25.5331 12.5955 25.5331Z" fill="#B9B9B9"/>
<path d="M19.5658 26.2833V28.1414C19.5658 28.5557 19.2351 28.8952 18.8272 28.8952H16.9944C16.5865 28.8952 16.2559 28.5557 16.2559 28.1414V26.2833C16.2559 25.8689 16.5865 25.5331 16.9944 25.5331H18.8272C19.2351 25.5331 19.5658 25.8689 19.5658 26.2833Z" fill="#B9B9B9"/>
<path d="M25.0571 25.5331H23.2224C22.8145 25.5331 22.4839 25.8689 22.4839 26.2833V28.1468C22.4839 28.5611 22.8145 28.897 23.2224 28.897H25.0571C25.4649 28.897 25.7956 28.5611 25.7956 28.1468V26.2833C25.7956 25.8689 25.4649 25.5331 25.0571 25.5331Z" fill="#B9B9B9"/>
<path d="M13.3341 31.0636V32.9217C13.3341 33.336 13.0034 33.6755 12.5955 33.6755H10.7627C10.3548 33.6755 10.0242 33.336 10.0242 32.9217V31.0636C10.0242 30.6493 10.3548 30.3134 10.7627 30.3134H12.5955C13.0034 30.3134 13.3341 30.6493 13.3341 31.0636Z" fill="#B9B9B9"/>
<path d="M18.8272 30.3134H16.9926C16.5847 30.3134 16.254 30.6493 16.254 31.0636V32.9272C16.254 33.3415 16.5847 33.6773 16.9926 33.6773H18.8272C19.2351 33.6773 19.5657 33.3415 19.5657 32.9272V31.0636C19.5657 30.6493 19.2351 30.3134 18.8272 30.3134Z" fill="#B9B9B9"/>
<path d="M32.0273 26.2833V28.1414C32.0273 28.5557 31.6967 28.8952 31.2888 28.8952H29.4559C29.048 28.8952 28.7174 28.5557 28.7174 28.1414V26.2833C28.7174 25.8689 29.048 25.5331 29.4559 25.5331H31.2888C31.6967 25.5331 32.0273 25.8689 32.0273 26.2833Z" fill="#B9B9B9"/>
<path d="M31.2887 30.3134H29.4541C29.0462 30.3134 28.7156 30.6493 28.7156 31.0636V32.9272C28.7156 33.3415 29.0462 33.6773 29.4541 33.6773H31.2887C31.6966 33.6773 32.0273 33.3415 32.0273 32.9272V31.0636C32.0273 30.6493 31.6966 30.3134 31.2887 30.3134Z" fill="#B9B9B9"/>
<path d="M38.2572 26.2833V28.1414C38.2572 28.5557 37.9265 28.8952 37.5186 28.8952H35.6858C35.2779 28.8952 34.9473 28.5557 34.9473 28.1414V26.2833C34.9473 25.8689 35.2779 25.5331 35.6858 25.5331H37.5186C37.9265 25.5331 38.2572 25.8689 38.2572 26.2833Z" fill="#B9B9B9"/>
<path d="M37.5204 30.3134H35.6858C35.2779 30.3134 34.9473 30.6493 34.9473 31.0636V32.9272C34.9473 33.3415 35.2779 33.6773 35.6858 33.6773H37.5204C37.9283 33.6773 38.259 33.3415 38.259 32.9272V31.0636C38.259 30.6493 37.9283 30.3134 37.5204 30.3134Z" fill="#B9B9B9"/>
<path d="M25.0571 30.8446C25.1757 30.8446 25.2727 30.9431 25.2727 31.0636V32.9217C25.2727 33.0422 25.1739 33.1444 25.0571 33.1444H23.2242C23.1074 33.1444 23.0086 33.0422 23.0086 32.9217V31.0636C23.0086 30.9431 23.1057 30.8446 23.2242 30.8446H25.0571ZM25.0571 30.3134H23.2242C22.8163 30.3134 22.4857 30.6493 22.4857 31.0636V32.9217C22.4857 33.336 22.8163 33.6755 23.2242 33.6755H25.0571C25.465 33.6755 25.7956 33.336 25.7956 32.9217V31.0636C25.7956 30.6493 25.465 30.3134 25.0571 30.3134Z" fill="#B9B9B9"/>
<path d="M11.8427 9C10.7753 9 9.90381 9.88524 9.90381 10.9694C9.90381 11.5645 10.1644 12.0956 10.5759 12.457C10.8652 12.7126 11.2245 12.8787 11.6217 12.9243C11.7582 12.8111 11.8409 12.6377 11.8409 12.4424C11.8409 12.3676 11.8265 12.2946 11.8031 12.227C11.4725 12.2197 11.176 12.0792 10.9568 11.851C10.7376 11.6247 10.601 11.3126 10.601 10.9694C10.601 10.2758 11.158 9.7082 11.8427 9.7082C12.5273 9.7082 13.0843 10.274 13.0843 10.9694H13.7815C13.7815 9.88524 12.91 9 11.8427 9Z" fill="#243239"/>
<path d="M18.3079 9C17.2406 9 16.3691 9.88524 16.3691 10.9694C16.3691 11.5645 16.6314 12.0956 17.0411 12.457C17.3304 12.7126 17.6898 12.8787 18.0869 12.9243C18.2235 12.8111 18.3061 12.6377 18.3061 12.4424C18.3061 12.3676 18.2918 12.2946 18.2684 12.227C17.9378 12.2197 17.6413 12.0792 17.4221 11.851C17.2028 11.6247 17.0663 11.3126 17.0663 10.9694C17.0663 10.2758 17.6233 9.7082 18.3079 9.7082C18.9926 9.7082 19.5496 10.274 19.5496 10.9694H20.2468C20.2468 9.88524 19.3753 9 18.3079 9Z" fill="#243239"/>
<path d="M24.7732 9C23.7059 9 22.8344 9.88524 22.8344 10.9694C22.8344 11.5645 23.0949 12.0956 23.5064 12.457C23.7957 12.7126 24.1551 12.8787 24.5522 12.9243C24.6888 12.8111 24.7714 12.6377 24.7714 12.4424C24.7714 12.3676 24.757 12.2946 24.7337 12.227C24.403 12.2197 24.1066 12.0792 23.8873 11.851C23.6681 11.6247 23.5315 11.3126 23.5315 10.9694C23.5315 10.2758 24.0886 9.7082 24.7732 9.7082C25.4578 9.7082 26.0149 10.274 26.0149 10.9694H26.7121C26.7121 9.88524 25.8406 9 24.7732 9Z" fill="#243239"/>
<path d="M31.2385 9C30.1711 9 29.2996 9.88524 29.2996 10.9694C29.2996 11.5645 29.5602 12.0956 29.9717 12.457C30.261 12.7126 30.6203 12.8787 31.0175 12.9243C31.154 12.8111 31.2367 12.6377 31.2367 12.4424C31.2367 12.3676 31.2223 12.2946 31.199 12.227C30.8683 12.2197 30.5718 12.0792 30.3526 11.851C30.1334 11.6247 29.9968 11.3126 29.9968 10.9694C29.9968 10.2758 30.5539 9.7082 31.2385 9.7082C31.9231 9.7082 32.4801 10.274 32.4801 10.9694H33.1773C33.1773 9.88524 32.3058 9 31.2385 9Z" fill="#243239"/>
<path d="M37.7038 9C36.6364 9 35.7649 9.88524 35.7649 10.9694C35.7649 11.5645 36.0254 12.0956 36.4369 12.457C36.7262 12.7126 37.0856 12.8787 37.4827 12.9243C37.6193 12.8111 37.702 12.6377 37.702 12.4424C37.702 12.3676 37.6876 12.2946 37.6642 12.227C37.3336 12.2197 37.0371 12.0792 36.8179 11.851C36.5987 11.6247 36.4621 11.3126 36.4621 10.9694C36.4621 10.2758 37.0191 9.7082 37.7038 9.7082C38.3884 9.7082 38.9454 10.274 38.9454 10.9694H39.6426C39.6426 9.88524 38.7711 9 37.7038 9Z" fill="#243239"/>
<path d="M42.6592 33.7261C43.5998 29.4093 40.9171 25.1352 36.6673 24.1798C32.4175 23.2243 28.2098 25.9493 27.2692 30.2661C26.3286 34.583 29.0112 38.8571 33.261 39.8125C37.5109 40.768 41.7186 38.043 42.6592 33.7261Z" fill="#7364FF"/>
<path d="M38.9691 32.8487L38.5558 33.2685L34.962 36.919L30.9549 32.8487C29.9648 31.843 29.9648 30.2076 30.9549 29.1982C31.4508 28.6962 32.0995 28.4444 32.7518 28.4444C33.404 28.4444 34.0527 28.6962 34.5487 29.1982L34.962 29.618L35.3752 29.1982C36.3653 28.1925 37.9754 28.1925 38.9673 29.1982C39.9591 30.2076 39.9591 31.843 38.9673 32.8487H38.9691Z" fill="white"/>
</g>
</g>
<defs>
<clipPath id="clip0_3_5091">
<rect width="48" height="48" fill="white"/>
</clipPath>
<clipPath id="clip1_3_5091">
<rect width="41" height="31" fill="white" transform="translate(7 9)"/>
</clipPath>
</defs>
</svg>
