<svg width="340" height="121" viewBox="0 0 340 121" fill="none" xmlns="http://www.w3.org/2000/svg">
<g filter="url(#filter0_d_3_4856)">
<rect x="10" y="6" width="320" height="101" rx="2" fill="white"/>
<g clip-path="url(#clip0_3_4856)">
<g clip-path="url(#clip1_3_4856)">
<path d="M69.5617 43.4695H38.7125C37.7673 43.4695 37 44.247 37 45.2107V67.2214C37 68.1851 37.7673 68.9627 38.7125 68.9627H69.5635C70.5123 68.9627 71.2778 68.1833 71.2778 67.2214V45.2107C71.2778 44.247 70.5105 43.4695 69.5635 43.4695H69.5617ZM67.0694 44.2981C67.418 44.2981 67.7037 44.5883 67.7037 44.9424C67.7037 45.2965 67.418 45.5831 67.0694 45.5831C66.7208 45.5831 66.4387 45.2965 66.4387 44.9424C66.4387 44.5883 66.7208 44.2981 67.0694 44.2981ZM60.6059 44.2981C60.9545 44.2981 61.2367 44.5883 61.2367 44.9424C61.2367 45.2965 60.9545 45.5831 60.6059 45.5831C60.2573 45.5831 59.9716 45.2965 59.9716 44.9424C59.9716 44.5883 60.2573 44.2981 60.6059 44.2981ZM54.1407 44.2981C54.4893 44.2981 54.7714 44.5883 54.7714 44.9424C54.7714 45.2965 54.4893 45.5831 54.1407 45.5831C53.7921 45.5831 53.51 45.2965 53.51 44.9424C53.51 44.5883 53.7921 44.2981 54.1407 44.2981ZM47.6736 44.2981C48.0222 44.2981 48.3079 44.5883 48.3079 44.9424C48.3079 45.2965 48.0222 45.5831 47.6736 45.5831C47.325 45.5831 47.0429 45.2965 47.0429 44.9424C47.0429 44.5883 47.325 44.2981 47.6736 44.2981ZM41.2102 44.2981C41.5587 44.2981 41.8409 44.5883 41.8409 44.9424C41.8409 45.2965 41.5587 45.5831 41.2102 45.5831C40.8616 45.5831 40.5758 45.2965 40.5758 44.9424C40.5758 44.5883 40.858 44.2981 41.2102 44.2981Z" fill="#F1F1F1"/>
<path d="M69.5617 43.4695H38.7125C37.7673 43.4695 37 44.247 37 45.2107V46.3022H71.2778V45.2107C71.2778 44.247 70.5105 43.4695 69.5635 43.4695H69.5617ZM41.2102 45.5831C40.858 45.5831 40.5758 45.2965 40.5758 44.9424C40.5758 44.5883 40.858 44.2981 41.2102 44.2981C41.5623 44.2981 41.8409 44.5883 41.8409 44.9424C41.8409 45.2965 41.5587 45.5831 41.2102 45.5831ZM47.6736 45.5831C47.325 45.5831 47.0429 45.2965 47.0429 44.9424C47.0429 44.5883 47.325 44.2981 47.6736 44.2981C48.0222 44.2981 48.3079 44.5883 48.3079 44.9424C48.3079 45.2965 48.0222 45.5831 47.6736 45.5831ZM54.1407 45.5831C53.7921 45.5831 53.51 45.2965 53.51 44.9424C53.51 44.5883 53.7921 44.2981 54.1407 44.2981C54.4893 44.2981 54.7714 44.5883 54.7714 44.9424C54.7714 45.2965 54.4893 45.5831 54.1407 45.5831ZM60.6059 45.5831C60.2573 45.5831 59.9716 45.2965 59.9716 44.9424C59.9716 44.5883 60.2573 44.2981 60.6059 44.2981C60.9545 44.2981 61.2367 44.5883 61.2367 44.9424C61.2367 45.2965 60.9545 45.5831 60.6059 45.5831ZM67.0694 45.5831C66.7208 45.5831 66.4387 45.2965 66.4387 44.9424C66.4387 44.5883 66.7208 44.2981 67.0694 44.2981C67.418 44.2981 67.7037 44.5883 67.7037 44.9424C67.7037 45.2965 67.418 45.5831 67.0694 45.5831Z" fill="#7364FF"/>
<path d="M43.3341 49.2226V51.0807C43.3341 51.4951 43.0034 51.8345 42.5955 51.8345H40.7627C40.3548 51.8345 40.0242 51.4951 40.0242 51.0807V49.2226C40.0242 48.8083 40.3548 48.4724 40.7627 48.4724H42.5955C43.0034 48.4724 43.3341 48.8083 43.3341 49.2226Z" fill="#B9B9B9"/>
<path d="M48.8272 48.4724H46.9926C46.5847 48.4724 46.254 48.8083 46.254 49.2226V51.0862C46.254 51.5005 46.5847 51.8364 46.9926 51.8364H48.8272C49.2351 51.8364 49.5657 51.5005 49.5657 51.0862V49.2226C49.5657 48.8083 49.2351 48.4724 48.8272 48.4724Z" fill="#B9B9B9"/>
<path d="M55.0571 49.0036C55.1757 49.0036 55.2727 49.1022 55.2727 49.2226V51.0807C55.2727 51.2012 55.1739 51.3034 55.0571 51.3034H53.2242C53.1074 51.3034 53.0086 51.2012 53.0086 51.0807V49.2226C53.0086 49.1022 53.1057 49.0036 53.2242 49.0036H55.0571ZM55.0571 48.4724H53.2242C52.8163 48.4724 52.4857 48.8083 52.4857 49.2226V51.0807C52.4857 51.4951 52.8163 51.8345 53.2242 51.8345H55.0571C55.465 51.8345 55.7956 51.4951 55.7956 51.0807V49.2226C55.7956 48.8083 55.465 48.4724 55.0571 48.4724Z" fill="#B9B9B9"/>
<path d="M61.2887 48.4724H59.4541C59.0462 48.4724 58.7156 48.8083 58.7156 49.2226V51.0862C58.7156 51.5005 59.0462 51.8364 59.4541 51.8364H61.2887C61.6966 51.8364 62.0273 51.5005 62.0273 51.0862V49.2226C62.0273 48.8083 61.6966 48.4724 61.2887 48.4724Z" fill="#B9B9B9"/>
<path d="M61.2887 53.2528H59.4541C59.0462 53.2528 58.7156 53.5886 58.7156 54.003V55.8665C58.7156 56.2808 59.0462 56.6167 59.4541 56.6167H61.2887C61.6966 56.6167 62.0273 56.2808 62.0273 55.8665V54.003C62.0273 53.5886 61.6966 53.2528 61.2887 53.2528Z" fill="#B9B9B9"/>
<path d="M55.0553 62.8134H53.2207C52.8128 62.8134 52.4822 63.1493 52.4822 63.5636V65.4272C52.4822 65.8415 52.8128 66.1773 53.2207 66.1773H55.0553C55.4632 66.1773 55.7939 65.8415 55.7939 65.4272V63.5636C55.7939 63.1493 55.4632 62.8134 55.0553 62.8134Z" fill="#B9B9B9"/>
<path d="M42.7591 58.0331H40.9244C40.5166 58.0331 40.1859 58.3689 40.1859 58.7833V60.6468C40.1859 61.0611 40.5166 61.397 40.9244 61.397H42.7591C43.167 61.397 43.4976 61.0611 43.4976 60.6468V58.7833C43.4976 58.3689 43.167 58.0331 42.7591 58.0331Z" fill="#B9B9B9"/>
<path d="M55.0553 48.4724H53.2207C52.8128 48.4724 52.4822 48.8083 52.4822 49.2226V51.0862C52.4822 51.5005 52.8128 51.8364 53.2207 51.8364H55.0553C55.4632 51.8364 55.7939 51.5005 55.7939 51.0862V49.2226C55.7939 48.8083 55.4632 48.4724 55.0553 48.4724Z" fill="#B9B9B9"/>
<path d="M67.5204 48.4724H65.6858C65.2779 48.4724 64.9473 48.8083 64.9473 49.2226V51.0862C64.9473 51.5005 65.2779 51.8364 65.6858 51.8364H67.5204C67.9283 51.8364 68.259 51.5005 68.259 51.0862V49.2226C68.259 48.8083 67.9283 48.4724 67.5204 48.4724Z" fill="#B9B9B9"/>
<path d="M43.3341 54.003V55.8611C43.3341 56.2754 43.0034 56.6149 42.5955 56.6149H40.7627C40.3548 56.6149 40.0242 56.2754 40.0242 55.8611V54.003C40.0242 53.5886 40.3548 53.2528 40.7627 53.2528H42.5955C43.0034 53.2528 43.3341 53.5886 43.3341 54.003Z" fill="#B9B9B9"/>
<path d="M49.5658 54.003V55.8611C49.5658 56.2754 49.2351 56.6149 48.8272 56.6149H46.9944C46.5865 56.6149 46.2559 56.2754 46.2559 55.8611V54.003C46.2559 53.5886 46.5865 53.2528 46.9944 53.2528H48.8272C49.2351 53.2528 49.5658 53.5886 49.5658 54.003Z" fill="#B9B9B9"/>
<path d="M55.7956 54.003V55.8611C55.7956 56.2754 55.465 56.6149 55.0571 56.6149H53.2242C52.8163 56.6149 52.4857 56.2754 52.4857 55.8611V54.003C52.4857 53.5886 52.8163 53.2528 53.2242 53.2528H55.0571C55.465 53.2528 55.7956 53.5886 55.7956 54.003Z" fill="#B9B9B9"/>
<path d="M61.2888 53.7839C61.4074 53.7839 61.5044 53.8825 61.5044 54.003V55.8611C61.5044 55.9815 61.4056 56.0837 61.2888 56.0837H59.4559C59.3391 56.0837 59.2403 55.9815 59.2403 55.8611V54.003C59.2403 53.8825 59.3373 53.7839 59.4559 53.7839H61.2888ZM61.2888 53.2528H59.4559C59.048 53.2528 58.7174 53.5886 58.7174 54.003V55.8611C58.7174 56.2754 59.048 56.6149 59.4559 56.6149H61.2888C61.6967 56.6149 62.0273 56.2754 62.0273 55.8611V54.003C62.0273 53.5886 61.6967 53.2528 61.2888 53.2528Z" fill="#B9B9B9"/>
<path d="M68.2572 54.003V55.8611C68.2572 56.2754 67.9265 56.6149 67.5186 56.6149H65.6858C65.2779 56.6149 64.9473 56.2754 64.9473 55.8611V54.003C64.9473 53.5886 65.2779 53.2528 65.6858 53.2528H67.5186C67.9265 53.2528 68.2572 53.5886 68.2572 54.003Z" fill="#B9B9B9"/>
<path d="M42.5955 58.5642C42.7141 58.5642 42.8112 58.6628 42.8112 58.7833V60.6414C42.8112 60.7618 42.7123 60.864 42.5955 60.864H40.7627C40.6459 60.864 40.5471 60.7618 40.5471 60.6414V58.7833C40.5471 58.6628 40.6441 58.5642 40.7627 58.5642H42.5955ZM42.5955 58.0331H40.7627C40.3548 58.0331 40.0242 58.3689 40.0242 58.7833V60.6414C40.0242 61.0557 40.3548 61.3952 40.7627 61.3952H42.5955C43.0034 61.3952 43.3341 61.0557 43.3341 60.6414V58.7833C43.3341 58.3689 43.0034 58.0331 42.5955 58.0331Z" fill="#B9B9B9"/>
<path d="M49.5658 58.7833V60.6414C49.5658 61.0557 49.2351 61.3952 48.8272 61.3952H46.9944C46.5865 61.3952 46.2559 61.0557 46.2559 60.6414V58.7833C46.2559 58.3689 46.5865 58.0331 46.9944 58.0331H48.8272C49.2351 58.0331 49.5658 58.3689 49.5658 58.7833Z" fill="#B9B9B9"/>
<path d="M55.0571 58.0331H53.2224C52.8145 58.0331 52.4839 58.3689 52.4839 58.7833V60.6468C52.4839 61.0611 52.8145 61.397 53.2224 61.397H55.0571C55.4649 61.397 55.7956 61.0611 55.7956 60.6468V58.7833C55.7956 58.3689 55.4649 58.0331 55.0571 58.0331Z" fill="#B9B9B9"/>
<path d="M43.3341 63.5636V65.4217C43.3341 65.836 43.0034 66.1755 42.5955 66.1755H40.7627C40.3548 66.1755 40.0242 65.836 40.0242 65.4217V63.5636C40.0242 63.1493 40.3548 62.8134 40.7627 62.8134H42.5955C43.0034 62.8134 43.3341 63.1493 43.3341 63.5636Z" fill="#B9B9B9"/>
<path d="M48.8272 62.8134H46.9926C46.5847 62.8134 46.254 63.1493 46.254 63.5636V65.4272C46.254 65.8415 46.5847 66.1773 46.9926 66.1773H48.8272C49.2351 66.1773 49.5657 65.8415 49.5657 65.4272V63.5636C49.5657 63.1493 49.2351 62.8134 48.8272 62.8134Z" fill="#B9B9B9"/>
<path d="M62.0273 58.7833V60.6414C62.0273 61.0557 61.6967 61.3952 61.2888 61.3952H59.4559C59.048 61.3952 58.7174 61.0557 58.7174 60.6414V58.7833C58.7174 58.3689 59.048 58.0331 59.4559 58.0331H61.2888C61.6967 58.0331 62.0273 58.3689 62.0273 58.7833Z" fill="#B9B9B9"/>
<path d="M61.2887 62.8134H59.4541C59.0462 62.8134 58.7156 63.1493 58.7156 63.5636V65.4272C58.7156 65.8415 59.0462 66.1773 59.4541 66.1773H61.2887C61.6966 66.1773 62.0273 65.8415 62.0273 65.4272V63.5636C62.0273 63.1493 61.6966 62.8134 61.2887 62.8134Z" fill="#B9B9B9"/>
<path d="M68.2572 58.7833V60.6414C68.2572 61.0557 67.9265 61.3952 67.5186 61.3952H65.6858C65.2779 61.3952 64.9473 61.0557 64.9473 60.6414V58.7833C64.9473 58.3689 65.2779 58.0331 65.6858 58.0331H67.5186C67.9265 58.0331 68.2572 58.3689 68.2572 58.7833Z" fill="#B9B9B9"/>
<path d="M67.5204 62.8134H65.6858C65.2779 62.8134 64.9473 63.1493 64.9473 63.5636V65.4272C64.9473 65.8415 65.2779 66.1773 65.6858 66.1773H67.5204C67.9283 66.1773 68.259 65.8415 68.259 65.4272V63.5636C68.259 63.1493 67.9283 62.8134 67.5204 62.8134Z" fill="#B9B9B9"/>
<path d="M55.0571 63.3446C55.1757 63.3446 55.2727 63.4431 55.2727 63.5636V65.4217C55.2727 65.5422 55.1739 65.6444 55.0571 65.6444H53.2242C53.1074 65.6444 53.0086 65.5422 53.0086 65.4217V63.5636C53.0086 63.4431 53.1057 63.3446 53.2242 63.3446H55.0571ZM55.0571 62.8134H53.2242C52.8163 62.8134 52.4857 63.1493 52.4857 63.5636V65.4217C52.4857 65.836 52.8163 66.1755 53.2242 66.1755H55.0571C55.465 66.1755 55.7956 65.836 55.7956 65.4217V63.5636C55.7956 63.1493 55.465 62.8134 55.0571 62.8134Z" fill="#B9B9B9"/>
<path d="M41.8427 41.5C40.7753 41.5 39.9038 42.3852 39.9038 43.4694C39.9038 44.0645 40.1644 44.5956 40.5759 44.957C40.8652 45.2126 41.2245 45.3787 41.6217 45.4243C41.7582 45.3111 41.8409 45.1377 41.8409 44.9424C41.8409 44.8676 41.8265 44.7946 41.8031 44.727C41.4725 44.7197 41.176 44.5792 40.9568 44.351C40.7376 44.1247 40.601 43.8126 40.601 43.4694C40.601 42.7758 41.158 42.2082 41.8427 42.2082C42.5273 42.2082 43.0843 42.774 43.0843 43.4694H43.7815C43.7815 42.3852 42.91 41.5 41.8427 41.5Z" fill="#243239"/>
<path d="M48.3079 41.5C47.2405 41.5 46.369 42.3852 46.369 43.4694C46.369 44.0645 46.6314 44.5956 47.0411 44.957C47.3304 45.2126 47.6897 45.3787 48.0869 45.4243C48.2234 45.3111 48.3061 45.1377 48.3061 44.9424C48.3061 44.8676 48.2917 44.7946 48.2683 44.727C47.9377 44.7197 47.6412 44.5792 47.422 44.351C47.2028 44.1247 47.0662 43.8126 47.0662 43.4694C47.0662 42.7758 47.6233 42.2082 48.3079 42.2082C48.9925 42.2082 49.5495 42.774 49.5495 43.4694H50.2467C50.2467 42.3852 49.3752 41.5 48.3079 41.5Z" fill="#243239"/>
<path d="M54.7732 41.5C53.7059 41.5 52.8344 42.3852 52.8344 43.4694C52.8344 44.0645 53.0949 44.5956 53.5064 44.957C53.7957 45.2126 54.1551 45.3787 54.5522 45.4243C54.6888 45.3111 54.7714 45.1377 54.7714 44.9424C54.7714 44.8676 54.757 44.7946 54.7337 44.727C54.403 44.7197 54.1066 44.5792 53.8873 44.351C53.6681 44.1247 53.5315 43.8126 53.5315 43.4694C53.5315 42.7758 54.0886 42.2082 54.7732 42.2082C55.4578 42.2082 56.0149 42.774 56.0149 43.4694H56.7121C56.7121 42.3852 55.8406 41.5 54.7732 41.5Z" fill="#243239"/>
<path d="M61.2384 41.5C60.1711 41.5 59.2996 42.3852 59.2996 43.4694C59.2996 44.0645 59.5601 44.5956 59.9716 44.957C60.2609 45.2126 60.6203 45.3787 61.0174 45.4243C61.154 45.3111 61.2366 45.1377 61.2366 44.9424C61.2366 44.8676 61.2222 44.7946 61.1989 44.727C60.8683 44.7197 60.5718 44.5792 60.3525 44.351C60.1333 44.1247 59.9968 43.8126 59.9968 43.4694C59.9968 42.7758 60.5538 42.2082 61.2384 42.2082C61.923 42.2082 62.4801 42.774 62.4801 43.4694H63.1773C63.1773 42.3852 62.3058 41.5 61.2384 41.5Z" fill="#243239"/>
<path d="M67.7038 41.5C66.6364 41.5 65.7649 42.3852 65.7649 43.4694C65.7649 44.0645 66.0254 44.5956 66.4369 44.957C66.7262 45.2126 67.0856 45.3787 67.4827 45.4243C67.6193 45.3111 67.702 45.1377 67.702 44.9424C67.702 44.8676 67.6876 44.7946 67.6642 44.727C67.3336 44.7197 67.0371 44.5792 66.8179 44.351C66.5987 44.1247 66.4621 43.8126 66.4621 43.4694C66.4621 42.7758 67.0191 42.2082 67.7038 42.2082C68.3884 42.2082 68.9454 42.774 68.9454 43.4694H69.6426C69.6426 42.3852 68.7711 41.5 67.7038 41.5Z" fill="#243239"/>
<path d="M72.6592 66.2261C73.5998 61.9093 70.9171 57.6352 66.6673 56.6798C62.4175 55.7243 58.2098 58.4493 57.2692 62.7661C56.3286 67.083 59.0112 71.3571 63.261 72.3125C67.5109 73.268 71.7186 70.543 72.6592 66.2261Z" fill="#7364FF"/>
<path d="M68.9691 65.3487L68.5558 65.7685L64.962 69.419L60.9549 65.3487C59.9648 64.343 59.9648 62.7076 60.9549 61.6982C61.4508 61.1962 62.0995 60.9444 62.7518 60.9444C63.404 60.9444 64.0527 61.1962 64.5487 61.6982L64.962 62.118L65.3752 61.6982C66.3653 60.6925 67.9754 60.6925 68.9673 61.6982C69.9591 62.7076 69.9591 64.343 68.9673 65.3487H68.9691Z" fill="white"/>
</g>
</g>
<path d="M100.375 50.4375H98.3594V36.2188H100.375V50.4375ZM96.1094 37.7031C96.1094 39.224 95.9036 40.6068 95.4922 41.8516C95.0859 43.0964 94.3984 44.2396 93.4297 45.2812C92.4609 46.3177 91.1562 47.224 89.5156 48L88.4688 46.4062C89.6823 45.8333 90.6823 45.1953 91.4688 44.4922C92.2604 43.7891 92.8646 43.0104 93.2812 42.1562C93.7031 41.2969 93.9688 40.3333 94.0781 39.2656H89.2344V37.7031H96.1094ZM104.758 42.5703C105.696 42.5547 106.552 42.5182 107.328 42.4609C108.11 42.4036 108.894 42.3125 109.68 42.1875L109.883 43.75C108.977 43.9062 108.084 44.0182 107.203 44.0859C106.323 44.1536 105.362 44.1875 104.321 44.1875H103.883H102.743V36.8281H104.758V42.5703ZM113.914 44.5312H111.93V41.5H108.446V40H111.93V39.0156H108.446V37.5312H111.93V36.2188H113.914V44.5312ZM113.914 50.2812H104.446V45.1094H113.914V50.2812ZM106.399 48.6875H111.946V46.6875H106.399V48.6875ZM119.485 36.6406C120.199 36.6406 120.844 36.7786 121.423 37.0547C122.001 37.3307 122.454 37.7161 122.782 38.2109C123.115 38.7057 123.282 39.2656 123.282 39.8906C123.282 40.5052 123.115 41.0599 122.782 41.5547C122.454 42.0443 122.001 42.4297 121.423 42.7109C120.844 42.987 120.199 43.125 119.485 43.125C118.761 43.125 118.107 42.987 117.524 42.7109C116.941 42.4297 116.482 42.0443 116.149 41.5547C115.821 41.0599 115.657 40.5052 115.657 39.8906C115.657 39.2656 115.821 38.7057 116.149 38.2109C116.482 37.7161 116.938 37.3307 117.516 37.0547C118.1 36.7786 118.756 36.6406 119.485 36.6406ZM119.485 38.2656C119.12 38.2656 118.792 38.3307 118.501 38.4609C118.214 38.5859 117.99 38.7734 117.829 39.0234C117.667 39.2682 117.589 39.5573 117.594 39.8906C117.589 40.224 117.667 40.513 117.829 40.7578C117.99 41.0026 118.214 41.1901 118.501 41.3203C118.792 41.4505 119.12 41.5156 119.485 41.5156C119.844 41.5156 120.165 41.4505 120.446 41.3203C120.732 41.1901 120.956 41.0026 121.118 40.7578C121.279 40.513 121.36 40.224 121.36 39.8906C121.36 39.5521 121.279 39.2604 121.118 39.0156C120.956 38.7708 120.732 38.5859 120.446 38.4609C120.165 38.3307 119.844 38.2656 119.485 38.2656ZM127.344 43.3438H125.344V36.2188H127.344V43.3438ZM127.344 47.7969H119.782V48.7188H127.735V50.2812H117.829V46.3438H125.36V45.4688H117.798V43.9375H127.344V47.7969ZM145.314 44.3438H132.314V42.7188H145.314V44.3438ZM143.829 41.7188H133.892V36.5938H143.751V38.2031H135.876V40.1406H143.829V41.7188ZM138.783 45.2031C139.809 45.2031 140.691 45.3047 141.431 45.5078C142.171 45.7109 142.738 46.0078 143.134 46.3984C143.53 46.7891 143.73 47.2604 143.736 47.8125C143.73 48.3698 143.53 48.8438 143.134 49.2344C142.738 49.6302 142.171 49.9297 141.431 50.1328C140.691 50.3359 139.809 50.4375 138.783 50.4375C137.746 50.4375 136.853 50.3359 136.103 50.1328C135.358 49.9297 134.788 49.6302 134.392 49.2344C133.996 48.8438 133.798 48.3698 133.798 47.8125C133.798 47.2604 133.996 46.7891 134.392 46.3984C134.793 46.0078 135.366 45.7109 136.111 45.5078C136.855 45.3047 137.746 45.2031 138.783 45.2031ZM138.783 46.7188C137.798 46.7188 137.056 46.8125 136.556 47C136.061 47.1823 135.819 47.4531 135.829 47.8125C135.814 48.5521 136.798 48.9219 138.783 48.9219C140.736 48.9219 141.72 48.5521 141.736 47.8125C141.73 47.4531 141.478 47.1823 140.978 47C140.478 46.8125 139.746 46.7188 138.783 46.7188ZM158.822 45.4375H145.806V43.8438H151.322V42.8125H147.431V38.9062H155.244V38.0312H147.4V36.4844H157.244V40.3438H149.416V41.2812H157.509V42.8125H153.306V43.8438H158.822V45.4375ZM157.322 50.375H155.306V47.8125H147.259V46.25H157.322V50.375ZM170.549 41.7812H172.643V43.4219H170.549V50.4375H168.58V36.2188H170.549V41.7812ZM167.611 39.9375H159.252V38.3438H162.471V36.4375H164.471V38.3438H167.611V39.9375ZM163.471 40.7344C164.158 40.7344 164.775 40.8802 165.322 41.1719C165.874 41.4583 166.307 41.8594 166.619 42.375C166.937 42.8906 167.096 43.474 167.096 44.125C167.096 44.776 166.937 45.3594 166.619 45.875C166.307 46.3906 165.874 46.7943 165.322 47.0859C164.775 47.3724 164.158 47.5156 163.471 47.5156C162.778 47.5156 162.156 47.3724 161.603 47.0859C161.051 46.7943 160.616 46.3906 160.299 45.875C159.986 45.3594 159.83 44.776 159.83 44.125C159.83 43.474 159.986 42.8906 160.299 42.375C160.616 41.8594 161.051 41.4583 161.603 41.1719C162.156 40.8802 162.778 40.7344 163.471 40.7344ZM163.471 42.3438C163.137 42.349 162.838 42.4245 162.572 42.5703C162.312 42.7161 162.106 42.9219 161.955 43.1875C161.809 43.4531 161.736 43.7656 161.736 44.125C161.736 44.4896 161.809 44.8047 161.955 45.0703C162.106 45.3359 162.312 45.5391 162.572 45.6797C162.838 45.8151 163.137 45.8802 163.471 45.875C163.804 45.8802 164.101 45.8151 164.361 45.6797C164.622 45.5391 164.825 45.3359 164.971 45.0703C165.116 44.8047 165.189 44.4896 165.189 44.125C165.189 43.7656 165.116 43.4531 164.971 43.1875C164.825 42.9219 164.622 42.7161 164.361 42.5703C164.101 42.4245 163.804 42.349 163.471 42.3438ZM184.791 50.4375H182.776V36.2188H184.791V50.4375ZM180.526 37.7031C180.526 39.224 180.32 40.6068 179.908 41.8516C179.502 43.0964 178.815 44.2396 177.846 45.2812C176.877 46.3177 175.573 47.224 173.932 48L172.885 46.4062C174.099 45.8333 175.099 45.1953 175.885 44.4922C176.677 43.7891 177.281 43.0104 177.698 42.1562C178.119 41.2969 178.385 40.3333 178.494 39.2656H173.651V37.7031H180.526Z" fill="black"/>
<path d="M193 38.5L197 42.5L193 46.5" stroke="black" stroke-width="2" stroke-linecap="square"/>
<path d="M99.8262 72.4434H95.0957V76.3809H92.9219V72.4434H88.2871V70.6797H99.8262V72.4434ZM94.0156 64.0898C94.9271 64.0853 95.7406 64.2038 96.4561 64.4453C97.1715 64.6823 97.7298 65.0241 98.1309 65.4707C98.5319 65.9128 98.7324 66.4277 98.7324 67.0156C98.7324 67.5853 98.5319 68.0866 98.1309 68.5195C97.7298 68.9525 97.1715 69.2874 96.4561 69.5244C95.7406 69.7568 94.9271 69.873 94.0156 69.873C93.1042 69.873 92.293 69.7568 91.582 69.5244C90.8757 69.2874 90.3242 68.9525 89.9277 68.5195C89.5312 68.0866 89.3353 67.5853 89.3398 67.0156C89.3353 66.4277 89.5312 65.9128 89.9277 65.4707C90.3242 65.0241 90.8757 64.6823 91.582 64.4453C92.293 64.2038 93.1042 64.0853 94.0156 64.0898ZM94.0156 65.8262C93.2409 65.8262 92.6439 65.9264 92.2246 66.127C91.8053 66.3229 91.5957 66.6191 91.5957 67.0156C91.5957 67.3848 91.8053 67.6673 92.2246 67.8633C92.6484 68.0547 93.2454 68.1504 94.0156 68.1504C94.7949 68.1504 95.3942 68.0547 95.8135 67.8633C96.2373 67.6719 96.4492 67.3893 96.4492 67.0156C96.4492 66.6191 96.2396 66.3229 95.8203 66.127C95.401 65.9264 94.7995 65.8262 94.0156 65.8262ZM110.798 76.3945H108.611V63.707H110.798V76.3945ZM106.833 69.8184H103.019V71.7119C103.962 71.6982 104.819 71.6618 105.589 71.6025C106.364 71.5387 107.139 71.4408 107.913 71.3086L108.091 73.0723C107.193 73.2409 106.273 73.3548 105.329 73.4141C104.386 73.4688 103.256 73.4961 101.939 73.4961H100.749V68.1094H104.591V66.4551H100.749V64.7051H106.833V69.8184ZM115.987 64.5137C116.652 64.5091 117.256 64.6458 117.798 64.9238C118.345 65.1973 118.774 65.5778 119.084 66.0654C119.398 66.5485 119.555 67.0931 119.555 67.6992C119.555 68.3099 119.398 68.859 119.084 69.3467C118.774 69.8298 118.345 70.208 117.798 70.4814C117.256 70.7549 116.652 70.8893 115.987 70.8848C115.331 70.8893 114.729 70.7549 114.182 70.4814C113.64 70.208 113.209 69.8275 112.89 69.3398C112.576 68.8522 112.419 68.3053 112.419 67.6992C112.419 67.0977 112.576 66.5531 112.89 66.0654C113.209 65.5778 113.64 65.1973 114.182 64.9238C114.729 64.6458 115.331 64.5091 115.987 64.5137ZM115.987 66.4004C115.586 66.4004 115.255 66.5143 114.996 66.7422C114.736 66.9655 114.606 67.2845 114.606 67.6992C114.606 68.123 114.734 68.4466 114.989 68.6699C115.249 68.8887 115.581 68.998 115.987 68.998C116.411 68.998 116.755 68.8887 117.019 68.6699C117.288 68.4466 117.422 68.123 117.422 67.6992C117.422 67.2845 117.288 66.9655 117.019 66.7422C116.75 66.5143 116.406 66.4004 115.987 66.4004ZM122.7 76.3945H120.526V63.707H122.7V76.3945ZM111.967 72.1836C113.407 72.1836 114.793 72.1585 116.124 72.1084C117.454 72.0537 118.708 71.9466 119.883 71.7871L120.047 73.3594C118.84 73.6009 117.605 73.7581 116.342 73.8311C115.08 73.8994 113.704 73.9336 112.213 73.9336L111.967 72.1836ZM137.247 76.3535H135.019V63.707H137.247V76.3535ZM133.419 65.0059C133.419 66.4323 133.253 67.7015 132.92 68.8135C132.587 69.9209 131.995 70.9395 131.143 71.8691C130.295 72.7988 129.117 73.6146 127.609 74.3164L126.487 72.5938C127.536 72.0924 128.388 71.5592 129.044 70.9941C129.7 70.4245 130.197 69.7933 130.534 69.1006C130.876 68.4079 131.095 67.6126 131.191 66.7148H127.212V65.0059H133.419ZM141.246 69.1826C142.646 69.1507 143.917 69.0527 145.061 68.8887L145.28 70.584C144.468 70.7298 143.66 70.8278 142.853 70.8779C142.046 70.9281 141.123 70.9531 140.084 70.9531H139.045V64.1992H141.246V69.1826ZM149.094 71.0762H146.907V68.5059H144.159V66.8789H146.907V66.332H144.159V64.7051H146.907V63.707H149.094V71.0762ZM149.094 76.2441H140.522V71.5547H149.094V76.2441ZM142.668 74.4941H146.92V73.2773H142.668V74.4941ZM153.75 64.0352C154.392 64.0306 154.976 64.1559 155.5 64.4111C156.028 64.6618 156.443 65.0127 156.744 65.4639C157.045 65.9105 157.195 66.4141 157.195 66.9746C157.195 67.5306 157.045 68.0319 156.744 68.4785C156.443 68.9206 156.028 69.2692 155.5 69.5244C154.976 69.7751 154.392 69.9004 153.75 69.9004C153.098 69.9004 152.508 69.7751 151.979 69.5244C151.451 69.2692 151.036 68.9206 150.735 68.4785C150.434 68.0319 150.286 67.5306 150.291 66.9746C150.286 66.4141 150.434 65.9105 150.735 65.4639C151.04 65.0127 151.457 64.6618 151.986 64.4111C152.515 64.1559 153.103 64.0306 153.75 64.0352ZM153.75 65.7988C153.34 65.8079 153.011 65.9105 152.765 66.1064C152.524 66.3024 152.405 66.5918 152.41 66.9746C152.405 67.3529 152.526 67.6445 152.772 67.8496C153.018 68.0501 153.344 68.1504 153.75 68.1504C154.151 68.1504 154.472 68.0501 154.714 67.8496C154.955 67.6445 155.076 67.3529 155.076 66.9746C155.076 66.5918 154.955 66.3024 154.714 66.1064C154.477 65.9105 154.155 65.8079 153.75 65.7988ZM160.818 69.9551H158.617V63.707H160.818V69.9551ZM160.818 74.0977H154.351V74.5352H161.091V76.2441H152.205V72.5254H158.631V72.0879H152.177V70.4199H160.818V74.0977ZM167.743 63.8711C168.732 63.8711 169.573 63.9531 170.266 64.1172C170.963 64.2812 171.494 64.5228 171.858 64.8418C172.228 65.1608 172.414 65.5482 172.419 66.0039C172.414 66.4642 172.23 66.8561 171.865 67.1797C171.501 67.4987 170.97 67.7402 170.272 67.9043C169.575 68.0684 168.732 68.1504 167.743 68.1504C166.75 68.1504 165.902 68.0684 165.2 67.9043C164.498 67.7402 163.963 67.4987 163.594 67.1797C163.229 66.8561 163.049 66.4642 163.054 66.0039C163.049 65.5482 163.229 65.1608 163.594 64.8418C163.963 64.5228 164.498 64.2812 165.2 64.1172C165.902 63.9531 166.75 63.8711 167.743 63.8711ZM167.743 65.457C166.891 65.457 166.278 65.5003 165.904 65.5869C165.535 65.6735 165.351 65.8125 165.351 66.0039C165.351 66.1589 165.428 66.2751 165.583 66.3525C165.742 66.43 165.989 66.4847 166.321 66.5166C166.654 66.5439 167.128 66.5599 167.743 66.5645C168.363 66.5599 168.839 66.5439 169.172 66.5166C169.505 66.4847 169.751 66.43 169.91 66.3525C170.07 66.2751 170.149 66.1589 170.149 66.0039C170.149 65.8125 169.963 65.6735 169.589 65.5869C169.215 65.5003 168.6 65.457 167.743 65.457ZM173.513 70.3105H161.974V68.5742H173.513V70.3105ZM172.145 74.2754H165.405V74.6855H172.446V76.2988H163.259V72.7715H169.985V72.3887H163.272V70.7891H172.145V74.2754ZM188.128 71.1172H176.562V69.3535H188.128V71.1172ZM186.83 68.6699H177.929V63.9531H186.775V65.6895H180.103V66.9473H186.83V68.6699ZM182.304 71.6641C183.22 71.6595 184.009 71.7484 184.669 71.9307C185.335 72.113 185.843 72.3796 186.194 72.7305C186.549 73.0814 186.729 73.5052 186.734 74.002C186.729 74.5033 186.549 74.9316 186.194 75.2871C185.843 75.6426 185.335 75.9137 184.669 76.1006C184.009 76.2874 183.22 76.3809 182.304 76.3809C181.375 76.3809 180.575 76.2874 179.905 76.1006C179.235 75.9137 178.722 75.6426 178.367 75.2871C178.011 74.9316 177.834 74.5033 177.834 74.002C177.834 73.5052 178.011 73.0814 178.367 72.7305C178.722 72.3796 179.235 72.113 179.905 71.9307C180.575 71.7484 181.375 71.6595 182.304 71.6641ZM182.304 73.3047C181.52 73.3047 180.951 73.3617 180.595 73.4756C180.24 73.585 180.067 73.7604 180.076 74.002C180.071 74.1797 180.144 74.321 180.294 74.4258C180.449 74.5306 180.689 74.6081 181.012 74.6582C181.34 74.7038 181.771 74.7266 182.304 74.7266C183.084 74.7266 183.649 74.6719 184 74.5625C184.355 74.4531 184.533 74.2663 184.533 74.002C184.533 73.7604 184.353 73.585 183.993 73.4756C183.633 73.3617 183.07 73.3047 182.304 73.3047ZM199.921 72.1152H188.382V70.3789H193.071V69.7363H189.776V66.0176H196.393V65.5801H189.762V63.9121H198.581V67.5625H191.95V68.0684H198.786V69.7363H195.245V70.3789H199.921V72.1152ZM198.649 76.3398H196.448V74.3711H189.667V72.6621H198.649V76.3398ZM206.162 67.207H200.188V65.4844H202.129V64.0488H204.275V65.4844H206.162V67.207ZM203.209 67.5898C203.751 67.5944 204.234 67.7288 204.658 67.9932C205.082 68.2529 205.413 68.6175 205.649 69.0869C205.891 69.5518 206.012 70.0781 206.012 70.666C206.012 71.263 205.891 71.7985 205.649 72.2725C205.413 72.7419 205.082 73.1087 204.658 73.373C204.234 73.6374 203.751 73.7695 203.209 73.7695C202.671 73.7695 202.186 73.6374 201.753 73.373C201.325 73.1087 200.987 72.7419 200.741 72.2725C200.5 71.7985 200.379 71.263 200.379 70.666C200.379 70.0781 200.5 69.5518 200.741 69.0869C200.987 68.6221 201.325 68.2575 201.753 67.9932C202.186 67.7288 202.671 67.5944 203.209 67.5898ZM203.209 69.4082C202.931 69.3991 202.71 69.5039 202.546 69.7227C202.386 69.9368 202.307 70.2513 202.307 70.666C202.307 71.0853 202.386 71.3997 202.546 71.6094C202.705 71.819 202.927 71.9238 203.209 71.9238C203.487 71.9238 203.704 71.819 203.858 71.6094C204.018 71.3997 204.098 71.0853 204.098 70.666C204.098 70.2513 204.018 69.9368 203.858 69.7227C203.699 69.5039 203.482 69.3991 203.209 69.4082ZM211.234 76.3535H209.156V70.4746H208.555V75.8613H206.504V63.9258H208.555V68.752H209.156V63.707H211.234V76.3535ZM226.329 72.2793H221.598V76.3672H219.424V72.2793H214.79V70.543H226.329V72.2793ZM225.331 65.9902H221.906C222.038 66.5462 222.419 67.0384 223.048 67.4668C223.681 67.8952 224.62 68.1777 225.864 68.3145L225.071 70.0234C223.954 69.8958 223.02 69.6338 222.268 69.2373C221.521 68.8408 220.951 68.3395 220.559 67.7334C220.172 68.3395 219.604 68.8408 218.857 69.2373C218.114 69.6338 217.187 69.8958 216.075 70.0234L215.282 68.3145C216.508 68.1777 217.435 67.8975 218.064 67.4736C218.693 67.0452 219.08 66.5508 219.226 65.9902H215.801V64.3086H225.331V65.9902ZM230.848 66.6328C230.848 67.4212 230.9 68.1367 231.005 68.7793C231.114 69.4219 231.322 70.0212 231.627 70.5771C231.932 71.1286 232.365 71.5911 232.926 71.9648L231.75 73.6465C230.848 73.1042 230.189 72.2406 229.774 71.0557C229.314 72.391 228.601 73.3548 227.635 73.9473L226.309 72.3203C227.206 71.7461 227.831 70.9782 228.182 70.0166C228.537 69.055 228.715 67.9635 228.715 66.7422V64.7324H230.848V66.6328ZM237.643 76.3535H235.551V63.707H237.643V76.3535ZM234.976 75.8066H232.939V69.5723H231.627V67.8086H232.939V63.8574H234.976V75.8066ZM249.982 74.9727H238.429V73.1953H240.821V70.2832C240.357 69.9733 239.997 69.5996 239.741 69.1621C239.491 68.7246 239.368 68.237 239.372 67.6992C239.368 67.0156 239.573 66.4095 239.988 65.8809C240.407 65.3522 240.983 64.9443 241.717 64.6572C242.451 64.3656 243.278 64.222 244.198 64.2266C245.11 64.222 245.932 64.3656 246.666 64.6572C247.404 64.9443 247.983 65.3522 248.403 65.8809C248.826 66.4095 249.038 67.0156 249.038 67.6992C249.038 68.2279 248.913 68.7109 248.662 69.1484C248.412 69.5814 248.058 69.9528 247.603 70.2627V73.1953H249.982V74.9727ZM244.198 65.9355C243.369 65.9264 242.72 66.0745 242.25 66.3799C241.781 66.6852 241.546 67.125 241.546 67.6992C241.546 68.0729 241.653 68.3942 241.867 68.6631C242.082 68.932 242.387 69.137 242.783 69.2783C243.18 69.4196 243.652 69.4902 244.198 69.4902C244.736 69.4902 245.203 69.4196 245.6 69.2783C246.001 69.137 246.311 68.932 246.529 68.6631C246.748 68.3942 246.86 68.0729 246.864 67.6992C246.86 67.125 246.618 66.6852 246.14 66.3799C245.666 66.0745 245.019 65.9264 244.198 65.9355ZM245.402 73.1953V71.0762C245.005 71.14 244.604 71.1719 244.198 71.1719C243.793 71.1719 243.392 71.14 242.995 71.0762V73.1953H245.402ZM254.836 73.8789C254.594 73.8789 254.371 73.8197 254.166 73.7012C253.961 73.5827 253.799 73.4232 253.68 73.2227C253.562 73.0176 253.505 72.7943 253.51 72.5527C253.505 72.3158 253.562 72.097 253.68 71.8965C253.799 71.696 253.961 71.5365 254.166 71.418C254.371 71.2995 254.594 71.2402 254.836 71.2402C255.064 71.2402 255.28 71.2995 255.485 71.418C255.69 71.5365 255.854 71.696 255.977 71.8965C256.1 72.097 256.162 72.3158 256.162 72.5527C256.162 72.7943 256.1 73.0176 255.977 73.2227C255.854 73.4232 255.69 73.5827 255.485 73.7012C255.28 73.8197 255.064 73.8789 254.836 73.8789ZM254.836 68.8613C254.594 68.8613 254.371 68.8021 254.166 68.6836C253.961 68.5651 253.799 68.4056 253.68 68.2051C253.562 68 253.505 67.7767 253.51 67.5352C253.505 67.2982 253.562 67.0794 253.68 66.8789C253.799 66.6784 253.961 66.5189 254.166 66.4004C254.371 66.2819 254.594 66.2227 254.836 66.2227C255.064 66.2227 255.28 66.2819 255.485 66.4004C255.69 66.5189 255.854 66.6784 255.977 66.8789C256.1 67.0794 256.162 67.2982 256.162 67.5352C256.162 67.7767 256.1 68 255.977 68.2051C255.854 68.4056 255.69 68.5651 255.485 68.6836C255.28 68.8021 255.064 68.8613 254.836 68.8613ZM261.583 71.2266C261.583 72.457 261.394 73.6146 261.016 74.6992C260.637 75.7793 260.097 76.8092 259.396 77.7891H256.866C257.199 77.306 257.52 76.7021 257.83 75.9775C258.145 75.2575 258.4 74.4805 258.596 73.6465C258.792 72.8125 258.89 72.0059 258.89 71.2266C258.89 70.4473 258.792 69.6406 258.596 68.8066C258.4 67.9727 258.145 67.1956 257.83 66.4756C257.52 65.7555 257.199 65.1562 256.866 64.6777H259.396C260.097 65.653 260.637 66.6807 261.016 67.7607C261.394 68.8408 261.583 69.9961 261.583 71.2266Z" fill="#666666"/>
</g>
<defs>
<filter id="filter0_d_3_4856" x="0" y="0" width="340" height="121" filterUnits="userSpaceOnUse" color-interpolation-filters="sRGB">
<feFlood flood-opacity="0" result="BackgroundImageFix"/>
<feColorMatrix in="SourceAlpha" type="matrix" values="0 0 0 0 0 0 0 0 0 0 0 0 0 0 0 0 0 0 127 0" result="hardAlpha"/>
<feOffset dy="4"/>
<feGaussianBlur stdDeviation="5"/>
<feComposite in2="hardAlpha" operator="out"/>
<feColorMatrix type="matrix" values="0 0 0 0 0 0 0 0 0 0 0 0 0 0 0 0 0 0 0.08 0"/>
<feBlend mode="normal" in2="BackgroundImageFix" result="effect1_dropShadow_3_4856"/>
<feBlend mode="normal" in="SourceGraphic" in2="effect1_dropShadow_3_4856" result="shape"/>
</filter>
<clipPath id="clip0_3_4856">
<rect width="40" height="40" fill="white" transform="translate(34 36.5)"/>
</clipPath>
<clipPath id="clip1_3_4856">
<rect width="41" height="31" fill="white" transform="translate(37 41.5)"/>
</clipPath>
</defs>
</svg>
