<svg width="450" height="160" viewBox="0 0 450 160" fill="none" xmlns="http://www.w3.org/2000/svg">
<g clip-path="url(#clip0_2_3873)">
<rect width="450" height="160" fill="#A0ACFF"/>
<rect x="90" y="23" width="71" height="22" rx="11" fill="#19236F"/>
<path d="M104.445 30.7461H102.43C102.477 31.2539 102.693 31.7129 103.08 32.123C103.467 32.5332 104.059 32.8398 104.855 33.043L104.012 34.4844C103.43 34.3477 102.93 34.1367 102.512 33.8516C102.098 33.5664 101.764 33.2227 101.51 32.8203C101.264 33.2656 100.932 33.6465 100.514 33.9629C100.096 34.2754 99.5859 34.5078 98.9844 34.6602L98.1055 33.2188C98.9102 33.0156 99.5059 32.6934 99.8926 32.252C100.283 31.8066 100.5 31.3047 100.543 30.7461H98.5391V29.2812H100.555V28.2852H102.441V29.2812H104.445V30.7461ZM106.918 30.7461H108.266V32.2578H106.918V34.6367H105.031V28.3203H106.918V30.7461ZM106.918 39.0664H99.6875V35.0469H106.918V39.0664ZM101.539 37.5664H105.066V36.5352H101.539V37.5664ZM117.266 32.3164H118.648V33.8516H117.266V39.1367H115.379V28.3203H117.266V32.3164ZM114.312 29.3984C114.309 30.5781 114.152 31.6543 113.844 32.627C113.539 33.5996 113.029 34.4883 112.314 35.293C111.6 36.0977 110.645 36.793 109.449 37.3789L108.383 35.9492C109.199 35.5391 109.883 35.0918 110.434 34.6074C110.988 34.1191 111.428 33.5742 111.752 32.9727C112.076 32.3672 112.291 31.6836 112.396 30.9219H109.062V29.3984H114.312ZM123.207 31.0391C123.203 31.6172 123.283 32.1855 123.447 32.7441C123.615 33.3027 123.889 33.8184 124.268 34.291C124.646 34.7637 125.141 35.1367 125.75 35.4102L124.719 36.875C124.152 36.625 123.666 36.2715 123.26 35.8145C122.857 35.3574 122.533 34.8223 122.287 34.209C122.041 34.8926 121.709 35.4883 121.291 35.9961C120.877 36.5 120.371 36.8867 119.773 37.1562L118.695 35.6797C119.316 35.3945 119.82 35.0059 120.207 34.5137C120.594 34.0176 120.871 33.4727 121.039 32.8789C121.211 32.2812 121.297 31.668 121.297 31.0391V30.8516H119.152V29.3281H125.223V30.8516H123.207V31.0391ZM127.637 32.3047H129.102V33.8633H127.637V39.1602H125.75V28.3203H127.637V32.3047ZM141.195 36.2188H139.32V32.5273H137.855V31.0273H139.32V28.3438H141.195V36.2188ZM141.43 39.0078H133.859V35.5508H135.734V37.5078H141.43V39.0078ZM138.254 30.4648H136.273C136.281 30.8789 136.363 31.2793 136.52 31.666C136.676 32.0527 136.928 32.4043 137.275 32.7207C137.627 33.0332 138.082 33.2773 138.641 33.4531L137.738 34.9414C136.641 34.5977 135.838 33.9473 135.33 32.9902C135.084 33.502 134.752 33.9414 134.334 34.3086C133.916 34.6719 133.406 34.9453 132.805 35.1289L131.844 33.6172C132.707 33.3633 133.334 32.9531 133.725 32.3867C134.119 31.8164 134.328 31.1758 134.352 30.4648H132.359V28.9766H138.254V30.4648ZM151.672 36.5H149.797V35.8086H147.828V34.5547H149.797V28.3438H151.672V36.5ZM151.906 39.0078H143.574V35.7266H145.039V34.4258C144.246 34.457 143.406 34.4727 142.52 34.4727L142.309 33.0078H142.473C143.855 32.9922 145.08 32.9629 146.146 32.9199C147.213 32.877 148.234 32.793 149.211 32.668L149.305 34.0039C148.621 34.1289 147.828 34.2305 146.926 34.3086V36.3125H145.461V37.5078H151.906V39.0078ZM145.812 28.6602C146.332 28.6602 146.797 28.7441 147.207 28.9121C147.621 29.0801 147.945 29.3145 148.18 29.6152C148.418 29.916 148.539 30.2578 148.543 30.6406C148.539 31.0195 148.42 31.3555 148.186 31.6484C147.951 31.9414 147.627 32.1699 147.213 32.334C146.799 32.4941 146.332 32.5742 145.812 32.5742C145.281 32.5742 144.807 32.4941 144.389 32.334C143.975 32.1699 143.65 31.9434 143.416 31.6543C143.186 31.3613 143.07 31.0234 143.07 30.6406C143.07 30.2578 143.188 29.916 143.422 29.6152C143.656 29.3145 143.98 29.0801 144.395 28.9121C144.812 28.7441 145.285 28.6602 145.812 28.6602ZM145.812 30.0195C145.512 30.0273 145.275 30.082 145.104 30.1836C144.936 30.2812 144.852 30.4336 144.852 30.6406C144.852 30.8398 144.936 30.9883 145.104 31.0859C145.275 31.1797 145.512 31.2266 145.812 31.2266C146.102 31.2266 146.33 31.1797 146.498 31.0859C146.666 30.9883 146.75 30.8398 146.75 30.6406C146.75 30.4336 146.666 30.2812 146.498 30.1836C146.334 30.082 146.105 30.0273 145.812 30.0195Z" fill="white"/>
<path d="M90.957 71.3242L96.2109 66.9102C96.6211 66.5586 96.9466 66.2559 97.1875 66.002C97.4284 65.748 97.6139 65.4844 97.7441 65.2109C97.8809 64.9375 97.9492 64.638 97.9492 64.3125C97.9492 63.7721 97.7734 63.3424 97.4219 63.0234C97.0768 62.6979 96.6276 62.5352 96.0742 62.5352C95.5208 62.5352 95.0749 62.7012 94.7363 63.0332C94.4043 63.3652 94.2383 63.8307 94.2383 64.4297H90.7031C90.7031 63.4596 90.9245 62.6165 91.3672 61.9004C91.8099 61.1777 92.4349 60.6243 93.2422 60.2402C94.056 59.8561 95 59.6641 96.0742 59.6641C97.1745 59.6641 98.138 59.8431 98.9648 60.2012C99.7982 60.5592 100.439 61.0671 100.889 61.7246C101.338 62.3757 101.562 63.1341 101.562 64C101.562 64.5729 101.445 65.123 101.211 65.6504C100.983 66.1777 100.579 66.7637 100 67.4082C99.4271 68.0527 98.6133 68.8177 97.5586 69.7031L96.1328 70.9336V71.0117H101.719V74H90.957V71.3242ZM109.151 74.1953C107.881 74.1953 106.784 73.9121 105.86 73.3457C104.935 72.7728 104.222 71.9427 103.721 70.8555C103.226 69.7617 102.979 68.4531 102.979 66.9297C102.979 65.3997 103.226 64.0911 103.721 63.0039C104.222 61.9102 104.935 61.0801 105.86 60.5137C106.784 59.9473 107.881 59.6641 109.151 59.6641C110.42 59.6641 111.517 59.9505 112.442 60.5234C113.366 61.0898 114.076 61.9199 114.571 63.0137C115.072 64.1009 115.323 65.4062 115.323 66.9297C115.323 68.4596 115.072 69.7715 114.571 70.8652C114.076 71.9525 113.366 72.7793 112.442 73.3457C111.517 73.9121 110.42 74.1953 109.151 74.1953ZM109.151 71.207C109.873 71.194 110.44 70.8392 110.85 70.1426C111.267 69.446 111.475 68.375 111.475 66.9297C111.475 65.9792 111.377 65.1849 111.182 64.5469C110.987 63.9089 110.717 63.4336 110.371 63.1211C110.026 62.8086 109.62 62.6523 109.151 62.6523C108.441 62.6523 107.878 63.0104 107.461 63.7266C107.045 64.4427 106.833 65.5104 106.827 66.9297C106.827 68.375 107.032 69.446 107.442 70.1426C107.858 70.8392 108.428 71.194 109.151 71.207ZM125.45 68.1797H116.583V59.293H125.45V68.1797ZM119.688 65.7383H122.345V61.7539H119.688V65.7383ZM130.645 62.9062H132.891V65.4648H130.645V71.0312H127.501V57.9062H130.645V62.9062ZM131.173 75.6797H118.673V69.7031H121.817V73.1797H131.173V75.6797ZM148.624 71.5H145.499V70.3477H142.218V68.2578H145.499V57.9062H148.624V71.5ZM149.015 75.6797H135.128V70.2109H137.57V68.043C136.248 68.0951 134.848 68.1211 133.37 68.1211L133.019 65.6797H133.292C135.597 65.6536 137.638 65.6048 139.415 65.5332C141.193 65.4616 142.895 65.3216 144.523 65.1133L144.679 67.3398C143.54 67.5482 142.218 67.7174 140.714 67.8477V71.1875H138.273V73.1797H149.015V75.6797ZM138.859 58.4336C139.724 58.4336 140.499 58.5736 141.183 58.8535C141.873 59.1335 142.413 59.5241 142.804 60.0254C143.201 60.5267 143.403 61.0964 143.409 61.7344C143.403 62.3659 143.204 62.9258 142.814 63.4141C142.423 63.9023 141.883 64.2832 141.193 64.5566C140.502 64.8236 139.724 64.957 138.859 64.957C137.973 64.957 137.182 64.8236 136.486 64.5566C135.795 64.2832 135.255 63.9056 134.864 63.4238C134.48 62.9355 134.288 62.3724 134.288 61.7344C134.288 61.0964 134.484 60.5267 134.874 60.0254C135.265 59.5241 135.805 59.1335 136.495 58.8535C137.192 58.5736 137.98 58.4336 138.859 58.4336ZM138.859 60.6992C138.357 60.7122 137.963 60.8034 137.677 60.9727C137.397 61.1354 137.257 61.3893 137.257 61.7344C137.257 62.0664 137.397 62.3138 137.677 62.4766C137.963 62.6328 138.357 62.7109 138.859 62.7109C139.34 62.7109 139.721 62.6328 140.001 62.4766C140.281 62.3138 140.421 62.0664 140.421 61.7344C140.421 61.3893 140.281 61.1354 140.001 60.9727C139.728 60.8034 139.347 60.7122 138.859 60.6992ZM160.852 60.6797C160.839 61.806 161.135 62.8021 161.74 63.668C162.346 64.5339 163.352 65.1654 164.758 65.5625L163.098 67.9844C161.366 67.4505 160.096 66.4479 159.289 64.9766C158.443 66.7344 157.082 67.9062 155.207 68.4922L153.527 66.0508C155.012 65.582 156.073 64.8398 156.711 63.8242C157.349 62.8086 157.674 61.6497 157.688 60.3477V58.8633H160.852V60.6797ZM168.371 61.793H170.617V64.3711H168.371V68.4141H165.227V57.8672H168.371V61.793ZM162.375 68.7266C163.618 68.7201 164.706 68.8633 165.637 69.1562C166.568 69.4427 167.284 69.8594 167.785 70.4062C168.293 70.9466 168.547 71.5911 168.547 72.3398C168.547 73.0951 168.293 73.7461 167.785 74.293C167.284 74.8398 166.568 75.2565 165.637 75.543C164.712 75.8294 163.625 75.9727 162.375 75.9727C161.086 75.9727 159.966 75.8294 159.016 75.543C158.065 75.2565 157.333 74.8398 156.818 74.293C156.311 73.7526 156.06 73.1016 156.066 72.3398C156.06 71.5911 156.314 70.9466 156.828 70.4062C157.342 69.8594 158.075 69.4427 159.025 69.1562C159.976 68.8633 161.092 68.7201 162.375 68.7266ZM162.375 71.1484C161.301 71.1484 160.5 71.2461 159.973 71.4414C159.452 71.6302 159.191 71.9297 159.191 72.3398C159.191 72.763 159.449 73.069 159.963 73.2578C160.484 73.4401 161.288 73.5312 162.375 73.5312C163.436 73.5312 164.211 73.4401 164.699 73.2578C165.194 73.069 165.441 72.763 165.441 72.3398C165.441 71.9297 165.191 71.6302 164.689 71.4414C164.195 71.2461 163.423 71.1484 162.375 71.1484ZM185.295 61.9102H187.502V64.4102H185.295V68.1211H182.112V57.8672H185.295V61.9102ZM179.26 68.4141C180.497 68.4141 181.581 68.5638 182.512 68.8633C183.443 69.1628 184.162 69.5957 184.67 70.1621C185.178 70.7285 185.432 71.3958 185.432 72.1641C185.432 72.9518 185.178 73.6322 184.67 74.2051C184.162 74.778 183.443 75.2142 182.512 75.5137C181.588 75.8197 180.504 75.9727 179.26 75.9727C177.984 75.9727 176.871 75.8197 175.92 75.5137C174.97 75.2142 174.234 74.778 173.713 74.2051C173.199 73.6322 172.945 72.9518 172.952 72.1641C172.945 71.3958 173.199 70.7285 173.713 70.1621C174.234 69.5957 174.97 69.1628 175.92 68.8633C176.877 68.5638 177.991 68.4141 179.26 68.4141ZM179.26 70.875C178.179 70.875 177.369 70.9792 176.829 71.1875C176.295 71.3958 176.031 71.7214 176.037 72.1641C176.031 72.6263 176.295 72.9681 176.829 73.1895C177.369 73.4043 178.179 73.5052 179.26 73.4922C180.289 73.5052 181.067 73.4043 181.594 73.1895C182.128 72.9681 182.398 72.6263 182.405 72.1641C182.398 71.7214 182.131 71.3958 181.604 71.1875C181.077 70.9792 180.295 70.875 179.26 70.875ZM179.495 61.4805H174.436V64.9766C176.044 64.9635 177.327 64.9212 178.284 64.8496C179.241 64.778 180.152 64.651 181.018 64.4688L181.272 66.9297C180.302 67.1576 179.237 67.3073 178.079 67.3789C176.92 67.444 175.191 67.4766 172.893 67.4766H171.311V59H179.495V61.4805ZM201.468 60.0742C201.461 60.9336 201.663 61.7767 202.073 62.6035C202.49 63.4238 203.164 64.1497 204.095 64.7812C205.032 65.4128 206.24 65.849 207.718 66.0898L206.37 68.6875C204.775 68.3945 203.428 67.8704 202.327 67.1152C201.227 66.36 200.381 65.4355 199.788 64.3418C199.176 65.429 198.32 66.3503 197.22 67.1055C196.12 67.8607 194.782 68.388 193.206 68.6875L191.878 66.0898C193.323 65.8424 194.508 65.3997 195.433 64.7617C196.364 64.1237 197.038 63.3945 197.454 62.5742C197.877 61.7474 198.089 60.9141 198.089 60.0742V58.8438H201.468V60.0742ZM208.148 73.8828H191.644V71.3242H208.148V73.8828ZM224.154 67.6914H221.185V64.1172H220.15V67.4961H217.24V58.1992H220.15V61.6758H221.185V57.9062H224.154V67.6914ZM214.642 69.8008H221.048V68.3555H224.154V75.7773H211.537V68.3555H214.642V69.8008ZM221.048 73.2578V72.1445H214.642V73.2578H221.048ZM212.259 64.4297C213.705 64.3906 215.059 64.2604 216.322 64.0391L216.615 66.5C215.677 66.6758 214.746 66.793 213.822 66.8516C212.904 66.9036 211.784 66.9297 210.463 66.9297H209.115V59H212.259V64.4297ZM236.303 60.6797C236.29 61.806 236.586 62.8021 237.192 63.668C237.797 64.5339 238.803 65.1654 240.209 65.5625L238.549 67.9844C236.817 67.4505 235.548 66.4479 234.741 64.9766C233.894 66.7344 232.534 67.9062 230.659 68.4922L228.979 66.0508C230.463 65.582 231.524 64.8398 232.163 63.8242C232.801 62.8086 233.126 61.6497 233.139 60.3477V58.8633H236.303V60.6797ZM243.823 61.793H246.069V64.3711H243.823V68.4141H240.678V57.8672H243.823V61.793ZM237.827 68.7266C239.07 68.7201 240.157 68.8633 241.088 69.1562C242.019 69.4427 242.735 69.8594 243.237 70.4062C243.745 70.9466 243.998 71.5911 243.998 72.3398C243.998 73.0951 243.745 73.7461 243.237 74.293C242.735 74.8398 242.019 75.2565 241.088 75.543C240.164 75.8294 239.077 75.9727 237.827 75.9727C236.538 75.9727 235.418 75.8294 234.467 75.543C233.517 75.2565 232.784 74.8398 232.27 74.293C231.762 73.7526 231.511 73.1016 231.518 72.3398C231.511 71.5911 231.765 70.9466 232.28 70.4062C232.794 69.8594 233.526 69.4427 234.477 69.1562C235.427 68.8633 236.544 68.7201 237.827 68.7266ZM237.827 71.1484C236.752 71.1484 235.952 71.2461 235.424 71.4414C234.903 71.6302 234.643 71.9297 234.643 72.3398C234.643 72.763 234.9 73.069 235.414 73.2578C235.935 73.4401 236.739 73.5312 237.827 73.5312C238.888 73.5312 239.663 73.4401 240.151 73.2578C240.646 73.069 240.893 72.763 240.893 72.3398C240.893 71.9297 240.642 71.6302 240.141 71.4414C239.646 71.2461 238.875 71.1484 237.827 71.1484ZM262.739 68.6094H256.04V69.7812H260.786V75.7773H248.11V69.7812H252.895V68.6094H246.255V66.168H262.739V68.6094ZM261.313 60.8164H259.243V62.8672H261.157V65.3672H247.817V62.8672H249.712V60.8164H247.641V58.3164H261.313V60.8164ZM251.177 73.2773H257.72V72.1836H251.177V73.2773ZM256.079 62.8672V60.8164H252.837V62.8672H256.079ZM278.902 71.4609H275.698V69.8203H272.456V67.3789H275.698V57.9062H278.902V71.4609ZM279.273 75.6797H265.405V70.1523H267.613V66.8809C266.421 66.9264 265.015 66.9557 263.394 66.9688L263.042 64.5469L263.941 64.5273C264.885 64.5078 265.897 64.485 266.978 64.459C268.065 64.4264 269.074 64.3874 270.005 64.3418C270.161 63.209 270.262 62.1315 270.308 61.1094H264.663V58.6484H273.472V59.3125C273.472 60.0221 273.452 60.7546 273.413 61.5098C273.374 62.2585 273.28 63.1243 273.13 64.1074C273.82 64.0293 274.331 63.9674 274.663 63.9219L274.859 66.1289C273.589 66.3568 272.209 66.5391 270.718 66.6758V70.3672H268.53V73.1797H279.273V75.6797ZM106.738 98.6992H99.8438V103.816H97.3828V98.6992H90.5273V96.668H106.738V98.6992ZM105.254 90.0273H99.9219C100.02 90.5742 100.312 91.1081 100.801 91.6289C101.289 92.1497 101.966 92.6022 102.832 92.9863C103.698 93.3704 104.714 93.6276 105.879 93.7578L104.98 95.7109C103.516 95.5417 102.24 95.1771 101.152 94.6172C100.072 94.0573 99.2318 93.3574 98.6328 92.5176C98.0404 93.3574 97.1973 94.0573 96.1035 94.6172C95.0163 95.1771 93.7305 95.5417 92.2461 95.7109L91.3477 93.7578C92.513 93.6276 93.5286 93.3704 94.3945 92.9863C95.2669 92.6022 95.9505 92.1497 96.4453 91.6289C96.9401 91.1081 97.2396 90.5742 97.3438 90.0273H91.9922V88.0742H97.3828V86.043H99.8438V88.0742H105.254V90.0273ZM113.955 89.8125C113.955 90.4505 114.108 91.0592 114.414 91.6387C114.727 92.2181 115.199 92.7357 115.83 93.1914C116.462 93.6406 117.237 93.9857 118.155 94.2266L117.041 96.1602C116.039 95.8997 115.176 95.5026 114.454 94.9688C113.737 94.4284 113.168 93.7871 112.745 93.0449C112.341 93.8587 111.778 94.5618 111.055 95.1543C110.339 95.7402 109.47 96.1797 108.448 96.4727L107.276 94.5391C108.2 94.2852 108.975 93.9173 109.6 93.4355C110.232 92.9538 110.7 92.4004 111.006 91.7754C111.319 91.1504 111.475 90.4961 111.475 89.8125V89.7539H107.901V87.8008H111.475V85.9453H113.995V87.8008H117.549V89.7539H113.955V89.8125ZM122.393 96.4336H119.913V92.7031H117.1V90.6914H119.913V86.0234H122.393V96.4336ZM122.393 103.602H110.44V97.1953H122.393V103.602ZM112.94 101.609H119.952V99.1875H112.94V101.609ZM144.757 95.75H137.862V96.7461H142.804V100.945H132.843V101.98H143.331V103.68H130.362V99.3633H140.343V98.4648H130.343V96.7461H135.382V95.75H128.487V93.9531H144.757V95.75ZM142.784 90.4961H132.999V91.4531H143.097V93.1328H130.519V88.9141H140.284V88.0156H130.48V86.3359H142.784V90.4961ZM152.384 92.6641H148.517V94.4707C149.507 94.4577 150.386 94.4186 151.154 94.3535C151.929 94.2884 152.723 94.181 153.537 94.0312L153.771 95.9844C152.834 96.1667 151.903 96.2839 150.978 96.3359C150.054 96.388 148.843 96.4141 147.345 96.4141H146.115V90.8477H150.002V89.207H146.095V87.2539H152.384V92.6641ZM160.666 98.1328H158.302V86.043H160.666V98.1328ZM157.033 96.6094H154.689V92.0195H153.029V90.0469H154.689V86.375H157.033V96.6094ZM155.744 97.6055C155.737 98.237 155.952 98.8457 156.388 99.4316C156.824 100.018 157.476 100.525 158.341 100.955C159.207 101.378 160.255 101.668 161.486 101.824L160.529 103.719C159.123 103.523 157.905 103.146 156.877 102.586C155.848 102.026 155.057 101.333 154.504 100.506C153.944 101.333 153.149 102.026 152.121 102.586C151.092 103.146 149.878 103.523 148.478 103.719L147.521 101.824C148.745 101.668 149.787 101.378 150.646 100.955C151.505 100.525 152.153 100.021 152.589 99.4414C153.026 98.8555 153.244 98.2435 153.244 97.6055V97.2734H155.744V97.6055ZM182.698 96.2969H166.487V94.3438H182.698V96.2969ZM174.573 97.293C175.855 97.293 176.959 97.4199 177.883 97.6738C178.808 97.9277 179.517 98.2988 180.012 98.7871C180.507 99.2754 180.758 99.8646 180.764 100.555C180.758 101.245 180.507 101.834 180.012 102.322C179.517 102.811 178.808 103.182 177.883 103.436C176.959 103.689 175.855 103.816 174.573 103.816C173.271 103.816 172.154 103.689 171.223 103.436C170.292 103.182 169.579 102.811 169.084 102.322C168.59 101.834 168.342 101.245 168.342 100.555C168.342 99.8646 168.59 99.2754 169.084 98.7871C169.579 98.2988 170.292 97.9277 171.223 97.6738C172.154 97.4199 173.271 97.293 174.573 97.293ZM174.573 99.168C172.092 99.168 170.862 99.6302 170.881 100.555C170.862 101.466 172.092 101.922 174.573 101.922C177.014 101.922 178.245 101.466 178.264 100.555C178.245 99.6302 177.014 99.168 174.573 99.168ZM174.592 86.3945C175.888 86.401 177.021 86.5475 177.991 86.834C178.967 87.1139 179.719 87.5176 180.246 88.0449C180.78 88.5658 181.051 89.181 181.057 89.8906C181.051 90.6068 180.78 91.2253 180.246 91.7461C179.719 92.2669 178.967 92.6673 177.991 92.9473C177.021 93.2272 175.888 93.3672 174.592 93.3672C173.29 93.3672 172.151 93.2272 171.174 92.9473C170.198 92.6673 169.442 92.2669 168.909 91.7461C168.375 91.2253 168.108 90.6068 168.108 89.8906C168.108 89.181 168.375 88.5658 168.909 88.0449C169.442 87.5176 170.198 87.1139 171.174 86.834C172.151 86.5475 173.29 86.401 174.592 86.3945ZM174.592 88.3477C173.329 88.3477 172.362 88.4746 171.692 88.7285C171.028 88.9824 170.699 89.3698 170.705 89.8906C170.699 90.3984 171.031 90.7826 171.702 91.043C172.372 91.3034 173.336 91.4336 174.592 91.4336C175.842 91.4336 176.802 91.3034 177.473 91.043C178.144 90.7826 178.479 90.3984 178.479 89.8906C178.479 89.3698 178.144 88.9824 177.473 88.7285C176.809 88.4746 175.849 88.3477 174.592 88.3477ZM199.641 101.727H183.372V99.6758H190.227V96.043H185.091V87.332H197.825V96.043H192.708V99.6758H199.641V101.727ZM187.552 94.0898H195.364V89.3242H187.552V94.0898ZM215.452 99.4219H212.933V97.4492H209.456V95.4961H212.933V86.043H215.452V99.4219ZM215.863 103.484H202.601V98.0547H204.886V94.6367C203.668 94.6888 202.191 94.7214 200.452 94.7344L200.14 92.7617C203.07 92.7487 205.508 92.6836 207.454 92.5664C207.643 91.2578 207.757 90.0273 207.796 88.875H201.761V86.9023H210.296V87.5664C210.296 88.2956 210.273 89.0345 210.228 89.7832C210.189 90.5254 210.094 91.388 209.945 92.3711C210.713 92.293 211.286 92.2279 211.663 92.1758L211.82 93.9336C210.465 94.1745 208.974 94.36 207.347 94.4902V98.3086H205.101V101.492H215.863V103.484ZM237.562 96.2188H221.352V94.207H237.562V96.2188ZM229.438 97.2148C230.714 97.2148 231.814 97.3451 232.738 97.6055C233.669 97.8659 234.382 98.2435 234.877 98.7383C235.372 99.2331 235.622 99.8255 235.629 100.516C235.622 101.212 235.372 101.805 234.877 102.293C234.382 102.788 233.673 103.162 232.748 103.416C231.824 103.67 230.72 103.797 229.438 103.797C228.142 103.797 227.025 103.67 226.088 103.416C225.157 103.162 224.444 102.788 223.949 102.293C223.454 101.805 223.207 101.212 223.207 100.516C223.207 99.8255 223.454 99.2331 223.949 98.7383C224.451 98.2435 225.167 97.8659 226.098 97.6055C227.035 97.3451 228.148 97.2148 229.438 97.2148ZM229.438 99.1484C228.194 99.1484 227.266 99.2624 226.654 99.4902C226.042 99.7116 225.74 100.053 225.746 100.516C225.74 100.971 226.042 101.31 226.654 101.531C227.273 101.753 228.201 101.863 229.438 101.863C231.879 101.863 233.109 101.414 233.129 100.516C233.122 100.053 232.81 99.7116 232.191 99.4902C231.573 99.2624 230.655 99.1484 229.438 99.1484ZM236.098 88.8359H231.244C231.387 89.2656 231.69 89.6725 232.152 90.0566C232.615 90.4408 233.243 90.7728 234.037 91.0527C234.838 91.3262 235.785 91.5117 236.879 91.6094L236 93.5625C234.359 93.4062 232.976 93.0352 231.85 92.4492C230.73 91.8633 229.926 91.1309 229.438 90.252C228.956 91.1374 228.155 91.873 227.035 92.459C225.922 93.0384 224.542 93.4062 222.895 93.5625L222.074 91.6094C223.142 91.5117 224.07 91.3262 224.857 91.0527C225.652 90.7793 226.28 90.4505 226.742 90.0664C227.204 89.6823 227.507 89.2721 227.65 88.8359H222.836V86.8438H236.098V88.8359ZM253.217 96.5703H250.737V92.3711H247.963V90.3594H250.737V86.0234H253.217V96.5703ZM247.143 96.9609C248.406 96.9674 249.493 97.1074 250.405 97.3809C251.323 97.6478 252.029 98.0384 252.524 98.5527C253.019 99.0671 253.269 99.6823 253.276 100.398C253.269 101.108 253.019 101.72 252.524 102.234C252.029 102.749 251.323 103.139 250.405 103.406C249.487 103.68 248.399 103.816 247.143 103.816C245.886 103.816 244.799 103.68 243.881 103.406C242.963 103.139 242.257 102.749 241.762 102.234C241.274 101.72 241.03 101.108 241.03 100.398C241.03 99.6823 241.274 99.0671 241.762 98.5527C242.257 98.0384 242.96 97.6478 243.871 97.3809C244.789 97.1074 245.88 96.9674 247.143 96.9609ZM247.143 98.875C244.721 98.875 243.51 99.3828 243.51 100.398C243.51 100.906 243.816 101.287 244.428 101.541C245.047 101.795 245.952 101.922 247.143 101.922C248.334 101.922 249.239 101.795 249.858 101.541C250.483 101.281 250.795 100.9 250.795 100.398C250.795 99.3828 249.578 98.875 247.143 98.875ZM248.491 89.0898H244.955C244.975 89.806 245.135 90.4961 245.434 91.1602C245.74 91.8177 246.192 92.4102 246.791 92.9375C247.397 93.4648 248.146 93.875 249.038 94.168L247.807 96.1211C246.857 95.8151 246.036 95.3594 245.346 94.7539C244.663 94.1419 244.122 93.4225 243.725 92.5957C243.315 93.5332 242.748 94.347 242.026 95.0371C241.303 95.7207 240.431 96.2383 239.409 96.5898L238.12 94.6172C239.057 94.3047 239.842 93.862 240.473 93.2891C241.111 92.7096 241.586 92.0586 241.899 91.3359C242.218 90.6133 242.39 89.8646 242.416 89.0898H238.842V87.0977H248.491V89.0898ZM258.911 97.7617H256.411L256.157 87.8594H259.165L258.911 97.7617ZM257.68 102.176C257.381 102.176 257.104 102.101 256.85 101.951C256.596 101.801 256.395 101.603 256.245 101.355C256.102 101.102 256.033 100.828 256.04 100.535C256.033 100.242 256.102 99.972 256.245 99.7246C256.395 99.4772 256.596 99.2819 256.85 99.1387C257.104 98.9889 257.381 98.9141 257.68 98.9141C257.96 98.9141 258.224 98.9889 258.471 99.1387C258.725 99.2819 258.927 99.4772 259.077 99.7246C259.227 99.972 259.302 100.242 259.302 100.535C259.302 100.828 259.227 101.102 259.077 101.355C258.927 101.603 258.725 101.801 258.471 101.951C258.224 102.101 257.96 102.176 257.68 102.176Z" fill="white"/>
<g clip-path="url(#clip1_2_3873)">
<path d="M323.971 39.6825L292.406 66.9499H360.175L328.61 39.6825C327.277 38.5318 325.303 38.5318 323.971 39.6825Z" fill="#7364FF"/>
<path d="M292.406 66.9509H360.263V106.033C360.263 107.503 359.071 108.694 357.602 108.694H295.067C293.597 108.694 292.406 107.503 292.406 106.033V66.9509Z" fill="#5041DE"/>
<rect x="301" y="51" width="51" height="38" rx="3" fill="white"/>
<path d="M360.433 108.157V66.9512L297.588 106.657C296.085 107.607 296.758 109.931 298.536 109.931H358.659C359.639 109.931 360.433 109.137 360.433 108.157Z" fill="#7364FF"/>
<path d="M292.406 108.157V66.9514L357.842 108.294C358.594 108.769 358.257 109.931 357.368 109.931H294.18C293.2 109.931 292.406 109.137 292.406 108.157Z" fill="#968BFF"/>
<path fill-rule="evenodd" clip-rule="evenodd" d="M368.367 46H366.743V49.2308H368.367V46ZM368.367 63.7692H366.743V67H368.367V63.7692ZM378.111 55.6922V57.3076L374.864 57.3076V55.6922H378.111ZM360.248 57.3076V55.6922H357V57.3076L360.248 57.3076ZM375.594 63.3539L374.446 64.4962L372.149 62.2117L373.298 61.0694L375.594 63.3539ZM361.814 51.9314L362.962 50.7892L360.666 48.5047L359.517 49.6469L361.814 51.9314ZM359.517 63.3537L360.666 64.4959L362.962 62.2114L361.814 61.0692L359.517 63.3537ZM373.298 51.9312L372.149 50.7889L374.446 48.5044L375.594 49.6467L373.298 51.9312Z" fill="#F554FF"/>
<path fill-rule="evenodd" clip-rule="evenodd" d="M285.744 101H284.352V103.769H285.744V101ZM285.744 116.231H284.352V119H285.744V116.231ZM294.096 109.308V110.692L291.312 110.692V109.308H294.096ZM278.784 110.692V109.308H276V110.692L278.784 110.692ZM291.937 115.875L290.953 116.854L288.984 114.896L289.969 113.917L291.937 115.875ZM280.126 106.084L281.111 105.105L279.142 103.147L278.158 104.126L280.126 106.084ZM278.159 115.875L279.143 116.854L281.112 114.896L280.128 113.917L278.159 115.875ZM289.97 106.084L288.986 105.105L290.954 103.147L291.938 104.126L289.97 106.084Z" fill="#F554FF"/>
<ellipse cx="364.791" cy="73.75" rx="1.75926" ry="1.75" fill="#18C48E"/>
<ellipse cx="298.759" cy="47.75" rx="1.75926" ry="1.75" fill="#ECA817"/>
<path d="M343 43.411C346.519 36.5 350.54 33.5 357.282 32" stroke="#18C48E" stroke-width="2"/>
<path d="M313.134 43.4296C313.462 38.0707 312.451 34.0378 309.287 30" stroke="#7364FF" stroke-width="2"/>
<path d="M293.615 56.2441C288.251 56.0344 284.339 54.6244 280.638 51.0722" stroke="#7364FF" stroke-width="2"/>
<mask id="path-16-inside-1_2_3873" fill="white">
<path d="M307.941 63.1836C307.941 63.6263 308.067 64.0592 308.317 64.4824C308.571 64.9056 308.938 65.2734 309.416 65.5859C309.898 65.8984 310.461 66.11 311.105 66.2207L310.559 67.2559C309.797 67.1061 309.133 66.8278 308.566 66.4209C308.003 66.014 307.575 65.5192 307.282 64.9365C306.983 65.516 306.55 66.0091 305.983 66.416C305.42 66.8229 304.761 67.1029 304.006 67.2559L303.469 66.2207C304.104 66.1068 304.659 65.8936 305.134 65.5811C305.609 65.2686 305.974 64.9007 306.228 64.4775C306.481 64.0511 306.61 63.6198 306.613 63.1836V62.5391H307.941V63.1836ZM311.398 69.8047H303.264V68.7793H311.398V69.8047ZM319.343 66.8457H318.161V64.9805H317.351V66.7578H316.189V62.1777H317.351V63.9941H318.161V62.0215H319.343V66.8457ZM314.499 68.0566H318.113V67.207H319.343V70.8008H313.269V67.207H314.499V68.0566ZM318.113 69.7949V69.0039H314.499V69.7949H318.113ZM313.308 65.3857C313.731 65.376 314.13 65.3548 314.504 65.3223C314.882 65.2865 315.267 65.2344 315.661 65.166L315.788 66.1621C315.293 66.2565 314.813 66.3184 314.348 66.3477C313.882 66.3737 313.327 66.3867 312.683 66.3867H312.058V62.5684H313.308V65.3857ZM323.391 63.4082C323.391 63.776 323.464 64.1276 323.611 64.4629C323.757 64.7949 323.982 65.0928 324.285 65.3564C324.591 65.6169 324.97 65.8171 325.422 65.957L324.758 66.9238C324.296 66.7708 323.899 66.5495 323.567 66.2598C323.235 65.9701 322.971 65.6266 322.776 65.2295C322.577 65.6885 322.302 66.0856 321.951 66.4209C321.602 66.7529 321.181 67.002 320.686 67.168L320.012 66.1914C320.491 66.0319 320.888 65.804 321.204 65.5078C321.519 65.2116 321.754 64.8747 321.907 64.4971C322.06 64.1162 322.138 63.7142 322.141 63.291V62.4805H323.391V63.4082ZM327.2 64.0918H328.401V65.127H327.2V67.2852H325.95V62.0117H327.2V64.0918ZM324.289 67.4609C324.901 67.4609 325.432 67.5293 325.881 67.666C326.33 67.8027 326.677 67.9997 326.921 68.2568C327.165 68.514 327.288 68.8216 327.288 69.1797C327.288 69.541 327.165 69.8503 326.921 70.1074C326.68 70.3646 326.334 70.5599 325.881 70.6934C325.432 70.8301 324.901 70.8984 324.289 70.8984C323.664 70.8984 323.122 70.8301 322.663 70.6934C322.208 70.5599 321.856 70.3646 321.609 70.1074C321.365 69.8503 321.243 69.541 321.243 69.1797C321.243 68.8216 321.365 68.514 321.609 68.2568C321.856 67.9997 322.209 67.8027 322.668 67.666C323.127 67.5293 323.668 67.4609 324.289 67.4609ZM324.289 68.4375C323.7 68.4375 323.253 68.501 322.947 68.6279C322.641 68.7516 322.489 68.9355 322.493 69.1797C322.483 69.6745 323.082 69.9219 324.289 69.9219C325.468 69.9219 326.057 69.6745 326.057 69.1797C326.057 68.9355 325.906 68.7516 325.603 68.6279C325.303 68.501 324.866 68.4375 324.289 68.4375ZM336.697 67.1582H333.259V67.9199H335.73V70.8008H329.529V67.9199H332.019V67.1582H328.591V66.1719H336.697V67.1582ZM335.974 63.252H334.812V64.6094H335.916V65.6055H329.363V64.6094H330.457V63.252H329.304V62.2559H335.974V63.252ZM330.759 69.8047H334.509V68.8867H330.759V69.8047ZM333.562 64.6094V63.252H331.707V64.6094H333.562ZM344.632 68.7109H343.372V67.7246H341.634V66.748H343.372V62.0215H344.632V68.7109ZM344.837 70.7422H338.206V68.0273H339.348V66.3184C338.74 66.3444 338.001 66.3607 337.132 66.3672L336.975 65.3809C338.44 65.3743 339.659 65.3418 340.633 65.2832C340.727 64.6289 340.784 64.0137 340.804 63.4375H337.786V62.4512H342.054V62.7832C342.054 63.1478 342.042 63.5173 342.019 63.8916C342 64.2627 341.953 64.694 341.878 65.1855C342.262 65.1465 342.548 65.1139 342.737 65.0879L342.815 65.9668C342.138 66.0872 341.393 66.18 340.579 66.2451V68.1543H339.456V69.7461H344.837V70.7422Z"/>
</mask>
<path d="M307.941 63.1836C307.941 63.6263 308.067 64.0592 308.317 64.4824C308.571 64.9056 308.938 65.2734 309.416 65.5859C309.898 65.8984 310.461 66.11 311.105 66.2207L310.559 67.2559C309.797 67.1061 309.133 66.8278 308.566 66.4209C308.003 66.014 307.575 65.5192 307.282 64.9365C306.983 65.516 306.55 66.0091 305.983 66.416C305.42 66.8229 304.761 67.1029 304.006 67.2559L303.469 66.2207C304.104 66.1068 304.659 65.8936 305.134 65.5811C305.609 65.2686 305.974 64.9007 306.228 64.4775C306.481 64.0511 306.61 63.6198 306.613 63.1836V62.5391H307.941V63.1836ZM311.398 69.8047H303.264V68.7793H311.398V69.8047ZM319.343 66.8457H318.161V64.9805H317.351V66.7578H316.189V62.1777H317.351V63.9941H318.161V62.0215H319.343V66.8457ZM314.499 68.0566H318.113V67.207H319.343V70.8008H313.269V67.207H314.499V68.0566ZM318.113 69.7949V69.0039H314.499V69.7949H318.113ZM313.308 65.3857C313.731 65.376 314.13 65.3548 314.504 65.3223C314.882 65.2865 315.267 65.2344 315.661 65.166L315.788 66.1621C315.293 66.2565 314.813 66.3184 314.348 66.3477C313.882 66.3737 313.327 66.3867 312.683 66.3867H312.058V62.5684H313.308V65.3857ZM323.391 63.4082C323.391 63.776 323.464 64.1276 323.611 64.4629C323.757 64.7949 323.982 65.0928 324.285 65.3564C324.591 65.6169 324.97 65.8171 325.422 65.957L324.758 66.9238C324.296 66.7708 323.899 66.5495 323.567 66.2598C323.235 65.9701 322.971 65.6266 322.776 65.2295C322.577 65.6885 322.302 66.0856 321.951 66.4209C321.602 66.7529 321.181 67.002 320.686 67.168L320.012 66.1914C320.491 66.0319 320.888 65.804 321.204 65.5078C321.519 65.2116 321.754 64.8747 321.907 64.4971C322.06 64.1162 322.138 63.7142 322.141 63.291V62.4805H323.391V63.4082ZM327.2 64.0918H328.401V65.127H327.2V67.2852H325.95V62.0117H327.2V64.0918ZM324.289 67.4609C324.901 67.4609 325.432 67.5293 325.881 67.666C326.33 67.8027 326.677 67.9997 326.921 68.2568C327.165 68.514 327.288 68.8216 327.288 69.1797C327.288 69.541 327.165 69.8503 326.921 70.1074C326.68 70.3646 326.334 70.5599 325.881 70.6934C325.432 70.8301 324.901 70.8984 324.289 70.8984C323.664 70.8984 323.122 70.8301 322.663 70.6934C322.208 70.5599 321.856 70.3646 321.609 70.1074C321.365 69.8503 321.243 69.541 321.243 69.1797C321.243 68.8216 321.365 68.514 321.609 68.2568C321.856 67.9997 322.209 67.8027 322.668 67.666C323.127 67.5293 323.668 67.4609 324.289 67.4609ZM324.289 68.4375C323.7 68.4375 323.253 68.501 322.947 68.6279C322.641 68.7516 322.489 68.9355 322.493 69.1797C322.483 69.6745 323.082 69.9219 324.289 69.9219C325.468 69.9219 326.057 69.6745 326.057 69.1797C326.057 68.9355 325.906 68.7516 325.603 68.6279C325.303 68.501 324.866 68.4375 324.289 68.4375ZM336.697 67.1582H333.259V67.9199H335.73V70.8008H329.529V67.9199H332.019V67.1582H328.591V66.1719H336.697V67.1582ZM335.974 63.252H334.812V64.6094H335.916V65.6055H329.363V64.6094H330.457V63.252H329.304V62.2559H335.974V63.252ZM330.759 69.8047H334.509V68.8867H330.759V69.8047ZM333.562 64.6094V63.252H331.707V64.6094H333.562ZM344.632 68.7109H343.372V67.7246H341.634V66.748H343.372V62.0215H344.632V68.7109ZM344.837 70.7422H338.206V68.0273H339.348V66.3184C338.74 66.3444 338.001 66.3607 337.132 66.3672L336.975 65.3809C338.44 65.3743 339.659 65.3418 340.633 65.2832C340.727 64.6289 340.784 64.0137 340.804 63.4375H337.786V62.4512H342.054V62.7832C342.054 63.1478 342.042 63.5173 342.019 63.8916C342 64.2627 341.953 64.694 341.878 65.1855C342.262 65.1465 342.548 65.1139 342.737 65.0879L342.815 65.9668C342.138 66.0872 341.393 66.18 340.579 66.2451V68.1543H339.456V69.7461H344.837V70.7422Z" fill="#7364FF"/>
<path d="M308.317 64.4824L307.457 64.9921L307.46 64.9969L308.317 64.4824ZM309.416 65.5859L308.869 66.4232L308.872 66.4249L309.416 65.5859ZM311.105 66.2207L311.99 66.6878L312.634 65.4685L311.275 65.2351L311.105 66.2207ZM310.559 67.2559L310.366 68.2371L311.095 68.3805L311.443 67.723L310.559 67.2559ZM308.566 66.4209L307.981 67.2315L307.983 67.2331L308.566 66.4209ZM307.282 64.9365L308.176 64.4873L307.295 62.7348L306.394 64.4774L307.282 64.9365ZM305.983 66.416L305.4 65.6039L305.398 65.6055L305.983 66.416ZM304.006 67.2559L303.118 67.7164L303.465 68.3856L304.204 68.2359L304.006 67.2559ZM303.469 66.2207L303.292 65.2364L301.956 65.4763L302.581 66.6813L303.469 66.2207ZM305.134 65.5811L304.584 64.7455L305.134 65.5811ZM306.228 64.4775L307.085 64.992L307.087 64.9891L306.228 64.4775ZM306.613 63.1836L307.613 63.1911V63.1836H306.613ZM306.613 62.5391V61.5391H305.613V62.5391H306.613ZM307.941 62.5391H308.941V61.5391H307.941V62.5391ZM311.398 69.8047V70.8047H312.398V69.8047H311.398ZM303.264 69.8047H302.264V70.8047H303.264V69.8047ZM303.264 68.7793V67.7793H302.264V68.7793H303.264ZM311.398 68.7793H312.398V67.7793H311.398V68.7793ZM306.941 63.1836C306.941 63.825 307.125 64.4322 307.457 64.992L309.178 63.9728C309.008 63.6863 308.941 63.4276 308.941 63.1836H306.941ZM307.46 64.9969C307.803 65.5688 308.284 66.0411 308.869 66.4232L309.963 64.7487C309.591 64.5058 309.34 64.2424 309.175 63.9679L307.46 64.9969ZM308.872 66.4249C309.482 66.8207 310.177 67.0758 310.936 67.2063L311.275 65.2351C310.745 65.1442 310.313 64.9761 309.96 64.747L308.872 66.4249ZM310.221 65.7536L309.674 66.7887L311.443 67.723L311.99 66.6878L310.221 65.7536ZM310.751 66.2746C310.115 66.1494 309.587 65.9229 309.15 65.6087L307.983 67.2331C308.678 67.7327 309.479 68.0628 310.366 68.2371L310.751 66.2746ZM309.152 65.6103C308.71 65.2911 308.392 64.9173 308.176 64.4873L306.389 65.3857C306.759 66.1211 307.296 66.7369 307.981 67.2315L309.152 65.6103ZM306.394 64.4774C306.172 64.9071 305.847 65.2824 305.4 65.6039L306.567 67.2282C307.252 66.7358 307.794 66.1248 308.171 65.3957L306.394 64.4774ZM305.398 65.6055C304.962 65.9202 304.438 66.148 303.807 66.2758L304.204 68.2359C305.084 68.0578 305.878 67.7256 306.569 67.2266L305.398 65.6055ZM304.893 66.7953L304.356 65.7601L302.581 66.6813L303.118 67.7164L304.893 66.7953ZM303.645 67.205C304.395 67.0704 305.081 66.8127 305.683 66.4166L304.584 64.7455C304.236 64.9744 303.812 65.1432 303.292 65.2364L303.645 67.205ZM305.683 66.4166C306.265 66.0342 306.743 65.5623 307.085 64.992L305.37 63.963C305.204 64.2391 304.953 64.5029 304.584 64.7455L305.683 66.4166ZM307.087 64.9891C307.419 64.4315 307.608 63.8282 307.613 63.1911L305.613 63.1761C305.612 63.4114 305.544 63.6707 305.368 63.9659L307.087 64.9891ZM307.613 63.1836V62.5391H305.613V63.1836H307.613ZM306.613 63.5391H307.941V61.5391H306.613V63.5391ZM306.941 62.5391V63.1836H308.941V62.5391H306.941ZM311.398 68.8047H303.264V70.8047H311.398V68.8047ZM304.264 69.8047V68.7793H302.264V69.8047H304.264ZM303.264 69.7793H311.398V67.7793H303.264V69.7793ZM310.398 68.7793V69.8047H312.398V68.7793H310.398ZM319.343 66.8457V67.8457H320.343V66.8457H319.343ZM318.161 66.8457H317.161V67.8457H318.161V66.8457ZM318.161 64.9805H319.161V63.9805H318.161V64.9805ZM317.351 64.9805V63.9805H316.351V64.9805H317.351ZM317.351 66.7578V67.7578H318.351V66.7578H317.351ZM316.189 66.7578H315.189V67.7578H316.189V66.7578ZM316.189 62.1777V61.1777H315.189V62.1777H316.189ZM317.351 62.1777H318.351V61.1777H317.351V62.1777ZM317.351 63.9941H316.351V64.9941H317.351V63.9941ZM318.161 63.9941V64.9941H319.161V63.9941H318.161ZM318.161 62.0215V61.0215H317.161V62.0215H318.161ZM319.343 62.0215H320.343V61.0215H319.343V62.0215ZM314.499 68.0566H313.499V69.0566H314.499V68.0566ZM318.113 68.0566V69.0566H319.113V68.0566H318.113ZM318.113 67.207V66.207H317.113V67.207H318.113ZM319.343 67.207H320.343V66.207H319.343V67.207ZM319.343 70.8008V71.8008H320.343V70.8008H319.343ZM313.269 70.8008H312.269V71.8008H313.269V70.8008ZM313.269 67.207V66.207H312.269V67.207H313.269ZM314.499 67.207H315.499V66.207H314.499V67.207ZM318.113 69.7949V70.7949H319.113V69.7949H318.113ZM318.113 69.0039H319.113V68.0039H318.113V69.0039ZM314.499 69.0039V68.0039H313.499V69.0039H314.499ZM314.499 69.7949H313.499V70.7949H314.499V69.7949ZM313.308 65.3857H312.308V66.4091L313.331 66.3855L313.308 65.3857ZM314.504 65.3223L314.591 66.3185L314.599 66.3178L314.504 65.3223ZM315.661 65.166L316.653 65.0396L316.521 64.0019L315.49 64.1807L315.661 65.166ZM315.788 66.1621L315.976 67.1444L316.899 66.9682L316.78 66.0357L315.788 66.1621ZM314.348 66.3477L314.404 67.3461L314.411 67.3457L314.348 66.3477ZM312.058 66.3867H311.058V67.3867H312.058V66.3867ZM312.058 62.5684V61.5684H311.058V62.5684H312.058ZM313.308 62.5684H314.308V61.5684H313.308V62.5684ZM319.343 65.8457H318.161V67.8457H319.343V65.8457ZM319.161 66.8457V64.9805H317.161V66.8457H319.161ZM318.161 63.9805H317.351V65.9805H318.161V63.9805ZM316.351 64.9805V66.7578H318.351V64.9805H316.351ZM317.351 65.7578H316.189V67.7578H317.351V65.7578ZM317.189 66.7578V62.1777H315.189V66.7578H317.189ZM316.189 63.1777H317.351V61.1777H316.189V63.1777ZM316.351 62.1777V63.9941H318.351V62.1777H316.351ZM317.351 64.9941H318.161V62.9941H317.351V64.9941ZM319.161 63.9941V62.0215H317.161V63.9941H319.161ZM318.161 63.0215H319.343V61.0215H318.161V63.0215ZM318.343 62.0215V66.8457H320.343V62.0215H318.343ZM314.499 69.0566H318.113V67.0566H314.499V69.0566ZM319.113 68.0566V67.207H317.113V68.0566H319.113ZM318.113 68.207H319.343V66.207H318.113V68.207ZM318.343 67.207V70.8008H320.343V67.207H318.343ZM319.343 69.8008H313.269V71.8008H319.343V69.8008ZM314.269 70.8008V67.207H312.269V70.8008H314.269ZM313.269 68.207H314.499V66.207H313.269V68.207ZM313.499 67.207V68.0566H315.499V67.207H313.499ZM319.113 69.7949V69.0039H317.113V69.7949H319.113ZM318.113 68.0039H314.499V70.0039H318.113V68.0039ZM313.499 69.0039V69.7949H315.499V69.0039H313.499ZM314.499 70.7949H318.113V68.7949H314.499V70.7949ZM313.331 66.3855C313.773 66.3753 314.193 66.3531 314.591 66.3185L314.417 64.326C314.067 64.3565 313.689 64.3767 313.285 64.386L313.331 66.3855ZM314.599 66.3178C315.003 66.2794 315.414 66.2238 315.832 66.1513L315.49 64.1807C315.12 64.2449 314.76 64.2935 314.41 64.3267L314.599 66.3178ZM314.669 65.2924L314.796 66.2885L316.78 66.0357L316.653 65.0396L314.669 65.2924ZM315.601 65.1798C315.144 65.267 314.706 65.3232 314.285 65.3496L314.411 67.3457C314.921 67.3136 315.443 67.246 315.976 67.1444L315.601 65.1798ZM314.292 65.3492C313.851 65.3739 313.315 65.3867 312.683 65.3867V67.3867C313.34 67.3867 313.914 67.3735 314.404 67.3461L314.292 65.3492ZM312.683 65.3867H312.058V67.3867H312.683V65.3867ZM313.058 66.3867V62.5684H311.058V66.3867H313.058ZM312.058 63.5684H313.308V61.5684H312.058V63.5684ZM312.308 62.5684V65.3857H314.308V62.5684H312.308ZM323.611 64.4629L322.694 64.8632L322.696 64.8665L323.611 64.4629ZM324.285 65.3564L323.628 66.1106L323.636 66.118L324.285 65.3564ZM325.422 65.957L326.247 66.5232L327.016 65.4032L325.718 65.0017L325.422 65.957ZM324.758 66.9238L324.444 67.8732L325.157 68.1092L325.582 67.49L324.758 66.9238ZM322.776 65.2295L323.673 64.7882L322.718 62.8454L321.858 64.8324L322.776 65.2295ZM321.951 66.4209L322.641 67.1447L322.641 67.1446L321.951 66.4209ZM320.686 67.168L319.863 67.7359L320.29 68.3555L321.004 68.116L320.686 67.168ZM320.012 66.1914L319.696 65.2427L318.433 65.6637L319.189 66.7593L320.012 66.1914ZM321.204 65.5078L320.519 64.7785L321.204 65.5078ZM321.907 64.4971L322.833 64.8726L322.835 64.8698L321.907 64.4971ZM322.141 63.291L323.141 63.2987V63.291H322.141ZM322.141 62.4805V61.4805H321.141V62.4805H322.141ZM323.391 62.4805H324.391V61.4805H323.391V62.4805ZM327.2 64.0918H326.2V65.0918H327.2V64.0918ZM328.401 64.0918H329.401V63.0918H328.401V64.0918ZM328.401 65.127V66.127H329.401V65.127H328.401ZM327.2 65.127V64.127H326.2V65.127H327.2ZM327.2 67.2852V68.2852H328.2V67.2852H327.2ZM325.95 67.2852H324.95V68.2852H325.95V67.2852ZM325.95 62.0117V61.0117H324.95V62.0117H325.95ZM327.2 62.0117H328.2V61.0117H327.2V62.0117ZM326.921 70.1074L326.196 69.4189L326.191 69.4238L326.921 70.1074ZM325.881 70.6934L325.598 69.7342L325.59 69.7367L325.881 70.6934ZM322.663 70.6934L322.949 69.735L322.945 69.7337L322.663 70.6934ZM321.609 70.1074L320.884 70.7959L320.888 70.8007L321.609 70.1074ZM321.609 68.2568L320.888 67.5635L320.884 67.5683L321.609 68.2568ZM322.947 68.6279L323.321 69.5551L323.33 69.5516L322.947 68.6279ZM322.493 69.1797L323.492 69.1994L323.493 69.1829L323.492 69.1664L322.493 69.1797ZM325.603 68.6279L325.213 69.5487L325.225 69.5536L325.603 68.6279ZM322.391 63.4082C322.391 63.9131 322.492 64.401 322.694 64.8632L324.527 64.0625C324.436 63.8542 324.391 63.639 324.391 63.4082H322.391ZM322.696 64.8665C322.908 65.3466 323.226 65.7608 323.628 66.1105L324.941 64.6024C324.737 64.4248 324.607 64.2432 324.526 64.0593L322.696 64.8665ZM323.636 66.118C324.062 66.4805 324.568 66.7394 325.127 66.9124L325.718 65.0017C325.372 64.8947 325.119 64.7533 324.933 64.5949L323.636 66.118ZM324.598 65.3909L323.934 66.3577L325.582 67.49L326.247 66.5232L324.598 65.3909ZM325.072 65.9745C324.723 65.8589 324.446 65.6998 324.224 65.5063L322.909 67.0133C323.352 67.3992 323.869 67.6828 324.444 67.8732L325.072 65.9745ZM324.224 65.5063C323.993 65.3041 323.81 65.0669 323.673 64.7882L321.878 65.6708C322.132 66.1863 322.477 66.636 322.909 67.0133L324.224 65.5063ZM321.858 64.8324C321.711 65.1721 321.512 65.4572 321.26 65.6972L322.641 67.1446C323.092 66.714 323.443 66.2049 323.694 65.6266L321.858 64.8324ZM321.261 65.6971C321.027 65.9197 320.736 66.0965 320.368 66.2199L321.004 68.116C321.626 67.9074 322.177 67.5862 322.641 67.1447L321.261 65.6971ZM321.509 66.6L320.835 65.6235L319.189 66.7593L319.863 67.7359L321.509 66.6ZM320.328 67.1401C320.921 66.9424 321.451 66.6472 321.888 66.2371L320.519 64.7785C320.325 64.9609 320.06 65.1214 319.696 65.2427L320.328 67.1401ZM321.888 66.2371C322.302 65.8482 322.623 65.3926 322.833 64.8726L320.98 64.1216C320.885 64.3568 320.736 64.5749 320.519 64.7785L321.888 66.2371ZM322.835 64.8698C323.036 64.3692 323.137 63.843 323.141 63.2987L321.141 63.2833C321.139 63.5853 321.084 63.8632 320.979 64.1243L322.835 64.8698ZM323.141 63.291V62.4805H321.141V63.291H323.141ZM322.141 63.4805H323.391V61.4805H322.141V63.4805ZM322.391 62.4805V63.4082H324.391V62.4805H322.391ZM327.2 65.0918H328.401V63.0918H327.2V65.0918ZM327.401 64.0918V65.127H329.401V64.0918H327.401ZM328.401 64.127H327.2V66.127H328.401V64.127ZM326.2 65.127V67.2852H328.2V65.127H326.2ZM327.2 66.2852H325.95V68.2852H327.2V66.2852ZM326.95 67.2852V62.0117H324.95V67.2852H326.95ZM325.95 63.0117H327.2V61.0117H325.95V63.0117ZM326.2 62.0117V64.0918H328.2V62.0117H326.2ZM324.289 68.4609C324.831 68.4609 325.259 68.5219 325.59 68.6227L326.172 66.7093C325.605 66.5367 324.972 66.4609 324.289 66.4609V68.4609ZM325.59 68.6227C325.926 68.7249 326.103 68.8478 326.196 68.9453L327.647 67.5683C327.251 67.1515 326.735 66.8806 326.172 66.7093L325.59 68.6227ZM326.196 68.9453C326.262 69.0147 326.288 69.075 326.288 69.1797H328.288C328.288 68.5682 328.069 68.0133 327.647 67.5683L326.196 68.9453ZM326.288 69.1797C326.288 69.2902 326.26 69.3515 326.196 69.4189L327.647 70.7959C328.071 70.3491 328.288 69.7918 328.288 69.1797H326.288ZM326.191 69.4238C326.107 69.5141 325.936 69.6346 325.598 69.7342L326.164 71.6525C326.732 71.4852 327.254 71.2151 327.651 70.7911L326.191 69.4238ZM325.59 69.7367C325.259 69.8375 324.831 69.8984 324.289 69.8984V71.8984C324.972 71.8984 325.605 71.8227 326.172 71.65L325.59 69.7367ZM324.289 69.8984C323.733 69.8984 323.292 69.8372 322.949 69.735L322.378 71.6517C322.953 71.823 323.595 71.8984 324.289 71.8984V69.8984ZM322.945 69.7337C322.603 69.6335 322.423 69.5109 322.329 69.4141L320.888 70.8007C321.29 71.2183 321.813 71.4863 322.382 71.6531L322.945 69.7337ZM322.334 69.4189C322.27 69.3515 322.243 69.2902 322.243 69.1797H320.243C320.243 69.7918 320.459 70.3491 320.884 70.7959L322.334 69.4189ZM322.243 69.1797C322.243 69.075 322.268 69.0147 322.334 68.9453L320.884 67.5683C320.461 68.0133 320.243 68.5682 320.243 69.1797H322.243ZM322.329 68.9501C322.423 68.8528 322.606 68.7281 322.954 68.6244L322.383 66.7076C321.813 66.8774 321.289 67.1465 320.888 67.5635L322.329 68.9501ZM322.954 68.6244C323.297 68.5221 323.737 68.4609 324.289 68.4609V66.4609C323.598 66.4609 322.957 66.5365 322.383 66.7076L322.954 68.6244ZM324.289 67.4375C323.655 67.4375 323.051 67.5019 322.563 67.7043L323.33 69.5516C323.454 69.5 323.745 69.4375 324.289 69.4375V67.4375ZM322.572 67.7008C322.321 67.8023 322.046 67.9623 321.832 68.2232C321.602 68.5026 321.488 68.841 321.493 69.193L323.492 69.1664C323.493 69.212 323.486 69.2707 323.464 69.3349C323.442 69.3994 323.41 69.4531 323.376 69.4941C323.312 69.5711 323.267 69.5772 323.321 69.555L322.572 67.7008ZM321.493 69.16C321.486 69.505 321.591 69.8426 321.816 70.1262C322.028 70.3924 322.301 70.5566 322.553 70.6606C323.037 70.8606 323.648 70.9219 324.289 70.9219V68.9219C324.019 68.9219 323.803 68.9079 323.633 68.8847C323.461 68.8611 323.362 68.8311 323.316 68.8121C323.269 68.7924 323.319 68.8019 323.383 68.8826C323.46 68.9806 323.494 69.1018 323.492 69.1994L321.493 69.16ZM324.289 70.9219C324.918 70.9219 325.521 70.8603 326.002 70.6583C326.253 70.5531 326.521 70.3887 326.73 70.1262C326.95 69.8483 327.057 69.5184 327.057 69.1797H325.057C325.057 69.0884 325.09 68.975 325.163 68.8826C325.225 68.8056 325.272 68.7958 325.228 68.8143C325.185 68.8325 325.091 68.8618 324.924 68.8851C324.761 68.908 324.551 68.9219 324.289 68.9219V70.9219ZM327.057 69.1797C327.057 68.8321 326.943 68.4989 326.716 68.2232C326.503 67.9646 326.231 67.8045 325.981 67.7022L325.225 69.5536C325.277 69.5751 325.233 69.5688 325.171 69.4941C325.139 69.4546 325.108 69.403 325.086 69.3413C325.064 69.2799 325.057 69.2236 325.057 69.1797H327.057ZM325.993 67.7072C325.509 67.5021 324.912 67.4375 324.289 67.4375V69.4375C324.819 69.4375 325.098 69.4998 325.213 69.5486L325.993 67.7072ZM336.697 67.1582V68.1582H337.697V67.1582H336.697ZM333.259 67.1582V66.1582H332.259V67.1582H333.259ZM333.259 67.9199H332.259V68.9199H333.259V67.9199ZM335.73 67.9199H336.73V66.9199H335.73V67.9199ZM335.73 70.8008V71.8008H336.73V70.8008H335.73ZM329.529 70.8008H328.529V71.8008H329.529V70.8008ZM329.529 67.9199V66.9199H328.529V67.9199H329.529ZM332.019 67.9199V68.9199H333.019V67.9199H332.019ZM332.019 67.1582H333.019V66.1582H332.019V67.1582ZM328.591 67.1582H327.591V68.1582H328.591V67.1582ZM328.591 66.1719V65.1719H327.591V66.1719H328.591ZM336.697 66.1719H337.697V65.1719H336.697V66.1719ZM335.974 63.252V64.252H336.974V63.252H335.974ZM334.812 63.252V62.252H333.812V63.252H334.812ZM334.812 64.6094H333.812V65.6094H334.812V64.6094ZM335.916 64.6094H336.916V63.6094H335.916V64.6094ZM335.916 65.6055V66.6055H336.916V65.6055H335.916ZM329.363 65.6055H328.363V66.6055H329.363V65.6055ZM329.363 64.6094V63.6094H328.363V64.6094H329.363ZM330.457 64.6094V65.6094H331.457V64.6094H330.457ZM330.457 63.252H331.457V62.252H330.457V63.252ZM329.304 63.252H328.304V64.252H329.304V63.252ZM329.304 62.2559V61.2559H328.304V62.2559H329.304ZM335.974 62.2559H336.974V61.2559H335.974V62.2559ZM330.759 69.8047H329.759V70.8047H330.759V69.8047ZM334.509 69.8047V70.8047H335.509V69.8047H334.509ZM334.509 68.8867H335.509V67.8867H334.509V68.8867ZM330.759 68.8867V67.8867H329.759V68.8867H330.759ZM333.562 64.6094V65.6094H334.562V64.6094H333.562ZM333.562 63.252H334.562V62.252H333.562V63.252ZM331.707 63.252V62.252H330.707V63.252H331.707ZM331.707 64.6094H330.707V65.6094H331.707V64.6094ZM336.697 66.1582H333.259V68.1582H336.697V66.1582ZM332.259 67.1582V67.9199H334.259V67.1582H332.259ZM333.259 68.9199H335.73V66.9199H333.259V68.9199ZM334.73 67.9199V70.8008H336.73V67.9199H334.73ZM335.73 69.8008H329.529V71.8008H335.73V69.8008ZM330.529 70.8008V67.9199H328.529V70.8008H330.529ZM329.529 68.9199H332.019V66.9199H329.529V68.9199ZM333.019 67.9199V67.1582H331.019V67.9199H333.019ZM332.019 66.1582H328.591V68.1582H332.019V66.1582ZM329.591 67.1582V66.1719H327.591V67.1582H329.591ZM328.591 67.1719H336.697V65.1719H328.591V67.1719ZM335.697 66.1719V67.1582H337.697V66.1719H335.697ZM335.974 62.252H334.812V64.252H335.974V62.252ZM333.812 63.252V64.6094H335.812V63.252H333.812ZM334.812 65.6094H335.916V63.6094H334.812V65.6094ZM334.916 64.6094V65.6055H336.916V64.6094H334.916ZM335.916 64.6055H329.363V66.6055H335.916V64.6055ZM330.363 65.6055V64.6094H328.363V65.6055H330.363ZM329.363 65.6094H330.457V63.6094H329.363V65.6094ZM331.457 64.6094V63.252H329.457V64.6094H331.457ZM330.457 62.252H329.304V64.252H330.457V62.252ZM330.304 63.252V62.2559H328.304V63.252H330.304ZM329.304 63.2559H335.974V61.2559H329.304V63.2559ZM334.974 62.2559V63.252H336.974V62.2559H334.974ZM330.759 70.8047H334.509V68.8047H330.759V70.8047ZM335.509 69.8047V68.8867H333.509V69.8047H335.509ZM334.509 67.8867H330.759V69.8867H334.509V67.8867ZM329.759 68.8867V69.8047H331.759V68.8867H329.759ZM334.562 64.6094V63.252H332.562V64.6094H334.562ZM333.562 62.252H331.707V64.252H333.562V62.252ZM330.707 63.252V64.6094H332.707V63.252H330.707ZM331.707 65.6094H333.562V63.6094H331.707V65.6094ZM344.632 68.7109V69.7109H345.632V68.7109H344.632ZM343.372 68.7109H342.372V69.7109H343.372V68.7109ZM343.372 67.7246H344.372V66.7246H343.372V67.7246ZM341.634 67.7246H340.634V68.7246H341.634V67.7246ZM341.634 66.748V65.748H340.634V66.748H341.634ZM343.372 66.748V67.748H344.372V66.748H343.372ZM343.372 62.0215V61.0215H342.372V62.0215H343.372ZM344.632 62.0215H345.632V61.0215H344.632V62.0215ZM344.837 70.7422V71.7422H345.837V70.7422H344.837ZM338.206 70.7422H337.206V71.7422H338.206V70.7422ZM338.206 68.0273V67.0273H337.206V68.0273H338.206ZM339.348 68.0273V69.0273H340.348V68.0273H339.348ZM339.348 66.3184H340.348V65.2747L339.306 65.3193L339.348 66.3184ZM337.132 66.3672L336.144 66.5237L336.279 67.3736L337.139 67.3672L337.132 66.3672ZM336.975 65.3809L336.971 64.3809L335.805 64.386L335.988 65.5373L336.975 65.3809ZM340.633 65.2832L340.693 66.2814L341.506 66.2324L341.622 65.426L340.633 65.2832ZM340.804 63.4375L341.803 63.4714L341.838 62.4375H340.804V63.4375ZM337.786 63.4375H336.786V64.4375H337.786V63.4375ZM337.786 62.4512V61.4512H336.786V62.4512H337.786ZM342.054 62.4512H343.054V61.4512H342.054V62.4512ZM342.019 63.8916L341.021 63.8308L341.021 63.839L342.019 63.8916ZM341.878 65.1855L340.889 65.035L340.695 66.311L341.979 66.1804L341.878 65.1855ZM342.737 65.0879L343.733 64.9994L343.64 63.9539L342.6 64.0973L342.737 65.0879ZM342.815 65.9668L342.99 66.9513L343.892 66.7909L343.811 65.8783L342.815 65.9668ZM340.579 66.2451L340.499 65.2483L339.579 65.3219V66.2451H340.579ZM340.579 68.1543V69.1543H341.579V68.1543H340.579ZM339.456 68.1543V67.1543H338.456V68.1543H339.456ZM339.456 69.7461H338.456V70.7461H339.456V69.7461ZM344.837 69.7461H345.837V68.7461H344.837V69.7461ZM344.632 67.7109H343.372V69.7109H344.632V67.7109ZM344.372 68.7109V67.7246H342.372V68.7109H344.372ZM343.372 66.7246H341.634V68.7246H343.372V66.7246ZM342.634 67.7246V66.748H340.634V67.7246H342.634ZM341.634 67.748H343.372V65.748H341.634V67.748ZM344.372 66.748V62.0215H342.372V66.748H344.372ZM343.372 63.0215H344.632V61.0215H343.372V63.0215ZM343.632 62.0215V68.7109H345.632V62.0215H343.632ZM344.837 69.7422H338.206V71.7422H344.837V69.7422ZM339.206 70.7422V68.0273H337.206V70.7422H339.206ZM338.206 69.0273H339.348V67.0273H338.206V69.0273ZM340.348 68.0273V66.3184H338.348V68.0273H340.348ZM339.306 65.3193C338.712 65.3447 337.986 65.3608 337.124 65.3672L337.139 67.3672C338.016 67.3606 338.767 67.3442 339.391 67.3174L339.306 65.3193ZM338.119 66.2107L337.963 65.2244L335.988 65.5373L336.144 66.5237L338.119 66.2107ZM336.98 66.3808C338.455 66.3743 339.694 66.3415 340.693 66.2814L340.573 64.285C339.624 64.3421 338.425 64.3744 336.971 64.3809L336.98 66.3808ZM341.622 65.426C341.721 64.7407 341.782 64.0888 341.803 63.4714L339.804 63.4036C339.786 63.9385 339.733 64.5171 339.643 65.1404L341.622 65.426ZM340.804 62.4375H337.786V64.4375H340.804V62.4375ZM338.786 63.4375V62.4512H336.786V63.4375H338.786ZM337.786 63.4512H342.054V61.4512H337.786V63.4512ZM341.054 62.4512V62.7832H343.054V62.4512H341.054ZM341.054 62.7832C341.054 63.127 341.043 63.4761 341.021 63.8308L343.017 63.9524C343.041 63.5584 343.054 63.1686 343.054 62.7832H341.054ZM341.021 63.839C341.003 64.1685 340.961 64.5658 340.889 65.035L342.866 65.3361C342.945 64.8222 342.996 64.3569 343.018 63.9442L341.021 63.839ZM341.979 66.1804C342.365 66.1411 342.667 66.1071 342.874 66.0785L342.6 64.0973C342.43 64.1208 342.158 64.1519 341.777 64.1907L341.979 66.1804ZM341.741 65.1764L341.819 66.0553L343.811 65.8783L343.733 64.9994L341.741 65.1764ZM342.64 64.9823C342 65.0962 341.287 65.1853 340.499 65.2483L340.659 67.2419C341.499 67.1747 342.277 67.0783 342.99 66.9513L342.64 64.9823ZM339.579 66.2451V68.1543H341.579V66.2451H339.579ZM340.579 67.1543H339.456V69.1543H340.579V67.1543ZM338.456 68.1543V69.7461H340.456V68.1543H338.456ZM339.456 70.7461H344.837V68.7461H339.456V70.7461ZM343.837 69.7461V70.7422H345.837V69.7461H343.837Z" fill="#19236F" mask="url(#path-16-inside-1_2_3873)"/>
</g>
</g>
<defs>
<clipPath id="clip0_2_3873">
<rect width="450" height="160" fill="white"/>
</clipPath>
<clipPath id="clip1_2_3873">
<rect width="165" height="165" fill="white" transform="translate(223)"/>
</clipPath>
</defs>
</svg>
