<svg width="20" height="20" viewBox="0 0 20 20" fill="none" xmlns="http://www.w3.org/2000/svg">
<path d="M20.0001 10.2222C20.0001 9.39995 19.932 8.79995 19.7846 8.17773H10.2041V11.8888H15.8277C15.7143 12.8111 15.1021 14.2 13.7415 15.1333L13.7224 15.2575L16.7516 17.5572L16.9615 17.5778C18.8889 15.8333 20.0001 13.2666 20.0001 10.2222Z" fill="#4285F4"/>
<path d="M10.2035 19.9999C12.9586 19.9999 15.2715 19.1109 16.9609 17.5776L13.7409 15.1331C12.8792 15.722 11.7227 16.1331 10.2035 16.1331C7.50511 16.1331 5.21488 14.3887 4.39847 11.9775L4.27881 11.9875L1.12902 14.3764L1.08783 14.4886C2.76582 17.7553 6.21254 19.9999 10.2035 19.9999Z" fill="#34A853"/>
<path d="M4.39906 11.9783C4.18365 11.3561 4.05898 10.6893 4.05898 10.0005C4.05898 9.31155 4.18365 8.6449 4.38773 8.02269L4.38202 7.89017L1.19276 5.46289L1.08841 5.51153C0.396831 6.86711 0 8.38937 0 10.0005C0 11.6116 0.396831 13.1338 1.08841 14.4894L4.39906 11.9783Z" fill="#FBBC05"/>
<path d="M10.2036 3.86666C12.1196 3.86666 13.4121 4.67777 14.1491 5.35559L17.029 2.60001C15.2603 0.988897 12.9586 0 10.2036 0C6.21257 0 2.76583 2.24444 1.08783 5.51109L4.38716 8.02225C5.2149 5.61113 7.50515 3.86666 10.2036 3.86666Z" fill="#EB4335"/>
</svg>
