<svg width="25" height="24" viewBox="0 0 25 24" fill="none" xmlns="http://www.w3.org/2000/svg">
<rect width="24" height="24" transform="translate(0.5)" fill="white"/>
<path d="M2.87531 8.69976L11.859 1.51277C12.2316 1.2147 12.7629 1.22138 13.1279 1.52873L21.6441 8.70033C21.8698 8.89033 22 9.17026 22 9.46524V21.5C22 22.0523 21.5523 22.5 21 22.5H14C13.4477 22.5 13 22.0523 13 21.5V15.25C13 14.8358 12.6642 14.5 12.25 14.5C11.8358 14.5 11.5 14.8358 11.5 15.25V21.5C11.5 22.0523 11.0523 22.5 10.5 22.5H3.5C2.94772 22.5 2.5 22.0523 2.5 21.5V9.48063C2.5 9.17684 2.63809 8.88953 2.87531 8.69976Z" fill="#6433F0"/>
</svg>
