<svg width="72" height="96" viewBox="0 0 72 96" fill="none" xmlns="http://www.w3.org/2000/svg">
<g filter="url(#filter0_d_2_3298)">
<rect x="4" width="64" height="64" rx="12" fill="#EEECFF"/>
<g clip-path="url(#clip0_2_3298)">
<path d="M19 25.489H52.1522V42.8635C52.1522 44.9081 50.4899 46.5679 48.4422 46.5679H22.71C20.6623 46.5679 19 44.9081 19 42.8635V25.489Z" fill="#7364FF"/>
<path d="M22.71 19.9789H48.4422C50.4899 19.9789 52.1522 21.6387 52.1522 23.6833V25.489H19V23.6833C19 21.6387 20.6623 19.9789 22.71 19.9789Z" fill="#7364FF"/>
<path d="M35.5751 44.9701C40.6153 44.9701 44.7011 41.0137 44.7011 36.1333C44.7011 31.2528 40.6153 27.2964 35.5751 27.2964C30.5349 27.2964 26.4491 31.2528 26.4491 36.1333C26.4491 41.0137 30.5349 44.9701 35.5751 44.9701Z" fill="#243239"/>
<path d="M35.5751 43.4545C39.6246 43.4545 42.9074 40.1767 42.9074 36.1333C42.9074 32.0899 39.6246 28.8121 35.5751 28.8121C31.5257 28.8121 28.2429 32.0899 28.2429 36.1333C28.2429 40.1767 31.5257 43.4545 35.5751 43.4545Z" fill="white"/>
<path d="M39.9554 37.0434L39.5043 37.4939L35.5769 41.4153L31.1966 37.0416C30.1134 35.96 30.1134 34.2036 31.1984 33.1202C31.7409 32.5803 32.4497 32.3104 33.1621 32.3104C33.8745 32.3104 34.585 32.5803 35.1257 33.1202L35.5769 33.5707L36.0281 33.1202C37.1113 32.0386 38.8704 32.0386 39.9536 33.1202C41.0387 34.2054 41.0387 35.9619 39.9554 37.0416V37.0434Z" fill="#7364FF"/>
<path d="M43.7312 21.3669H48.3362C48.7545 21.3669 49.0943 21.7062 49.0943 22.1239V23.3477C49.0943 23.7654 48.7545 24.1046 48.3362 24.1046H43.7312C43.3129 24.1046 42.9731 23.7654 42.9731 23.3477V22.1239C42.9731 21.7062 43.3129 21.3669 43.7312 21.3669Z" fill="white"/>
<path d="M24.469 21.3669H23.1757C22.7762 21.3669 22.4524 21.6903 22.4524 22.0892V23.3805C22.4524 23.7794 22.7762 24.1028 23.1757 24.1028H24.469C24.8685 24.1028 25.1924 23.7794 25.1924 23.3805V22.0892C25.1924 21.6903 24.8685 21.3669 24.469 21.3669Z" fill="#FDDA92"/>
<path d="M28 21.3669H26.7068C26.3073 21.3669 25.9834 21.6903 25.9834 22.0892V23.3805C25.9834 23.7794 26.3073 24.1028 26.7068 24.1028H28C28.3995 24.1028 28.7234 23.7794 28.7234 23.3805V22.0892C28.7234 21.6903 28.3995 21.3669 28 21.3669Z" fill="#7364FF"/>
<path d="M23.5027 18H30.0641C30.5025 18 30.8569 18.3557 30.8569 18.7916V19.9789H22.71V18.7916C22.71 18.3538 23.0662 18 23.5027 18Z" fill="#243239"/>
<path d="M42.754 18H43.7458C44.1842 18 44.5386 18.3557 44.5386 18.7916V19.9789H41.9612V18.7916C41.9612 18.3538 42.3174 18 42.754 18Z" fill="#243239"/>
<path d="M46.8274 18H47.8193C48.2577 18 48.6121 18.3557 48.6121 18.7916V19.9789H46.0347V18.7916C46.0347 18.3538 46.3909 18 46.8274 18Z" fill="#243239"/>
</g>
<path d="M30.4842 77.7441C30.4842 79.8223 32.8631 81.6816 34.9823 82.0781L34.4901 82.9805C32.658 82.5566 30.7235 81.251 29.9373 79.4531C29.1512 81.2441 27.2235 82.5498 25.3846 82.9805L24.8924 82.0781C26.9979 81.668 29.3631 79.8359 29.3631 77.7441V76.8145H30.4842V77.7441ZM35.5565 85.5645V86.4531H24.4276V85.5645H35.5565ZM46.7795 75.9668V82.584H45.7541V79.7949H44.0314V82.4746H43.0197V76.1992H44.0314V78.9336H45.7541V75.9668H46.7795ZM39.8341 83.1309V84.6074H45.7267V83.1309H46.7795V87.9434H38.7677V83.1309H39.8341ZM39.8341 87.0547H45.7267V85.4688H39.8341V87.0547ZM38.1388 76.7598V80.8887C39.4103 80.8818 40.6476 80.8135 42.131 80.5332L42.2541 81.4355C40.5998 81.7363 39.2873 81.7773 37.838 81.7773H37.0724V76.7598H38.1388Z" fill="black"/>
</g>
<defs>
<filter id="filter0_d_2_3298" x="0" y="0" width="72" height="100" filterUnits="userSpaceOnUse" color-interpolation-filters="sRGB">
<feFlood flood-opacity="0" result="BackgroundImageFix"/>
<feColorMatrix in="SourceAlpha" type="matrix" values="0 0 0 0 0 0 0 0 0 0 0 0 0 0 0 0 0 0 127 0" result="hardAlpha"/>
<feOffset dy="4"/>
<feGaussianBlur stdDeviation="2"/>
<feComposite in2="hardAlpha" operator="out"/>
<feColorMatrix type="matrix" values="0 0 0 0 0 0 0 0 0 0 0 0 0 0 0 0 0 0 0.25 0"/>
<feBlend mode="normal" in2="BackgroundImageFix" result="effect1_dropShadow_2_3298"/>
<feBlend mode="normal" in="SourceGraphic" in2="effect1_dropShadow_2_3298" result="shape"/>
</filter>
<clipPath id="clip0_2_3298">
<rect width="48" height="48" fill="white" transform="translate(12 8)"/>
</clipPath>
</defs>
</svg>
