<svg width="72" height="97" viewBox="0 0 72 97" fill="none" xmlns="http://www.w3.org/2000/svg">
<g filter="url(#filter0_d_2_3165)">
<rect x="4" width="64" height="64" rx="12" fill="#EEECFF"/>
<g clip-path="url(#clip0_2_3165)">
<path d="M39.6076 32.286C39.4706 32.348 39.3355 32.4155 39.2058 32.4903C39.14 32.5286 39.0742 32.5651 39.0085 32.6034C38.9445 32.6417 38.8806 32.6818 38.8167 32.7219C38.7546 32.762 38.6925 32.804 38.6285 32.8459C38.5683 32.8879 38.508 32.9317 38.4459 32.9754C38.3874 33.0174 38.3271 33.063 38.2705 33.1068C38.2121 33.1524 38.15 33.2016 38.0933 33.2509C38.055 33.2819 38.0184 33.3147 37.9801 33.3475C37.9326 33.3895 37.8851 33.4296 37.8412 33.4715C37.7956 33.5135 37.7481 33.5573 37.7042 33.601C37.6641 33.6393 37.6275 33.6777 37.5873 33.7196C37.5398 33.767 37.4905 33.8199 37.443 33.871C37.401 33.9148 37.359 33.964 37.3188 34.0096C37.2786 34.0552 37.2366 34.1044 37.1983 34.1519C37.1617 34.1938 37.127 34.2376 37.0923 34.2814C37.0192 34.3744 36.9498 34.4674 36.8822 34.5641C37.549 35.7478 37.9289 37.1139 37.9289 38.5675C37.9289 40.0212 37.549 41.3855 36.8822 42.571C36.9553 42.675 37.0302 42.7753 37.1088 42.872C37.1362 42.9085 37.1636 42.9413 37.191 42.9759C37.2275 43.0179 37.2604 43.0598 37.2969 43.1C37.3444 43.1565 37.3955 43.213 37.4449 43.2678C37.496 43.3225 37.549 43.3772 37.6001 43.4301C37.6513 43.483 37.7061 43.5359 37.759 43.5869C37.759 43.5888 37.7645 43.5906 37.7663 43.5942C37.8467 43.669 37.9271 43.742 38.0093 43.8149L38.013 43.8186C38.0988 43.8897 38.1847 43.9608 38.2723 44.0302C38.329 44.0739 38.3892 44.1195 38.4477 44.1615C38.508 44.2053 38.5683 44.249 38.6304 44.291C38.6925 44.3329 38.7546 44.3749 38.8185 44.415C38.8806 44.4551 38.9445 44.4934 39.0103 44.5336C39.0742 44.5719 39.14 44.6083 39.2076 44.6466C39.3373 44.7196 39.4743 44.7871 39.6095 44.8509C40.7712 43.0343 41.4453 40.8784 41.4453 38.5675C41.4453 36.2567 40.7694 34.099 39.6095 32.2842L39.6076 32.286ZM36.1443 28.7859C35.1122 29.4626 34.1934 30.2961 33.4225 31.2573C34.482 31.7936 35.41 32.5541 36.1461 33.4752C36.8786 32.5541 37.8084 31.7954 38.866 31.2573C38.0952 30.298 37.1763 29.4626 36.1443 28.7859ZM39.6076 32.286C39.4706 32.348 39.3355 32.4155 39.2058 32.4903C39.14 32.5286 39.0742 32.5651 39.0085 32.6034C38.9445 32.6417 38.8806 32.6818 38.8167 32.7219C38.7546 32.762 38.6925 32.804 38.6285 32.8459C38.5683 32.8879 38.508 32.9317 38.4459 32.9754C38.3874 33.0174 38.3271 33.063 38.2705 33.1068C38.2121 33.1524 38.15 33.2016 38.0933 33.2509C38.055 33.2819 38.0184 33.3147 37.9801 33.3475C37.9326 33.3895 37.8851 33.4296 37.8412 33.4715C37.7956 33.5135 37.7481 33.5573 37.7042 33.601C37.6641 33.6393 37.6275 33.6777 37.5873 33.7196C37.5398 33.767 37.4905 33.8199 37.443 33.871C37.401 33.9148 37.359 33.964 37.3188 34.0096C37.2786 34.0552 37.2366 34.1044 37.1983 34.1519C37.1617 34.1938 37.127 34.2376 37.0923 34.2814C37.0192 34.3744 36.9498 34.4674 36.8822 34.5641C37.549 35.7478 37.9289 37.1139 37.9289 38.5675C37.9289 40.0212 37.549 41.3855 36.8822 42.571C36.6649 42.9559 36.4183 43.3225 36.1443 43.6654C35.4081 44.5864 34.4802 45.3452 33.4207 45.8832C33.0371 46.0784 32.6352 46.2444 32.2188 46.3757C31.4315 46.6274 30.593 46.7624 29.7235 46.7624C25.1989 46.7624 21.5182 43.0872 21.5182 38.5694C21.5182 34.0516 25.1989 30.3746 29.7235 30.3746C30.593 30.3746 31.4315 30.5095 32.2188 30.763C32.9896 29.7471 33.9084 28.8461 34.9423 28.0928C33.3696 27.3086 31.5959 26.8654 29.7217 26.8654C23.2608 26.8654 18 32.1146 18 38.5694C18 45.0242 23.259 50.2734 29.7217 50.2734C31.5959 50.2734 33.3696 49.8302 34.9423 49.0459C35.357 48.8398 35.7588 48.6082 36.1424 48.3565C37.1745 47.6798 38.0952 46.8444 38.8642 45.8832C39.129 45.5549 39.3775 45.2102 39.6058 44.8546C40.7676 43.0379 41.4416 40.8821 41.4416 38.5712C41.4416 36.2603 40.7657 34.1026 39.6058 32.2878L39.6076 32.286Z" fill="#7364FF"/>
<path d="M42.565 26.8672C40.6908 26.8672 38.9171 27.3104 37.3444 28.0947C36.9297 28.3008 36.5279 28.5324 36.1443 28.7841C35.1122 29.4608 34.1934 30.2943 33.4225 31.2555C33.1577 31.5856 32.9092 31.9303 32.6809 32.286C31.5191 34.1026 30.8451 36.2585 30.8451 38.5694C30.8451 40.8803 31.521 43.0379 32.6809 44.8527C33.7751 44.3384 34.7158 43.5468 35.4063 42.5692C34.7396 41.3855 34.3596 40.0194 34.3596 38.5675C34.3596 37.1157 34.7396 35.7514 35.4063 34.5659C35.6218 34.181 35.8703 33.8126 36.1461 33.4697C36.8786 32.5487 37.8083 31.7899 38.866 31.2518C39.2496 31.0567 39.6515 30.8907 40.0679 30.7612C40.8552 30.5077 41.6937 30.3727 42.5632 30.3727C47.0878 30.3727 50.7704 34.0497 50.7704 38.5675C50.7704 43.0854 47.0878 46.7605 42.5632 46.7605C41.6937 46.7605 40.8552 46.6256 40.0679 46.3739C39.2971 47.3898 38.3783 48.2908 37.3444 49.0441C38.9171 49.8283 40.6908 50.2716 42.565 50.2716C49.0277 50.2716 54.2867 45.0205 54.2867 38.5675C54.2867 32.1146 49.0296 26.8635 42.565 26.8635V26.8672Z" fill="#243239"/>
<path d="M27.2831 13L25.7597 16.8703H21.2496L24.4883 13H27.2831Z" fill="#C1BAFF"/>
<path d="M33.6892 16.8703H25.7596L27.2831 13H32.1658L33.6892 16.8703Z" fill="#7364FF"/>
<path d="M38.1992 16.8703H33.6892L32.1658 13H34.9606L38.1992 16.8703Z" fill="#C1BAFF"/>
<path d="M38.1992 16.8704L29.7235 25.4062L33.6892 16.8704H38.1992Z" fill="#7364FF"/>
<path d="M29.7235 25.4062L21.2496 16.8704H25.7597L29.7235 25.4062Z" fill="#7364FF"/>
<path d="M33.6892 16.8704L29.7235 25.4062L25.7596 16.8704H33.6892Z" fill="#C1BAFF"/>
</g>
<path d="M34.8455 75.9531V88.1074H33.8065V75.9531H34.8455ZM32.4256 76.2129V87.4922H31.4002V83.5H29.4588C29.035 84.7168 28.2284 85.4277 27.1893 85.4277C25.6034 85.4277 24.578 83.7871 24.578 81.2031C24.578 78.6191 25.6034 76.9785 27.1893 76.9785C28.2284 76.9785 29.035 77.6895 29.4588 78.9062H31.4002V76.2129H32.4256ZM27.1893 77.9902C26.1912 77.9902 25.576 79.2207 25.576 81.2031C25.576 83.1719 26.1912 84.416 27.1893 84.4023C28.1737 84.416 28.8162 83.1719 28.8162 81.2031C28.8162 79.2207 28.1737 77.9902 27.1893 77.9902ZM29.6912 79.7949C29.7733 80.2256 29.8143 80.6973 29.8143 81.2031C29.8143 81.7021 29.7733 82.1738 29.7049 82.5977H31.4002V79.7949H29.6912ZM47.5314 81.0938V81.9688H42.5138V83.1719H46.1095V85.8926H38.8908V87.123H46.4787V87.9707H37.8244V85.0859H45.0568V84.0059H37.797V83.1719H41.4474V81.9688H36.4572V81.0938H47.5314ZM46.0959 76.3633V80.0684H37.8927V76.3633H46.0959ZM38.9591 77.2246V79.207H45.0295V77.2246H38.9591Z" fill="black"/>
</g>
<defs>
<filter id="filter0_d_2_3165" x="0" y="0" width="72" height="100" filterUnits="userSpaceOnUse" color-interpolation-filters="sRGB">
<feFlood flood-opacity="0" result="BackgroundImageFix"/>
<feColorMatrix in="SourceAlpha" type="matrix" values="0 0 0 0 0 0 0 0 0 0 0 0 0 0 0 0 0 0 127 0" result="hardAlpha"/>
<feOffset dy="4"/>
<feGaussianBlur stdDeviation="2"/>
<feComposite in2="hardAlpha" operator="out"/>
<feColorMatrix type="matrix" values="0 0 0 0 0 0 0 0 0 0 0 0 0 0 0 0 0 0 0.25 0"/>
<feBlend mode="normal" in2="BackgroundImageFix" result="effect1_dropShadow_2_3165"/>
<feBlend mode="normal" in="SourceGraphic" in2="effect1_dropShadow_2_3165" result="shape"/>
</filter>
<clipPath id="clip0_2_3165">
<rect width="48" height="48" fill="white" transform="translate(12 8)"/>
</clipPath>
</defs>
</svg>
