<svg width="72" height="96" viewBox="0 0 72 96" fill="none" xmlns="http://www.w3.org/2000/svg">
<g filter="url(#filter0_d_2_3316)">
<rect x="4" width="64" height="64" rx="12" fill="#EEECFF"/>
<g clip-path="url(#clip0_2_3316)">
<g clip-path="url(#clip1_2_3316)">
<path d="M42.7654 20.0005H46.423C47.0087 20.0005 47.4834 20.4858 47.4834 21.0848V29.8759H41.7031V21.0848C41.7031 20.4858 42.1777 20.0005 42.7635 20.0005H42.7654Z" fill="white"/>
<path d="M47.8449 32.1945V50.9477C47.8449 52.6347 46.5096 54.0019 44.8597 54.0019H26.1403C24.4904 54.0019 23.155 52.6347 23.155 50.9477V32.1945L35.499 21.6201L41.7049 26.9352L45.1384 29.8759L47.8449 32.1945Z" fill="white"/>
<path d="M42.4884 42.7689L41.7671 43.5065L35.5009 49.9135L28.5134 42.7689C26.7863 41.003 26.7863 38.1336 28.5171 36.3619C29.3816 35.4799 30.5136 35.0389 31.6493 35.0389C32.785 35.0389 33.9188 35.4818 34.7814 36.3619L35.5028 37.0994L36.2241 36.3619C37.9512 34.5959 40.7576 34.5959 42.4884 36.3619C44.2193 38.1336 44.2193 41.003 42.4922 42.7689H42.4884Z" fill="#7364FF"/>
<path d="M48.4137 14.2251L48.02 14.6276L44.596 18.1287L40.7783 14.2251C39.8347 13.2603 39.8347 11.6928 40.7783 10.7241C41.251 10.2426 41.8688 10 42.4903 10C43.1118 10 43.7315 10.2426 44.2023 10.7241L44.596 11.1266L44.9896 10.7241C45.9332 9.75928 47.4663 9.75928 48.4118 10.7241C49.3573 11.6928 49.3573 13.2603 48.4118 14.2251H48.4137Z" fill="#7364FF"/>
<path d="M53.5555 37.084C53.1789 37.5443 52.6402 37.7792 52.0959 37.7792C51.6646 37.7792 51.2314 37.6309 50.8754 37.3267L47.845 34.7307L42.174 29.8759L41.705 29.4734L35.4991 24.1582L23.1551 34.7307L20.1246 37.3267C19.3204 38.0161 18.1207 37.9063 17.4445 37.084C16.7703 36.2617 16.8757 35.035 17.6818 34.3436L34.2786 20.1295C34.6308 19.8253 35.064 19.675 35.4991 19.675C35.9342 19.675 36.3673 19.8253 36.7214 20.1295L41.705 24.399L47.4852 29.3482L53.3182 34.3436C54.1243 35.0331 54.2298 36.2598 53.5555 37.084Z" fill="#7364FF"/>
<g opacity="0.07">
<path d="M35.4991 19.675V54H26.1403C24.4904 54 23.1551 52.6327 23.1551 50.9457V34.7288L20.1246 37.3247C19.3204 38.0142 18.1207 37.9044 17.4445 37.0821C16.7703 36.2598 16.8757 35.0331 17.6818 34.3417L34.2786 20.1295C34.6308 19.8253 35.064 19.675 35.4991 19.675Z" fill="white"/>
</g>
</g>
</g>
<path d="M28.4479 75.9668V84.8809H27.3815V75.9668H28.4479ZM28.8307 86.9453V87.8477H20.6003V84.0605H21.6667V86.9453H28.8307ZM22.7194 77.8672C22.7057 79.7129 23.9772 81.3809 25.7819 82.0371L25.2214 82.8984C23.8132 82.3584 22.7194 81.2646 22.1862 79.8633C21.6462 81.3535 20.5387 82.5498 19.1237 83.1172L18.5358 82.2832C20.3815 81.5723 21.6257 79.7812 21.6257 77.8672V76.6504H22.7194V77.8672ZM41.5166 83.1309V84.0059H30.4424V83.1309H35.4463V82.1465C33.2588 82.0781 32.0283 81.4287 32.0283 80.3145C32.0283 79.1113 33.4639 78.4688 35.9795 78.4688C38.4678 78.4688 39.917 79.1113 39.917 80.3145C39.917 81.4287 38.6729 82.0713 36.5127 82.1465V83.1309H41.5166ZM40.2861 86.959V87.8477H31.8779V84.7852H32.958V86.959H40.2861ZM40.874 77.0879V77.9355H31.0166V77.0879H35.4463V75.8164H36.5127V77.0879H40.874ZM35.9795 79.2617C34.1338 79.2617 33.1084 79.6309 33.1221 80.3145C33.1084 80.998 34.1338 81.3672 35.9795 81.3672C37.7979 81.3672 38.8369 80.998 38.8369 80.3145C38.8369 79.6309 37.7979 79.2617 35.9795 79.2617ZM46.847 77.9629C46.847 79.5488 48.1732 80.957 49.9779 81.5039L49.431 82.3516C48.0091 81.9004 46.8675 80.9229 46.3138 79.6719C45.7806 81.0117 44.6321 82.0576 43.1829 82.5566L42.6224 81.709C44.4544 81.1348 45.7669 79.6309 45.7669 77.9629V77.6484H42.9232V76.7734H49.6497V77.6484H46.847V77.9629ZM52.5071 75.9531V82.5293H51.4407V75.9531H52.5071ZM45.6986 83.1309V84.6074H51.4407V83.1309H52.5071V87.9434H44.6321V83.1309H45.6986ZM45.6986 87.0684H51.4407V85.4688H45.6986V87.0684Z" fill="black"/>
</g>
<defs>
<filter id="filter0_d_2_3316" x="0" y="0" width="72" height="100" filterUnits="userSpaceOnUse" color-interpolation-filters="sRGB">
<feFlood flood-opacity="0" result="BackgroundImageFix"/>
<feColorMatrix in="SourceAlpha" type="matrix" values="0 0 0 0 0 0 0 0 0 0 0 0 0 0 0 0 0 0 127 0" result="hardAlpha"/>
<feOffset dy="4"/>
<feGaussianBlur stdDeviation="2"/>
<feComposite in2="hardAlpha" operator="out"/>
<feColorMatrix type="matrix" values="0 0 0 0 0 0 0 0 0 0 0 0 0 0 0 0 0 0 0.25 0"/>
<feBlend mode="normal" in2="BackgroundImageFix" result="effect1_dropShadow_2_3316"/>
<feBlend mode="normal" in="SourceGraphic" in2="effect1_dropShadow_2_3316" result="shape"/>
</filter>
<clipPath id="clip0_2_3316">
<rect width="48" height="48" fill="white" transform="translate(12 8)"/>
</clipPath>
<clipPath id="clip1_2_3316">
<rect width="37" height="44" fill="white" transform="translate(17 10)"/>
</clipPath>
</defs>
</svg>
