<svg width="72" height="97" viewBox="0 0 72 97" fill="none" xmlns="http://www.w3.org/2000/svg">
<g filter="url(#filter0_d_2_3174)">
<rect x="4" width="64" height="64" rx="12" fill="#EEECFF"/>
<g clip-path="url(#clip0_2_3174)">
<path d="M27.6641 19.8268H45.3224L36.4942 49.7444L27.6641 19.8268Z" fill="white"/>
<path d="M27.664 19.8268L19.2285 24.9301C17.6119 25.9096 16.7314 28.0581 17.073 30.1921L20.2076 49.7444H36.4923L27.664 19.8268Z" fill="#243239"/>
<path d="M36.4941 49.7444L27.664 19.8268L20.2094 24.3027L26.4949 34.1245L22.3666 37.0245L36.4941 49.7444Z" fill="#7364FF"/>
<path d="M45.3224 19.8268L53.758 24.9301C55.3746 25.9096 56.255 28.0581 55.9134 30.1921L52.7789 49.7444H36.4941L45.3224 19.8268Z" fill="#243239"/>
<path d="M36.4941 49.7444L45.3224 19.8268L52.7789 24.3027L46.4933 34.1245L50.6197 37.0245L36.4941 49.7444Z" fill="#7364FF"/>
<path d="M34.2729 20.3831L28.7509 22.829C28.0002 23.1609 27.1544 22.6119 27.1544 21.793V16.1352C27.1544 15.3145 28.0002 14.7655 28.7509 15.0992L34.2729 17.5451V20.3831Z" fill="#7364FF"/>
<path d="M38.7153 20.3831L44.2373 22.829C44.9881 23.1609 45.8338 22.6119 45.8338 21.793V16.1352C45.8338 15.3145 44.9881 14.7655 44.2373 15.0992L38.7153 17.5451V20.3831Z" fill="#7364FF"/>
<path d="M36.4941 21.6598C37.9862 21.6598 39.1958 20.4521 39.1958 18.9623C39.1958 17.4724 37.9862 16.2647 36.4941 16.2647C35.002 16.2647 33.7925 17.4724 33.7925 18.9623C33.7925 20.4521 35.002 21.6598 36.4941 21.6598Z" fill="#243239"/>
<path d="M37.2302 40.4097C37.2302 40.8164 36.8996 41.1447 36.4941 41.1447C36.0886 41.1447 35.7579 40.8146 35.7579 40.4097C35.7579 40.0047 36.0886 39.6746 36.4941 39.6746C36.8996 39.6746 37.2302 40.0047 37.2302 40.4097Z" fill="#7364FF"/>
<path d="M37.2302 35.3683C37.2302 35.7751 36.8996 36.1034 36.4941 36.1034C36.0886 36.1034 35.7579 35.7732 35.7579 35.3683C35.7579 34.9634 36.0886 34.6333 36.4941 34.6333C36.8996 34.6333 37.2302 34.9634 37.2302 35.3683Z" fill="#7364FF"/>
<path d="M36.4941 31.0603C36.9006 31.0603 37.2302 30.7312 37.2302 30.3252C37.2302 29.9193 36.9006 29.5902 36.4941 29.5902C36.0875 29.5902 35.7579 29.9193 35.7579 30.3252C35.7579 30.7312 36.0875 31.0603 36.4941 31.0603Z" fill="#7364FF"/>
<path d="M37.2302 25.2822C37.2302 25.6889 36.8996 26.0172 36.4941 26.0172C36.0886 26.0172 35.7579 25.6871 35.7579 25.2822C35.7579 24.8772 36.0886 24.5471 36.4941 24.5471C36.8996 24.5471 37.2302 24.8772 37.2302 25.2822Z" fill="#7364FF"/>
</g>
<path d="M34.8455 75.9531V88.1074H33.8065V75.9531H34.8455ZM32.4256 76.2129V87.4922H31.4002V83.5H29.4588C29.035 84.7168 28.2284 85.4277 27.1893 85.4277C25.6034 85.4277 24.578 83.7871 24.578 81.2031C24.578 78.6191 25.6034 76.9785 27.1893 76.9785C28.2284 76.9785 29.035 77.6895 29.4588 78.9062H31.4002V76.2129H32.4256ZM27.1893 77.9902C26.1912 77.9902 25.576 79.2207 25.576 81.2031C25.576 83.1719 26.1912 84.416 27.1893 84.4023C28.1737 84.416 28.8162 83.1719 28.8162 81.2031C28.8162 79.2207 28.1737 77.9902 27.1893 77.9902ZM29.6912 79.7949C29.7733 80.2256 29.8143 80.6973 29.8143 81.2031C29.8143 81.7021 29.7733 82.1738 29.7049 82.5977H31.4002V79.7949H29.6912ZM47.5314 82.2422V83.1309H36.4572V82.2422H41.4611V80.7793H37.9338V76.2402H39.0002V77.6484H45.0158V76.2402H46.0822V80.7793H42.5275V82.2422H47.5314ZM46.1642 84.334V88.1074H45.0841V85.1953H37.6877V84.334H46.1642ZM39.0002 79.918H45.0158V78.4688H39.0002V79.918Z" fill="black"/>
</g>
<defs>
<filter id="filter0_d_2_3174" x="0" y="0" width="72" height="100" filterUnits="userSpaceOnUse" color-interpolation-filters="sRGB">
<feFlood flood-opacity="0" result="BackgroundImageFix"/>
<feColorMatrix in="SourceAlpha" type="matrix" values="0 0 0 0 0 0 0 0 0 0 0 0 0 0 0 0 0 0 127 0" result="hardAlpha"/>
<feOffset dy="4"/>
<feGaussianBlur stdDeviation="2"/>
<feComposite in2="hardAlpha" operator="out"/>
<feColorMatrix type="matrix" values="0 0 0 0 0 0 0 0 0 0 0 0 0 0 0 0 0 0 0.25 0"/>
<feBlend mode="normal" in2="BackgroundImageFix" result="effect1_dropShadow_2_3174"/>
<feBlend mode="normal" in="SourceGraphic" in2="effect1_dropShadow_2_3174" result="shape"/>
</filter>
<clipPath id="clip0_2_3174">
<rect width="48" height="48" fill="white" transform="translate(12 8)"/>
</clipPath>
</defs>
</svg>
