<svg width="72" height="97" viewBox="0 0 72 97" fill="none" xmlns="http://www.w3.org/2000/svg">
<g filter="url(#filter0_d_2_3183)">
<rect x="4" width="64" height="64" rx="12" fill="#EEECFF"/>
<g clip-path="url(#clip0_2_3183)">
<path d="M46.3302 17.9171L42.9838 29.3147L42.518 30.8997H29.1431L28.6773 29.3147L25.3327 17.9171C24.9363 16.2993 26.1638 14.7399 27.8316 14.7399H33.2184C33.6568 14.7599 35.0049 14.9843 35.8305 16.8866C36.6562 14.9843 38.0061 14.7599 38.4445 14.7399H43.8332C45.5009 14.7399 46.7266 16.2993 46.332 17.9171H46.3302Z" fill="white"/>
<path d="M48.6592 51.8363C48.6866 53.0565 47.7002 54.1217 46.4087 54.1217H46.2973C45.3876 54.1217 44.5985 53.611 44.2058 52.8577C43.8094 53.611 43.0221 54.1217 42.1124 54.1217C41.2027 54.1217 40.41 53.611 40.019 52.8577C39.6227 53.611 38.8354 54.1217 37.9257 54.1217C37.016 54.1217 36.2232 53.611 35.8323 52.8577C35.4359 53.611 34.6486 54.1217 33.739 54.1217C32.8293 54.1217 32.0402 53.611 31.6456 52.8577C31.2492 53.611 30.4619 54.1217 29.5523 54.1217C28.6426 54.1217 27.8534 53.611 27.4589 52.8577C27.0643 53.611 26.277 54.1217 25.3655 54.1217H25.2559C23.9773 54.1217 23.0018 53.0839 23.0018 51.8837V51.8363C23.0018 51.6594 23.0256 51.4788 23.0749 51.2946L23.2137 50.7766L23.9919 47.8511L28.6554 32.5083L29.1449 30.8997H42.5198L43.0093 32.5083L47.671 47.8511L48.4491 50.7766L48.5879 51.2946C48.6372 51.4788 48.661 51.6576 48.661 51.8363H48.6592Z" fill="white"/>
<path d="M29.6217 9C29.1339 9 28.7375 9.39579 28.7375 9.88278V14.7398H30.5058V9.88278C30.5058 9.39579 30.1094 9 29.6217 9Z" fill="#7364FF"/>
<path d="M42.0375 9C41.5498 9 41.1534 9.39579 41.1534 9.88278V14.7398H42.9217V9.88278C42.9217 9.39579 42.5253 9 42.0375 9Z" fill="#7364FF"/>
<path d="M48.6592 51.8363C48.6866 53.0583 47.6984 54.1217 46.4087 54.1217H46.2973C45.3876 54.1217 44.5967 53.611 44.2039 52.8577C43.8094 53.6092 43.0203 54.1217 42.1106 54.1217C41.2009 54.1217 40.4099 53.611 40.0172 52.8577C39.6227 53.6092 38.8335 54.1217 37.9239 54.1217C37.0142 54.1217 36.2232 53.611 35.8305 52.8577C35.4359 53.6092 34.6468 54.1217 33.7371 54.1217C32.8275 54.1217 32.0365 53.611 31.6438 52.8577C31.2492 53.6092 30.4601 54.1217 29.5504 54.1217C28.6407 54.1217 27.8498 53.611 27.4571 52.8577C27.0625 53.6092 26.2734 54.1217 25.3637 54.1217H25.2523C23.9754 54.1217 23 53.0839 23 51.8837V51.8363C23 51.6594 23.0237 51.4788 23.0749 51.2964L23.2137 50.7803L23.9919 47.8547H47.671L48.4491 50.7803L48.5879 51.2964C48.6391 51.4788 48.6628 51.6594 48.6628 51.8363H48.6592Z" fill="#7364FF"/>
<path d="M28.6517 32.5102L29.1431 30.8997L28.6773 29.3147H42.9838L42.5179 30.8997L43.0075 32.5102H28.6517Z" fill="#7364FF"/>
</g>
<path d="M28.2292 81.8047V82.6934H19.8346V77.0879H28.1061V77.9766H20.9011V81.8047H28.2292ZM29.5417 85.5508V86.4531H18.4128V85.5508H29.5417ZM35.1865 77.3066V81.5039H31.8916V84.2109C33.293 84.2041 34.6191 84.1562 36.2393 83.8691L36.3213 84.7578C34.585 85.0723 33.2041 85.0996 31.6592 85.1133H30.8525V80.6152H34.1611V78.1953H30.8252V77.3066H35.1865ZM40.833 75.9531V88.1074H39.8076V75.9531H40.833ZM38.3447 76.2539V87.4648H37.333V81.2168H35.7744V80.3418H37.333V76.2539H38.3447ZM48.5286 77.7441C48.5286 79.8223 50.9075 81.6816 53.0267 82.0781L52.5345 82.9805C50.7025 82.5566 48.7679 81.251 47.9818 79.4531C47.1956 81.2441 45.2679 82.5498 43.429 82.9805L42.9368 82.0781C45.0423 81.668 47.4075 79.8359 47.4075 77.7441V76.8145H48.5286V77.7441ZM53.6009 85.5645V86.4531H42.472V85.5645H53.6009Z" fill="black"/>
</g>
<defs>
<filter id="filter0_d_2_3183" x="0" y="0" width="72" height="100" filterUnits="userSpaceOnUse" color-interpolation-filters="sRGB">
<feFlood flood-opacity="0" result="BackgroundImageFix"/>
<feColorMatrix in="SourceAlpha" type="matrix" values="0 0 0 0 0 0 0 0 0 0 0 0 0 0 0 0 0 0 127 0" result="hardAlpha"/>
<feOffset dy="4"/>
<feGaussianBlur stdDeviation="2"/>
<feComposite in2="hardAlpha" operator="out"/>
<feColorMatrix type="matrix" values="0 0 0 0 0 0 0 0 0 0 0 0 0 0 0 0 0 0 0.25 0"/>
<feBlend mode="normal" in2="BackgroundImageFix" result="effect1_dropShadow_2_3183"/>
<feBlend mode="normal" in="SourceGraphic" in2="effect1_dropShadow_2_3183" result="shape"/>
</filter>
<clipPath id="clip0_2_3183">
<rect width="48" height="48" fill="white" transform="translate(12 8)"/>
</clipPath>
</defs>
</svg>
