<svg width="72" height="97" viewBox="0 0 72 97" fill="none" xmlns="http://www.w3.org/2000/svg">
<g filter="url(#filter0_d_2_3289)">
<rect x="4" width="64" height="64" rx="12" fill="#EEECFF"/>
<g clip-path="url(#clip0_2_3289)">
<g clip-path="url(#clip1_2_3289)">
<path d="M27.2846 32.044C27.2846 25.7238 32.4517 20.6005 38.8259 20.6005V19.5219H28.7255C25.0231 22.4596 22.6519 26.9775 22.6519 32.044C22.6519 40.8999 29.8944 48.0812 38.8259 48.0812V43.4876C32.4517 43.4876 27.2846 38.3643 27.2846 32.044Z" fill="#7364FF"/>
<path d="M38.8259 16.0069C35.0043 16.0069 31.4927 17.3268 28.7255 19.5218H38.8259V16.0069Z" fill="#7364FF"/>
<path d="M48.9264 19.5218C46.1591 17.322 42.6476 16.0069 38.8259 16.0069V19.5218H48.9264Z" fill="#7364FF"/>
<path d="M48.9264 19.5219H38.8259V20.6005C45.2001 20.6005 50.3673 25.7238 50.3673 32.044C50.3673 38.3643 45.2001 43.4876 38.8259 43.4876V48.0812C47.7575 48.0812 55 40.8999 55 32.044C55 26.9775 52.6288 22.4644 48.9264 19.5219Z" fill="#7364FF"/>
<path d="M27.2845 32.0441C27.2845 38.3643 32.4517 43.4877 38.8259 43.4877V20.6005C32.4517 20.6005 27.2845 25.7238 27.2845 32.0441Z" fill="#FFDDCA"/>
<path d="M50.3673 32.0441C50.3673 25.7238 45.2001 20.6005 38.8259 20.6005V43.4877C45.2001 43.4877 50.3673 38.3643 50.3673 32.0441Z" fill="#FFD0B8"/>
<path d="M41.4358 41.8271C41.3451 42.2529 41.2354 42.6692 41.1018 43.0761H19.0974C18.9638 42.6739 18.8541 42.2529 18.7634 41.8271C18.7921 41.8366 18.8207 41.8366 18.8541 41.8366H41.3451C41.3785 41.8366 41.4071 41.8366 41.4358 41.8271Z" fill="#E6F3FF"/>
<path d="M19.0974 43.076H41.1018C39.5941 47.679 35.2381 51 30.0996 51C24.9611 51 20.6051 47.6743 19.0974 43.076Z" fill="white"/>
<path d="M41.6648 39.5327C41.6648 40.318 41.5837 41.0891 41.4358 41.8271C41.4072 41.8366 41.3785 41.8366 41.3451 41.8366H18.8541C18.8207 41.8366 18.7921 41.8366 18.7634 41.8271C18.6155 41.0891 18.5344 40.3133 18.5344 39.5327C18.5344 38.7522 18.6155 37.9811 18.7634 37.2431C19.8369 32.0109 24.5031 28.0655 30.0996 28.0655C35.6961 28.0655 40.3623 32.0062 41.4358 37.2431C41.5837 37.9811 41.6648 38.7522 41.6648 39.5327Z" fill="white"/>
<path d="M30.0995 37.2336V41.8414H18.854C18.8206 41.8414 18.792 41.8414 18.7634 41.8319C18.334 41.7893 18 41.4298 18 40.9946V38.0804C18 37.6452 18.334 37.2857 18.7634 37.2478C18.792 37.2384 18.8206 37.2384 18.854 37.2384H30.0995V37.2336Z" fill="#324A5E"/>
<path d="M42.1992 38.0757V40.9898C42.1992 41.425 41.8652 41.7893 41.4358 41.8271C41.4072 41.8366 41.3785 41.8366 41.3451 41.8366H30.0996V37.2289H41.3451C41.3785 37.2289 41.4072 37.2289 41.4358 37.2383C41.8652 37.2809 42.1992 37.6357 42.1992 38.0709V38.0757Z" fill="#2B3B4E"/>
<path d="M55 12H22.6519V18.3013H55V12Z" fill="#7364FF"/>
<path d="M54.9999 12H51.3787V18.3013H54.9999V12Z" fill="#7364FF"/>
<path d="M26.2731 12H22.6519V18.3013H26.2731V12Z" fill="#7364FF"/>
</g>
</g>
<path d="M17.4976 77.375V80.5469H19.3433V76.2129H20.3687V87.4922H19.3433V81.4355H17.4976V84.8398H12.8491V77.375H17.4976ZM13.8609 78.2363V83.9785H16.4859V78.2363H13.8609ZM22.8159 75.9531V88.1074H21.7769V75.9531H22.8159ZM34.4491 75.9531V88.1348H33.369V75.9531H34.4491ZM27.9823 76.8965C29.787 76.9102 31.0858 78.5508 31.0858 81.1348C31.0858 83.7188 29.787 85.3594 27.9823 85.3594C26.1639 85.3594 24.8787 83.7188 24.8787 81.1348C24.8787 78.5508 26.1639 76.9102 27.9823 76.8965ZM27.9823 77.8535C26.7655 77.8672 25.9178 79.1523 25.9178 81.1348C25.9178 83.1172 26.7655 84.4023 27.9823 84.4023C29.1991 84.4023 30.0467 83.1172 30.0467 81.1348C30.0467 79.1523 29.1991 77.8672 27.9823 77.8535ZM46.1505 77.1973V78.7012C46.1505 80.4922 46.1505 82.1465 45.6447 84.6074L44.5646 84.5117C44.8312 83.3428 44.9679 82.3311 45.0431 81.3809L37.6193 81.791L37.4689 80.9023L45.0841 80.5879C45.1046 79.9453 45.1046 79.3232 45.1115 78.7012V78.0996H37.797V77.1973H46.1505ZM47.5314 85.4961V86.3984H36.4572V85.4961H47.5314ZM51.8364 76.5273C53.4702 76.5137 54.7075 77.4639 54.9399 78.8652H57.4829V75.9531H58.563V82.4746H57.4829V79.7539H54.9536C54.7348 81.1895 53.4839 82.1465 51.8364 82.1465C49.9907 82.1465 48.6782 80.998 48.6782 79.3301C48.6782 77.6758 49.9907 76.5137 51.8364 76.5273ZM51.8364 77.4434C50.5923 77.4297 49.7036 78.209 49.7036 79.3301C49.7036 80.4375 50.5923 81.2441 51.8364 81.2441C53.0669 81.2441 53.9419 80.4375 53.9419 79.3301C53.9419 78.209 53.0669 77.4297 51.8364 77.4434ZM51.8091 83.0898V84.6348H57.4829V83.0898H58.563V87.9434H50.729V83.0898H51.8091ZM51.8091 87.0684H57.4829V85.4961H51.8091V87.0684Z" fill="black"/>
</g>
<defs>
<filter id="filter0_d_2_3289" x="0" y="0" width="72" height="100" filterUnits="userSpaceOnUse" color-interpolation-filters="sRGB">
<feFlood flood-opacity="0" result="BackgroundImageFix"/>
<feColorMatrix in="SourceAlpha" type="matrix" values="0 0 0 0 0 0 0 0 0 0 0 0 0 0 0 0 0 0 127 0" result="hardAlpha"/>
<feOffset dy="4"/>
<feGaussianBlur stdDeviation="2"/>
<feComposite in2="hardAlpha" operator="out"/>
<feColorMatrix type="matrix" values="0 0 0 0 0 0 0 0 0 0 0 0 0 0 0 0 0 0 0.25 0"/>
<feBlend mode="normal" in2="BackgroundImageFix" result="effect1_dropShadow_2_3289"/>
<feBlend mode="normal" in="SourceGraphic" in2="effect1_dropShadow_2_3289" result="shape"/>
</filter>
<clipPath id="clip0_2_3289">
<rect width="48" height="48" fill="white" transform="translate(12 8)"/>
</clipPath>
<clipPath id="clip1_2_3289">
<rect width="37" height="39" fill="white" transform="translate(18 12)"/>
</clipPath>
</defs>
</svg>
