<svg width="72" height="97" viewBox="0 0 72 97" fill="none" xmlns="http://www.w3.org/2000/svg">
<g filter="url(#filter0_d_2_3307)">
<rect x="4" width="64" height="64" rx="12" fill="#EEECFF"/>
<g clip-path="url(#clip0_2_3307)">
<g clip-path="url(#clip1_2_3307)">
<path d="M29.3379 21.2248L26.7361 18.6212L28.9742 16.3814C29.6946 15.6605 30.8627 15.6605 31.5761 16.3814C32.2965 17.1024 32.2965 18.2712 31.5761 18.9851L29.3379 21.2248Z" fill="#7364FF"/>
<path d="M49.3625 41.2563L46.7606 38.6527L48.9988 36.4129C49.7192 35.692 50.8872 35.692 51.6006 36.4129C52.321 37.1338 52.321 38.3027 51.6006 39.0166L49.3625 41.2563Z" fill="#7364FF"/>
<path d="M27.0718 37.7637L18.5948 36.5879L17.7065 37.4768L25.3862 42.0682L27.0718 37.7637Z" fill="#7364FF"/>
<path d="M30.2542 40.9484L31.4223 49.4243L30.534 50.3132L25.9458 42.6352L30.2542 40.9484Z" fill="#7364FF"/>
<path d="M48.5512 34.6702L45.0331 22.9116L37.3744 30.5827L50.4186 52L53.4541 48.9554L48.5512 34.6702Z" fill="#7364FF"/>
<path d="M33.3177 19.426L45.033 22.9116L37.3744 30.5826L16 17.5573L19.0425 14.5197L33.3177 19.426Z" fill="#7364FF"/>
<path d="M55.4335 12.5669C53.8178 10.9501 49.0687 13.0849 46.8935 15.2616C46.7256 15.4296 46.5648 15.6115 46.4179 15.7935L46.3899 15.7655L29.282 34.6282L29.303 34.6562C27.7923 36.175 23.7006 42.0822 24.8197 43.2021C25.9388 44.3219 31.8489 40.2275 33.3597 38.7156L52.2091 21.5958C52.391 21.4418 52.5658 21.2878 52.7407 21.1198C54.9159 18.9431 57.0491 14.1907 55.4335 12.5739V12.5669Z" fill="white"/>
<path d="M52.2511 15.7515C52.8666 16.3674 53.1603 17.2353 53.1953 18.2222C53.496 16.9554 53.4471 15.8285 52.8106 15.1916C52.1741 14.5547 51.0481 14.4987 49.7821 14.8066C50.7683 14.8416 51.6356 15.1356 52.2511 15.7515Z" fill="#7364FF"/>
<path d="M37.2975 25.7813V35.1321L39.0041 33.5853V23.9055L37.2975 25.7813Z" fill="white"/>
<path d="M39.7524 23.0726V32.9063L45.7185 27.489V16.5074L39.7524 23.0726Z" fill="white"/>
<path d="M44.8023 18.2782C44.6274 18.4671 44.4386 18.5721 44.3756 18.5161C44.3127 18.4601 44.4036 18.2572 44.5715 18.0682C44.7463 17.8792 44.9352 17.7742 44.9981 17.8302C45.0611 17.8862 44.9701 18.0892 44.8023 18.2782Z" fill="#7364FF"/>
<path d="M43.935 19.237C43.7601 19.426 43.5713 19.531 43.5083 19.475C43.4454 19.419 43.5363 19.216 43.7041 19.0271C43.879 18.8381 44.0678 18.7331 44.1308 18.7891C44.1937 18.8451 44.1028 19.0481 43.935 19.237Z" fill="#7364FF"/>
<path d="M43.0678 20.1889C42.8929 20.3779 42.7041 20.4829 42.6411 20.4269C42.5782 20.3709 42.6691 20.1679 42.837 19.979C43.0048 19.79 43.2007 19.685 43.2636 19.741C43.3266 19.797 43.2356 20 43.0678 20.1889Z" fill="#7364FF"/>
<path d="M42.1935 21.1478C42.0186 21.3368 41.8298 21.4418 41.7669 21.3858C41.7039 21.3298 41.7948 21.1268 41.9627 20.9378C42.1375 20.7488 42.3264 20.6439 42.3893 20.6999C42.4523 20.7558 42.3614 20.9588 42.1935 21.1478Z" fill="#7364FF"/>
<path d="M41.3262 22.1067C41.1513 22.2956 40.9625 22.4006 40.8995 22.3446C40.8366 22.2886 40.9275 22.0857 41.0954 21.8967C41.2632 21.7077 41.4591 21.6027 41.522 21.6587C41.585 21.7147 41.4941 21.9177 41.3262 22.1067Z" fill="#7364FF"/>
<path d="M40.4589 23.0586C40.284 23.2475 40.0952 23.3525 40.0322 23.2965C39.9693 23.2405 40.0602 23.0376 40.2281 22.8486C40.3959 22.6596 40.5918 22.5546 40.6547 22.6106C40.7177 22.6666 40.6267 22.8696 40.4589 23.0586Z" fill="#7364FF"/>
<path d="M39.5846 24.0174C39.4098 24.2064 39.2209 24.3114 39.158 24.2554C39.095 24.1994 39.1859 23.9964 39.3538 23.8075C39.5217 23.6185 39.7175 23.5135 39.7805 23.5695C39.8434 23.6255 39.7525 23.8284 39.5846 24.0174Z" fill="#7364FF"/>
<path d="M38.7173 24.9764C38.5424 25.1653 38.3536 25.2703 38.2907 25.2143C38.2277 25.1583 38.3186 24.9554 38.4865 24.7664C38.6614 24.5774 38.8502 24.4724 38.9131 24.5284C38.9761 24.5844 38.8852 24.7874 38.7173 24.9764Z" fill="#7364FF"/>
<path d="M37.85 25.9282C37.6751 26.1172 37.4863 26.2222 37.4233 26.1662C37.3604 26.1102 37.4513 25.9072 37.6192 25.7182C37.794 25.5292 37.9829 25.4243 38.0458 25.4802C38.1088 25.5362 38.0179 25.7392 37.85 25.9282Z" fill="#7364FF"/>
<path d="M36.9757 26.8871C36.8009 27.0761 36.612 27.1811 36.5491 27.1251C36.4861 27.0691 36.5771 26.8661 36.7449 26.6771C36.9128 26.4882 37.1086 26.3832 37.1716 26.4392C37.2345 26.4952 37.1436 26.6981 36.9757 26.8871Z" fill="#7364FF"/>
<path d="M36.1084 27.846C35.9336 28.035 35.7447 28.1399 35.6818 28.0839C35.6188 28.028 35.7097 27.825 35.8776 27.636C36.0455 27.447 36.2413 27.342 36.3043 27.398C36.3672 27.454 36.2763 27.657 36.1084 27.846Z" fill="#7364FF"/>
<path d="M35.2412 28.7979C35.0664 28.9869 34.8775 29.0918 34.8146 29.0359C34.7516 28.9799 34.8426 28.7769 35.0104 28.5879C35.1853 28.3989 35.3741 28.2939 35.4371 28.3499C35.5 28.4059 35.4091 28.6089 35.2412 28.7979Z" fill="#7364FF"/>
<path d="M34.3668 29.7567C34.192 29.9457 34.0031 30.0507 33.9402 29.9947C33.8772 29.9387 33.9682 29.7357 34.136 29.5468C34.3109 29.3578 34.4997 29.2528 34.5627 29.3088C34.6256 29.3648 34.5347 29.5678 34.3668 29.7567Z" fill="#7364FF"/>
<path d="M33.4997 30.7156C33.3248 30.9046 33.136 31.0096 33.073 30.9536C33.0101 30.8976 33.101 30.6946 33.2688 30.5056C33.4437 30.3167 33.6325 30.2117 33.6955 30.2677C33.7584 30.3237 33.6675 30.5266 33.4997 30.7156Z" fill="#7364FF"/>
<path d="M32.6323 31.6675C32.4575 31.8565 32.2686 31.9615 32.2057 31.9055C32.1427 31.8495 32.2337 31.6465 32.4015 31.4575C32.5764 31.2686 32.7652 31.1636 32.8282 31.2196C32.8911 31.2756 32.8002 31.4785 32.6323 31.6675Z" fill="#7364FF"/>
<path d="M31.765 32.6264C31.5902 32.8154 31.4013 32.9203 31.3384 32.8643C31.2754 32.8084 31.3664 32.6054 31.5342 32.4164C31.7021 32.2274 31.8979 32.1224 31.9609 32.1784C32.0238 32.2344 31.9329 32.4374 31.765 32.6264Z" fill="#7364FF"/>
<path d="M30.8908 33.5852C30.7159 33.7742 30.5271 33.8792 30.4641 33.8232C30.4012 33.7672 30.4921 33.5642 30.66 33.3753C30.8278 33.1863 31.0237 33.0813 31.0866 33.1373C31.1496 33.1933 31.0586 33.3963 30.8908 33.5852Z" fill="#7364FF"/>
<path d="M49.7262 23.2056C49.5374 23.3806 49.4325 23.5695 49.4884 23.6325C49.5444 23.6955 49.7472 23.6045 49.936 23.4366C50.1249 23.2616 50.2298 23.0726 50.1739 23.0096C50.1179 22.9466 49.9151 23.0376 49.7262 23.2056Z" fill="#7364FF"/>
<path d="M48.768 24.0735C48.5791 24.2485 48.4742 24.4375 48.5302 24.5004C48.5861 24.5634 48.789 24.4725 48.9778 24.3045C49.1666 24.1365 49.2716 23.9405 49.2156 23.8775C49.1596 23.8145 48.9568 23.9055 48.768 24.0735Z" fill="#7364FF"/>
<path d="M47.8168 24.9414C47.628 25.1163 47.523 25.3053 47.579 25.3683C47.6349 25.4313 47.8378 25.3403 48.0266 25.1723C48.2155 24.9974 48.3204 24.8084 48.2644 24.7454C48.2085 24.6824 48.0056 24.7734 47.8168 24.9414Z" fill="#7364FF"/>
<path d="M46.8585 25.8162C46.6697 25.9912 46.5648 26.1802 46.6207 26.2432C46.6767 26.3062 46.8795 26.2152 47.0684 26.0472C47.2572 25.8792 47.3621 25.6833 47.3062 25.6203C47.2502 25.5573 47.0474 25.6483 46.8585 25.8162Z" fill="#7364FF"/>
<path d="M45.9004 26.6842C45.7116 26.8591 45.6067 27.0481 45.6626 27.1111C45.7186 27.1741 45.9214 27.0831 46.1102 26.9151C46.2991 26.7471 46.404 26.5512 46.348 26.4882C46.2921 26.4252 46.0893 26.5162 45.9004 26.6842Z" fill="#7364FF"/>
<path d="M44.9491 27.552C44.7603 27.727 44.6554 27.916 44.7113 27.979C44.7673 28.042 44.9701 27.951 45.1589 27.783C45.3478 27.608 45.4527 27.419 45.3968 27.356C45.3408 27.293 45.138 27.384 44.9491 27.552Z" fill="#7364FF"/>
<path d="M43.991 28.427C43.8021 28.6019 43.6972 28.7909 43.7532 28.8539C43.8091 28.9169 44.012 28.8259 44.2008 28.6579C44.3897 28.4899 44.4946 28.294 44.4386 28.231C44.3827 28.168 44.1798 28.259 43.991 28.427Z" fill="#7364FF"/>
<path d="M43.0327 29.2948C42.8439 29.4698 42.739 29.6588 42.7949 29.7218C42.8509 29.7848 43.0537 29.6938 43.2426 29.5258C43.4314 29.3508 43.5363 29.1618 43.4804 29.0988C43.4244 29.0358 43.2216 29.1268 43.0327 29.2948Z" fill="#7364FF"/>
<path d="M42.0816 30.1627C41.8927 30.3377 41.7878 30.5267 41.8438 30.5897C41.8997 30.6527 42.1026 30.5617 42.2914 30.3937C42.4802 30.2187 42.5852 30.0298 42.5292 29.9668C42.4732 29.9038 42.2704 29.9948 42.0816 30.1627Z" fill="#7364FF"/>
<path d="M41.1233 31.0376C40.9345 31.2126 40.8296 31.4016 40.8855 31.4646C40.9415 31.5276 41.1443 31.4366 41.3331 31.2686C41.522 31.0936 41.6269 30.9046 41.5709 30.8416C41.515 30.7786 41.3122 30.8696 41.1233 31.0376Z" fill="#7364FF"/>
<path d="M40.1651 31.9055C39.9762 32.0804 39.8713 32.2694 39.9273 32.3324C39.9832 32.3954 40.186 32.3044 40.3749 32.1364C40.5637 31.9615 40.6686 31.7725 40.6127 31.7095C40.5567 31.6465 40.3539 31.7375 40.1651 31.9055Z" fill="#7364FF"/>
<path d="M39.2139 32.7734C39.025 32.9484 38.9201 33.1373 38.9761 33.2003C39.032 33.2633 39.2349 33.1723 39.4237 33.0044C39.6126 32.8294 39.7175 32.6404 39.6615 32.5774C39.6056 32.5144 39.4027 32.6054 39.2139 32.7734Z" fill="#7364FF"/>
<path d="M38.2556 33.6413C38.0668 33.8162 37.9619 34.0052 38.0178 34.0682C38.0738 34.1312 38.2766 34.0402 38.4655 33.8722C38.6543 33.7042 38.7592 33.5083 38.7033 33.4453C38.6473 33.3823 38.4445 33.4733 38.2556 33.6413Z" fill="#7364FF"/>
<path d="M37.2975 34.5162C37.1087 34.6912 37.0038 34.8801 37.0597 34.9431C37.1157 35.0061 37.3185 34.9151 37.5073 34.7472C37.6962 34.5722 37.8011 34.3832 37.7451 34.3202C37.6892 34.2572 37.4864 34.3482 37.2975 34.5162Z" fill="#7364FF"/>
<path d="M36.3462 35.384C36.1574 35.559 36.0525 35.748 36.1084 35.811C36.1644 35.874 36.3672 35.783 36.556 35.615C36.7449 35.447 36.8498 35.2511 36.7938 35.1881C36.7379 35.1251 36.5351 35.2161 36.3462 35.384Z" fill="#7364FF"/>
<path d="M35.3881 36.252C35.1992 36.4269 35.0943 36.6159 35.1503 36.6789C35.2062 36.7419 35.4091 36.6509 35.5979 36.4829C35.7868 36.315 35.8917 36.119 35.8357 36.056C35.7798 35.993 35.5769 36.084 35.3881 36.252Z" fill="#7364FF"/>
<path d="M34.4298 37.1268C34.241 37.3018 34.1361 37.4908 34.192 37.5538C34.248 37.6168 34.4508 37.5258 34.6397 37.3578C34.8285 37.1898 34.9334 36.9939 34.8775 36.9309C34.8215 36.8679 34.6187 36.9589 34.4298 37.1268Z" fill="#7364FF"/>
<g style="mix-blend-mode:multiply">
<path d="M46.257 26.9991L39.1299 33.4733L41.0463 36.6159L47.467 31.0586L46.257 26.9991Z" fill="white"/>
</g>
<g style="mix-blend-mode:multiply">
<path d="M26.2955 43.2231L27.0719 44.5249C28.0861 44.126 29.331 43.4051 30.4851 42.6422L30.2752 41.1024C28.9114 42.0122 27.4076 42.8661 26.2955 43.2231Z" fill="white"/>
</g>
<g style="mix-blend-mode:multiply">
<path d="M54.0906 19.419C53.4471 20.2379 52.2371 20.3289 50.4396 20.8678C47.579 21.7217 35.465 34.6911 33.0799 36.4339C30.6879 38.1837 25.2604 42.7051 25.2604 42.7051V43.384C27.0229 43.566 31.9958 40.0804 33.3667 38.7086L52.2161 21.5887C52.398 21.4348 52.5728 21.2808 52.7477 21.1128C53.2163 20.6439 53.6779 20.0629 54.1046 19.419H54.0906Z" fill="white"/>
<path d="M54.7411 18.321L54.7489 18.3132L54.7411 18.321Z" fill="white"/>
</g>
<path d="M21.7632 46.6596C21.6513 46.6596 21.5394 46.6177 21.4555 46.5337C21.2876 46.3657 21.2876 46.0927 21.4555 45.9247L29.2191 38.1557C29.3869 37.9877 29.6597 37.9877 29.8276 38.1557C29.9954 38.3237 29.9954 38.5967 29.8276 38.7646L22.064 46.5337C21.9801 46.6177 21.8681 46.6596 21.7562 46.6596H21.7632Z" fill="#7364FF"/>
</g>
</g>
<path d="M22.4331 75.9668V84.8809H21.3667V75.9668H22.4331ZM22.8159 86.9453V87.8477H14.5855V84.0605H15.6519V86.9453H22.8159ZM16.7046 77.8672C16.6909 79.7129 17.9624 81.3809 19.7671 82.0371L19.2066 82.8984C17.7984 82.3584 16.7046 81.2646 16.1714 79.8633C15.6314 81.3535 14.5239 82.5498 13.1089 83.1172L12.521 82.2832C14.3667 81.5723 15.6109 79.7812 15.6109 77.8672V76.6504H16.7046V77.8672ZM35.5018 83.1309V84.0059H24.4276V83.1309H29.4315V82.1465C27.244 82.0781 26.0135 81.4287 26.0135 80.3145C26.0135 79.1113 27.4491 78.4688 29.9647 78.4688C32.453 78.4688 33.9022 79.1113 33.9022 80.3145C33.9022 81.4287 32.658 82.0713 30.4979 82.1465V83.1309H35.5018ZM34.2713 86.959V87.8477H25.8631V84.7852H26.9432V86.959H34.2713ZM34.8592 77.0879V77.9355H25.0018V77.0879H29.4315V75.8164H30.4979V77.0879H34.8592ZM29.9647 79.2617C28.119 79.2617 27.0936 79.6309 27.1073 80.3145C27.0936 80.998 28.119 81.3672 29.9647 81.3672C31.783 81.3672 32.8221 80.998 32.8221 80.3145C32.8221 79.6309 31.783 79.2617 29.9647 79.2617ZM39.7248 76.8965C40.839 76.9033 41.7414 77.5527 42.2677 78.6738H45.467V75.9531H46.5334V88.1348H45.467V83.418H42.3498C41.8371 84.6484 40.9005 85.3594 39.7248 85.3594C37.9338 85.3594 36.6759 83.7188 36.6759 81.1348C36.6759 78.5508 37.9338 76.9102 39.7248 76.8965ZM39.7248 77.8535C38.5216 77.8672 37.7013 79.1523 37.7013 81.1348C37.7013 83.1172 38.5216 84.4023 39.7248 84.4023C40.9142 84.4023 41.7482 83.1172 41.7482 81.1348C41.7482 79.1523 40.9142 77.8672 39.7248 77.8535ZM42.5822 79.5762C42.6916 80.0479 42.7599 80.5674 42.7599 81.1348C42.7599 81.6338 42.7052 82.1055 42.6232 82.5293H45.467V79.5762H42.5822ZM58.8091 75.9531V83.6504H57.7837V80.1641H56.1567V83.2129H55.145V76.1992H56.1567V79.2754H57.7837V75.9531H58.8091ZM54.6528 77.416V78.2773H48.4184V77.416H51.0161V76.0488H52.0825V77.416H54.6528ZM51.5493 78.9336C53.0942 78.9336 54.147 79.7402 54.1606 81.0117C54.147 82.2559 53.0942 83.0762 51.5493 83.0762C50.018 83.0762 48.938 82.2559 48.9516 81.0117C48.938 79.7402 50.018 78.9336 51.5493 78.9336ZM51.5493 79.7266C50.5786 79.7266 49.9087 80.2461 49.9087 81.0117C49.9087 81.7637 50.5786 82.2695 51.5493 82.2695C52.52 82.2695 53.1899 81.7637 53.1899 81.0117C53.1899 80.2461 52.52 79.7266 51.5493 79.7266ZM54.7895 83.8555C57.3462 83.8555 58.8774 84.6211 58.8774 85.9883C58.8774 87.3145 57.3462 88.0801 54.7895 88.0801C52.2329 88.0801 50.7016 87.3145 50.7153 85.9883C50.7016 84.6211 52.2329 83.8555 54.7895 83.8555ZM54.7895 84.7031C52.9028 84.6895 51.768 85.1543 51.7817 85.9883C51.768 86.7812 52.9028 87.2461 54.7895 87.2461C56.6763 87.2461 57.7973 86.7812 57.811 85.9883C57.7973 85.1543 56.6763 84.6895 54.7895 84.7031Z" fill="black"/>
</g>
<defs>
<filter id="filter0_d_2_3307" x="0" y="0" width="72" height="100" filterUnits="userSpaceOnUse" color-interpolation-filters="sRGB">
<feFlood flood-opacity="0" result="BackgroundImageFix"/>
<feColorMatrix in="SourceAlpha" type="matrix" values="0 0 0 0 0 0 0 0 0 0 0 0 0 0 0 0 0 0 127 0" result="hardAlpha"/>
<feOffset dy="4"/>
<feGaussianBlur stdDeviation="2"/>
<feComposite in2="hardAlpha" operator="out"/>
<feColorMatrix type="matrix" values="0 0 0 0 0 0 0 0 0 0 0 0 0 0 0 0 0 0 0.25 0"/>
<feBlend mode="normal" in2="BackgroundImageFix" result="effect1_dropShadow_2_3307"/>
<feBlend mode="normal" in="SourceGraphic" in2="effect1_dropShadow_2_3307" result="shape"/>
</filter>
<clipPath id="clip0_2_3307">
<rect width="48" height="48" fill="white" transform="translate(12 8)"/>
</clipPath>
<clipPath id="clip1_2_3307">
<rect width="40" height="40" fill="white" transform="translate(16 12)"/>
</clipPath>
</defs>
</svg>
