<svg width="72" height="92" viewBox="0 0 72 92" fill="none" xmlns="http://www.w3.org/2000/svg">
<g filter="url(#filter0_d_2_3157)">
<rect x="4" width="64" height="64" rx="12" fill="#EEECFF"/>
<g clip-path="url(#clip0_2_3157)">
<path d="M53.6505 22.8195V25.0031H41.6577V22.6666C41.6577 22.6229 41.6577 22.5793 41.6628 22.5356C42.2684 22.3508 42.8213 22.1761 43.4711 21.5496C47.5418 23.2411 53.118 22.8598 53.6131 22.8212C53.6386 22.8195 53.6505 22.8195 53.6505 22.8195Z" fill="#243239"/>
<path d="M54.0248 20.3655V25.0031H53.6506V22.8195C53.6506 22.8195 53.6387 22.8195 53.6132 22.8212C53.1181 22.8598 47.5419 23.2411 43.4712 21.5496C42.8197 22.1762 42.2668 22.3509 41.6629 22.5356C41.6578 22.5793 41.6578 22.623 41.6578 22.6666V25.0031H41.0454V20.3655C41.0454 17.8039 43.1463 15.7261 45.7422 15.7261H49.3281C51.9223 15.7261 54.0248 17.8039 54.0248 20.3655Z" fill="#243239"/>
<path d="M55.3176 24.6252C55.3176 24.983 55.1713 25.3088 54.9315 25.544C54.6933 25.7791 54.3667 25.9236 54.0044 25.9236H53.6505V25.9874C53.6505 29.2578 50.9645 31.9083 47.6541 31.9083C44.3438 31.9083 41.6578 29.2578 41.6578 25.9874V25.9236H41.2971C40.9348 25.9236 40.6048 25.7791 40.3666 25.544C40.1285 25.3088 39.9822 24.9846 39.9822 24.6252C39.9822 23.9096 40.5691 23.3285 41.2954 23.3285H41.6561V22.665C41.6561 22.6213 41.6561 22.5776 41.6612 22.534C42.2668 22.3492 42.8196 22.1745 43.4694 21.548C47.5402 23.2394 53.1164 22.8581 53.6114 22.8195C53.6369 22.8178 53.6488 22.8178 53.6488 22.8178V23.3268H54.0027C54.7273 23.3268 55.3159 23.9079 55.3159 24.6235L55.3176 24.6252Z" fill="#FDDA92"/>
<path d="M47.6558 29.681C46.761 29.681 45.9275 29.2057 45.4801 28.4414C45.3729 28.26 45.4359 28.0265 45.6213 27.9207C45.805 27.8149 46.0415 27.877 46.1486 28.0601C46.4599 28.5909 47.0366 28.9201 47.6575 28.9201C48.2784 28.9201 48.8551 28.5909 49.1664 28.0601C49.2735 27.877 49.5083 27.8149 49.6937 27.9207C49.8774 28.0265 49.9404 28.26 49.8349 28.4414C49.3858 29.2057 48.5523 29.681 47.6592 29.681H47.6558Z" fill="#7364FF"/>
<path d="M43.4202 34.196H51.8866L47.6542 48.3828L43.4202 34.196Z" fill="white"/>
<path d="M43.4201 34.196L39.3749 36.6165C38.5992 37.0801 38.1773 38.0997 38.3424 39.1125L39.8444 48.3828H47.6525L43.4184 34.196H43.4201Z" fill="#243239"/>
<path d="M47.6542 48.3828L43.4202 34.196L39.8445 36.3175L42.8588 40.9753L40.8805 42.3493L47.6542 48.3828Z" fill="#7364FF"/>
<path d="M51.8865 34.196L55.9317 36.6165C56.7074 37.0801 57.1293 38.0997 56.9643 39.1125L55.4622 48.3828H47.6542L51.8882 34.196H51.8865Z" fill="#243239"/>
<path d="M47.6542 48.3828L51.8865 34.196L55.4622 36.3175L52.4479 40.9753L54.428 42.3493L47.6542 48.3828Z" fill="#7364FF"/>
<path d="M46.5893 34.4598L43.9407 35.6188C43.58 35.7767 43.1752 35.5163 43.1752 35.1266V32.4441C43.1752 32.0561 43.58 31.7958 43.9407 31.952L46.5893 33.111V34.4564V34.4598Z" fill="#243239"/>
<path d="M48.7191 34.4598L51.3677 35.6188C51.7284 35.7767 52.1332 35.5163 52.1332 35.1266V32.4441C52.1332 32.0561 51.7284 31.7958 51.3677 31.952L48.7191 33.111V34.4564V34.4598Z" fill="#243239"/>
<path d="M48.932 33.9913C49.0468 33.2945 48.5678 32.6377 47.8622 32.5244C47.1565 32.411 46.4914 32.884 46.3766 33.5808C46.2618 34.2776 46.7408 34.9344 47.4464 35.0477C48.1521 35.1611 48.8172 34.6881 48.932 33.9913Z" fill="#243239"/>
<path d="M47.6542 44.3045C47.8497 44.3045 48.0081 44.148 48.0081 43.9551C48.0081 43.7621 47.8497 43.6057 47.6542 43.6057C47.4588 43.6057 47.3004 43.7621 47.3004 43.9551C47.3004 44.148 47.4588 44.3045 47.6542 44.3045Z" fill="#7364FF"/>
<path d="M47.6542 41.9143C47.8497 41.9143 48.0081 41.7578 48.0081 41.5649C48.0081 41.3719 47.8497 41.2155 47.6542 41.2155C47.4588 41.2155 47.3004 41.3719 47.3004 41.5649C47.3004 41.7578 47.4588 41.9143 47.6542 41.9143Z" fill="#7364FF"/>
<path d="M47.6542 39.5224C47.8497 39.5224 48.0081 39.3659 48.0081 39.173C48.0081 38.98 47.8497 38.8236 47.6542 38.8236C47.4588 38.8236 47.3004 38.98 47.3004 39.173C47.3004 39.3659 47.4588 39.5224 47.6542 39.5224Z" fill="#7364FF"/>
<path d="M47.6542 37.1322C47.8497 37.1322 48.0081 36.9757 48.0081 36.7828C48.0081 36.5898 47.8497 36.4334 47.6542 36.4334C47.4588 36.4334 47.3004 36.5898 47.3004 36.7828C47.3004 36.9757 47.4588 37.1322 47.6542 37.1322Z" fill="#7364FF"/>
<mask id="mask0_2_3157" style="mask-type:luminance" maskUnits="userSpaceOnUse" x="9" y="13" width="33" height="36">
<path d="M41.3294 13H9V48.3828H41.3294V13Z" fill="white"/>
</mask>
<g mask="url(#mask0_2_3157)">
<path d="M31.3389 36.7123L30.9833 36.499L30.9884 36.4906L29.3095 35.4928C28.6647 35.1099 27.9248 34.9066 27.1729 34.9066H23.16C22.4064 34.9066 21.6681 35.1082 21.0234 35.4928L19.3444 36.4906L19.3495 36.499L18.994 36.7123C18.4156 37.0583 18.1009 37.8175 18.2234 38.5734L19.3444 45.487H30.9901L32.1112 38.5734C32.2337 37.8175 31.919 37.0583 31.3406 36.7123H31.3389Z" fill="#FDDA92"/>
<path d="M31.0207 29.535H20.0605V32.4996H31.0207V29.535Z" fill="#243239"/>
<path d="M30.2706 25.3357H32.2065V31.3792C32.2065 31.9974 31.6979 32.4996 31.0718 32.4996H30.2706V25.3357Z" fill="#243239"/>
<path d="M31.0208 24.5799V27.8217C31.0208 31.0165 28.3977 33.6066 25.1622 33.6066C21.9267 33.6066 19.307 31.0165 19.307 27.8217V24.5799C19.307 24.5379 19.307 24.4942 19.3104 24.4522C19.3768 21.3179 21.9692 18.795 25.1639 18.795C26.7833 18.795 28.2463 19.4433 29.3061 20.4898C30.3642 21.5379 31.0225 22.9825 31.0225 24.5799H31.0208Z" fill="#FDDA92"/>
<path d="M25.1656 31.433C24.2913 31.433 23.4781 30.9694 23.0392 30.2219C22.9355 30.0439 22.9967 29.8171 23.177 29.713C23.3573 29.6105 23.587 29.671 23.6925 29.849C23.9953 30.3664 24.56 30.6889 25.1656 30.6889C25.7712 30.6889 26.336 30.3664 26.6388 29.849C26.7425 29.671 26.9739 29.6105 27.1542 29.713C27.3345 29.8154 27.3958 30.0439 27.292 30.2219C26.8531 30.9694 26.04 31.433 25.1656 31.433Z" fill="#7364FF"/>
<path d="M32.2065 25.1476V25.3256C25.8648 25.7271 23.7265 22.455 23.7265 22.455C22.187 24.0373 21.0047 24.5462 20.0606 24.7361C19.2713 24.8973 18.6504 24.8352 18.123 24.993C18.1282 24.7377 18.1469 24.4841 18.1809 24.2355C18.6317 20.824 21.5814 18.192 25.1605 18.192C27.1066 18.192 28.8655 18.9713 30.1413 20.2277C31.4155 21.4875 32.2048 23.226 32.2048 25.1476H32.2065Z" fill="#243239"/>
<path d="M20.0606 24.2355V32.498H19.2577C18.6317 32.498 18.123 31.9957 18.123 31.3776V24.9931C18.1282 24.7378 18.1469 24.4841 18.1809 24.2355H20.0606Z" fill="#243239"/>
<path d="M33.5622 39.3678L30.8864 48.3811L30.5138 49.6341H19.819L19.4465 48.3811L16.7706 39.3678C16.4542 38.0896 17.4358 36.8567 18.7694 36.8567H23.0766C23.427 36.8718 24.5038 37.0499 25.1656 38.5532C25.8256 37.0482 26.9058 36.8718 27.2562 36.8567H31.5651C32.8988 36.8567 33.8786 38.0896 33.5639 39.3678H33.5622Z" fill="white"/>
<path d="M20.2018 34.6697C19.8105 34.6697 19.4941 34.9822 19.4941 35.3685V36.8567H20.9078V35.3685C20.9078 34.9822 20.5914 34.6697 20.2001 34.6697H20.2018Z" fill="white"/>
<path d="M30.1294 34.6697C29.7382 34.6697 29.4218 34.9822 29.4218 35.3685V36.8567H30.8354V35.3685C30.8354 34.9822 30.519 34.6697 30.1277 34.6697H30.1294Z" fill="white"/>
</g>
<path d="M40.7221 33.1497L40.387 33.4806L37.4747 36.3562L34.229 33.1513C33.4261 32.3585 33.4261 31.0719 34.229 30.2757C34.6305 29.881 35.1561 29.6811 35.6835 29.6811C36.2108 29.6811 36.7381 29.8793 37.1379 30.2757L37.473 30.6066L37.8081 30.2757C38.6111 29.4829 39.9141 29.4829 40.7187 30.2757C41.5216 31.0702 41.5216 32.3585 40.7187 33.1513L40.7221 33.1497Z" fill="#7364FF"/>
</g>
</g>
<path d="M26.9705 76.4453V77.9902H32.9862V76.4453H34.0526V81.2988H30.4979V82.5977H35.5018V83.4863H24.4276V82.5977H29.4315V81.2988H25.9041V76.4453H26.9705ZM26.9705 80.4375H32.9862V78.8379H26.9705V80.4375ZM34.2713 86.9453V87.8477H25.8631V84.457H26.9432V86.9453H34.2713ZM40.7638 77.7168C40.7502 79.4941 42.0353 81.0664 43.84 81.6953L43.2931 82.543C41.8849 82.0303 40.7707 80.9775 40.2306 79.6309C39.6906 81.0732 38.5627 82.208 37.1408 82.7617L36.5802 81.9141C38.3986 81.2441 39.6701 79.5488 39.6701 77.7168V76.5547H40.7638V77.7168ZM46.4923 83.8828V88.1074H45.4259V84.7715H38.3166V83.8828H46.4923ZM46.4923 75.9531V83.2812H45.4259V75.9531H46.4923Z" fill="black"/>
<defs>
<filter id="filter0_d_2_3157" x="0" y="0" width="72" height="72" filterUnits="userSpaceOnUse" color-interpolation-filters="sRGB">
<feFlood flood-opacity="0" result="BackgroundImageFix"/>
<feColorMatrix in="SourceAlpha" type="matrix" values="0 0 0 0 0 0 0 0 0 0 0 0 0 0 0 0 0 0 127 0" result="hardAlpha"/>
<feOffset dy="4"/>
<feGaussianBlur stdDeviation="2"/>
<feComposite in2="hardAlpha" operator="out"/>
<feColorMatrix type="matrix" values="0 0 0 0 0 0 0 0 0 0 0 0 0 0 0 0 0 0 0.25 0"/>
<feBlend mode="normal" in2="BackgroundImageFix" result="effect1_dropShadow_2_3157"/>
<feBlend mode="normal" in="SourceGraphic" in2="effect1_dropShadow_2_3157" result="shape"/>
</filter>
<clipPath id="clip0_2_3157">
<rect width="48" height="48" fill="white" transform="translate(12 8)"/>
</clipPath>
</defs>
</svg>
