<svg width="81" height="40" viewBox="0 0 81 40" fill="none" xmlns="http://www.w3.org/2000/svg">
<g filter="url(#filter0_d_2_2957)">
<rect x="4" y="0.516113" width="73" height="30.9677" fill="white" shape-rendering="crispEdges"/>
<g clip-path="url(#clip0_2_2957)">
<path d="M30 19.6066C30 20.3753 29.9291 21.1164 29.7906 21.8339C29.3755 23.9715 28.3676 25.8674 26.9367 27.4007C26.9339 27.4059 26.9313 27.4097 26.9288 27.4122C24.5413 29.9558 20.9799 31.5005 16.9997 31.5005C9.82196 31.5 4 26.4796 4 19.6066C4 17.7613 4.4188 15.9713 5.17391 14.3368C5.92479 12.7023 7.01198 11.228 8.344 10.0147C9.26885 9.18751 9.81456 8.42714 10.071 7.73671C10.2328 7.31139 10.2847 6.90955 10.2566 6.53537C10.0356 3.8274 5.46263 2.46585 5.46263 2.46585C5.46263 2.46585 5.46633 2.46585 5.47426 2.45802C5.52978 2.41105 5.77884 2.22005 6.19341 1.99773C6.72696 1.71697 7.52543 1.39289 8.54123 1.28016C8.60839 1.27233 8.67185 1.26451 8.73477 1.26085C10.4697 1.11264 10.5966 1.70183 12.1338 1.75245C13.5885 1.79525 14.1892 0.718632 16.4657 0.531282C16.5762 0.511972 16.6989 0.499969 16.8374 0.499969C16.8929 0.499969 16.9442 0.503623 16.9997 0.503623C17.0553 0.503623 17.1066 0.499969 17.1615 0.499969C17.3001 0.499969 17.4222 0.511451 17.5333 0.531282C19.8097 0.718632 20.4109 1.79525 21.8651 1.75245C23.4578 1.70183 23.5371 1.06985 25.4582 1.28016C27.3079 1.48317 28.4501 2.39174 28.5331 2.46219L28.5368 2.46585C28.5368 2.46585 24.8295 3.5696 23.9322 5.76614H23.9279C23.829 6.00776 23.7661 6.26557 23.7423 6.53433C23.7148 6.90903 23.7661 7.31087 23.9242 7.73567C24.1849 8.4261 24.7264 9.18698 25.6555 10.0136C28.3195 12.4398 29.9995 15.9154 29.9995 19.6056L30 19.6066Z" fill="url(#paint0_linear_2_2957)"/>
<g style="mix-blend-mode:multiply" opacity="0.3">
<path d="M29.7906 21.8339C28.6838 27.5369 23.3753 31.5005 17.0003 31.5005C9.82196 31.5 4 26.4796 4 19.6066C4 17.7613 4.4188 15.9713 5.17391 14.3368C5.92479 12.7023 7.01198 11.228 8.344 10.0147C13.9603 5.00161 5.46263 2.46586 5.46263 2.46586C5.46263 2.46586 6.62068 1.49049 8.54176 1.28017C8.60892 1.27235 8.67238 1.26452 8.7353 1.26086C9.90921 3.38695 12.4426 5.11121 16.1145 5.29803C21.0434 5.55166 23.7984 5.75415 23.929 5.76615C23.7074 5.79329 15.2177 6.87407 10.4941 11.3251C5.70746 15.8304 9.88119 28.1846 19.8933 28.5316C24.6561 28.6955 27.8103 25.4072 29.7906 21.8339Z" fill="url(#paint1_linear_2_2957)"/>
</g>
<path opacity="0.3" d="M26.9288 27.4122C24.5413 29.9558 20.9799 31.5005 16.9997 31.5005C9.82196 31.5 4 26.4796 4 19.6066C4 17.7613 4.4188 15.9713 5.17391 14.3368C5.92479 12.7023 7.01198 11.228 8.344 10.0147C13.9603 5.00161 5.46263 2.46586 5.46263 2.46586C5.46263 2.46586 5.71962 2.25137 6.19394 1.99774C7.61268 2.59476 10.9409 4.17811 11.3523 6.07823C11.8779 8.50857 7.53389 10.5679 5.90946 14.0435C4.28079 17.5233 2.58919 27.7509 15.7121 30.7C20.1941 31.7061 23.9411 30.0408 26.9299 27.4117L26.9288 27.4122Z" fill="#19236E"/>
<path d="M28.5336 2.46222C28.403 2.39177 25.4508 0.82773 23.4864 2.11518C21.4786 3.42976 18.4433 1.25044 17.2255 1.21913C16.0082 1.18782 15.6286 1.77179 13.2057 2.19711C10.7865 2.61826 11.0001 1.58079 9.37564 1.56148C7.81043 1.54582 5.64028 2.39646 5.47424 2.45857C5.52977 2.4116 5.77883 2.2206 6.1934 1.99828C6.72694 1.71751 7.52541 1.39343 8.54122 1.28071C8.60837 1.27288 8.67183 1.26506 8.73475 1.2614C10.4697 1.11319 10.5966 1.70238 12.1338 1.753C13.5885 1.79579 14.1892 0.719181 16.4656 0.531831C16.5762 0.512522 16.6988 0.500519 16.8374 0.500519C16.8929 0.500519 16.9442 0.504172 16.9997 0.504172C17.0552 0.504172 17.1065 0.500519 17.1615 0.500519C17.3001 0.500519 17.4222 0.512 17.5333 0.531831C19.8097 0.719181 20.4109 1.79579 21.8651 1.753C23.4578 1.70238 23.5371 1.0704 25.4582 1.28071C27.3079 1.48372 28.4501 2.39229 28.5331 2.46274L28.5336 2.46222Z" fill="url(#paint2_linear_2_2957)"/>
<path d="M10.071 7.73619C10.2329 7.31087 10.2847 6.90903 10.2566 6.53485H23.7429C23.7154 6.90955 23.7667 7.31139 23.9248 7.73619H10.071Z" fill="white"/>
<path d="M16.895 8.1495C17.6791 8.1495 18.3148 7.66188 18.3148 7.06036C18.3148 6.45885 17.6791 5.97122 16.895 5.97122C16.1109 5.97122 15.4752 6.45885 15.4752 7.06036C15.4752 7.66188 16.1109 8.1495 16.895 8.1495Z" fill="white"/>
<g style="mix-blend-mode:multiply" opacity="0.3">
<path d="M16.4291 7.6579C14.9311 9.20837 14.8533 11.8563 14.8856 12.0077C14.9178 12.159 16.0569 12.0327 16.0569 12.0327C16.0569 12.0327 15.9691 10.7265 16.3244 9.50479C16.6798 8.2831 17.0859 7.66207 17.0859 7.66207L16.4291 7.6579Z" fill="url(#paint3_linear_2_2957)"/>
</g>
<path d="M16.7279 7.32184C15.0321 8.65939 14.5948 11.2734 14.6059 11.4274C14.6176 11.5813 15.7634 11.6074 15.7634 11.6074C15.7634 11.6074 15.8544 10.3012 16.3726 9.13794C16.8908 7.97417 17.3778 7.41317 17.3778 7.41317L16.7274 7.32184H16.7279Z" fill="white"/>
<g style="mix-blend-mode:multiply" opacity="0.3">
<path d="M17.8595 7.65268C19.3703 9.19115 19.4697 11.8386 19.4385 11.9899C19.4073 12.1413 18.2672 12.0238 18.2672 12.0238C18.2672 12.0238 18.3439 10.7171 17.979 9.49801C17.6142 8.27945 17.2028 7.66155 17.2028 7.66155L17.8595 7.65216V7.65268Z" fill="url(#paint4_linear_2_2957)"/>
</g>
<path d="M17.5793 7.32184C19.2751 8.65939 19.7125 11.2734 19.7014 11.4274C19.6897 11.5813 18.5438 11.6074 18.5438 11.6074C18.5438 11.6074 18.4529 10.3012 17.9347 9.13794C17.4165 7.97417 16.9294 7.41317 16.9294 7.41317L17.5799 7.32184H17.5793Z" fill="white"/>
<path d="M15.6555 7.42046C15.2859 7.42046 14.8417 7.37297 14.3081 7.25399C12.5732 6.86624 11.5902 5.60228 11.5458 4.60916C11.5251 4.15305 11.7261 3.81331 12.0819 3.70059C13.2093 3.34311 15.9268 3.80079 17.3984 6.50876L17.4423 6.58913L17.4074 6.67367C17.392 6.71125 17.0806 7.42046 15.655 7.42046H15.6555ZM12.8603 3.9897C12.5848 3.9897 12.3585 4.02258 12.2036 4.07164C11.9587 4.1494 11.9344 4.43068 11.9413 4.59142C11.9735 5.31838 12.7567 6.50667 14.3959 6.87303C16.2335 7.28374 16.8379 6.78587 16.996 6.5933C15.8147 4.50844 13.9544 3.9897 12.8609 3.9897H12.8603Z" fill="white"/>
<path d="M18.5295 7.42046C17.1033 7.42046 16.7924 6.71176 16.7771 6.67366L16.7422 6.58912L16.7861 6.50875C18.2577 3.80026 20.9757 3.34415 22.1025 3.70058C22.4584 3.81331 22.6593 4.15304 22.6387 4.60915C22.5943 5.60227 21.6113 6.86623 19.8768 7.25398C19.3433 7.37297 18.8991 7.42046 18.5295 7.42046ZM17.1895 6.5933C17.3471 6.78587 17.9515 7.28373 19.7896 6.87302C21.4283 6.50719 22.2114 5.31837 22.2437 4.59141C22.2511 4.43068 22.2263 4.14887 21.9814 4.07163C21.211 3.8274 18.668 3.98343 17.189 6.5933H17.1895Z" fill="white"/>
<path d="M20.375 20.1579L20.0269 20.5541L17.0002 24L13.6254 20.1579C12.7915 19.2085 12.7915 17.6648 13.6254 16.712C14.0431 16.2382 14.5894 16.0004 15.1388 16.0004C15.6881 16.0004 16.2344 16.2382 16.6521 16.712L17.0002 17.1083L17.3483 16.712C18.1821 15.7627 19.5381 15.7627 20.3735 16.712C21.2088 17.6648 21.2088 19.2085 20.3735 20.1579H20.375Z" fill="white"/>
</g>
<path d="M47.62 16.5C46.0467 16.5 44.6667 16.3066 43.48 15.92C42.2933 15.52 41.3733 14.96 40.72 14.24C40.08 13.5066 39.76 12.6666 39.76 11.72C39.76 10.7733 40.08 9.93997 40.72 9.21997C41.3733 8.48664 42.2933 7.92664 43.48 7.53997C44.6667 7.13997 46.0467 6.93997 47.62 6.93997C49.1933 6.93997 50.5733 7.13997 51.76 7.53997C52.9467 7.92664 53.86 8.48664 54.5 9.21997C55.1533 9.93997 55.48 10.7733 55.48 11.72C55.48 12.6666 55.1533 13.5066 54.5 14.24C53.86 14.96 52.9467 15.52 51.76 15.92C50.5733 16.3066 49.1933 16.5 47.62 16.5ZM47.62 9.95997C46.3533 9.95997 45.32 10.1133 44.52 10.42C43.72 10.7266 43.32 11.16 43.32 11.72C43.32 12.28 43.72 12.7133 44.52 13.02C45.32 13.3266 46.3533 13.48 47.62 13.48C48.8867 13.48 49.92 13.3266 50.72 13.02C51.52 12.7133 51.92 12.28 51.92 11.72C51.92 11.16 51.52 10.7266 50.72 10.42C49.92 10.1133 48.8867 9.95997 47.62 9.95997ZM56.26 20.64H49.36V24.48H45.88V20.64H38.98V17.52H56.26V20.64ZM63.9783 13.14C62.4049 13.14 61.1516 12.8666 60.2183 12.32C59.2849 11.7733 58.8183 10.9933 58.8183 9.97997C58.8183 8.96664 59.2849 8.18664 60.2183 7.63997C61.1516 7.0933 62.4049 6.81997 63.9783 6.81997C65.5516 6.81997 66.8049 7.0933 67.7383 7.63997C68.6716 8.18664 69.1383 8.96664 69.1383 9.97997C69.1383 10.9933 68.6716 11.7733 67.7383 12.32C66.8049 12.8666 65.5516 13.14 63.9783 13.14ZM71.3783 11.6H69.8183V8.59997H71.3783V6.99997H74.7583V16.24H71.3783V11.6ZM63.9783 9.11997C63.3649 9.11997 62.8849 9.1933 62.5383 9.33997C62.2049 9.48664 62.0383 9.69997 62.0383 9.97997C62.0383 10.26 62.2049 10.4733 62.5383 10.62C62.8849 10.7666 63.3649 10.84 63.9783 10.84C64.5916 10.84 65.0649 10.7666 65.3983 10.62C65.7449 10.4733 65.9183 10.26 65.9183 9.97997C65.9183 9.69997 65.7449 9.48664 65.3983 9.33997C65.0649 9.1933 64.5916 9.11997 63.9783 9.11997ZM74.9583 21.96V24.08H59.4983V19.56H71.4583V18.96H59.4583V16.84H62.2983V16.04H58.1183V13.62H65.9783C66.8049 13.62 67.6183 13.5666 68.4183 13.46C69.2316 13.3533 69.8916 13.2066 70.3983 13.02V15.42C69.4516 15.8333 67.9583 16.04 65.9183 16.04H65.6183V16.84H74.7583V21.36H62.7783V21.96H74.9583Z" fill="#6433F0"/>
</g>
<defs>
<filter id="filter0_d_2_2957" x="0" y="0.499969" width="81" height="39" filterUnits="userSpaceOnUse" color-interpolation-filters="sRGB">
<feFlood flood-opacity="0" result="BackgroundImageFix"/>
<feColorMatrix in="SourceAlpha" type="matrix" values="0 0 0 0 0 0 0 0 0 0 0 0 0 0 0 0 0 0 127 0" result="hardAlpha"/>
<feOffset dy="4"/>
<feGaussianBlur stdDeviation="2"/>
<feComposite in2="hardAlpha" operator="out"/>
<feColorMatrix type="matrix" values="0 0 0 0 0 0 0 0 0 0 0 0 0 0 0 0 0 0 0.25 0"/>
<feBlend mode="normal" in2="BackgroundImageFix" result="effect1_dropShadow_2_2957"/>
<feBlend mode="normal" in="SourceGraphic" in2="effect1_dropShadow_2_2957" result="shape"/>
</filter>
<linearGradient id="paint0_linear_2_2957" x1="4" y1="16.0002" x2="30" y2="16.0002" gradientUnits="userSpaceOnUse">
<stop stop-color="#6433F0"/>
<stop offset="0.85" stop-color="#23154E"/>
</linearGradient>
<linearGradient id="paint1_linear_2_2957" x1="4" y1="16.3807" x2="29.7906" y2="16.3807" gradientUnits="userSpaceOnUse">
<stop stop-color="#6433F0"/>
<stop offset="0.85" stop-color="#23154E"/>
</linearGradient>
<linearGradient id="paint2_linear_2_2957" x1="5.47424" y1="1.51847" x2="28.5336" y2="1.51847" gradientUnits="userSpaceOnUse">
<stop stop-color="#6433F0"/>
<stop offset="0.85" stop-color="#23154E"/>
</linearGradient>
<linearGradient id="paint3_linear_2_2957" x1="14.8805" y1="9.87" x2="17.0859" y2="9.87" gradientUnits="userSpaceOnUse">
<stop stop-color="#6433F0"/>
<stop offset="0.85" stop-color="#23154E"/>
</linearGradient>
<linearGradient id="paint4_linear_2_2957" x1="17.2028" y1="9.85971" x2="19.4428" y2="9.85971" gradientUnits="userSpaceOnUse">
<stop stop-color="#6433F0"/>
<stop offset="0.85" stop-color="#23154E"/>
</linearGradient>
<clipPath id="clip0_2_2957">
<rect width="26" height="31" fill="white" transform="translate(4 0.499969)"/>
</clipPath>
</defs>
</svg>
