<svg width="37" height="19" viewBox="0 0 37 19" fill="none" xmlns="http://www.w3.org/2000/svg">
<path d="M9.62 10.5C8.04667 10.5 6.66667 10.3066 5.48 9.91997C4.29333 9.51997 3.37333 8.95997 2.72 8.23997C2.08 7.50664 1.76 6.66664 1.76 5.71997C1.76 4.7733 2.08 3.93997 2.72 3.21997C3.37333 2.48664 4.29333 1.92664 5.48 1.53997C6.66667 1.13997 8.04667 0.939969 9.62 0.939969C11.1933 0.939969 12.5733 1.13997 13.76 1.53997C14.9467 1.92664 15.86 2.48664 16.5 3.21997C17.1533 3.93997 17.48 4.7733 17.48 5.71997C17.48 6.66664 17.1533 7.50664 16.5 8.23997C15.86 8.95997 14.9467 9.51997 13.76 9.91997C12.5733 10.3066 11.1933 10.5 9.62 10.5ZM9.62 3.95997C8.35333 3.95997 7.32 4.1133 6.52 4.41997C5.72 4.72664 5.32 5.15997 5.32 5.71997C5.32 6.27997 5.72 6.7133 6.52 7.01997C7.32 7.32664 8.35333 7.47997 9.62 7.47997C10.8867 7.47997 11.92 7.32664 12.72 7.01997C13.52 6.7133 13.92 6.27997 13.92 5.71997C13.92 5.15997 13.52 4.72664 12.72 4.41997C11.92 4.1133 10.8867 3.95997 9.62 3.95997ZM18.26 14.64H11.36V18.48H7.88V14.64H0.98V11.52H18.26V14.64ZM25.9783 7.13997C24.4049 7.13997 23.1516 6.86664 22.2183 6.31997C21.2849 5.7733 20.8183 4.9933 20.8183 3.97997C20.8183 2.96664 21.2849 2.18664 22.2183 1.63997C23.1516 1.0933 24.4049 0.819968 25.9783 0.819968C27.5516 0.819968 28.8049 1.0933 29.7383 1.63997C30.6716 2.18664 31.1383 2.96664 31.1383 3.97997C31.1383 4.9933 30.6716 5.7733 29.7383 6.31997C28.8049 6.86664 27.5516 7.13997 25.9783 7.13997ZM33.3783 5.59997H31.8183V2.59997H33.3783V0.999968H36.7583V10.24H33.3783V5.59997ZM25.9783 3.11997C25.3649 3.11997 24.8849 3.1933 24.5383 3.33997C24.2049 3.48664 24.0383 3.69997 24.0383 3.97997C24.0383 4.25997 24.2049 4.4733 24.5383 4.61997C24.8849 4.76664 25.3649 4.83997 25.9783 4.83997C26.5916 4.83997 27.0649 4.76664 27.3983 4.61997C27.7449 4.4733 27.9183 4.25997 27.9183 3.97997C27.9183 3.69997 27.7449 3.48664 27.3983 3.33997C27.0649 3.1933 26.5916 3.11997 25.9783 3.11997ZM36.9583 15.96V18.08H21.4983V13.56H33.4583V12.96H21.4583V10.84H24.2983V10.04H20.1183V7.61997H27.9783C28.8049 7.61997 29.6183 7.56664 30.4183 7.45997C31.2316 7.3533 31.8916 7.20664 32.3983 7.01997V9.41997C31.4516 9.8333 29.9583 10.04 27.9183 10.04H27.6183V10.84H36.7583V15.36H24.7783V15.96H36.9583Z" fill="#6433F0"/>
</svg>
