<svg width="26" height="32" viewBox="0 0 26 32" fill="none" xmlns="http://www.w3.org/2000/svg">
<g clip-path="url(#clip0_11_2705)">
<path d="M26 19.6066C26 20.3753 25.9291 21.1164 25.7906 21.8339C25.3755 23.9715 24.3676 25.8674 22.9367 27.4007C22.9339 27.4059 22.9313 27.4097 22.9288 27.4122C20.5413 29.9558 16.9799 31.5005 12.9997 31.5005C5.82196 31.5 0 26.4796 0 19.6066C0 17.7613 0.418801 15.9713 1.17391 14.3368C1.92479 12.7023 3.01198 11.228 4.344 10.0147C5.26885 9.18751 5.81456 8.42714 6.07102 7.73671C6.23283 7.31139 6.28465 6.90955 6.25663 6.53537C6.03559 3.8274 1.46263 2.46585 1.46263 2.46585C1.46263 2.46585 1.46633 2.46585 1.47426 2.45802C1.52978 2.41105 1.77884 2.22005 2.19341 1.99773C2.72696 1.71697 3.52543 1.39289 4.54123 1.28016C4.60839 1.27233 4.67185 1.26451 4.73477 1.26085C6.46973 1.11264 6.59664 1.70183 8.13382 1.75245C9.58852 1.79525 10.1892 0.718632 12.4657 0.531282C12.5762 0.511972 12.6989 0.499969 12.8374 0.499969C12.8929 0.499969 12.9442 0.503623 12.9997 0.503623C13.0553 0.503623 13.1066 0.499969 13.1615 0.499969C13.3001 0.499969 13.4222 0.511451 13.5333 0.531282C15.8097 0.718632 16.4109 1.79525 17.8651 1.75245C19.4578 1.70183 19.5371 1.06985 21.4582 1.28016C23.3079 1.48317 24.4501 2.39174 24.5331 2.46219L24.5368 2.46585C24.5368 2.46585 20.8295 3.5696 19.9322 5.76614H19.9279C19.829 6.00776 19.7661 6.26557 19.7423 6.53433C19.7148 6.90903 19.7661 7.31087 19.9242 7.73567C20.1849 8.4261 20.7264 9.18698 21.6555 10.0136C24.3195 12.4398 25.9995 15.9154 25.9995 19.6056L26 19.6066Z" fill="url(#paint0_linear_11_2705)"/>
<g style="mix-blend-mode:multiply" opacity="0.3">
<path d="M25.7906 21.8339C24.6838 27.5369 19.3753 31.5005 13.0003 31.5005C5.82196 31.5 0 26.4796 0 19.6066C0 17.7613 0.418801 15.9713 1.17391 14.3368C1.92479 12.7023 3.01198 11.228 4.344 10.0147C9.96026 5.00161 1.46263 2.46586 1.46263 2.46586C1.46263 2.46586 2.62068 1.49049 4.54176 1.28017C4.60892 1.27235 4.67238 1.26452 4.7353 1.26086C5.90921 3.38695 8.44264 5.11121 12.1145 5.29803C17.0434 5.55166 19.7984 5.75415 19.929 5.76615C19.7074 5.79329 11.2177 6.87407 6.49405 11.3251C1.70746 15.8304 5.88119 28.1846 15.8933 28.5316C20.6561 28.6955 23.8103 25.4072 25.7906 21.8339Z" fill="url(#paint1_linear_11_2705)"/>
</g>
<path opacity="0.3" d="M22.9288 27.4122C20.5413 29.9558 16.9799 31.5005 12.9997 31.5005C5.82196 31.5 0 26.4796 0 19.6066C0 17.7613 0.418801 15.9713 1.17391 14.3368C1.92479 12.7023 3.01198 11.228 4.344 10.0147C9.96026 5.00161 1.46263 2.46586 1.46263 2.46586C1.46263 2.46586 1.71962 2.25137 2.19394 1.99774C3.61268 2.59476 6.94088 4.17811 7.35227 6.07823C7.87789 8.50857 3.53389 10.5679 1.90946 14.0435C0.280787 17.5233 -1.41081 27.7509 11.7121 30.7C16.1941 31.7061 19.9411 30.0408 22.9299 27.4117L22.9288 27.4122Z" fill="#19236E"/>
<path d="M24.5336 2.46222C24.403 2.39177 21.4508 0.82773 19.4864 2.11518C17.4786 3.42976 14.4433 1.25044 13.2255 1.21913C12.0082 1.18782 11.6286 1.77179 9.20566 2.19711C6.78645 2.61826 7.00008 1.58079 5.37564 1.56148C3.81043 1.54582 1.64028 2.39646 1.47424 2.45857C1.52977 2.4116 1.77883 2.2206 2.1934 1.99828C2.72694 1.71751 3.52541 1.39343 4.54122 1.28071C4.60837 1.27288 4.67183 1.26506 4.73475 1.2614C6.46971 1.11319 6.59662 1.70238 8.13381 1.753C9.5885 1.79579 10.1892 0.719181 12.4656 0.531831C12.5762 0.512522 12.6988 0.500519 12.8374 0.500519C12.8929 0.500519 12.9442 0.504172 12.9997 0.504172C13.0552 0.504172 13.1065 0.500519 13.1615 0.500519C13.3001 0.500519 13.4222 0.512 13.5333 0.531831C15.8097 0.719181 16.4109 1.79579 17.8651 1.753C19.4578 1.70238 19.5371 1.0704 21.4582 1.28071C23.3079 1.48372 24.4501 2.39229 24.5331 2.46274L24.5336 2.46222Z" fill="url(#paint2_linear_11_2705)"/>
<path d="M6.07104 7.73619C6.23285 7.31087 6.28468 6.90903 6.25665 6.53485H19.7429C19.7154 6.90955 19.7667 7.31139 19.9248 7.73619H6.07104Z" fill="white"/>
<path d="M12.895 8.1495C13.6791 8.1495 14.3148 7.66188 14.3148 7.06036C14.3148 6.45885 13.6791 5.97122 12.895 5.97122C12.1109 5.97122 11.4752 6.45885 11.4752 7.06036C11.4752 7.66188 12.1109 8.1495 12.895 8.1495Z" fill="white"/>
<g style="mix-blend-mode:multiply" opacity="0.3">
<path d="M12.4291 7.6579C10.9311 9.20837 10.8533 11.8563 10.8856 12.0077C10.9178 12.159 12.0569 12.0327 12.0569 12.0327C12.0569 12.0327 11.9691 10.7265 12.3244 9.50479C12.6798 8.2831 13.0859 7.66207 13.0859 7.66207L12.4291 7.6579Z" fill="url(#paint3_linear_11_2705)"/>
</g>
<path d="M12.7279 7.32184C11.0321 8.65939 10.5948 11.2734 10.6059 11.4274C10.6176 11.5813 11.7634 11.6074 11.7634 11.6074C11.7634 11.6074 11.8544 10.3012 12.3726 9.13794C12.8908 7.97417 13.3778 7.41317 13.3778 7.41317L12.7274 7.32184H12.7279Z" fill="white"/>
<g style="mix-blend-mode:multiply" opacity="0.3">
<path d="M13.8595 7.65268C15.3703 9.19115 15.4697 11.8386 15.4385 11.9899C15.4073 12.1413 14.2672 12.0238 14.2672 12.0238C14.2672 12.0238 14.3439 10.7171 13.979 9.49801C13.6142 8.27945 13.2028 7.66155 13.2028 7.66155L13.8595 7.65216V7.65268Z" fill="url(#paint4_linear_11_2705)"/>
</g>
<path d="M13.5793 7.32184C15.2751 8.65939 15.7125 11.2734 15.7014 11.4274C15.6897 11.5813 14.5438 11.6074 14.5438 11.6074C14.5438 11.6074 14.4529 10.3012 13.9347 9.13794C13.4165 7.97417 12.9294 7.41317 12.9294 7.41317L13.5799 7.32184H13.5793Z" fill="white"/>
<path d="M11.6555 7.42046C11.2859 7.42046 10.8417 7.37297 10.3081 7.25399C8.57319 6.86624 7.59018 5.60228 7.54576 4.60916C7.52514 4.15305 7.72607 3.81331 8.08195 3.70059C9.20933 3.34311 11.9268 3.80079 13.3984 6.50876L13.4423 6.58913L13.4074 6.67367C13.392 6.71125 13.0806 7.42046 11.655 7.42046H11.6555ZM8.86033 3.9897C8.58483 3.9897 8.35851 4.02258 8.20357 4.07164C7.95874 4.1494 7.93442 4.43068 7.94129 4.59142C7.97355 5.31838 8.75668 6.50667 10.3959 6.87303C12.2335 7.28374 12.8379 6.78587 12.996 6.5933C11.8147 4.50844 9.95439 3.9897 8.86086 3.9897H8.86033Z" fill="white"/>
<path d="M14.5295 7.42046C13.1033 7.42046 12.7924 6.71176 12.7771 6.67366L12.7422 6.58912L12.7861 6.50875C14.2577 3.80026 16.9757 3.34415 18.1025 3.70058C18.4584 3.81331 18.6593 4.15304 18.6387 4.60915C18.5943 5.60227 17.6113 6.86623 15.8768 7.25398C15.3433 7.37297 14.8991 7.42046 14.5295 7.42046ZM13.1895 6.5933C13.3471 6.78587 13.9515 7.28373 15.7896 6.87302C17.4283 6.50719 18.2114 5.31837 18.2437 4.59141C18.2511 4.43068 18.2263 4.14887 17.9814 4.07163C17.211 3.8274 14.668 3.98343 13.189 6.5933H13.1895Z" fill="white"/>
<path d="M16.375 20.1579L16.0269 20.5541L13.0002 24L9.6254 20.1579C8.79153 19.2085 8.79153 17.6648 9.6254 16.712C10.0431 16.2382 10.5894 16.0004 11.1388 16.0004C11.6881 16.0004 12.2344 16.2382 12.6521 16.712L13.0002 17.1083L13.3483 16.712C14.1821 15.7627 15.5381 15.7627 16.3735 16.712C17.2088 17.6648 17.2088 19.2085 16.3735 20.1579H16.375Z" fill="white"/>
</g>
<defs>
<linearGradient id="paint0_linear_11_2705" x1="0" y1="16.0002" x2="26" y2="16.0002" gradientUnits="userSpaceOnUse">
<stop stop-color="#6433F0"/>
<stop offset="0.85" stop-color="#23154E"/>
</linearGradient>
<linearGradient id="paint1_linear_11_2705" x1="0" y1="16.3807" x2="25.7906" y2="16.3807" gradientUnits="userSpaceOnUse">
<stop stop-color="#6433F0"/>
<stop offset="0.85" stop-color="#23154E"/>
</linearGradient>
<linearGradient id="paint2_linear_11_2705" x1="1.47424" y1="1.51847" x2="24.5336" y2="1.51847" gradientUnits="userSpaceOnUse">
<stop stop-color="#6433F0"/>
<stop offset="0.85" stop-color="#23154E"/>
</linearGradient>
<linearGradient id="paint3_linear_11_2705" x1="10.8805" y1="9.87" x2="13.0859" y2="9.87" gradientUnits="userSpaceOnUse">
<stop stop-color="#6433F0"/>
<stop offset="0.85" stop-color="#23154E"/>
</linearGradient>
<linearGradient id="paint4_linear_11_2705" x1="13.2028" y1="9.85971" x2="15.4428" y2="9.85971" gradientUnits="userSpaceOnUse">
<stop stop-color="#6433F0"/>
<stop offset="0.85" stop-color="#23154E"/>
</linearGradient>
<clipPath id="clip0_11_2705">
<rect width="26" height="31" fill="white" transform="translate(0 0.499969)"/>
</clipPath>
</defs>
</svg>
