<svg width="25" height="24" viewBox="0 0 25 24" fill="none" xmlns="http://www.w3.org/2000/svg">
<path d="M12.5 23.1429C18.5 23.1429 22.7857 21.0204 22.7857 16.2963C22.7857 11.1613 20.2143 7.73802 15.0714 5.17054L17.0943 2.56883C17.1971 2.39813 17.2528 2.20333 17.2559 2.00419C17.2589 1.80504 17.2092 1.60863 17.1118 1.43486C17.0143 1.26108 16.8725 1.11612 16.7009 1.01467C16.5292 0.913223 16.3338 0.858889 16.1343 0.857178H8.86572C8.66626 0.858889 8.47079 0.913223 8.29913 1.01467C8.12747 1.11612 7.98573 1.26108 7.88827 1.43486C7.7908 1.60863 7.74108 1.80504 7.74415 2.00419C7.74721 2.20333 7.80296 2.39813 7.90572 2.56883L9.92858 5.18766C4.78572 7.77225 2.21429 11.1956 2.21429 16.3305C2.21429 21.0204 6.50001 23.1429 12.5 23.1429Z" fill="#7364FF" stroke="#7364FF" stroke-width="1.5" stroke-linecap="round" stroke-linejoin="round"/>
<path d="M14.8705 11.6668C14.789 11.4361 14.6632 11.2264 14.5033 11.0478C14.1633 10.6678 13.6691 10.4287 13.1191 10.4287H11.6816C10.766 10.4287 10.0238 11.1709 10.0238 12.0865C10.0238 12.8655 10.5663 13.5394 11.3273 13.7059L13.5159 14.1847C14.3685 14.3712 14.9762 15.1267 14.9762 15.9995C14.9762 17.0252 14.1447 17.8573 13.1191 17.8573H11.881C11.0723 17.8573 10.3844 17.3405 10.1295 16.6192" stroke="white" stroke-width="1.5" stroke-linecap="round" stroke-linejoin="round"/>
<path d="M12.5 10.4286V8.57141" stroke="white" stroke-width="1.5" stroke-linecap="round" stroke-linejoin="round"/>
<path d="M12.5 19.7143V17.8572" stroke="white" stroke-width="1.5" stroke-linecap="round" stroke-linejoin="round"/>
</svg>
