<svg width="340" height="116" viewBox="0 0 340 116" fill="none" xmlns="http://www.w3.org/2000/svg">
<g filter="url(#filter0_d_3_4856)">
<rect x="10" y="6" width="320" height="96" rx="2" fill="white"/>
<g clip-path="url(#clip0_3_4856)">
<g clip-path="url(#clip1_3_4856)">
<path d="M69.5617 40.9695H38.7125C37.7673 40.9695 37 41.747 37 42.7107V64.7214C37 65.6851 37.7673 66.4627 38.7125 66.4627H69.5635C70.5123 66.4627 71.2778 65.6833 71.2778 64.7214V42.7107C71.2778 41.747 70.5105 40.9695 69.5635 40.9695H69.5617ZM67.0694 41.7981C67.418 41.7981 67.7037 42.0883 67.7037 42.4424C67.7037 42.7965 67.418 43.0831 67.0694 43.0831C66.7208 43.0831 66.4387 42.7965 66.4387 42.4424C66.4387 42.0883 66.7208 41.7981 67.0694 41.7981ZM60.6059 41.7981C60.9545 41.7981 61.2367 42.0883 61.2367 42.4424C61.2367 42.7965 60.9545 43.0831 60.6059 43.0831C60.2573 43.0831 59.9716 42.7965 59.9716 42.4424C59.9716 42.0883 60.2573 41.7981 60.6059 41.7981ZM54.1407 41.7981C54.4893 41.7981 54.7714 42.0883 54.7714 42.4424C54.7714 42.7965 54.4893 43.0831 54.1407 43.0831C53.7921 43.0831 53.51 42.7965 53.51 42.4424C53.51 42.0883 53.7921 41.7981 54.1407 41.7981ZM47.6736 41.7981C48.0222 41.7981 48.3079 42.0883 48.3079 42.4424C48.3079 42.7965 48.0222 43.0831 47.6736 43.0831C47.325 43.0831 47.0429 42.7965 47.0429 42.4424C47.0429 42.0883 47.325 41.7981 47.6736 41.7981ZM41.2102 41.7981C41.5587 41.7981 41.8409 42.0883 41.8409 42.4424C41.8409 42.7965 41.5587 43.0831 41.2102 43.0831C40.8616 43.0831 40.5758 42.7965 40.5758 42.4424C40.5758 42.0883 40.858 41.7981 41.2102 41.7981Z" fill="#F1F1F1"/>
<path d="M69.5617 40.9695H38.7125C37.7673 40.9695 37 41.747 37 42.7107V43.8022H71.2778V42.7107C71.2778 41.747 70.5105 40.9695 69.5635 40.9695H69.5617ZM41.2102 43.0831C40.858 43.0831 40.5758 42.7965 40.5758 42.4424C40.5758 42.0883 40.858 41.7981 41.2102 41.7981C41.5623 41.7981 41.8409 42.0883 41.8409 42.4424C41.8409 42.7965 41.5587 43.0831 41.2102 43.0831ZM47.6736 43.0831C47.325 43.0831 47.0429 42.7965 47.0429 42.4424C47.0429 42.0883 47.325 41.7981 47.6736 41.7981C48.0222 41.7981 48.3079 42.0883 48.3079 42.4424C48.3079 42.7965 48.0222 43.0831 47.6736 43.0831ZM54.1407 43.0831C53.7921 43.0831 53.51 42.7965 53.51 42.4424C53.51 42.0883 53.7921 41.7981 54.1407 41.7981C54.4893 41.7981 54.7714 42.0883 54.7714 42.4424C54.7714 42.7965 54.4893 43.0831 54.1407 43.0831ZM60.6059 43.0831C60.2573 43.0831 59.9716 42.7965 59.9716 42.4424C59.9716 42.0883 60.2573 41.7981 60.6059 41.7981C60.9545 41.7981 61.2367 42.0883 61.2367 42.4424C61.2367 42.7965 60.9545 43.0831 60.6059 43.0831ZM67.0694 43.0831C66.7208 43.0831 66.4387 42.7965 66.4387 42.4424C66.4387 42.0883 66.7208 41.7981 67.0694 41.7981C67.418 41.7981 67.7037 42.0883 67.7037 42.4424C67.7037 42.7965 67.418 43.0831 67.0694 43.0831Z" fill="#7364FF"/>
<path d="M43.3341 46.7226V48.5807C43.3341 48.9951 43.0034 49.3345 42.5955 49.3345H40.7627C40.3548 49.3345 40.0242 48.9951 40.0242 48.5807V46.7226C40.0242 46.3083 40.3548 45.9724 40.7627 45.9724H42.5955C43.0034 45.9724 43.3341 46.3083 43.3341 46.7226Z" fill="#B9B9B9"/>
<path d="M48.8272 45.9724H46.9926C46.5847 45.9724 46.254 46.3083 46.254 46.7226V48.5862C46.254 49.0005 46.5847 49.3364 46.9926 49.3364H48.8272C49.2351 49.3364 49.5657 49.0005 49.5657 48.5862V46.7226C49.5657 46.3083 49.2351 45.9724 48.8272 45.9724Z" fill="#B9B9B9"/>
<path d="M55.0571 46.5036C55.1757 46.5036 55.2727 46.6022 55.2727 46.7226V48.5807C55.2727 48.7012 55.1739 48.8034 55.0571 48.8034H53.2242C53.1074 48.8034 53.0086 48.7012 53.0086 48.5807V46.7226C53.0086 46.6022 53.1057 46.5036 53.2242 46.5036H55.0571ZM55.0571 45.9724H53.2242C52.8163 45.9724 52.4857 46.3083 52.4857 46.7226V48.5807C52.4857 48.9951 52.8163 49.3345 53.2242 49.3345H55.0571C55.465 49.3345 55.7956 48.9951 55.7956 48.5807V46.7226C55.7956 46.3083 55.465 45.9724 55.0571 45.9724Z" fill="#B9B9B9"/>
<path d="M61.2887 45.9724H59.4541C59.0462 45.9724 58.7156 46.3083 58.7156 46.7226V48.5862C58.7156 49.0005 59.0462 49.3364 59.4541 49.3364H61.2887C61.6966 49.3364 62.0273 49.0005 62.0273 48.5862V46.7226C62.0273 46.3083 61.6966 45.9724 61.2887 45.9724Z" fill="#B9B9B9"/>
<path d="M61.2887 50.7528H59.4541C59.0462 50.7528 58.7156 51.0886 58.7156 51.503V53.3665C58.7156 53.7808 59.0462 54.1167 59.4541 54.1167H61.2887C61.6966 54.1167 62.0273 53.7808 62.0273 53.3665V51.503C62.0273 51.0886 61.6966 50.7528 61.2887 50.7528Z" fill="#B9B9B9"/>
<path d="M55.0553 60.3134H53.2207C52.8128 60.3134 52.4822 60.6493 52.4822 61.0636V62.9272C52.4822 63.3415 52.8128 63.6773 53.2207 63.6773H55.0553C55.4632 63.6773 55.7939 63.3415 55.7939 62.9272V61.0636C55.7939 60.6493 55.4632 60.3134 55.0553 60.3134Z" fill="#B9B9B9"/>
<path d="M42.7591 55.5331H40.9244C40.5166 55.5331 40.1859 55.8689 40.1859 56.2833V58.1468C40.1859 58.5611 40.5166 58.897 40.9244 58.897H42.7591C43.167 58.897 43.4976 58.5611 43.4976 58.1468V56.2833C43.4976 55.8689 43.167 55.5331 42.7591 55.5331Z" fill="#B9B9B9"/>
<path d="M55.0553 45.9724H53.2207C52.8128 45.9724 52.4822 46.3083 52.4822 46.7226V48.5862C52.4822 49.0005 52.8128 49.3364 53.2207 49.3364H55.0553C55.4632 49.3364 55.7939 49.0005 55.7939 48.5862V46.7226C55.7939 46.3083 55.4632 45.9724 55.0553 45.9724Z" fill="#B9B9B9"/>
<path d="M67.5204 45.9724H65.6858C65.2779 45.9724 64.9473 46.3083 64.9473 46.7226V48.5862C64.9473 49.0005 65.2779 49.3364 65.6858 49.3364H67.5204C67.9283 49.3364 68.259 49.0005 68.259 48.5862V46.7226C68.259 46.3083 67.9283 45.9724 67.5204 45.9724Z" fill="#B9B9B9"/>
<path d="M43.3341 51.503V53.3611C43.3341 53.7754 43.0034 54.1149 42.5955 54.1149H40.7627C40.3548 54.1149 40.0242 53.7754 40.0242 53.3611V51.503C40.0242 51.0886 40.3548 50.7528 40.7627 50.7528H42.5955C43.0034 50.7528 43.3341 51.0886 43.3341 51.503Z" fill="#B9B9B9"/>
<path d="M49.5658 51.503V53.3611C49.5658 53.7754 49.2351 54.1149 48.8272 54.1149H46.9944C46.5865 54.1149 46.2559 53.7754 46.2559 53.3611V51.503C46.2559 51.0886 46.5865 50.7528 46.9944 50.7528H48.8272C49.2351 50.7528 49.5658 51.0886 49.5658 51.503Z" fill="#B9B9B9"/>
<path d="M55.7956 51.503V53.3611C55.7956 53.7754 55.465 54.1149 55.0571 54.1149H53.2242C52.8163 54.1149 52.4857 53.7754 52.4857 53.3611V51.503C52.4857 51.0886 52.8163 50.7528 53.2242 50.7528H55.0571C55.465 50.7528 55.7956 51.0886 55.7956 51.503Z" fill="#B9B9B9"/>
<path d="M61.2888 51.2839C61.4074 51.2839 61.5044 51.3825 61.5044 51.503V53.3611C61.5044 53.4815 61.4056 53.5837 61.2888 53.5837H59.4559C59.3391 53.5837 59.2403 53.4815 59.2403 53.3611V51.503C59.2403 51.3825 59.3373 51.2839 59.4559 51.2839H61.2888ZM61.2888 50.7528H59.4559C59.048 50.7528 58.7174 51.0886 58.7174 51.503V53.3611C58.7174 53.7754 59.048 54.1149 59.4559 54.1149H61.2888C61.6967 54.1149 62.0273 53.7754 62.0273 53.3611V51.503C62.0273 51.0886 61.6967 50.7528 61.2888 50.7528Z" fill="#B9B9B9"/>
<path d="M68.2572 51.503V53.3611C68.2572 53.7754 67.9265 54.1149 67.5186 54.1149H65.6858C65.2779 54.1149 64.9473 53.7754 64.9473 53.3611V51.503C64.9473 51.0886 65.2779 50.7528 65.6858 50.7528H67.5186C67.9265 50.7528 68.2572 51.0886 68.2572 51.503Z" fill="#B9B9B9"/>
<path d="M42.5955 56.0642C42.7141 56.0642 42.8112 56.1628 42.8112 56.2833V58.1414C42.8112 58.2618 42.7123 58.364 42.5955 58.364H40.7627C40.6459 58.364 40.5471 58.2618 40.5471 58.1414V56.2833C40.5471 56.1628 40.6441 56.0642 40.7627 56.0642H42.5955ZM42.5955 55.5331H40.7627C40.3548 55.5331 40.0242 55.8689 40.0242 56.2833V58.1414C40.0242 58.5557 40.3548 58.8952 40.7627 58.8952H42.5955C43.0034 58.8952 43.3341 58.5557 43.3341 58.1414V56.2833C43.3341 55.8689 43.0034 55.5331 42.5955 55.5331Z" fill="#B9B9B9"/>
<path d="M49.5658 56.2833V58.1414C49.5658 58.5557 49.2351 58.8952 48.8272 58.8952H46.9944C46.5865 58.8952 46.2559 58.5557 46.2559 58.1414V56.2833C46.2559 55.8689 46.5865 55.5331 46.9944 55.5331H48.8272C49.2351 55.5331 49.5658 55.8689 49.5658 56.2833Z" fill="#B9B9B9"/>
<path d="M55.0571 55.5331H53.2224C52.8145 55.5331 52.4839 55.8689 52.4839 56.2833V58.1468C52.4839 58.5611 52.8145 58.897 53.2224 58.897H55.0571C55.4649 58.897 55.7956 58.5611 55.7956 58.1468V56.2833C55.7956 55.8689 55.4649 55.5331 55.0571 55.5331Z" fill="#B9B9B9"/>
<path d="M43.3341 61.0636V62.9217C43.3341 63.336 43.0034 63.6755 42.5955 63.6755H40.7627C40.3548 63.6755 40.0242 63.336 40.0242 62.9217V61.0636C40.0242 60.6493 40.3548 60.3134 40.7627 60.3134H42.5955C43.0034 60.3134 43.3341 60.6493 43.3341 61.0636Z" fill="#B9B9B9"/>
<path d="M48.8272 60.3134H46.9926C46.5847 60.3134 46.254 60.6493 46.254 61.0636V62.9272C46.254 63.3415 46.5847 63.6773 46.9926 63.6773H48.8272C49.2351 63.6773 49.5657 63.3415 49.5657 62.9272V61.0636C49.5657 60.6493 49.2351 60.3134 48.8272 60.3134Z" fill="#B9B9B9"/>
<path d="M62.0273 56.2833V58.1414C62.0273 58.5557 61.6967 58.8952 61.2888 58.8952H59.4559C59.048 58.8952 58.7174 58.5557 58.7174 58.1414V56.2833C58.7174 55.8689 59.048 55.5331 59.4559 55.5331H61.2888C61.6967 55.5331 62.0273 55.8689 62.0273 56.2833Z" fill="#B9B9B9"/>
<path d="M61.2887 60.3134H59.4541C59.0462 60.3134 58.7156 60.6493 58.7156 61.0636V62.9272C58.7156 63.3415 59.0462 63.6773 59.4541 63.6773H61.2887C61.6966 63.6773 62.0273 63.3415 62.0273 62.9272V61.0636C62.0273 60.6493 61.6966 60.3134 61.2887 60.3134Z" fill="#B9B9B9"/>
<path d="M68.2572 56.2833V58.1414C68.2572 58.5557 67.9265 58.8952 67.5186 58.8952H65.6858C65.2779 58.8952 64.9473 58.5557 64.9473 58.1414V56.2833C64.9473 55.8689 65.2779 55.5331 65.6858 55.5331H67.5186C67.9265 55.5331 68.2572 55.8689 68.2572 56.2833Z" fill="#B9B9B9"/>
<path d="M67.5204 60.3134H65.6858C65.2779 60.3134 64.9473 60.6493 64.9473 61.0636V62.9272C64.9473 63.3415 65.2779 63.6773 65.6858 63.6773H67.5204C67.9283 63.6773 68.259 63.3415 68.259 62.9272V61.0636C68.259 60.6493 67.9283 60.3134 67.5204 60.3134Z" fill="#B9B9B9"/>
<path d="M55.0571 60.8446C55.1757 60.8446 55.2727 60.9431 55.2727 61.0636V62.9217C55.2727 63.0422 55.1739 63.1444 55.0571 63.1444H53.2242C53.1074 63.1444 53.0086 63.0422 53.0086 62.9217V61.0636C53.0086 60.9431 53.1057 60.8446 53.2242 60.8446H55.0571ZM55.0571 60.3134H53.2242C52.8163 60.3134 52.4857 60.6493 52.4857 61.0636V62.9217C52.4857 63.336 52.8163 63.6755 53.2242 63.6755H55.0571C55.465 63.6755 55.7956 63.336 55.7956 62.9217V61.0636C55.7956 60.6493 55.465 60.3134 55.0571 60.3134Z" fill="#B9B9B9"/>
<path d="M41.8427 39C40.7753 39 39.9038 39.8852 39.9038 40.9694C39.9038 41.5645 40.1644 42.0956 40.5759 42.457C40.8652 42.7126 41.2245 42.8787 41.6217 42.9243C41.7582 42.8111 41.8409 42.6377 41.8409 42.4424C41.8409 42.3676 41.8265 42.2946 41.8031 42.227C41.4725 42.2197 41.176 42.0792 40.9568 41.851C40.7376 41.6247 40.601 41.3126 40.601 40.9694C40.601 40.2758 41.158 39.7082 41.8427 39.7082C42.5273 39.7082 43.0843 40.274 43.0843 40.9694H43.7815C43.7815 39.8852 42.91 39 41.8427 39Z" fill="#243239"/>
<path d="M48.3079 39C47.2405 39 46.369 39.8852 46.369 40.9694C46.369 41.5645 46.6314 42.0956 47.0411 42.457C47.3304 42.7126 47.6897 42.8787 48.0869 42.9243C48.2234 42.8111 48.3061 42.6377 48.3061 42.4424C48.3061 42.3676 48.2917 42.2946 48.2683 42.227C47.9377 42.2197 47.6412 42.0792 47.422 41.851C47.2028 41.6247 47.0662 41.3126 47.0662 40.9694C47.0662 40.2758 47.6233 39.7082 48.3079 39.7082C48.9925 39.7082 49.5495 40.274 49.5495 40.9694H50.2467C50.2467 39.8852 49.3752 39 48.3079 39Z" fill="#243239"/>
<path d="M54.7732 39C53.7059 39 52.8344 39.8852 52.8344 40.9694C52.8344 41.5645 53.0949 42.0956 53.5064 42.457C53.7957 42.7126 54.1551 42.8787 54.5522 42.9243C54.6888 42.8111 54.7714 42.6377 54.7714 42.4424C54.7714 42.3676 54.757 42.2946 54.7337 42.227C54.403 42.2197 54.1066 42.0792 53.8873 41.851C53.6681 41.6247 53.5315 41.3126 53.5315 40.9694C53.5315 40.2758 54.0886 39.7082 54.7732 39.7082C55.4578 39.7082 56.0149 40.274 56.0149 40.9694H56.7121C56.7121 39.8852 55.8406 39 54.7732 39Z" fill="#243239"/>
<path d="M61.2384 39C60.1711 39 59.2996 39.8852 59.2996 40.9694C59.2996 41.5645 59.5601 42.0956 59.9716 42.457C60.2609 42.7126 60.6203 42.8787 61.0174 42.9243C61.154 42.8111 61.2366 42.6377 61.2366 42.4424C61.2366 42.3676 61.2222 42.2946 61.1989 42.227C60.8683 42.2197 60.5718 42.0792 60.3525 41.851C60.1333 41.6247 59.9968 41.3126 59.9968 40.9694C59.9968 40.2758 60.5538 39.7082 61.2384 39.7082C61.923 39.7082 62.4801 40.274 62.4801 40.9694H63.1773C63.1773 39.8852 62.3058 39 61.2384 39Z" fill="#243239"/>
<path d="M67.7038 39C66.6364 39 65.7649 39.8852 65.7649 40.9694C65.7649 41.5645 66.0254 42.0956 66.4369 42.457C66.7262 42.7126 67.0856 42.8787 67.4827 42.9243C67.6193 42.8111 67.702 42.6377 67.702 42.4424C67.702 42.3676 67.6876 42.2946 67.6642 42.227C67.3336 42.2197 67.0371 42.0792 66.8179 41.851C66.5987 41.6247 66.4621 41.3126 66.4621 40.9694C66.4621 40.2758 67.0191 39.7082 67.7038 39.7082C68.3884 39.7082 68.9454 40.274 68.9454 40.9694H69.6426C69.6426 39.8852 68.7711 39 67.7038 39Z" fill="#243239"/>
<path d="M72.6592 63.7261C73.5998 59.4093 70.9171 55.1352 66.6673 54.1798C62.4175 53.2243 58.2098 55.9493 57.2692 60.2661C56.3286 64.583 59.0112 68.8571 63.261 69.8125C67.5109 70.768 71.7186 68.043 72.6592 63.7261Z" fill="#7364FF"/>
<path d="M68.9691 62.8487L68.5558 63.2685L64.962 66.919L60.9549 62.8487C59.9648 61.843 59.9648 60.2076 60.9549 59.1982C61.4508 58.6962 62.0995 58.4444 62.7518 58.4444C63.404 58.4444 64.0527 58.6962 64.5487 59.1982L64.962 59.618L65.3752 59.1982C66.3653 58.1925 67.9754 58.1925 68.9673 59.1982C69.9591 60.2076 69.9591 61.843 68.9673 62.8487H68.9691Z" fill="white"/>
</g>
</g>
</g>
<defs>
<filter id="filter0_d_3_4856" x="0" y="0" width="340" height="116" filterUnits="userSpaceOnUse" color-interpolation-filters="sRGB">
<feFlood flood-opacity="0" result="BackgroundImageFix"/>
<feColorMatrix in="SourceAlpha" type="matrix" values="0 0 0 0 0 0 0 0 0 0 0 0 0 0 0 0 0 0 127 0" result="hardAlpha"/>
<feOffset dy="4"/>
<feGaussianBlur stdDeviation="5"/>
<feComposite in2="hardAlpha" operator="out"/>
<feColorMatrix type="matrix" values="0 0 0 0 0 0 0 0 0 0 0 0 0 0 0 0 0 0 0.08 0"/>
<feBlend mode="normal" in2="BackgroundImageFix" result="effect1_dropShadow_3_4856"/>
<feBlend mode="normal" in="SourceGraphic" in2="effect1_dropShadow_3_4856" result="shape"/>
</filter>
<clipPath id="clip0_3_4856">
<rect width="40" height="40" fill="white" transform="translate(34 34)"/>
</clipPath>
<clipPath id="clip1_3_4856">
<rect width="41" height="31" fill="white" transform="translate(37 39)"/>
</clipPath>
</defs>
</svg>
