<svg width="86" height="100" viewBox="0 0 86 100" fill="none" xmlns="http://www.w3.org/2000/svg">
<g clip-path="url(#clip0_12_2555)">
<rect width="85.29" height="99.77" transform="translate(0.35498 0.11499)" fill="white"/>
<path d="M85.645 61.6075C85.645 64.0815 85.4125 66.4665 84.9581 68.7759C83.5964 75.6555 80.2902 81.7574 75.5963 86.6919C75.587 86.7087 75.5783 86.7211 75.5703 86.7289C67.7384 94.9151 56.0557 99.8867 42.9991 99.8867C19.4533 99.885 0.35498 83.7275 0.35498 61.6075C0.35498 55.6685 1.72881 49.9076 4.20586 44.6472C6.66903 39.3868 10.2354 34.642 14.605 30.737C17.6388 28.0748 19.429 25.6277 20.2703 23.4056C20.8011 22.0368 20.9711 20.7435 20.8791 19.5393C20.154 10.8239 5.15297 6.44194 5.15297 6.44194C5.15297 6.44194 5.16511 6.44194 5.19113 6.41675C5.37326 6.26559 6.19027 5.65086 7.55022 4.93537C9.30047 4.03175 11.9198 2.98874 15.252 2.62595C15.4723 2.60076 15.6804 2.57556 15.8869 2.56381C21.5782 2.08681 21.9945 3.98305 27.0371 4.14597C31.809 4.28369 33.7796 0.818731 41.2471 0.215765C41.6097 0.15362 42.0121 0.11499 42.4666 0.11499C42.6487 0.11499 42.817 0.126747 42.9991 0.126747C43.1812 0.126747 43.3495 0.11499 43.5299 0.11499C43.9844 0.11499 44.3851 0.151941 44.7494 0.215765C52.2169 0.818731 54.1892 4.28369 58.9594 4.14597C64.1841 3.98305 64.4443 1.94908 70.7462 2.62595C76.814 3.27931 80.5608 6.20344 80.8331 6.43018L80.8453 6.44194C80.8453 6.44194 68.6838 9.99424 65.7401 17.0636H65.7262C65.4019 17.8412 65.1954 18.6709 65.1174 19.5359C65.0272 20.7418 65.1954 22.0351 65.7141 23.4023C66.5693 25.6243 68.3455 28.0732 71.3933 30.7336C80.1323 38.5419 85.6432 49.7279 85.6432 61.6042L85.645 61.6075Z" fill="url(#paint0_linear_12_2555)"/>
<g style="mix-blend-mode:multiply" opacity="0.3">
<path d="M84.9581 68.7759C81.3275 87.1303 63.9135 99.8866 43.0009 99.8866C19.4533 99.885 0.35498 83.7275 0.35498 61.6075C0.35498 55.6685 1.72881 49.9076 4.20586 44.6472C6.66903 39.3867 10.2354 34.6419 14.605 30.7369C33.0285 14.603 5.15297 6.44192 5.15297 6.44192C5.15297 6.44192 8.95181 3.30279 15.2537 2.62593C15.474 2.60073 15.6822 2.57554 15.8886 2.56378C19.7395 9.40636 28.0501 14.9557 40.0953 15.557C56.2638 16.3732 65.3013 17.0249 65.7297 17.0635C65.0029 17.1509 37.1534 20.6293 21.658 34.9543C5.9561 49.4541 19.6475 89.2146 52.491 90.3315C68.1148 90.8589 78.4619 80.2759 84.9581 68.7759Z" fill="url(#paint1_linear_12_2555)"/>
</g>
<path opacity="0.3" d="M75.5703 86.7289C67.7384 94.9151 56.0557 99.8867 42.9991 99.8867C19.4533 99.885 0.35498 83.7275 0.35498 61.6075C0.35498 55.6685 1.72881 49.9076 4.20586 44.6472C6.66903 39.3868 10.2354 34.642 14.605 30.737C33.0285 14.603 5.15297 6.44194 5.15297 6.44194C5.15297 6.44194 5.996 5.75164 7.55196 4.93536C12.206 6.8568 23.1237 11.9526 24.4733 18.0679C26.1975 25.8897 11.9475 32.5173 6.61873 43.7033C1.27607 54.9027 -4.27301 87.8189 38.7753 97.3102C53.478 100.548 65.7696 95.1889 75.5737 86.7272L75.5703 86.7289Z" fill="#19236E"/>
<path d="M80.8349 6.43009C80.4064 6.20335 70.722 1.16967 64.2779 5.31318C57.6915 9.54402 47.7347 2.53012 43.7398 2.42935C39.7467 2.32857 38.5013 4.20802 30.5532 5.57687C22.6173 6.93228 23.318 3.59329 17.9893 3.53115C12.8548 3.48076 5.73584 6.21847 5.19116 6.41833C5.3733 6.26717 6.19031 5.65245 7.55026 4.93695C9.3005 4.03334 11.9198 2.99033 15.252 2.62754C15.4723 2.60234 15.6805 2.57715 15.8869 2.56539C21.5782 2.0884 21.9945 3.98463 27.0371 4.14755C31.8091 4.28528 33.7796 0.820318 41.2472 0.217352C41.6097 0.155207 42.0121 0.116577 42.4666 0.116577C42.6488 0.116577 42.817 0.128334 42.9991 0.128334C43.1813 0.128334 43.3495 0.116577 43.5299 0.116577C43.9844 0.116577 44.3851 0.153528 44.7494 0.217352C52.217 0.820318 54.1892 4.28528 58.9595 4.14755C64.1842 3.98463 64.4444 1.95067 70.7463 2.62754C76.814 3.28089 80.5608 6.20503 80.8332 6.43177L80.8349 6.43009Z" fill="url(#paint2_linear_12_2555)"/>
<path d="M20.2703 23.404C20.8011 22.0351 20.9711 20.7419 20.8791 19.5376H65.1191C65.0289 20.7435 65.1972 22.0368 65.7158 23.404H20.2703Z" fill="white"/>
<path d="M42.6557 24.7342C45.2279 24.7342 47.3131 23.1648 47.3131 21.2289C47.3131 19.293 45.2279 17.7236 42.6557 17.7236C40.0834 17.7236 37.9982 19.293 37.9982 21.2289C37.9982 23.1648 40.0834 24.7342 42.6557 24.7342Z" fill="white"/>
<g style="mix-blend-mode:multiply" opacity="0.3">
<path d="M41.1275 23.152C36.2132 28.142 35.9583 36.6642 36.0641 37.1513C36.1699 37.6384 39.9063 37.2319 39.9063 37.2319C39.9063 37.2319 39.6183 33.0279 40.784 29.096C41.9497 25.1642 43.2819 23.1655 43.2819 23.1655L41.1275 23.152Z" fill="url(#paint3_linear_12_2555)"/>
</g>
<path d="M42.1075 22.0704C36.5445 26.3751 35.11 34.7881 35.1464 35.2836C35.1846 35.779 38.9435 35.863 38.9435 35.863C38.9435 35.863 39.2419 31.6591 40.9418 27.9153C42.6418 24.1698 44.2394 22.3643 44.2394 22.3643L42.1058 22.0704H42.1075Z" fill="white"/>
<g style="mix-blend-mode:multiply" opacity="0.3">
<path d="M45.8196 23.1352C50.7754 28.0866 51.1015 36.6071 50.9992 37.0942C50.8968 37.5812 47.157 37.2033 47.157 37.2033C47.157 37.2033 47.4085 32.9977 46.2116 29.0742C45.0147 25.1524 43.6652 23.1638 43.6652 23.1638L45.8196 23.1335V23.1352Z" fill="url(#paint4_linear_12_2555)"/>
</g>
<path d="M44.9003 22.0704C50.4632 26.3751 51.8978 34.7881 51.8614 35.2836C51.8232 35.779 48.0643 35.863 48.0643 35.863C48.0643 35.863 47.7659 31.6591 46.066 27.9153C44.366 24.1698 42.7684 22.3643 42.7684 22.3643L44.902 22.0704H44.9003Z" fill="white"/>
<path d="M38.5897 22.3878C37.3772 22.3878 35.9201 22.235 34.1698 21.852C28.4785 20.6041 25.2538 16.5362 25.1081 13.34C25.0405 11.872 25.6996 10.7786 26.8671 10.4158C30.5653 9.26532 39.4795 10.7383 44.307 19.4536L44.451 19.7123L44.3365 19.9844C44.2862 20.1053 43.2645 22.3878 38.5879 22.3878H38.5897ZM29.4204 11.3463C28.5167 11.3463 27.7743 11.4521 27.266 11.61C26.4629 11.8603 26.3831 12.7655 26.4056 13.2829C26.5115 15.6225 29.0804 19.4469 34.4578 20.626C40.4856 21.9478 42.4683 20.3455 42.987 19.7257C39.1118 13.0158 33.0094 11.3463 29.4222 11.3463H29.4204Z" fill="white"/>
<path d="M48.0173 22.3878C43.339 22.3878 42.3191 20.107 42.2688 19.9843L42.1543 19.7123L42.2983 19.4536C47.1257 10.7366 56.0417 9.26867 59.7382 10.4158C60.9056 10.7786 61.5648 11.872 61.4972 13.34C61.3514 16.5362 58.1268 20.6041 52.4372 21.852C50.6869 22.235 49.2298 22.3878 48.0173 22.3878ZM43.6218 19.7257C44.1387 20.3455 46.1214 21.9478 52.151 20.6259C57.5266 19.4486 60.0956 15.6225 60.2014 13.2829C60.2257 12.7655 60.1441 11.8586 59.341 11.61C56.8136 10.824 48.4718 11.3262 43.6201 19.7257H43.6218Z" fill="white"/>
<path d="M54.0712 63.3817L52.9294 64.657L43.0006 75.7472L31.93 63.3817C29.1946 60.3263 29.1946 55.358 31.93 52.2916C33.3001 50.7667 35.0923 50.0014 36.8944 50.0014C38.6964 50.0014 40.4886 50.7667 41.8588 52.2916L43.0006 53.5669L44.1424 52.2916C46.8778 49.2362 51.3259 49.2362 54.0662 52.2916C56.8066 55.358 56.8066 60.3263 54.0662 63.3817H54.0712Z" fill="white"/>
</g>
<defs>
<linearGradient id="paint0_linear_12_2555" x1="85.645" y1="54.7519" x2="0.351043" y2="54.0282" gradientUnits="userSpaceOnUse">
<stop stop-color="#6433F0"/>
<stop offset="1" stop-color="#7151CB"/>
</linearGradient>
<linearGradient id="paint1_linear_12_2555" x1="84.9581" y1="55.8596" x2="0.351282" y2="55.1297" gradientUnits="userSpaceOnUse">
<stop stop-color="#6433F0"/>
<stop offset="1" stop-color="#7151CB"/>
</linearGradient>
<linearGradient id="paint2_linear_12_2555" x1="5.19116" y1="3.39273" x2="80.8349" y2="3.39273" gradientUnits="userSpaceOnUse">
<stop stop-color="#6433F0"/>
<stop offset="0.85" stop-color="#23154E"/>
</linearGradient>
<linearGradient id="paint3_linear_12_2555" x1="43.2819" y1="30.9495" x2="36.0467" y2="30.913" gradientUnits="userSpaceOnUse">
<stop stop-color="#6433F0"/>
<stop offset="1" stop-color="#7151CB"/>
</linearGradient>
<linearGradient id="paint4_linear_12_2555" x1="51.0134" y1="30.915" x2="43.6645" y2="30.8772" gradientUnits="userSpaceOnUse">
<stop stop-color="#6433F0"/>
<stop offset="1" stop-color="#7151CB"/>
</linearGradient>
<clipPath id="clip0_12_2555">
<rect width="85.29" height="99.77" fill="white" transform="translate(0.35498 0.11499)"/>
</clipPath>
</defs>
</svg>
