<svg width="336" height="60" viewBox="0 0 336 60" fill="none" xmlns="http://www.w3.org/2000/svg">
<path d="M156.044 14.4C154.156 14.4 152.5 14.168 151.076 13.704C149.652 13.224 148.548 12.552 147.764 11.688C146.996 10.808 146.612 9.8 146.612 8.664C146.612 7.528 146.996 6.528 147.764 5.664C148.548 4.784 149.652 4.112 151.076 3.648C152.5 3.168 154.156 2.928 156.044 2.928C157.932 2.928 159.588 3.168 161.012 3.648C162.436 4.112 163.532 4.784 164.3 5.664C165.084 6.528 165.476 7.528 165.476 8.664C165.476 9.8 165.084 10.808 164.3 11.688C163.532 12.552 162.436 13.224 161.012 13.704C159.588 14.168 157.932 14.4 156.044 14.4ZM156.044 6.552C154.524 6.552 153.284 6.736 152.324 7.104C151.364 7.472 150.884 7.992 150.884 8.664C150.884 9.336 151.364 9.856 152.324 10.224C153.284 10.592 154.524 10.776 156.044 10.776C157.564 10.776 158.804 10.592 159.764 10.224C160.724 9.856 161.204 9.336 161.204 8.664C161.204 7.992 160.724 7.472 159.764 7.104C158.804 6.736 157.564 6.552 156.044 6.552ZM166.412 19.368H158.132V23.976H153.956V19.368H145.676V15.624H166.412V19.368ZM175.674 10.368C173.786 10.368 172.282 10.04 171.162 9.384C170.042 8.728 169.482 7.792 169.482 6.576C169.482 5.36 170.042 4.424 171.162 3.768C172.282 3.112 173.786 2.784 175.674 2.784C177.562 2.784 179.066 3.112 180.186 3.768C181.306 4.424 181.866 5.36 181.866 6.576C181.866 7.792 181.306 8.728 180.186 9.384C179.066 10.04 177.562 10.368 175.674 10.368ZM184.554 8.52H182.682V4.92H184.554V3H188.61V14.088H184.554V8.52ZM175.674 5.544C174.938 5.544 174.362 5.632 173.946 5.808C173.546 5.984 173.346 6.24 173.346 6.576C173.346 6.912 173.546 7.168 173.946 7.344C174.362 7.52 174.938 7.608 175.674 7.608C176.41 7.608 176.978 7.52 177.378 7.344C177.794 7.168 178.002 6.912 178.002 6.576C178.002 6.24 177.794 5.984 177.378 5.808C176.978 5.632 176.41 5.544 175.674 5.544ZM188.85 20.952V23.496H170.298V18.072H184.65V17.352H170.25V14.808H173.658V13.848H168.642V10.944H178.074C179.066 10.944 180.042 10.88 181.002 10.752C181.978 10.624 182.77 10.448 183.378 10.224V13.104C182.242 13.6 180.45 13.848 178.002 13.848H177.642V14.808H188.61V20.232H174.234V20.952H188.85Z" fill="#6433F0"/>
<path d="M122.178 50.8203H115.147V56.7383H112.998V50.8203H106.045V49.0234H122.178V50.8203ZM114.073 39.707C115.316 39.7135 116.42 39.8796 117.383 40.2051C118.347 40.5306 119.095 40.9928 119.629 41.5918C120.17 42.1842 120.44 42.8776 120.44 43.6719C120.44 44.4596 120.17 45.1497 119.629 45.7422C119.095 46.3281 118.347 46.7806 117.383 47.0996C116.42 47.4186 115.316 47.5781 114.073 47.5781C112.823 47.5781 111.716 47.4186 110.752 47.0996C109.795 46.7806 109.053 46.3281 108.526 45.7422C107.998 45.1497 107.738 44.4596 107.745 43.6719C107.738 42.8776 107.998 42.1842 108.526 41.5918C109.053 40.9928 109.795 40.5306 110.752 40.2051C111.716 39.8796 112.823 39.7135 114.073 39.707ZM114.073 41.4648C113.239 41.4648 112.513 41.5527 111.895 41.7285C111.276 41.9043 110.798 42.1582 110.459 42.4902C110.127 42.8223 109.965 43.2161 109.971 43.6719C109.965 44.1211 110.127 44.5117 110.459 44.8438C110.798 45.1693 111.276 45.4199 111.895 45.5957C112.513 45.7715 113.239 45.8594 114.073 45.8594C114.906 45.8594 115.632 45.7715 116.25 45.5957C116.869 45.4199 117.347 45.1693 117.686 44.8438C118.024 44.5117 118.194 44.1211 118.194 43.6719C118.194 43.2161 118.024 42.8223 117.686 42.4902C117.347 42.1582 116.869 41.9043 116.25 41.7285C115.632 41.5527 114.906 41.4648 114.073 41.4648ZM137.957 56.7578H135.809V39.082H137.957V56.7578ZM132.527 47.2461H126.453V50.8008C127.944 50.7878 129.311 50.7357 130.555 50.6445C131.805 50.5534 133.081 50.3971 134.383 50.1758L134.578 51.9531C133.178 52.2005 131.801 52.3665 130.447 52.4512C129.093 52.5358 127.534 52.5781 125.77 52.5781H124.227V45.5273H130.32V42.3828H124.207V40.625H132.527V47.2461ZM146.158 40.3125C147.076 40.306 147.903 40.485 148.638 40.8496C149.38 41.2077 149.96 41.7122 150.377 42.3633C150.8 43.0143 151.015 43.75 151.021 44.5703C151.015 45.3971 150.8 46.1361 150.377 46.7871C149.96 47.4382 149.384 47.946 148.648 48.3105C147.912 48.6686 147.082 48.8477 146.158 48.8477C145.24 48.8477 144.413 48.6654 143.677 48.3008C142.942 47.9362 142.362 47.4316 141.939 46.7871C141.522 46.1361 141.314 45.3971 141.314 44.5703C141.314 43.75 141.522 43.0143 141.939 42.3633C142.362 41.7122 142.942 41.2077 143.677 40.8496C144.42 40.485 145.246 40.306 146.158 40.3125ZM146.158 42.1875C145.643 42.1875 145.181 42.2852 144.771 42.4805C144.361 42.6758 144.039 42.9557 143.804 43.3203C143.576 43.6784 143.462 44.0951 143.462 44.5703C143.462 45.0521 143.576 45.4753 143.804 45.8398C144.039 46.1979 144.361 46.4746 144.771 46.6699C145.181 46.8587 145.643 46.9531 146.158 46.9531C146.679 46.9531 147.144 46.8587 147.554 46.6699C147.971 46.4746 148.296 46.1979 148.531 45.8398C148.772 45.4753 148.892 45.0521 148.892 44.5703C148.892 44.0951 148.772 43.6784 148.531 43.3203C148.296 42.9557 147.971 42.6758 147.554 42.4805C147.144 42.2852 146.679 42.1875 146.158 42.1875ZM155.142 56.7578H152.974V39.082H155.142V56.7578ZM140.513 51.2891C142.675 51.2891 144.693 51.2533 146.568 51.1816C148.449 51.1035 150.233 50.944 151.92 50.7031L152.095 52.2852C150.351 52.6237 148.576 52.8385 146.773 52.9297C144.976 53.0208 142.981 53.0664 140.787 53.0664L140.513 51.2891ZM166.72 40.1172C167.462 40.1237 168.126 40.2702 168.712 40.5566C169.304 40.8366 169.766 41.2305 170.098 41.7383C170.437 42.2396 170.606 42.8125 170.606 43.457C170.606 44.1016 170.437 44.6745 170.098 45.1758C169.766 45.6706 169.304 46.0579 168.712 46.3379C168.126 46.6113 167.462 46.7448 166.72 46.7383C165.964 46.7448 165.287 46.6113 164.688 46.3379C164.096 46.0579 163.63 45.6706 163.292 45.1758C162.96 44.6745 162.794 44.1016 162.794 43.457C162.794 42.8125 162.96 42.2396 163.292 41.7383C163.63 41.2305 164.096 40.8366 164.688 40.5566C165.287 40.2702 165.964 40.1237 166.72 40.1172ZM166.72 41.7578C166.329 41.7513 165.981 41.8197 165.675 41.9629C165.375 42.0996 165.141 42.2982 164.971 42.5586C164.809 42.819 164.727 43.1185 164.727 43.457C164.727 43.9648 164.91 44.3717 165.274 44.6777C165.639 44.9837 166.121 45.1367 166.72 45.1367C167.299 45.1367 167.771 44.9837 168.136 44.6777C168.5 44.3717 168.686 43.9648 168.692 43.457C168.686 43.1185 168.598 42.819 168.429 42.5586C168.259 42.2982 168.025 42.0996 167.725 41.9629C167.432 41.8197 167.097 41.7513 166.72 41.7578ZM177.618 56.7383H175.567V39.082H177.618V56.7383ZM174.102 55.8594H172.071V52.168H169.083V50.5078H172.071V39.4141H174.102V55.8594ZM162.012 47.832C163.764 47.832 165.404 47.806 166.934 47.7539C168.464 47.6953 169.851 47.5716 171.095 47.3828L171.251 49.0039C170.177 49.2122 168.985 49.362 167.677 49.4531V55.3125H165.626V49.5703C164.636 49.6094 163.516 49.6289 162.266 49.6289L162.012 47.832ZM194.159 49.7461H191.971V39.082H194.159V49.7461ZM188.885 42.1875H182.635V46.6797H182.967C184.64 46.6797 186.034 46.6374 187.147 46.5527C188.267 46.4681 189.367 46.3151 190.448 46.0938L190.643 47.8711C189.458 48.099 188.244 48.252 187 48.3301C185.757 48.4017 184.087 48.4375 181.991 48.4375H180.487V40.4297H188.885V42.1875ZM188.182 49.8633C189.406 49.8568 190.47 49.9902 191.375 50.2637C192.28 50.5371 192.977 50.9342 193.465 51.4551C193.954 51.9694 194.198 52.5846 194.198 53.3008C194.198 54.0169 193.954 54.6322 193.465 55.1465C192.977 55.6608 192.28 56.0547 191.375 56.3281C190.47 56.6016 189.406 56.7383 188.182 56.7383C186.939 56.7383 185.864 56.6016 184.959 56.3281C184.054 56.0547 183.358 55.6608 182.87 55.1465C182.388 54.6322 182.147 54.0169 182.147 53.3008C182.147 52.5846 182.388 51.9694 182.87 51.4551C183.358 50.9342 184.054 50.5371 184.959 50.2637C185.864 49.9902 186.939 49.8568 188.182 49.8633ZM188.182 51.5625C186.932 51.5625 185.978 51.709 185.321 52.002C184.663 52.2949 184.334 52.7279 184.334 53.3008C184.334 53.8542 184.663 54.2806 185.321 54.5801C185.985 54.873 186.939 55.0195 188.182 55.0195C189.419 55.0195 190.373 54.873 191.043 54.5801C191.72 54.2806 192.062 53.8542 192.069 53.3008C192.062 52.7279 191.724 52.2949 191.053 52.002C190.383 51.709 189.426 51.5625 188.182 51.5625ZM211.441 49.3945H209.254V48.6719H205.953V47.3438H209.254V39.1016H211.441V49.3945ZM196.617 45.4688C198.811 45.4688 200.846 45.4427 202.721 45.3906C204.596 45.3385 206.383 45.2279 208.082 45.0586L208.199 46.4258C206.708 46.6341 205.074 46.7806 203.297 46.8652V49.4141H201.148V46.9531C200.38 46.9792 199.267 46.9922 197.809 46.9922H196.852L196.617 45.4688ZM211.441 53.9062H201.402V55.0391H211.91V56.582H199.273V52.4805H209.293V51.4258H199.195V49.9414H211.441V53.9062ZM202.32 39.375C203.186 39.375 203.951 39.4857 204.615 39.707C205.286 39.9284 205.807 40.2409 206.178 40.6445C206.549 41.0417 206.734 41.5039 206.734 42.0312C206.734 42.5716 206.549 43.0404 206.178 43.4375C205.807 43.8346 205.289 44.1406 204.625 44.3555C203.961 44.5638 203.193 44.668 202.32 44.668C201.428 44.668 200.647 44.5638 199.977 44.3555C199.306 44.1406 198.785 43.8346 198.414 43.4375C198.049 43.0404 197.867 42.5716 197.867 42.0312C197.867 41.5039 198.053 41.0417 198.424 40.6445C198.795 40.2409 199.316 39.9284 199.986 39.707C200.657 39.4857 201.435 39.375 202.32 39.375ZM202.32 40.8203C201.578 40.8203 200.992 40.931 200.562 41.1523C200.133 41.3672 199.924 41.6602 199.938 42.0312C199.931 42.4023 200.139 42.6953 200.562 42.9102C200.992 43.1185 201.578 43.2227 202.32 43.2227C203.049 43.2227 203.629 43.1185 204.059 42.9102C204.488 42.6953 204.703 42.4023 204.703 42.0312C204.703 41.6602 204.485 41.3672 204.049 41.1523C203.619 40.931 203.043 40.8203 202.32 40.8203ZM220.814 45.5859H216.673V47.666C217.728 47.653 218.666 47.6139 219.486 47.5488C220.306 47.4772 221.153 47.3568 222.025 47.1875L222.24 48.9062C221.263 49.0951 220.3 49.222 219.349 49.2871C218.399 49.3457 217.201 49.375 215.755 49.375H214.564V43.9844H218.724V42.0898H214.545V40.3516H220.814V45.5859ZM228.92 51.1328H226.849V39.1016H228.92V51.1328ZM225.345 49.6484H223.295V45.0195H221.459V43.2812H223.295V39.4531H225.345V49.6484ZM223.959 50.6445C223.959 51.3086 224.196 51.9434 224.671 52.5488C225.153 53.1543 225.834 53.6751 226.712 54.1113C227.591 54.5475 228.614 54.8438 229.779 55L228.939 56.6406C227.552 56.4388 226.332 56.0417 225.277 55.4492C224.222 54.8633 223.421 54.1341 222.875 53.2617C222.321 54.1341 221.517 54.8633 220.462 55.4492C219.408 56.0417 218.19 56.4388 216.81 56.6406L215.97 55C217.129 54.8438 218.148 54.5508 219.027 54.1211C219.906 53.6849 220.583 53.1641 221.058 52.5586C221.54 51.9466 221.784 51.3086 221.791 50.6445V50.2734H223.959V50.6445Z" fill="black"/>
</svg>
